<?xml version="1.0" standalone="no"?><!DOCTYPE svg PUBLIC "-//W3C//DTD SVG 1.1//EN" "http://www.w3.org/Graphics/SVG/1.1/DTD/svg11.dtd"><svg t="1574867646297" class="icon" viewBox="0 0 1024 1024" version="1.1" xmlns="http://www.w3.org/2000/svg" p-id="6312" xmlns:xlink="http://www.w3.org/1999/xlink" width="32" height="32"><defs><style type="text/css"></style></defs><path d="M911.166 703H115.123c-23.147 0-41.979-18.841-41.979-42V195.004c0-23.159 18.832-42 41.979-42h796.043c23.147 0 41.979 18.841 41.979 42V661c0 23.159-18.832 42-41.979 42z m-788.021-50h780V203.004h-780V653z" p-id="6313" data-spm-anchor-id="a313x.7781069.0.i5" class="selected" fill="#0e932e"></path><path d="M538.145 804c0 9.389-8.273 17-18.479 17h-13.043c-10.205 0-18.479-7.611-18.479-17V679c0-9.389 8.273-17 18.479-17h13.043c10.205 0 18.479 7.611 18.479 17v125z" p-id="6314"></path><path d="M788.145 840c0 9.389-7.724 17-17.251 17H255.396c-9.527 0-17.251-7.611-17.251-17v-16c0-9.389 7.724-17 17.251-17h515.498c9.527 0 17.251 7.611 17.251 17v16zM192 273h628v300H192z" p-id="6315" data-spm-anchor-id="a313x.7781069.0.i1" class="selected" fill="#0e932e"></path></svg>