<?xml version="1.0" encoding="UTF-8" standalone="no"?>
<!-- Generator: Adobe Illustrator 22.0.0, SVG Export Plug-In . SVG Version: 6.00 Build 0)  -->

<svg
   xmlns:dc="http://purl.org/dc/elements/1.1/"
   xmlns:cc="http://creativecommons.org/ns#"
   xmlns:rdf="http://www.w3.org/1999/02/22-rdf-syntax-ns#"
   xmlns:svg="http://www.w3.org/2000/svg"
   xmlns="http://www.w3.org/2000/svg"
   xmlns:xlink="http://www.w3.org/1999/xlink"
   xmlns:sodipodi="http://sodipodi.sourceforge.net/DTD/sodipodi-0.dtd"
   xmlns:inkscape="http://www.inkscape.org/namespaces/inkscape"
   version="1.1"
   id="图层_1"
   x="0px"
   y="0px"
   viewBox="0 0 50 50"
   xml:space="preserve"
   sodipodi:docname="6 1.svg"
   width="50"
   height="50"
   inkscape:version="0.92.4 (5da689c313, 2019-01-14)"><metadata
   id="metadata291"><rdf:RDF><cc:Work
       rdf:about=""><dc:format>image/svg+xml</dc:format><dc:type
         rdf:resource="http://purl.org/dc/dcmitype/StillImage" /><dc:title></dc:title></cc:Work></rdf:RDF></metadata><defs
   id="defs289" /><sodipodi:namedview
   pagecolor="#ffffff"
   bordercolor="#666666"
   borderopacity="1"
   objecttolerance="10"
   gridtolerance="10"
   guidetolerance="10"
   inkscape:pageopacity="0"
   inkscape:pageshadow="2"
   inkscape:window-width="1366"
   inkscape:window-height="706"
   id="namedview287"
   showgrid="false"
   inkscape:zoom="4.9166667"
   inkscape:cx="24"
   inkscape:cy="24"
   inkscape:window-x="-8"
   inkscape:window-y="-8"
   inkscape:window-maximized="1"
   inkscape:current-layer="图层_1" />
<style
   type="text/css"
   id="style2">
	.st0{enable-background:new    ;}
	.st1{fill:url(#XMLID_2_);}
	.st2{fill:url(#XMLID_3_);}
	.st3{fill:url(#XMLID_4_);}
	.st4{fill:url(#XMLID_5_);}
	.st5{fill:url(#XMLID_6_);}
	.st6{fill:url(#XMLID_7_);}
	.st7{fill:#2A497D;}
	.st8{fill:url(#XMLID_8_);}
	.st9{fill:url(#SVGID_1_);}
	.st10{fill:url(#XMLID_9_);}
	.st11{clip-path:url(#SVGID_3_);}
	.st12{fill:#3E9E8E;}
	.st13{fill:#0F1045;}
	.st14{fill:#1B1E80;}
	.st15{fill:#121456;}
	.st16{fill:#009983;}
	.st17{fill:#00B99E;}
	.st18{fill:#00E5C4;}
	.st19{fill:url(#XMLID_10_);stroke:#1D2D5F;stroke-width:0.1;stroke-miterlimit:10;}
	.st20{fill:url(#XMLID_11_);stroke:#1D2D5F;stroke-width:0.1;stroke-miterlimit:10;}
	.st21{fill:url(#XMLID_12_);stroke:#1D2D5F;stroke-width:0.1;stroke-miterlimit:10;}
	.st22{fill:#343D96;}
	.st23{opacity:0.2;}
	.st24{fill:url(#XMLID_13_);}
	.st25{fill:url(#XMLID_14_);}
	.st26{fill:url(#XMLID_15_);}
	.st27{fill:url(#XMLID_16_);}
	.st28{fill:url(#XMLID_17_);}
</style>
<g
   id="XMLID_342_"
   transform="matrix(1.3902247,0,0,1.2033839,-8.5526133,-7.763322)">
	<g
   id="XMLID_343_"
   class="st0"
   style="enable-background:new">
		
			<linearGradient
   id="XMLID_2_"
   gradientUnits="userSpaceOnUse"
   x1="24.003"
   y1="13.705"
   x2="24.003"
   y2="0.99559999"
   gradientTransform="matrix(1,0,0,-1,0,49)">
			<stop
   offset="0"
   style="stop-color:#498DEA"
   id="stop4" />
			<stop
   offset="1"
   style="stop-color:#020D83"
   id="stop6" />
		</linearGradient>
		<path
   id="XMLID_346_"
   class="st1"
   d="m 41.192,35.368 c -0.002,0.023 -0.004,0.046 -0.008,0.069 -0.003,0.019 -0.009,0.037 -0.014,0.056 -0.006,0.022 -0.011,0.044 -0.019,0.066 -0.006,0.018 -0.015,0.036 -0.022,0.053 -0.01,0.023 -0.02,0.046 -0.032,0.068 -0.009,0.016 -0.019,0.032 -0.029,0.049 -0.016,0.026 -0.033,0.051 -0.051,0.076 -0.018,0.024 -0.037,0.048 -0.058,0.072 -0.005,0.006 -0.009,0.011 -0.015,0.017 -0.028,0.031 -0.059,0.061 -0.092,0.09 -0.021,0.019 -0.044,0.037 -0.067,0.056 -0.02,0.016 -0.04,0.033 -0.061,0.048 -0.025,0.018 -0.052,0.035 -0.079,0.052 -0.028,0.018 -0.054,0.036 -0.083,0.054 l -14.954,8.691 c -0.066,0.038 -0.135,0.072 -0.207,0.104 -0.021,0.009 -0.042,0.018 -0.063,0.027 -0.056,0.023 -0.113,0.045 -0.172,0.065 -0.021,0.007 -0.041,0.015 -0.063,0.022 -0.037,0.012 -0.075,0.022 -0.113,0.032 -0.029,0.008 -0.057,0.016 -0.086,0.023 -0.04,0.01 -0.081,0.018 -0.121,0.026 -0.027,0.006 -0.055,0.012 -0.082,0.017 -0.082,0.014 -0.165,0.026 -0.249,0.035 -0.026,0.003 -0.052,0.004 -0.078,0.007 -0.049,0.004 -0.098,0.008 -0.148,0.01 -0.032,10e-4 -0.063,0.002 -0.095,0.003 -0.04,10e-4 -0.08,10e-4 -0.12,10e-4 -0.034,0 -0.067,-10e-4 -0.1,-0.003 -0.037,-10e-4 -0.074,-0.003 -0.111,-0.006 -0.034,-0.002 -0.068,-0.005 -0.101,-0.008 -0.036,-0.004 -0.073,-0.008 -0.109,-0.012 -0.033,-0.004 -0.065,-0.009 -0.098,-0.014 -0.039,-0.006 -0.078,-0.013 -0.116,-0.02 -0.03,-0.006 -0.061,-0.012 -0.091,-0.018 -0.046,-0.01 -0.091,-0.021 -0.136,-0.033 -0.025,-0.007 -0.05,-0.013 -0.075,-0.02 -0.08,-0.024 -0.159,-0.05 -0.235,-0.079 C 22.801,45.029 22.765,45.013 22.728,44.997 22.709,44.989 22.69,44.981 22.671,44.972 22.616,44.946 22.562,44.918 22.51,44.888 L 7.458,36.198 C 7.026,35.949 6.811,35.622 6.812,35.295 L 6.804,38.04 c -0.001,0.327 0.215,0.654 0.646,0.903 l 15.052,8.69 c 0.052,0.03 0.105,0.058 0.161,0.084 0.018,0.009 0.038,0.016 0.057,0.025 0.033,0.015 0.065,0.03 0.099,0.043 0.004,0.002 0.008,0.003 0.012,0.004 0.076,0.03 0.155,0.056 0.235,0.079 0.006,0.002 0.012,0.005 0.019,0.006 0.018,0.005 0.038,0.009 0.056,0.014 0.045,0.012 0.09,0.023 0.136,0.033 0.012,0.003 0.024,0.006 0.036,0.009 0.018,0.004 0.037,0.006 0.055,0.01 0.038,0.007 0.077,0.014 0.116,0.02 0.016,0.002 0.031,0.006 0.047,0.008 0.017,0.002 0.034,0.004 0.052,0.006 0.036,0.005 0.072,0.009 0.109,0.012 0.018,0.002 0.035,0.004 0.052,0.006 0.016,0.001 0.033,0.001 0.049,0.003 0.037,0.003 0.074,0.004 0.111,0.006 0.019,0.001 0.037,0.003 0.056,0.003 0.015,0 0.03,0 0.045,0 0.04,0.001 0.08,0 0.12,-10e-4 0.02,0 0.04,0 0.06,0 0.012,0 0.024,-0.002 0.035,-0.002 0.049,-0.002 0.099,-0.006 0.148,-0.01 0.02,-0.002 0.04,-0.002 0.06,-0.004 0.006,-0.001 0.012,-0.002 0.018,-0.003 0.084,-0.009 0.167,-0.02 0.249,-0.035 0.004,-10e-4 0.008,-10e-4 0.012,-0.002 0.024,-0.004 0.047,-0.01 0.071,-0.015 0.04,-0.008 0.081,-0.016 0.121,-0.026 0.029,-0.007 0.058,-0.015 0.086,-0.023 0.038,-0.01 0.076,-0.02 0.113,-0.032 0.008,-0.002 0.016,-0.004 0.024,-0.007 0.013,-0.004 0.026,-0.01 0.039,-0.015 0.059,-0.02 0.116,-0.042 0.172,-0.065 0.021,-0.009 0.042,-0.017 0.063,-0.027 0.071,-0.032 0.141,-0.066 0.207,-0.104 l 14.954,-8.69 c 0.009,-0.005 0.018,-0.01 0.027,-0.016 0.02,-0.012 0.037,-0.025 0.056,-0.038 0.027,-0.017 0.054,-0.035 0.079,-0.053 0.022,-0.016 0.041,-0.032 0.061,-0.048 0.023,-0.018 0.046,-0.037 0.067,-0.055 0.004,-0.004 0.009,-0.007 0.014,-0.011 0.028,-0.026 0.054,-0.053 0.079,-0.079 0.005,-0.006 0.009,-0.011 0.014,-0.017 0.015,-0.017 0.029,-0.033 0.043,-0.05 0.006,-0.007 0.01,-0.015 0.015,-0.022 0.019,-0.025 0.036,-0.051 0.051,-0.076 0.007,-0.011 0.015,-0.021 0.022,-0.032 0.003,-0.005 0.005,-0.011 0.008,-0.017 0.012,-0.023 0.022,-0.045 0.032,-0.068 0.006,-0.013 0.014,-0.026 0.019,-0.04 0.002,-0.005 0.002,-0.009 0.004,-0.014 0.008,-0.022 0.013,-0.044 0.019,-0.065 0.004,-0.015 0.01,-0.029 0.013,-0.044 10e-4,-0.004 10e-4,-0.008 10e-4,-0.012 0.004,-0.023 0.006,-0.046 0.008,-0.069 10e-4,-0.015 0.005,-0.03 0.005,-0.045 0,-0.006 0,-0.013 0,-0.019 l 0.008,-2.745 c -0.005,0.017 -0.009,0.039 -0.01,0.06 z"
   inkscape:connector-curvature="0"
   style="fill:url(#XMLID_2_)" />
		<g
   id="XMLID_344_">
			
				<linearGradient
   id="XMLID_3_"
   gradientUnits="userSpaceOnUse"
   x1="6.8106999"
   y1="13.7015"
   x2="41.196602"
   y2="13.7015"
   gradientTransform="matrix(1,0,0,-1,0,49)">
				<stop
   offset="0"
   style="stop-color:#498DEA"
   id="stop10" />
				<stop
   offset="1"
   style="stop-color:#020D83"
   id="stop12" />
			</linearGradient>
			<path
   id="XMLID_345_"
   class="st2"
   d="m 40.55,34.401 c 0.858,0.495 0.863,1.298 0.01,1.794 l -14.954,8.691 c -0.852,0.495 -2.239,0.495 -3.097,0 L 7.457,36.196 C 6.599,35.701 6.595,34.898 7.447,34.402 l 14.954,-8.691 c 0.852,-0.495 2.238,-0.495 3.096,0 z"
   inkscape:connector-curvature="0"
   style="fill:url(#XMLID_3_)" />
		</g>
	</g>
</g>
<g
   id="XMLID_574_"
   transform="matrix(1.3902247,0,0,1.2033839,-8.5526133,-7.763322)">
	<g
   id="XMLID_575_"
   class="st0"
   style="enable-background:new">
		
			<linearGradient
   id="XMLID_4_"
   gradientUnits="userSpaceOnUse"
   x1="24.003"
   y1="13.705"
   x2="24.003"
   y2="0.99559999"
   gradientTransform="matrix(1,0,0,-1,0,49)">
			<stop
   offset="0"
   style="stop-color:#498DEA"
   id="stop19" />
			<stop
   offset="1"
   style="stop-color:#020D83"
   id="stop21" />
		</linearGradient>
		<path
   id="XMLID_578_"
   class="st3"
   d="m 41.192,35.368 c -0.002,0.023 -0.004,0.046 -0.008,0.069 -0.003,0.019 -0.009,0.037 -0.014,0.056 -0.006,0.022 -0.011,0.044 -0.019,0.066 -0.006,0.018 -0.015,0.036 -0.022,0.053 -0.01,0.023 -0.02,0.046 -0.032,0.068 -0.009,0.016 -0.019,0.032 -0.029,0.049 -0.016,0.026 -0.033,0.051 -0.051,0.076 -0.018,0.024 -0.037,0.048 -0.058,0.072 -0.005,0.006 -0.009,0.011 -0.015,0.017 -0.028,0.031 -0.059,0.061 -0.092,0.09 -0.021,0.019 -0.044,0.037 -0.067,0.056 -0.02,0.016 -0.04,0.033 -0.061,0.048 -0.025,0.018 -0.052,0.035 -0.079,0.052 -0.028,0.018 -0.054,0.036 -0.083,0.054 l -14.954,8.691 c -0.066,0.038 -0.135,0.072 -0.207,0.104 -0.021,0.009 -0.042,0.018 -0.063,0.027 -0.056,0.023 -0.113,0.045 -0.172,0.065 -0.021,0.007 -0.041,0.015 -0.063,0.022 -0.037,0.012 -0.075,0.022 -0.113,0.032 -0.029,0.008 -0.057,0.016 -0.086,0.023 -0.04,0.01 -0.081,0.018 -0.121,0.026 -0.027,0.006 -0.055,0.012 -0.082,0.017 -0.082,0.014 -0.165,0.026 -0.249,0.035 -0.026,0.003 -0.052,0.004 -0.078,0.007 -0.049,0.004 -0.098,0.008 -0.148,0.01 -0.032,10e-4 -0.063,0.002 -0.095,0.003 -0.04,10e-4 -0.08,10e-4 -0.12,10e-4 -0.034,0 -0.067,-10e-4 -0.1,-0.003 -0.037,-10e-4 -0.074,-0.003 -0.111,-0.006 -0.034,-0.002 -0.068,-0.005 -0.101,-0.008 -0.036,-0.004 -0.073,-0.008 -0.109,-0.012 -0.033,-0.004 -0.065,-0.009 -0.098,-0.014 -0.039,-0.006 -0.078,-0.013 -0.116,-0.02 -0.03,-0.006 -0.061,-0.012 -0.091,-0.018 -0.046,-0.01 -0.091,-0.021 -0.136,-0.033 -0.025,-0.007 -0.05,-0.013 -0.075,-0.02 -0.08,-0.024 -0.159,-0.05 -0.235,-0.079 C 22.801,45.029 22.765,45.013 22.728,44.997 22.709,44.989 22.69,44.981 22.671,44.972 22.616,44.946 22.562,44.918 22.51,44.888 L 7.458,36.198 C 7.026,35.949 6.811,35.622 6.812,35.295 L 6.804,38.04 c -0.001,0.327 0.215,0.654 0.646,0.903 l 15.052,8.69 c 0.052,0.03 0.105,0.058 0.161,0.084 0.018,0.009 0.038,0.016 0.057,0.025 0.033,0.015 0.065,0.03 0.099,0.043 0.004,0.002 0.008,0.003 0.012,0.004 0.076,0.03 0.155,0.056 0.235,0.079 0.006,0.002 0.012,0.005 0.019,0.006 0.018,0.005 0.038,0.009 0.056,0.014 0.045,0.012 0.09,0.023 0.136,0.033 0.012,0.003 0.024,0.006 0.036,0.009 0.018,0.004 0.037,0.006 0.055,0.01 0.038,0.007 0.077,0.014 0.116,0.02 0.016,0.002 0.031,0.006 0.047,0.008 0.017,0.002 0.034,0.004 0.052,0.006 0.036,0.005 0.072,0.009 0.109,0.012 0.018,0.002 0.035,0.004 0.052,0.006 0.016,0.001 0.033,0.001 0.049,0.003 0.037,0.003 0.074,0.004 0.111,0.006 0.019,0.001 0.037,0.003 0.056,0.003 0.015,0 0.03,0 0.045,0 0.04,0.001 0.08,0 0.12,-10e-4 0.02,0 0.04,0 0.06,0 0.012,0 0.024,-0.002 0.035,-0.002 0.049,-0.002 0.099,-0.006 0.148,-0.01 0.02,-0.002 0.04,-0.002 0.06,-0.004 0.006,-0.001 0.012,-0.002 0.018,-0.003 0.084,-0.009 0.167,-0.02 0.249,-0.035 0.004,-10e-4 0.008,-10e-4 0.012,-0.002 0.024,-0.004 0.047,-0.01 0.071,-0.015 0.04,-0.008 0.081,-0.016 0.121,-0.026 0.029,-0.007 0.058,-0.015 0.086,-0.023 0.038,-0.01 0.076,-0.02 0.113,-0.032 0.008,-0.002 0.016,-0.004 0.024,-0.007 0.013,-0.004 0.026,-0.01 0.039,-0.015 0.059,-0.02 0.116,-0.042 0.172,-0.065 0.021,-0.009 0.042,-0.017 0.063,-0.027 0.071,-0.032 0.141,-0.066 0.207,-0.104 l 14.954,-8.69 c 0.009,-0.005 0.018,-0.01 0.027,-0.016 0.02,-0.012 0.037,-0.025 0.056,-0.038 0.027,-0.017 0.054,-0.035 0.079,-0.053 0.022,-0.016 0.041,-0.032 0.061,-0.048 0.023,-0.018 0.046,-0.037 0.067,-0.055 0.004,-0.004 0.009,-0.007 0.014,-0.011 0.028,-0.026 0.054,-0.053 0.079,-0.079 0.005,-0.006 0.009,-0.011 0.014,-0.017 0.015,-0.017 0.029,-0.033 0.043,-0.05 0.006,-0.007 0.01,-0.015 0.015,-0.022 0.019,-0.025 0.036,-0.051 0.051,-0.076 0.007,-0.011 0.015,-0.021 0.022,-0.032 0.003,-0.005 0.005,-0.011 0.008,-0.017 0.012,-0.023 0.022,-0.045 0.032,-0.068 0.006,-0.013 0.014,-0.026 0.019,-0.04 0.002,-0.005 0.002,-0.009 0.004,-0.014 0.008,-0.022 0.013,-0.044 0.019,-0.065 0.004,-0.015 0.01,-0.029 0.013,-0.044 10e-4,-0.004 10e-4,-0.008 10e-4,-0.012 0.004,-0.023 0.006,-0.046 0.008,-0.069 10e-4,-0.015 0.005,-0.03 0.005,-0.045 0,-0.006 0,-0.013 0,-0.019 l 0.008,-2.745 c -0.005,0.017 -0.009,0.039 -0.01,0.06 z"
   inkscape:connector-curvature="0"
   style="fill:url(#XMLID_4_)" />
		<g
   id="XMLID_576_">
			
				<linearGradient
   id="XMLID_5_"
   gradientUnits="userSpaceOnUse"
   x1="6.8106999"
   y1="13.7015"
   x2="41.196602"
   y2="13.7015"
   gradientTransform="matrix(1,0,0,-1,0,49)">
				<stop
   offset="0"
   style="stop-color:#498DEA"
   id="stop25" />
				<stop
   offset="1"
   style="stop-color:#020D83"
   id="stop27" />
			</linearGradient>
			<path
   id="XMLID_577_"
   class="st4"
   d="m 40.55,34.401 c 0.858,0.495 0.863,1.298 0.01,1.794 l -14.954,8.691 c -0.852,0.495 -2.239,0.495 -3.097,0 L 7.457,36.196 C 6.599,35.701 6.595,34.898 7.447,34.402 l 14.954,-8.691 c 0.852,-0.495 2.238,-0.495 3.096,0 z"
   inkscape:connector-curvature="0"
   style="fill:url(#XMLID_5_)" />
		</g>
	</g>
</g>
<g
   id="XMLID_568_"
   transform="matrix(1.3902247,0,0,1.2033839,-8.5526133,-7.763322)">
	<g
   id="XMLID_570_"
   class="st0"
   style="enable-background:new">
		<radialGradient
   id="XMLID_6_"
   cx="24.003"
   cy="41.648701"
   r="12.9651"
   gradientUnits="userSpaceOnUse">
			<stop
   offset="0"
   style="stop-color:#F29B76"
   id="stop34" />
			<stop
   offset="0.1258"
   style="stop-color:#F08763"
   id="stop36" />
			<stop
   offset="0.5"
   style="stop-color:#EA502E"
   id="stop38" />
			<stop
   offset="0.7857"
   style="stop-color:#D82B24"
   id="stop40" />
			<stop
   offset="1"
   style="stop-color:#CD131E"
   id="stop42" />
		</radialGradient>
		<path
   id="XMLID_573_"
   class="st5"
   d="m 41.192,35.368 c -0.002,0.023 -0.004,0.046 -0.008,0.069 -0.003,0.019 -0.009,0.037 -0.014,0.056 -0.006,0.022 -0.011,0.044 -0.019,0.066 -0.006,0.018 -0.015,0.036 -0.022,0.053 -0.01,0.023 -0.02,0.046 -0.032,0.068 -0.009,0.016 -0.019,0.032 -0.029,0.049 -0.016,0.026 -0.033,0.051 -0.051,0.076 -0.018,0.024 -0.037,0.048 -0.058,0.072 -0.005,0.006 -0.009,0.011 -0.015,0.017 -0.028,0.031 -0.059,0.061 -0.092,0.09 -0.021,0.019 -0.044,0.037 -0.067,0.056 -0.02,0.016 -0.04,0.033 -0.061,0.048 -0.025,0.018 -0.052,0.035 -0.079,0.052 -0.028,0.018 -0.054,0.036 -0.083,0.054 l -14.954,8.69 c -0.066,0.038 -0.135,0.072 -0.207,0.104 -0.021,0.009 -0.042,0.018 -0.063,0.027 -0.056,0.023 -0.113,0.045 -0.172,0.065 -0.021,0.007 -0.041,0.015 -0.063,0.022 -0.037,0.012 -0.075,0.022 -0.113,0.032 -0.029,0.008 -0.057,0.016 -0.086,0.023 -0.04,0.01 -0.081,0.018 -0.121,0.026 -0.027,0.006 -0.055,0.012 -0.082,0.017 -0.082,0.014 -0.165,0.026 -0.249,0.035 -0.026,0.003 -0.052,0.004 -0.078,0.007 -0.049,0.004 -0.098,0.008 -0.148,0.01 -0.032,10e-4 -0.063,0.002 -0.095,0.003 -0.04,10e-4 -0.08,10e-4 -0.12,10e-4 -0.034,0 -0.067,-10e-4 -0.1,-0.003 C 23.874,45.252 23.837,45.25 23.8,45.247 23.766,45.245 23.732,45.242 23.699,45.239 23.663,45.235 23.626,45.231 23.59,45.227 23.557,45.223 23.525,45.218 23.492,45.213 23.453,45.207 23.414,45.2 23.376,45.193 c -0.03,-0.006 -0.061,-0.012 -0.091,-0.018 -0.046,-0.01 -0.091,-0.021 -0.136,-0.033 -0.025,-0.007 -0.05,-0.013 -0.075,-0.02 -0.08,-0.024 -0.159,-0.05 -0.235,-0.079 C 22.801,45.028 22.765,45.012 22.728,44.996 22.709,44.988 22.69,44.98 22.671,44.971 22.616,44.945 22.562,44.917 22.51,44.887 L 7.458,36.197 C 7.026,35.948 6.811,35.621 6.812,35.294 l -0.008,2.745 c -0.001,0.327 0.215,0.654 0.646,0.903 l 15.052,8.69 c 0.052,0.03 0.105,0.058 0.161,0.084 0.018,0.009 0.038,0.016 0.057,0.025 0.033,0.015 0.065,0.03 0.099,0.043 0.004,0.002 0.008,0.003 0.012,0.004 0.076,0.03 0.155,0.056 0.235,0.079 0.006,0.002 0.012,0.005 0.019,0.006 0.018,0.005 0.038,0.009 0.056,0.014 0.045,0.012 0.09,0.023 0.136,0.033 0.012,0.003 0.024,0.006 0.036,0.009 0.018,0.004 0.037,0.006 0.055,0.01 0.038,0.007 0.077,0.014 0.116,0.02 0.016,0.002 0.031,0.006 0.047,0.008 0.017,0.002 0.034,0.004 0.052,0.006 0.036,0.005 0.072,0.009 0.109,0.012 0.018,0.002 0.035,0.004 0.052,0.006 0.016,10e-4 0.033,10e-4 0.049,0.003 0.037,0.003 0.074,0.004 0.111,0.006 0.019,10e-4 0.037,0.003 0.056,0.003 0.015,0 0.03,0 0.045,0 0.04,10e-4 0.08,0 0.12,-10e-4 0.02,0 0.04,0 0.06,0 0.012,0 0.024,-0.002 0.035,-0.002 0.049,-0.002 0.099,-0.006 0.148,-0.01 0.02,-0.002 0.04,-0.002 0.06,-0.004 0.006,-10e-4 0.012,-0.002 0.018,-0.003 0.084,-0.009 0.167,-0.02 0.249,-0.035 0.004,-10e-4 0.008,-10e-4 0.012,-0.002 0.024,-0.004 0.047,-0.01 0.071,-0.015 0.04,-0.008 0.081,-0.016 0.121,-0.026 0.029,-0.007 0.058,-0.015 0.086,-0.023 0.038,-0.01 0.076,-0.02 0.113,-0.032 0.008,-0.002 0.016,-0.004 0.024,-0.007 0.013,-0.004 0.026,-0.01 0.039,-0.015 0.059,-0.02 0.116,-0.042 0.172,-0.065 0.021,-0.009 0.042,-0.017 0.063,-0.027 0.071,-0.032 0.141,-0.066 0.207,-0.104 l 14.954,-8.69 c 0.009,-0.005 0.018,-0.01 0.027,-0.016 0.02,-0.012 0.037,-0.025 0.056,-0.038 0.027,-0.017 0.054,-0.035 0.079,-0.053 0.022,-0.016 0.041,-0.032 0.061,-0.048 0.023,-0.018 0.046,-0.037 0.067,-0.055 0.004,-0.004 0.009,-0.007 0.014,-0.011 0.028,-0.026 0.054,-0.053 0.079,-0.079 0.005,-0.006 0.009,-0.011 0.014,-0.017 0.015,-0.017 0.029,-0.033 0.043,-0.05 0.006,-0.007 0.01,-0.015 0.015,-0.022 0.019,-0.025 0.036,-0.051 0.051,-0.076 0.007,-0.011 0.015,-0.021 0.022,-0.032 0.003,-0.005 0.005,-0.011 0.008,-0.017 0.012,-0.023 0.022,-0.045 0.032,-0.068 0.006,-0.013 0.014,-0.026 0.019,-0.04 0.002,-0.005 0.002,-0.009 0.004,-0.014 0.008,-0.022 0.013,-0.044 0.019,-0.065 0.004,-0.015 0.01,-0.029 0.013,-0.044 10e-4,-0.004 10e-4,-0.008 10e-4,-0.012 0.004,-0.023 0.006,-0.046 0.008,-0.069 10e-4,-0.015 0.005,-0.03 0.005,-0.045 0,-0.006 0,-0.013 0,-0.019 l 0.008,-2.745 c -0.005,0.018 -0.009,0.04 -0.01,0.061 z"
   inkscape:connector-curvature="0"
   style="fill:url(#XMLID_6_)" />
		<g
   id="XMLID_571_">
			<radialGradient
   id="XMLID_7_"
   cx="24.0037"
   cy="35.2985"
   r="14.0495"
   gradientUnits="userSpaceOnUse">
				<stop
   offset="0"
   style="stop-color:#F29B76"
   id="stop46" />
				<stop
   offset="0.1258"
   style="stop-color:#F08763"
   id="stop48" />
				<stop
   offset="0.5"
   style="stop-color:#EA502E"
   id="stop50" />
				<stop
   offset="0.7857"
   style="stop-color:#D82B24"
   id="stop52" />
				<stop
   offset="1"
   style="stop-color:#CD131E"
   id="stop54" />
			</radialGradient>
			<path
   id="XMLID_572_"
   class="st6"
   d="m 40.55,34.401 c 0.858,0.495 0.863,1.298 0.01,1.794 l -14.954,8.691 c -0.852,0.495 -2.239,0.495 -3.097,0 L 7.457,36.196 C 6.599,35.701 6.595,34.898 7.447,34.402 l 14.954,-8.691 c 0.852,-0.495 2.238,-0.495 3.096,0 z"
   inkscape:connector-curvature="0"
   style="fill:url(#XMLID_7_)" />
		</g>
	</g>
</g>
<g
   id="XMLID_198_"
   transform="matrix(1.3902247,0,0,1.2033839,-8.5526133,-7.763322)">
	<g
   id="XMLID_314_">
		<g
   id="XMLID_315_"
   class="st0"
   style="enable-background:new">
			<g
   id="XMLID_340_">
				<polygon
   id="XMLID_341_"
   class="st7"
   points="29.987,20.074 30.419,20.388 24.023,16.624 25.415,17.417 "
   style="fill:#2a497d" />
			</g>
			<g
   id="XMLID_320_">
				<radialGradient
   id="XMLID_8_"
   cx="15.312"
   cy="31.7215"
   r="6.5036998"
   gradientUnits="userSpaceOnUse">
					<stop
   offset="0"
   style="stop-color:#F29B76"
   id="stop63" />
					<stop
   offset="0.1258"
   style="stop-color:#F08763"
   id="stop65" />
					<stop
   offset="0.5"
   style="stop-color:#EA502E"
   id="stop67" />
					<stop
   offset="0.7857"
   style="stop-color:#D82B24"
   id="stop69" />
					<stop
   offset="1"
   style="stop-color:#CD131E"
   id="stop71" />
				</radialGradient>
				<polygon
   id="XMLID_321_"
   class="st8"
   points="18.496,26.867 18.524,40.34 12.128,36.653 12.1,23.103 "
   style="fill:url(#XMLID_8_)" />
			</g>
			<radialGradient
   id="SVGID_1_"
   cx="21.259501"
   cy="21.709499"
   r="7.4329"
   gradientUnits="userSpaceOnUse">
				<stop
   offset="0"
   style="stop-color:#F29B76"
   id="stop76" />
				<stop
   offset="0.1258"
   style="stop-color:#F08763"
   id="stop78" />
				<stop
   offset="0.5"
   style="stop-color:#EA502E"
   id="stop80" />
				<stop
   offset="0.7857"
   style="stop-color:#D82B24"
   id="stop82" />
				<stop
   offset="1"
   style="stop-color:#CD131E"
   id="stop84" />
			</radialGradient>
			<path
   class="st9"
   d="m 30.063,20.32 c 0.131,-0.013 0.253,0.009 0.356,0.068 L 24.023,16.624 C 23.991,16.606 23.957,16.591 23.922,16.58 23.897,16.572 23.872,16.566 23.846,16.561 L 23.844,16.56 c -0.021,-0.003 -0.041,-0.006 -0.063,-0.007 v 0 c -0.019,-0.001 -0.038,-0.001 -0.057,-0.001 l 0.038,0.022 c 0,0 -0.001,0 -0.001,0 l -0.037,-0.022 c -0.017,0 -0.035,0.001 -0.053,0.003 l 0.005,0.003 c -10e-4,0 -0.002,0 -0.002,0 l -0.002,-0.001 c -0.001,0 -0.002,0 -0.003,0 -0.002,0 -0.004,0 -0.006,0.001 -0.014,0.001 -0.027,0.003 -0.042,0.005 -0.016,0.002 -0.032,0.005 -0.048,0.009 -0.016,0.003 -0.031,0.007 -0.047,0.011 v 0 c -0.015,0.004 -0.03,0.009 -0.045,0.014 L 23.48,16.596 c -0.015,0.005 -0.03,0.01 -0.045,0.016 v 0 c -0.015,0.006 -0.03,0.012 -0.044,0.018 -0.015,0.006 -0.03,0.013 -0.045,0.02 -0.015,0.007 -0.03,0.014 -0.045,0.022 l 0.013,0.008 c 0,0 -0.001,0 -0.001,0 L 23.3,16.672 c -0.015,0.007 -0.03,0.015 -0.045,0.024 -0.004,0.002 -0.007,0.005 -0.011,0.007 h -0.001 l -11.143,6.4 6.396,3.764 11.143,-6.4 c 0.145,-0.084 0.286,-0.132 0.418,-0.146 0.002,0 0.004,-0.001 0.006,-0.001 z"
   id="path87"
   inkscape:connector-curvature="0"
   style="fill:url(#SVGID_1_)" />
			<g
   id="XMLID_316_">
				<radialGradient
   id="XMLID_9_"
   cx="25.3265"
   cy="30.3281"
   r="8.5700998"
   gradientUnits="userSpaceOnUse">
					<stop
   offset="0"
   style="stop-color:#F29B76"
   id="stop89" />
					<stop
   offset="0.1258"
   style="stop-color:#F08763"
   id="stop91" />
					<stop
   offset="0.5"
   style="stop-color:#EA502E"
   id="stop93" />
					<stop
   offset="0.7857"
   style="stop-color:#D82B24"
   id="stop95" />
					<stop
   offset="1"
   style="stop-color:#CD131E"
   id="stop97" />
				</radialGradient>
				<path
   id="XMLID_317_"
   class="st10"
   d="m 29.639,20.467 c 0.292,-0.169 0.573,-0.197 0.78,-0.079 l 1.392,0.793 c 0.208,0.118 0.325,0.373 0.326,0.709 l 0.02,10.611 -13.633,7.839 -0.028,-13.472 z"
   inkscape:connector-curvature="0"
   style="fill:url(#XMLID_9_)" />
			</g>
		</g>
	</g>
	<g
   id="XMLID_307_">
		<g
   id="XMLID_308_"
   class="st0"
   style="enable-background:new">
			<g
   id="g112">
				<defs
   id="defs105">
					<polygon
   id="SVGID_2_"
   points="31.162,32.162 20.498,38.286 20.476,26.982 29.316,19.75 " />
				</defs>
				<clipPath
   id="SVGID_3_">
					<use
   xlink:href="#SVGID_2_"
   style="overflow:visible"
   id="use107"
   x="0"
   y="0"
   width="100%"
   height="100%" />
				</clipPath>
				<g
   id="XMLID_310_"
   class="st11"
   clip-path="url(#SVGID_3_)">
					<path
   id="XMLID_311_"
   class="st12"
   d="m 20.521,38.246 -0.022,-11.251 8.624,-4.946 c 0.234,-0.135 0.455,-0.161 0.621,-0.073 l -0.703,-0.514 c 0.166,0.088 2.082,1.386 2.082,1.646 l 0.015,9.042 -10.617,6.096 m 8.602,-16.224 -8.647,4.959 0.022,11.304 10.664,-6.124 -0.015,-9.069 c -10e-4,-0.266 -1.919,-1.57 -2.09,-1.66 l 0.703,0.514 c -0.171,-0.089 -0.397,-0.062 -0.637,0.076"
   inkscape:connector-curvature="0"
   style="fill:#3e9e8e" />
				</g>
			</g>
		</g>
	</g>
	<g
   id="XMLID_226_">
		<g
   id="XMLID_299_">
			<g
   id="XMLID_300_"
   class="st0"
   style="enable-background:new">
				<g
   id="XMLID_305_">
					<polygon
   id="XMLID_306_"
   class="st13"
   points="17.628,34.891 17.628,34.796 17.738,34.732 17.738,34.827 "
   style="fill:#0f1045" />
				</g>
				<g
   id="XMLID_303_">
					<polygon
   id="XMLID_304_"
   class="st14"
   points="17.628,34.796 13.982,32.636 14.092,32.572 17.738,34.732 "
   style="fill:#1b1e80" />
				</g>
				<g
   id="XMLID_301_">
					<polygon
   id="XMLID_302_"
   class="st15"
   points="13.981,32.732 13.981,32.684 13.982,32.636 17.628,34.796 17.628,34.891 "
   style="fill:#121456" />
				</g>
			</g>
		</g>
		<g
   id="XMLID_291_">
			<g
   id="XMLID_292_"
   class="st0"
   style="enable-background:new">
				<g
   id="XMLID_297_">
					<polygon
   id="XMLID_298_"
   class="st13"
   points="17.628,34.148 17.628,34.053 17.738,33.988 17.738,34.084 "
   style="fill:#0f1045" />
				</g>
				<g
   id="XMLID_295_">
					<polygon
   id="XMLID_296_"
   class="st14"
   points="17.628,34.053 13.982,31.893 14.092,31.829 17.738,33.988 "
   style="fill:#1b1e80" />
				</g>
				<g
   id="XMLID_293_">
					<polygon
   id="XMLID_294_"
   class="st15"
   points="13.981,31.989 13.981,31.941 13.982,31.893 17.628,34.053 17.628,34.148 "
   style="fill:#121456" />
				</g>
			</g>
		</g>
		<g
   id="XMLID_283_">
			<g
   id="XMLID_284_"
   class="st0"
   style="enable-background:new">
				<g
   id="XMLID_289_">
					<polygon
   id="XMLID_290_"
   class="st13"
   points="17.628,33.405 17.628,33.309 17.738,33.245 17.738,33.341 "
   style="fill:#0f1045" />
				</g>
				<g
   id="XMLID_287_">
					<polygon
   id="XMLID_288_"
   class="st14"
   points="17.628,33.309 13.982,31.15 14.092,31.086 17.738,33.245 "
   style="fill:#1b1e80" />
				</g>
				<g
   id="XMLID_285_">
					<polygon
   id="XMLID_286_"
   class="st15"
   points="13.981,31.245 13.981,31.198 13.982,31.15 17.628,33.309 17.628,33.405 "
   style="fill:#121456" />
				</g>
			</g>
		</g>
		<g
   id="XMLID_275_">
			<g
   id="XMLID_276_"
   class="st0"
   style="enable-background:new">
				<g
   id="XMLID_281_">
					<polygon
   id="XMLID_282_"
   class="st13"
   points="17.628,32.661 17.628,32.566 17.738,32.502 17.738,32.597 "
   style="fill:#0f1045" />
				</g>
				<g
   id="XMLID_279_">
					<polygon
   id="XMLID_280_"
   class="st14"
   points="17.628,32.566 13.982,30.406 14.092,30.342 17.738,32.502 "
   style="fill:#1b1e80" />
				</g>
				<g
   id="XMLID_277_">
					<polygon
   id="XMLID_278_"
   class="st15"
   points="13.981,30.502 13.981,30.454 13.982,30.406 17.628,32.566 17.628,32.661 "
   style="fill:#121456" />
				</g>
			</g>
		</g>
		<g
   id="XMLID_267_">
			<g
   id="XMLID_268_"
   class="st0"
   style="enable-background:new">
				<g
   id="XMLID_273_">
					<polygon
   id="XMLID_274_"
   class="st13"
   points="17.628,31.918 17.628,31.823 17.738,31.759 17.738,31.854 "
   style="fill:#0f1045" />
				</g>
				<g
   id="XMLID_271_">
					<polygon
   id="XMLID_272_"
   class="st14"
   points="17.628,31.823 13.982,29.663 14.092,29.599 17.738,31.759 "
   style="fill:#1b1e80" />
				</g>
				<g
   id="XMLID_269_">
					<polygon
   id="XMLID_270_"
   class="st15"
   points="13.981,29.759 13.981,29.711 13.982,29.663 17.628,31.823 17.628,31.918 "
   style="fill:#121456" />
				</g>
			</g>
		</g>
		<g
   id="XMLID_259_">
			<g
   id="XMLID_260_"
   class="st0"
   style="enable-background:new">
				<g
   id="XMLID_265_">
					<polygon
   id="XMLID_266_"
   class="st13"
   points="17.628,31.175 17.628,31.079 17.738,31.015 17.738,31.111 "
   style="fill:#0f1045" />
				</g>
				<g
   id="XMLID_263_">
					<polygon
   id="XMLID_264_"
   class="st14"
   points="17.628,31.079 13.982,28.92 14.092,28.856 17.738,31.015 "
   style="fill:#1b1e80" />
				</g>
				<g
   id="XMLID_261_">
					<polygon
   id="XMLID_262_"
   class="st15"
   points="13.981,29.015 13.981,28.968 13.982,28.92 17.628,31.079 17.628,31.175 "
   style="fill:#121456" />
				</g>
			</g>
		</g>
		<g
   id="XMLID_251_">
			<g
   id="XMLID_252_"
   class="st0"
   style="enable-background:new">
				<g
   id="XMLID_257_">
					<polygon
   id="XMLID_258_"
   class="st13"
   points="17.628,30.432 17.628,30.336 17.738,30.272 17.738,30.367 "
   style="fill:#0f1045" />
				</g>
				<g
   id="XMLID_255_">
					<polygon
   id="XMLID_256_"
   class="st14"
   points="17.628,30.336 13.982,28.176 14.092,28.112 17.738,30.272 "
   style="fill:#1b1e80" />
				</g>
				<g
   id="XMLID_253_">
					<polygon
   id="XMLID_254_"
   class="st15"
   points="13.981,28.272 13.981,28.224 13.982,28.176 17.628,30.336 17.628,30.432 "
   style="fill:#121456" />
				</g>
			</g>
		</g>
		<g
   id="XMLID_243_">
			<g
   id="XMLID_244_"
   class="st0"
   style="enable-background:new">
				<g
   id="XMLID_249_">
					<polygon
   id="XMLID_250_"
   class="st13"
   points="17.628,29.688 17.628,29.593 17.738,29.529 17.738,29.624 "
   style="fill:#0f1045" />
				</g>
				<g
   id="XMLID_247_">
					<polygon
   id="XMLID_248_"
   class="st14"
   points="17.628,29.593 13.982,27.433 14.092,27.369 17.738,29.529 "
   style="fill:#1b1e80" />
				</g>
				<g
   id="XMLID_245_">
					<polygon
   id="XMLID_246_"
   class="st15"
   points="13.981,27.529 13.981,27.481 13.982,27.433 17.628,29.593 17.628,29.688 "
   style="fill:#121456" />
				</g>
			</g>
		</g>
		<g
   id="XMLID_235_">
			<g
   id="XMLID_236_"
   class="st0"
   style="enable-background:new">
				<g
   id="XMLID_241_">
					<polygon
   id="XMLID_242_"
   class="st13"
   points="17.628,28.945 17.628,28.849 17.738,28.785 17.738,28.881 "
   style="fill:#0f1045" />
				</g>
				<g
   id="XMLID_239_">
					<polygon
   id="XMLID_240_"
   class="st14"
   points="17.628,28.849 13.982,26.69 14.092,26.626 17.738,28.785 "
   style="fill:#1b1e80" />
				</g>
				<g
   id="XMLID_237_">
					<polygon
   id="XMLID_238_"
   class="st15"
   points="13.981,26.785 13.981,26.738 13.982,26.69 17.628,28.849 17.628,28.945 "
   style="fill:#121456" />
				</g>
			</g>
		</g>
		<g
   id="XMLID_227_">
			<g
   id="XMLID_228_"
   class="st0"
   style="enable-background:new">
				<g
   id="XMLID_233_">
					<polygon
   id="XMLID_234_"
   class="st13"
   points="17.628,28.202 17.628,28.106 17.738,28.042 17.738,28.138 "
   style="fill:#0f1045" />
				</g>
				<g
   id="XMLID_231_">
					<polygon
   id="XMLID_232_"
   class="st14"
   points="17.628,28.106 13.982,25.946 14.092,25.882 17.738,28.042 "
   style="fill:#1b1e80" />
				</g>
				<g
   id="XMLID_229_">
					<polygon
   id="XMLID_230_"
   class="st15"
   points="13.981,26.042 13.981,25.994 13.982,25.946 17.628,28.106 17.628,28.202 "
   style="fill:#121456" />
				</g>
			</g>
		</g>
	</g>
	<g
   id="XMLID_199_">
		<g
   id="XMLID_200_">
			<g
   id="XMLID_217_">
				<g
   id="XMLID_218_"
   class="st0"
   style="enable-background:new">
					<g
   id="XMLID_223_">
						<polygon
   id="XMLID_224_"
   class="st16"
   points="13.193,32.344 13.198,30.835 13.308,30.771 13.304,32.28 "
   style="fill:#009983" />
					</g>
					<g
   id="XMLID_221_">
						<polygon
   id="XMLID_222_"
   class="st17"
   points="13.198,30.835 12.848,30.633 12.958,30.569 13.308,30.771 "
   style="fill:#00b99e" />
					</g>
					<g
   id="XMLID_219_">
						<polygon
   id="XMLID_220_"
   class="st18"
   points="12.848,30.633 13.198,30.835 13.193,32.344 12.843,32.142 "
   style="fill:#00e5c4" />
					</g>
				</g>
			</g>
			<g
   id="XMLID_209_">
				<g
   id="XMLID_210_"
   class="st0"
   style="enable-background:new">
					<g
   id="XMLID_215_">
						<polygon
   id="XMLID_216_"
   class="st16"
   points="13.193,29.762 13.198,28.253 13.308,28.189 13.304,29.698 "
   style="fill:#009983" />
					</g>
					<g
   id="XMLID_213_">
						<polygon
   id="XMLID_214_"
   class="st17"
   points="13.198,28.253 12.848,28.051 12.958,27.987 13.308,28.189 "
   style="fill:#00b99e" />
					</g>
					<g
   id="XMLID_211_">
						<polygon
   id="XMLID_212_"
   class="st18"
   points="12.848,28.051 13.198,28.253 13.193,29.762 12.843,29.56 "
   style="fill:#00e5c4" />
					</g>
				</g>
			</g>
			<g
   id="XMLID_201_">
				<g
   id="XMLID_202_"
   class="st0"
   style="enable-background:new">
					<g
   id="XMLID_207_">
						<polygon
   id="XMLID_208_"
   class="st16"
   points="13.193,27.18 13.198,25.671 13.308,25.607 13.304,27.116 "
   style="fill:#009983" />
					</g>
					<g
   id="XMLID_205_">
						<polygon
   id="XMLID_206_"
   class="st17"
   points="13.198,25.671 12.848,25.469 12.958,25.405 13.308,25.607 "
   style="fill:#00b99e" />
					</g>
					<g
   id="XMLID_203_">
						<polygon
   id="XMLID_204_"
   class="st18"
   points="12.848,25.469 13.198,25.671 13.193,27.18 12.843,26.978 "
   style="fill:#00e5c4" />
					</g>
				</g>
			</g>
		</g>
	</g>
</g>
<g
   id="XMLID_177_"
   transform="matrix(1.3902247,0,0,1.2033839,-8.5526133,-7.763322)">
	<g
   id="XMLID_469_">
		
			<radialGradient
   id="XMLID_10_"
   cx="24.6945"
   cy="12.6825"
   r="5.0579"
   gradientTransform="matrix(1,0,0,-1,0,49)"
   gradientUnits="userSpaceOnUse">
			<stop
   offset="0"
   style="stop-color:#FFFEFD"
   id="stop224" />
			<stop
   offset="1"
   style="stop-color:#DE3627"
   id="stop226" />
		</radialGradient>
		<polygon
   id="XMLID_470_"
   class="st19"
   points="28.083,34.036 28.107,42.604 21.306,38.666 21.282,30.031 "
   style="fill:url(#XMLID_10_);stroke:#1d2d5f;stroke-width:0.1;stroke-miterlimit:10" />
	</g>
	<g
   id="XMLID_467_">
		<radialGradient
   id="XMLID_11_"
   cx="25.564501"
   cy="31.526501"
   r="3.5093999"
   gradientUnits="userSpaceOnUse">
			<stop
   offset="0"
   style="stop-color:#F29B76"
   id="stop231" />
			<stop
   offset="0.1258"
   style="stop-color:#F08763"
   id="stop233" />
			<stop
   offset="0.5"
   style="stop-color:#EA502E"
   id="stop235" />
			<stop
   offset="0.7857"
   style="stop-color:#D82B24"
   id="stop237" />
			<stop
   offset="1"
   style="stop-color:#CD131E"
   id="stop239" />
		</radialGradient>
		<polygon
   id="XMLID_356_"
   class="st20"
   points="28.082,34.035 21.454,30.13 21.282,30.03 21.454,29.932 23.047,29.018 29.847,33.021 "
   style="fill:url(#XMLID_11_);stroke:#1d2d5f;stroke-width:0.1;stroke-miterlimit:10" />
	</g>
	<g
   id="XMLID_465_">
		
			<radialGradient
   id="XMLID_12_"
   cx="28.981001"
   cy="11.1875"
   r="3.4472001"
   gradientTransform="matrix(1,0,0,-1,0,49)"
   gradientUnits="userSpaceOnUse">
			<stop
   offset="0"
   style="stop-color:#FFFEFD"
   id="stop244" />
			<stop
   offset="1"
   style="stop-color:#DE3627"
   id="stop246" />
		</radialGradient>
		<polygon
   id="XMLID_354_"
   class="st21"
   points="28.082,34.035 29.847,33.021 29.855,33.027 29.88,41.586 28.107,42.604 "
   style="fill:url(#XMLID_12_);stroke:#1d2d5f;stroke-width:0.1;stroke-miterlimit:10" />
	</g>
	<path
   id="XMLID_369_"
   class="st22"
   d="m 28.082,38.342 0.027,-0.045 -1.221,-0.719 v -2.449 l 1.195,0.704 0.027,-0.045 -3.786,-2.23 V 31.805 H 24.27 v 1.722 l -2.963,-1.745 -0.027,0.045 1.79,1.054 v 2.449 l -1.764,-1.039 -0.027,0.045 1.79,1.054 v 0.026 h 0.044 l 1.766,1.04 v 2.288 l -3.586,-2.112 -0.027,0.045 1.474,0.868 v 1.978 h 0.052 v -1.947 l 2.086,1.228 v 0.027 h 0.046 l 1.622,0.955 v 1.902 h 0.052 v -1.871 l 1.469,0.865 0.027,-0.045 -3.163,-1.863 v -2.288 z m -4.959,-5.43 1.147,0.675 v 0.004 h 0.007 l 2.558,1.507 v 2.449 l -3.712,-2.186 z"
   inkscape:connector-curvature="0"
   style="fill:#343d96" />
</g>
<g
   id="XMLID_558_"
   class="st23"
   style="opacity:0.2"
   transform="matrix(1.3902247,0,0,1.2033839,-8.5526133,-7.763322)">
	<g
   id="XMLID_565_">
		
			<linearGradient
   id="XMLID_13_"
   gradientUnits="userSpaceOnUse"
   x1="23.585501"
   y1="3.7722001"
   x2="23.585501"
   y2="3.7709999"
   gradientTransform="matrix(1,0,0,-1,0,49)">
			<stop
   offset="0"
   style="stop-color:#498DEA"
   id="stop253" />
			<stop
   offset="1"
   style="stop-color:#020D83"
   id="stop255" />
		</linearGradient>
		<polygon
   id="XMLID_567_"
   class="st24"
   points="23.582,45.228 23.586,45.228 23.589,45.229 "
   style="fill:url(#XMLID_13_)" />
		
			<linearGradient
   id="XMLID_14_"
   gradientUnits="userSpaceOnUse"
   x1="15.413"
   y1="48.997002"
   x2="15.413"
   y2="3.74"
   gradientTransform="matrix(1,0,0,-1,0,49)">
			<stop
   offset="0.202"
   style="stop-color:#00CBD4;stop-opacity:0"
   id="stop259" />
			<stop
   offset="1"
   style="stop-color:#00F4FF"
   id="stop261" />
		</linearGradient>
		<path
   id="XMLID_566_"
   class="st25"
   d="m 24.022,45.259 v 0 c -0.019,10e-4 -0.036,0 -0.053,-10e-4 -0.019,0 -0.037,-0.002 -0.055,-0.002 H 23.907 C 23.871,45.255 23.836,45.254 23.8,45.251 23.765,45.249 23.732,45.245 23.698,45.242 23.662,45.238 23.625,45.235 23.589,45.23 c -0.002,0 -0.005,0 -0.007,-10e-4 -0.03,-0.004 -0.061,-0.007 -0.091,-0.012 -0.001,0 -0.002,0 -0.004,-10e-4 -0.005,0 -0.01,-10e-4 -0.015,-0.002 -0.03,-0.005 -0.058,-0.01 -0.087,-0.015 -0.004,-10e-4 -0.007,-10e-4 -0.011,-0.002 -0.002,0 -0.005,-0.001 -0.007,-0.001 -0.027,-0.005 -0.056,-0.01 -0.083,-0.016 -0.016,-0.004 -0.031,-0.007 -0.046,-0.011 -0.029,-0.007 -0.057,-0.014 -0.084,-0.021 -0.001,0 -0.004,-0.001 -0.005,-0.001 -0.026,-0.007 -0.051,-0.014 -0.076,-0.021 -0.03,-0.009 -0.06,-0.017 -0.088,-0.027 -0.019,-0.006 -0.037,-0.012 -0.056,-0.019 -0.03,-0.011 -0.061,-0.022 -0.091,-0.033 -0.004,-10e-4 -0.007,-0.002 -0.011,-0.004 -0.035,-0.014 -0.067,-0.027 -0.1,-0.042 -0.076,-0.032 -0.148,-0.069 -0.217,-0.109 L 7.458,36.202 C 7.162,36.031 6.967,35.824 6.874,35.604 6.859,35.567 6.847,35.53 6.838,35.492 6.834,35.478 6.831,35.466 6.828,35.454 6.821,35.419 6.817,35.385 6.814,35.35 c 0,-0.004 -0.001,-0.007 -0.001,-0.01 0,-0.004 -10e-4,-0.006 -10e-4,-0.01 L 6.808,36.528 6.804,36.526 6.839,0.003 23.998,9.647 24.009,25.344 Z"
   inkscape:connector-curvature="0"
   style="fill:url(#XMLID_14_)" />
	</g>
	<g
   id="XMLID_559_">
		
			<linearGradient
   id="XMLID_15_"
   gradientUnits="userSpaceOnUse"
   x1="23.9995"
   y1="13.675"
   x2="23.9995"
   y2="1"
   gradientTransform="matrix(1,0,0,-1,0,49)">
			<stop
   offset="0"
   style="stop-color:#498DEA"
   id="stop266" />
			<stop
   offset="1"
   style="stop-color:#020D83"
   id="stop268" />
		</linearGradient>
		<path
   id="XMLID_563_"
   class="st26"
   d="m 41.197,35.332 v 0.255 l -0.002,0.936 -0.005,1.528 v 0.02 c 0,0.015 -0.004,0.03 -0.005,0.045 -0.002,0.022 -0.004,0.046 -0.007,0.069 -10e-4,0.004 -10e-4,0.007 -10e-4,0.011 -0.004,0.015 -0.009,0.03 -0.014,0.045 -0.005,0.021 -0.011,0.043 -0.019,0.064 -10e-4,0.005 -0.002,0.01 -0.004,0.014 -0.005,0.014 -0.012,0.027 -0.019,0.04 -0.01,0.024 -0.02,0.046 -0.032,0.068 -0.002,0.006 -0.004,0.011 -0.007,0.017 -0.006,0.011 -0.015,0.021 -0.021,0.032 -0.016,0.025 -0.033,0.051 -0.052,0.076 -0.005,0.007 -0.009,0.015 -0.015,0.022 -0.014,0.017 -0.029,0.033 -0.042,0.05 -0.005,0.006 -0.01,0.012 -0.015,0.017 -0.025,0.027 -0.051,0.053 -0.078,0.079 -0.005,0.004 -0.01,0.007 -0.014,0.011 -0.021,0.019 -0.045,0.037 -0.068,0.056 -0.02,0.016 -0.038,0.032 -0.061,0.048 -0.025,0.017 -0.052,0.035 -0.078,0.052 -0.02,0.012 -0.037,0.026 -0.057,0.038 -0.009,0.005 -0.017,0.01 -0.027,0.015 L 25.6,47.63 c -0.066,0.038 -0.135,0.073 -0.207,0.105 -0.02,0.009 -0.041,0.017 -0.062,0.026 -0.056,0.024 -0.113,0.046 -0.172,0.066 -0.012,0.004 -0.025,0.01 -0.038,0.015 -0.007,0.002 -0.016,0.004 -0.025,0.006 -0.036,0.012 -0.074,0.022 -0.112,0.032 -0.03,0.007 -0.057,0.016 -0.087,0.024 -0.04,0.01 -0.081,0.017 -0.12,0.026 -0.024,0.005 -0.047,0.01 -0.071,0.015 -0.005,0 -0.009,10e-4 -0.012,10e-4 -0.082,0.015 -0.165,0.026 -0.249,0.035 -0.006,10e-4 -0.012,0.002 -0.019,0.002 -0.02,0.002 -0.04,0.002 -0.06,0.004 -0.048,0.005 -0.098,0.009 -0.148,0.01 -0.011,10e-4 -0.024,0.002 -0.035,0.002 -0.02,10e-4 -0.04,0 -0.061,10e-4 H 23.958 C 23.939,48 23.921,47.998 23.902,47.998 23.865,47.997 23.828,47.994 23.792,47.992 23.775,47.991 23.759,47.991 23.742,47.99 23.725,47.989 23.707,47.985 23.69,47.984 23.653,47.98 23.617,47.977 23.581,47.972 23.564,47.971 23.546,47.97 23.529,47.967 23.514,47.965 23.498,47.961 23.483,47.958 23.443,47.952 23.405,47.946 23.366,47.938 23.349,47.934 23.33,47.932 23.311,47.928 23.299,47.926 23.287,47.922 23.275,47.919 23.229,47.909 23.184,47.898 23.14,47.886 23.121,47.881 23.102,47.877 23.083,47.872 23.077,47.871 23.071,47.867 23.064,47.866 22.983,47.842 22.905,47.816 22.828,47.787 22.824,47.786 22.821,47.785 22.817,47.783 22.782,47.769 22.75,47.754 22.718,47.74 22.699,47.731 22.68,47.724 22.661,47.715 22.606,47.689 22.552,47.662 22.501,47.631 L 7.448,38.941 C 7.016,38.692 6.802,38.366 6.802,38.038 l 0.005,-1.515 0.004,-1.198 c 0,0.004 0.001,0.006 0.001,0.01 0.002,0.069 0.016,0.139 0.04,0.208 0.006,0.019 0.014,0.037 0.021,0.056 0.093,0.219 0.288,0.427 0.584,0.598 l 15.052,8.69 c 0.069,0.04 0.141,0.077 0.217,0.109 0.033,0.015 0.066,0.029 0.1,0.042 0.033,0.014 0.067,0.026 0.102,0.037 0.019,0.006 0.037,0.012 0.056,0.019 0.082,0.029 0.166,0.052 0.253,0.071 0.015,0.004 0.03,0.007 0.046,0.011 0.033,0.007 0.067,0.015 0.102,0.02 0.033,0.007 0.067,0.014 0.102,0.017 0.001,10e-4 0.002,10e-4 0.004,10e-4 0.03,0.005 0.061,0.009 0.091,0.012 0.002,10e-4 0.005,10e-4 0.007,10e-4 0.036,0.005 0.073,0.009 0.109,0.012 0.033,0.005 0.068,0.007 0.102,0.009 0.019,0.001 0.038,0.002 0.057,0.004 0.055,0.004 0.109,0.005 0.165,0.006 h 0.016 c 0.139,10e-4 0.277,-0.006 0.413,-0.021 0.079,-0.007 0.159,-0.02 0.237,-0.033 0.004,0 0.009,0 0.012,-10e-4 0.005,-0.001 0.01,-0.002 0.015,-0.002 0.063,-0.012 0.126,-0.025 0.188,-0.041 0.068,-0.015 0.135,-0.033 0.2,-0.055 0.048,-0.015 0.097,-0.031 0.143,-0.05 0.029,-0.011 0.055,-0.022 0.082,-0.033 0.004,-10e-4 0.006,-0.002 0.01,-0.004 0.021,-0.009 0.042,-0.017 0.063,-0.027 0.029,-0.012 0.056,-0.026 0.084,-0.04 0.041,-0.02 0.082,-0.041 0.122,-0.064 l 14.955,-8.69 c 0.03,-0.017 0.056,-0.036 0.083,-0.053 0.002,-10e-4 0.005,-0.004 0.009,-0.006 0.024,-0.016 0.047,-0.032 0.069,-0.047 0.02,-0.012 0.036,-0.027 0.055,-0.042 0.002,-0.002 0.005,-0.004 0.007,-0.006 0.019,-0.014 0.037,-0.029 0.055,-0.043 0.006,-0.005 0.011,-0.01 0.017,-0.016 0.015,-0.014 0.029,-0.027 0.043,-0.041 0.015,-0.015 0.03,-0.03 0.043,-0.045 0.001,-0.001 0.001,-0.001 0.001,-0.002 0.005,-0.005 0.01,-0.011 0.014,-0.015 0.01,-0.011 0.019,-0.022 0.027,-0.035 0.005,-0.006 0.01,-0.012 0.015,-0.019 0.006,-0.006 0.011,-0.012 0.015,-0.019 0.012,-0.015 0.021,-0.031 0.031,-0.046 0.007,-0.011 0.015,-0.021 0.021,-0.031 0.01,-0.016 0.021,-0.032 0.03,-0.048 0.022,-0.04 0.041,-0.081 0.055,-0.122 0.004,-0.011 0.006,-0.021 0.01,-0.032 0.004,-0.011 0.006,-0.022 0.009,-0.033 10e-4,-0.004 0.002,-0.009 0.004,-0.012 0.004,-0.015 0.007,-0.029 0.01,-0.043 10e-4,-0.005 10e-4,-0.011 10e-4,-0.016 0.006,-0.031 0.01,-0.062 0.011,-0.093 z"
   inkscape:connector-curvature="0"
   style="fill:url(#XMLID_15_)" />
		
			<linearGradient
   id="XMLID_16_"
   gradientUnits="userSpaceOnUse"
   x1="32.597"
   y1="48.997002"
   x2="32.597"
   y2="3.7439001"
   gradientTransform="matrix(1,0,0,-1,0,49)">
			<stop
   offset="0.202"
   style="stop-color:#00CBD4;stop-opacity:0"
   id="stop272" />
			<stop
   offset="1"
   style="stop-color:#00F4FF"
   id="stop274" />
		</linearGradient>
		<path
   id="XMLID_562_"
   class="st27"
   d="m 41.197,35.332 c -0.001,0.031 -0.005,0.062 -0.011,0.092 0,0.005 0,0.011 -10e-4,0.016 -0.002,0.015 -0.006,0.029 -0.01,0.043 -10e-4,0.004 -0.002,0.009 -0.004,0.012 -0.002,0.011 -0.006,0.022 -0.009,0.033 -0.004,0.011 -0.006,0.021 -0.01,0.032 -0.014,0.041 -0.032,0.082 -0.055,0.122 -0.009,0.016 -0.02,0.032 -0.03,0.048 -0.006,0.01 -0.014,0.02 -0.021,0.031 -0.01,0.015 -0.019,0.031 -0.031,0.046 -0.004,0.006 -0.009,0.012 -0.015,0.019 -0.005,0.006 -0.01,0.012 -0.015,0.019 -0.009,0.012 -0.017,0.024 -0.027,0.035 -0.004,0.004 -0.009,0.01 -0.014,0.015 0,10e-4 0,10e-4 -0.001,0.002 -0.014,0.015 -0.029,0.03 -0.043,0.045 -0.015,0.014 -0.029,0.027 -0.043,0.041 -0.006,0.006 -0.011,0.011 -0.017,0.016 -0.017,0.015 -0.036,0.03 -0.055,0.043 -0.002,0.002 -0.005,0.004 -0.007,0.006 -0.017,0.014 -0.036,0.027 -0.055,0.042 -0.022,0.015 -0.046,0.031 -0.069,0.047 -0.004,0.002 -0.006,0.005 -0.009,0.006 -0.027,0.017 -0.053,0.036 -0.083,0.053 l -14.955,8.69 c -0.04,0.024 -0.081,0.045 -0.122,0.064 -0.029,0.014 -0.056,0.027 -0.084,0.04 -0.021,0.01 -0.042,0.019 -0.063,0.027 -0.004,10e-4 -0.006,0.002 -0.01,0.004 -0.027,0.011 -0.053,0.022 -0.082,0.033 -0.046,0.019 -0.094,0.035 -0.143,0.05 -0.037,0.011 -0.076,0.021 -0.113,0.032 -0.029,0.007 -0.057,0.016 -0.087,0.022 -0.062,0.016 -0.125,0.029 -0.188,0.041 -0.005,0 -0.01,0.001 -0.015,0.002 -0.004,10e-4 -0.009,10e-4 -0.012,10e-4 -0.078,0.014 -0.157,0.026 -0.237,0.033 -0.136,0.015 -0.274,0.022 -0.413,0.021 V 45.255 L 24.016,25.34 23.997,9.647 41.163,0.003 41.196,35.276 Z"
   inkscape:connector-curvature="0"
   style="fill:url(#XMLID_16_)" />
		
			<linearGradient
   id="XMLID_17_"
   gradientUnits="userSpaceOnUse"
   x1="41.195999"
   y1="13.412"
   x2="41.195999"
   y2="12.476"
   gradientTransform="matrix(1,0,0,-1,0,49)">
			<stop
   offset="0.202"
   style="stop-color:#00CBD4;stop-opacity:0"
   id="stop278" />
			<stop
   offset="1"
   style="stop-color:#00F4FF"
   id="stop280" />
		</linearGradient>
		<polygon
   id="XMLID_561_"
   class="st28"
   points="41.194,36.524 41.197,35.588 41.198,36.521 "
   style="fill:url(#XMLID_17_)" />
	</g>
</g>
</svg>