<?xml version="1.0" encoding="UTF-8" standalone="no"?>
<!-- Generator: Adobe Illustrator 22.0.0, SVG Export Plug-In . SVG Version: 6.00 Build 0)  -->

<svg
   xmlns:dc="http://purl.org/dc/elements/1.1/"
   xmlns:cc="http://creativecommons.org/ns#"
   xmlns:rdf="http://www.w3.org/1999/02/22-rdf-syntax-ns#"
   xmlns:svg="http://www.w3.org/2000/svg"
   xmlns="http://www.w3.org/2000/svg"
   xmlns:xlink="http://www.w3.org/1999/xlink"
   xmlns:sodipodi="http://sodipodi.sourceforge.net/DTD/sodipodi-0.dtd"
   xmlns:inkscape="http://www.inkscape.org/namespaces/inkscape"
   version="1.1"
   id="图层_1"
   x="0px"
   y="0px"
   viewBox="0 0 50 50"
   xml:space="preserve"
   sodipodi:docname="firewall-32n1.svg"
   width="50"
   height="50"
   inkscape:version="0.92.4 (5da689c313, 2019-01-14)"><metadata
   id="metadata361"><rdf:RDF><cc:Work
       rdf:about=""><dc:format>image/svg+xml</dc:format><dc:type
         rdf:resource="http://purl.org/dc/dcmitype/StillImage" /><dc:title></dc:title></cc:Work></rdf:RDF></metadata><defs
   id="defs359" /><sodipodi:namedview
   pagecolor="#ffffff"
   bordercolor="#666666"
   borderopacity="1"
   objecttolerance="10"
   gridtolerance="10"
   guidetolerance="10"
   inkscape:pageopacity="0"
   inkscape:pageshadow="2"
   inkscape:window-width="1366"
   inkscape:window-height="706"
   id="namedview357"
   showgrid="false"
   inkscape:zoom="4.9166667"
   inkscape:cx="24"
   inkscape:cy="24"
   inkscape:window-x="-8"
   inkscape:window-y="-8"
   inkscape:window-maximized="1"
   inkscape:current-layer="图层_1" />
<style
   type="text/css"
   id="style2">
	.st0{enable-background:new    ;}
	.st1{fill:url(#XMLID_2_);}
	.st2{fill:url(#XMLID_3_);}
	.st3{fill:url(#XMLID_4_);}
	.st4{fill:url(#XMLID_5_);}
	.st5{fill:url(#XMLID_6_);}
	.st6{fill:url(#XMLID_7_);}
	.st7{fill:#2A497D;}
	.st8{clip-path:url(#XMLID_9_);enable-background:new    ;}
	.st9{fill:url(#XMLID_10_);}
	.st10{fill:url(#XMLID_11_);}
	.st11{fill:url(#XMLID_12_);}
	.st12{fill:url(#XMLID_13_);}
	.st13{fill:url(#XMLID_14_);}
	.st14{fill:url(#XMLID_15_);}
	.st15{fill:url(#XMLID_16_);}
	.st16{fill:url(#XMLID_17_);}
	.st17{fill:url(#XMLID_18_);}
	.st18{fill:url(#XMLID_19_);}
	.st19{fill:url(#XMLID_20_);}
	.st20{fill:url(#XMLID_21_);}
	.st21{fill:url(#XMLID_22_);}
	.st22{fill:url(#XMLID_23_);}
	.st23{fill:url(#XMLID_24_);}
	.st24{fill:url(#XMLID_25_);}
	.st25{fill:url(#XMLID_26_);}
	.st26{fill:url(#XMLID_27_);}
	.st27{clip-path:url(#XMLID_28_);}
	.st28{fill:#3E9E8E;}
	.st29{fill:#0F1045;}
	.st30{fill:#1B1E80;}
	.st31{fill:#121456;}
	.st32{fill:#009983;}
	.st33{fill:#00B99E;}
	.st34{fill:#00E5C4;}
	.st35{fill:url(#XMLID_29_);stroke:#1D2D5F;stroke-width:0.1;stroke-miterlimit:10;}
	.st36{fill:url(#XMLID_30_);stroke:#1D2D5F;stroke-width:0.1;stroke-miterlimit:10;}
	.st37{fill:url(#XMLID_31_);stroke:#1D2D5F;stroke-width:0.1;stroke-miterlimit:10;}
	.st38{fill:#343D96;}
	.st39{opacity:0.2;}
	.st40{fill:url(#XMLID_32_);}
	.st41{fill:url(#XMLID_33_);}
	.st42{fill:url(#XMLID_34_);}
	.st43{fill:url(#XMLID_35_);}
	.st44{fill:url(#XMLID_36_);}
</style>
<g
   id="g354"
   transform="matrix(1.3961257,0,0,1.2372663,-8.3889659,-9.5932204)">
	<g
   id="XMLID_342_">
		<g
   id="XMLID_343_"
   class="st0"
   style="enable-background:new">
			<linearGradient
   id="XMLID_2_"
   gradientUnits="userSpaceOnUse"
   x1="24.000299"
   y1="35.2915"
   x2="24.000299"
   y2="48">
				<stop
   offset="0"
   style="stop-color:#498DEA"
   id="stop4" />
				<stop
   offset="1"
   style="stop-color:#020D83"
   id="stop6" />
			</linearGradient>
			<path
   id="XMLID_346_"
   class="st1"
   d="m 41.192,35.368 c -0.002,0.023 -0.004,0.046 -0.008,0.069 -0.003,0.019 -0.009,0.037 -0.014,0.056 -0.006,0.022 -0.011,0.044 -0.019,0.066 -0.006,0.018 -0.015,0.036 -0.022,0.053 -0.01,0.023 -0.02,0.046 -0.032,0.068 -0.009,0.016 -0.019,0.032 -0.029,0.049 -0.016,0.026 -0.033,0.051 -0.051,0.076 -0.018,0.024 -0.037,0.048 -0.058,0.072 -0.005,0.006 -0.009,0.011 -0.015,0.017 -0.028,0.031 -0.059,0.061 -0.092,0.09 -0.021,0.019 -0.044,0.037 -0.067,0.056 -0.02,0.016 -0.04,0.033 -0.061,0.048 -0.025,0.018 -0.052,0.035 -0.079,0.052 -0.028,0.018 -0.054,0.036 -0.083,0.054 l -14.954,8.691 c -0.066,0.038 -0.135,0.072 -0.207,0.104 -0.021,0.009 -0.042,0.018 -0.063,0.027 -0.056,0.023 -0.113,0.045 -0.172,0.065 -0.021,0.007 -0.041,0.015 -0.063,0.022 -0.037,0.012 -0.075,0.022 -0.113,0.032 -0.029,0.008 -0.057,0.016 -0.086,0.023 -0.04,0.01 -0.081,0.018 -0.121,0.026 -0.027,0.006 -0.055,0.012 -0.082,0.017 -0.082,0.014 -0.165,0.026 -0.249,0.035 -0.026,0.003 -0.052,0.004 -0.078,0.007 -0.049,0.004 -0.098,0.008 -0.148,0.01 -0.032,10e-4 -0.063,0.002 -0.095,0.003 -0.04,10e-4 -0.08,10e-4 -0.12,10e-4 -0.034,0 -0.067,-10e-4 -0.1,-0.003 -0.037,-10e-4 -0.074,-0.003 -0.111,-0.006 -0.034,-0.002 -0.068,-0.005 -0.101,-0.008 -0.036,-0.004 -0.073,-0.008 -0.109,-0.012 -0.033,-0.004 -0.065,-0.009 -0.098,-0.014 -0.039,-0.006 -0.078,-0.013 -0.116,-0.02 -0.03,-0.006 -0.061,-0.012 -0.091,-0.018 -0.046,-0.01 -0.091,-0.021 -0.136,-0.033 -0.025,-0.007 -0.05,-0.013 -0.075,-0.02 -0.08,-0.024 -0.159,-0.05 -0.235,-0.079 C 22.801,45.029 22.765,45.013 22.728,44.997 22.709,44.989 22.69,44.981 22.671,44.972 22.616,44.946 22.562,44.918 22.51,44.888 L 7.458,36.198 C 7.026,35.949 6.811,35.622 6.812,35.295 L 6.804,38.04 c -0.001,0.327 0.215,0.654 0.646,0.903 l 15.052,8.69 c 0.052,0.03 0.105,0.058 0.161,0.084 0.018,0.009 0.038,0.016 0.057,0.025 0.033,0.015 0.065,0.03 0.099,0.043 0.004,0.002 0.008,0.003 0.012,0.004 0.076,0.03 0.155,0.056 0.235,0.079 0.006,0.002 0.012,0.005 0.019,0.006 0.018,0.005 0.038,0.009 0.056,0.014 0.045,0.012 0.09,0.023 0.136,0.033 0.012,0.003 0.024,0.006 0.036,0.009 0.018,0.004 0.037,0.006 0.055,0.01 0.038,0.007 0.077,0.014 0.116,0.02 0.016,0.002 0.031,0.006 0.047,0.008 0.017,0.002 0.034,0.004 0.052,0.006 0.036,0.005 0.072,0.009 0.109,0.012 0.018,0.002 0.035,0.004 0.052,0.006 0.016,0.001 0.033,0.001 0.049,0.003 0.037,0.003 0.074,0.004 0.111,0.006 0.019,0.001 0.037,0.003 0.056,0.003 0.015,0 0.03,0 0.045,0 0.04,0.001 0.08,0 0.12,-10e-4 0.02,0 0.04,0 0.06,0 0.012,0 0.024,-0.002 0.035,-0.002 0.049,-0.002 0.099,-0.006 0.148,-0.01 0.02,-0.002 0.04,-0.002 0.06,-0.004 0.006,-0.001 0.012,-0.002 0.018,-0.003 0.084,-0.009 0.167,-0.02 0.249,-0.035 0.004,-10e-4 0.008,-10e-4 0.012,-0.002 0.024,-0.004 0.047,-0.01 0.071,-0.015 0.04,-0.008 0.081,-0.016 0.121,-0.026 0.029,-0.007 0.058,-0.015 0.086,-0.023 0.038,-0.01 0.076,-0.02 0.113,-0.032 0.008,-0.002 0.016,-0.004 0.024,-0.007 0.013,-0.004 0.026,-0.01 0.039,-0.015 0.059,-0.02 0.116,-0.042 0.172,-0.065 0.021,-0.009 0.042,-0.017 0.063,-0.027 0.071,-0.032 0.141,-0.066 0.207,-0.104 l 14.954,-8.69 c 0.009,-0.005 0.018,-0.01 0.027,-0.016 0.02,-0.012 0.037,-0.025 0.056,-0.038 0.027,-0.017 0.054,-0.035 0.079,-0.053 0.022,-0.016 0.041,-0.032 0.061,-0.048 0.023,-0.018 0.046,-0.037 0.067,-0.055 0.004,-0.004 0.009,-0.007 0.014,-0.011 0.028,-0.026 0.054,-0.053 0.079,-0.079 0.005,-0.006 0.009,-0.011 0.014,-0.017 0.015,-0.017 0.029,-0.033 0.043,-0.05 0.006,-0.007 0.01,-0.015 0.015,-0.022 0.019,-0.025 0.036,-0.051 0.051,-0.076 0.007,-0.011 0.015,-0.021 0.022,-0.032 0.003,-0.005 0.005,-0.011 0.008,-0.017 0.012,-0.023 0.022,-0.045 0.032,-0.068 0.006,-0.013 0.014,-0.026 0.019,-0.04 0.002,-0.005 0.002,-0.009 0.004,-0.014 0.008,-0.022 0.013,-0.044 0.019,-0.065 0.004,-0.015 0.01,-0.029 0.013,-0.044 10e-4,-0.004 10e-4,-0.008 10e-4,-0.012 0.004,-0.023 0.006,-0.046 0.008,-0.069 10e-4,-0.015 0.005,-0.03 0.005,-0.045 0,-0.006 0,-0.013 0,-0.019 l 0.008,-2.745 c -0.005,0.017 -0.009,0.039 -0.01,0.06 z"
   inkscape:connector-curvature="0"
   style="fill:url(#XMLID_2_)" />
			<g
   id="XMLID_344_">
				<linearGradient
   id="XMLID_3_"
   gradientUnits="userSpaceOnUse"
   x1="6.8115001"
   y1="35.2976"
   x2="41.196999"
   y2="35.2976">
					<stop
   offset="0"
   style="stop-color:#498DEA"
   id="stop10" />
					<stop
   offset="1"
   style="stop-color:#020D83"
   id="stop12" />
				</linearGradient>
				<path
   id="XMLID_345_"
   class="st2"
   d="m 40.55,34.401 c 0.858,0.495 0.863,1.298 0.01,1.794 l -14.954,8.691 c -0.852,0.495 -2.239,0.495 -3.097,0 L 7.457,36.196 C 6.599,35.701 6.595,34.898 7.447,34.402 l 14.954,-8.691 c 0.852,-0.495 2.238,-0.495 3.096,0 z"
   inkscape:connector-curvature="0"
   style="fill:url(#XMLID_3_)" />
			</g>
		</g>
	</g>
	<g
   id="XMLID_574_">
		<g
   id="XMLID_575_"
   class="st0"
   style="enable-background:new">
			<linearGradient
   id="XMLID_4_"
   gradientUnits="userSpaceOnUse"
   x1="24.000299"
   y1="35.2915"
   x2="24.000299"
   y2="48">
				<stop
   offset="0"
   style="stop-color:#498DEA"
   id="stop19" />
				<stop
   offset="1"
   style="stop-color:#020D83"
   id="stop21" />
			</linearGradient>
			<path
   id="XMLID_578_"
   class="st3"
   d="m 41.192,35.368 c -0.002,0.023 -0.004,0.046 -0.008,0.069 -0.003,0.019 -0.009,0.037 -0.014,0.056 -0.006,0.022 -0.011,0.044 -0.019,0.066 -0.006,0.018 -0.015,0.036 -0.022,0.053 -0.01,0.023 -0.02,0.046 -0.032,0.068 -0.009,0.016 -0.019,0.032 -0.029,0.049 -0.016,0.026 -0.033,0.051 -0.051,0.076 -0.018,0.024 -0.037,0.048 -0.058,0.072 -0.005,0.006 -0.009,0.011 -0.015,0.017 -0.028,0.031 -0.059,0.061 -0.092,0.09 -0.021,0.019 -0.044,0.037 -0.067,0.056 -0.02,0.016 -0.04,0.033 -0.061,0.048 -0.025,0.018 -0.052,0.035 -0.079,0.052 -0.028,0.018 -0.054,0.036 -0.083,0.054 l -14.954,8.691 c -0.066,0.038 -0.135,0.072 -0.207,0.104 -0.021,0.009 -0.042,0.018 -0.063,0.027 -0.056,0.023 -0.113,0.045 -0.172,0.065 -0.021,0.007 -0.041,0.015 -0.063,0.022 -0.037,0.012 -0.075,0.022 -0.113,0.032 -0.029,0.008 -0.057,0.016 -0.086,0.023 -0.04,0.01 -0.081,0.018 -0.121,0.026 -0.027,0.006 -0.055,0.012 -0.082,0.017 -0.082,0.014 -0.165,0.026 -0.249,0.035 -0.026,0.003 -0.052,0.004 -0.078,0.007 -0.049,0.004 -0.098,0.008 -0.148,0.01 -0.032,10e-4 -0.063,0.002 -0.095,0.003 -0.04,10e-4 -0.08,10e-4 -0.12,10e-4 -0.034,0 -0.067,-10e-4 -0.1,-0.003 -0.037,-10e-4 -0.074,-0.003 -0.111,-0.006 -0.034,-0.002 -0.068,-0.005 -0.101,-0.008 -0.036,-0.004 -0.073,-0.008 -0.109,-0.012 -0.033,-0.004 -0.065,-0.009 -0.098,-0.014 -0.039,-0.006 -0.078,-0.013 -0.116,-0.02 -0.03,-0.006 -0.061,-0.012 -0.091,-0.018 -0.046,-0.01 -0.091,-0.021 -0.136,-0.033 -0.025,-0.007 -0.05,-0.013 -0.075,-0.02 -0.08,-0.024 -0.159,-0.05 -0.235,-0.079 C 22.801,45.029 22.765,45.013 22.728,44.997 22.709,44.989 22.69,44.981 22.671,44.972 22.616,44.946 22.562,44.918 22.51,44.888 L 7.458,36.198 C 7.026,35.949 6.811,35.622 6.812,35.295 L 6.804,38.04 c -0.001,0.327 0.215,0.654 0.646,0.903 l 15.052,8.69 c 0.052,0.03 0.105,0.058 0.161,0.084 0.018,0.009 0.038,0.016 0.057,0.025 0.033,0.015 0.065,0.03 0.099,0.043 0.004,0.002 0.008,0.003 0.012,0.004 0.076,0.03 0.155,0.056 0.235,0.079 0.006,0.002 0.012,0.005 0.019,0.006 0.018,0.005 0.038,0.009 0.056,0.014 0.045,0.012 0.09,0.023 0.136,0.033 0.012,0.003 0.024,0.006 0.036,0.009 0.018,0.004 0.037,0.006 0.055,0.01 0.038,0.007 0.077,0.014 0.116,0.02 0.016,0.002 0.031,0.006 0.047,0.008 0.017,0.002 0.034,0.004 0.052,0.006 0.036,0.005 0.072,0.009 0.109,0.012 0.018,0.002 0.035,0.004 0.052,0.006 0.016,0.001 0.033,0.001 0.049,0.003 0.037,0.003 0.074,0.004 0.111,0.006 0.019,0.001 0.037,0.003 0.056,0.003 0.015,0 0.03,0 0.045,0 0.04,0.001 0.08,0 0.12,-10e-4 0.02,0 0.04,0 0.06,0 0.012,0 0.024,-0.002 0.035,-0.002 0.049,-0.002 0.099,-0.006 0.148,-0.01 0.02,-0.002 0.04,-0.002 0.06,-0.004 0.006,-0.001 0.012,-0.002 0.018,-0.003 0.084,-0.009 0.167,-0.02 0.249,-0.035 0.004,-10e-4 0.008,-10e-4 0.012,-0.002 0.024,-0.004 0.047,-0.01 0.071,-0.015 0.04,-0.008 0.081,-0.016 0.121,-0.026 0.029,-0.007 0.058,-0.015 0.086,-0.023 0.038,-0.01 0.076,-0.02 0.113,-0.032 0.008,-0.002 0.016,-0.004 0.024,-0.007 0.013,-0.004 0.026,-0.01 0.039,-0.015 0.059,-0.02 0.116,-0.042 0.172,-0.065 0.021,-0.009 0.042,-0.017 0.063,-0.027 0.071,-0.032 0.141,-0.066 0.207,-0.104 l 14.954,-8.69 c 0.009,-0.005 0.018,-0.01 0.027,-0.016 0.02,-0.012 0.037,-0.025 0.056,-0.038 0.027,-0.017 0.054,-0.035 0.079,-0.053 0.022,-0.016 0.041,-0.032 0.061,-0.048 0.023,-0.018 0.046,-0.037 0.067,-0.055 0.004,-0.004 0.009,-0.007 0.014,-0.011 0.028,-0.026 0.054,-0.053 0.079,-0.079 0.005,-0.006 0.009,-0.011 0.014,-0.017 0.015,-0.017 0.029,-0.033 0.043,-0.05 0.006,-0.007 0.01,-0.015 0.015,-0.022 0.019,-0.025 0.036,-0.051 0.051,-0.076 0.007,-0.011 0.015,-0.021 0.022,-0.032 0.003,-0.005 0.005,-0.011 0.008,-0.017 0.012,-0.023 0.022,-0.045 0.032,-0.068 0.006,-0.013 0.014,-0.026 0.019,-0.04 0.002,-0.005 0.002,-0.009 0.004,-0.014 0.008,-0.022 0.013,-0.044 0.019,-0.065 0.004,-0.015 0.01,-0.029 0.013,-0.044 10e-4,-0.004 10e-4,-0.008 10e-4,-0.012 0.004,-0.023 0.006,-0.046 0.008,-0.069 10e-4,-0.015 0.005,-0.03 0.005,-0.045 0,-0.006 0,-0.013 0,-0.019 l 0.008,-2.745 c -0.005,0.017 -0.009,0.039 -0.01,0.06 z"
   inkscape:connector-curvature="0"
   style="fill:url(#XMLID_4_)" />
			<g
   id="XMLID_576_">
				<linearGradient
   id="XMLID_5_"
   gradientUnits="userSpaceOnUse"
   x1="6.8115001"
   y1="35.2976"
   x2="41.196999"
   y2="35.2976">
					<stop
   offset="0"
   style="stop-color:#498DEA"
   id="stop25" />
					<stop
   offset="1"
   style="stop-color:#020D83"
   id="stop27" />
				</linearGradient>
				<path
   id="XMLID_577_"
   class="st4"
   d="m 40.55,34.401 c 0.858,0.495 0.863,1.298 0.01,1.794 l -14.954,8.691 c -0.852,0.495 -2.239,0.495 -3.097,0 L 7.457,36.196 C 6.599,35.701 6.595,34.898 7.447,34.402 l 14.954,-8.691 c 0.852,-0.495 2.238,-0.495 3.096,0 z"
   inkscape:connector-curvature="0"
   style="fill:url(#XMLID_5_)" />
			</g>
		</g>
	</g>
	<g
   id="XMLID_568_">
		<g
   id="XMLID_570_"
   class="st0"
   style="enable-background:new">
			<linearGradient
   id="XMLID_6_"
   gradientUnits="userSpaceOnUse"
   x1="24.000299"
   y1="35.2915"
   x2="24.000299"
   y2="48">
				<stop
   offset="0"
   style="stop-color:#498DEA"
   id="stop34" />
				<stop
   offset="1"
   style="stop-color:#020D83"
   id="stop36" />
			</linearGradient>
			<path
   id="XMLID_573_"
   class="st5"
   d="m 41.192,35.368 c -0.002,0.023 -0.004,0.046 -0.008,0.069 -0.003,0.019 -0.009,0.037 -0.014,0.056 -0.006,0.022 -0.011,0.044 -0.019,0.066 -0.006,0.018 -0.015,0.036 -0.022,0.053 -0.01,0.023 -0.02,0.046 -0.032,0.068 -0.009,0.016 -0.019,0.032 -0.029,0.049 -0.016,0.026 -0.033,0.051 -0.051,0.076 -0.018,0.024 -0.037,0.048 -0.058,0.072 -0.005,0.006 -0.009,0.011 -0.015,0.017 -0.028,0.031 -0.059,0.061 -0.092,0.09 -0.021,0.019 -0.044,0.037 -0.067,0.056 -0.02,0.016 -0.04,0.033 -0.061,0.048 -0.025,0.018 -0.052,0.035 -0.079,0.052 -0.028,0.018 -0.054,0.036 -0.083,0.054 l -14.954,8.69 c -0.066,0.038 -0.135,0.072 -0.207,0.104 -0.021,0.009 -0.042,0.018 -0.063,0.027 -0.056,0.023 -0.113,0.045 -0.172,0.065 -0.021,0.007 -0.041,0.015 -0.063,0.022 -0.037,0.012 -0.075,0.022 -0.113,0.032 -0.029,0.008 -0.057,0.016 -0.086,0.023 -0.04,0.01 -0.081,0.018 -0.121,0.026 -0.027,0.006 -0.055,0.012 -0.082,0.017 -0.082,0.014 -0.165,0.026 -0.249,0.035 -0.026,0.003 -0.052,0.004 -0.078,0.007 -0.049,0.004 -0.098,0.008 -0.148,0.01 -0.032,10e-4 -0.063,0.002 -0.095,0.003 -0.04,10e-4 -0.08,10e-4 -0.12,10e-4 -0.034,0 -0.067,-10e-4 -0.1,-0.003 C 23.874,45.252 23.837,45.25 23.8,45.247 23.766,45.245 23.732,45.242 23.699,45.239 23.663,45.235 23.626,45.231 23.59,45.227 23.557,45.223 23.525,45.218 23.492,45.213 23.453,45.207 23.414,45.2 23.376,45.193 c -0.03,-0.006 -0.061,-0.012 -0.091,-0.018 -0.046,-0.01 -0.091,-0.021 -0.136,-0.033 -0.025,-0.007 -0.05,-0.013 -0.075,-0.02 -0.08,-0.024 -0.159,-0.05 -0.235,-0.079 C 22.801,45.028 22.765,45.012 22.728,44.996 22.709,44.988 22.69,44.98 22.671,44.971 22.616,44.945 22.562,44.917 22.51,44.887 L 7.458,36.197 C 7.026,35.948 6.811,35.621 6.812,35.294 l -0.008,2.745 c -0.001,0.327 0.215,0.654 0.646,0.903 l 15.052,8.69 c 0.052,0.03 0.105,0.058 0.161,0.084 0.018,0.009 0.038,0.016 0.057,0.025 0.033,0.015 0.065,0.03 0.099,0.043 0.004,0.002 0.008,0.003 0.012,0.004 0.076,0.03 0.155,0.056 0.235,0.079 0.006,0.002 0.012,0.005 0.019,0.006 0.018,0.005 0.038,0.009 0.056,0.014 0.045,0.012 0.09,0.023 0.136,0.033 0.012,0.003 0.024,0.006 0.036,0.009 0.018,0.004 0.037,0.006 0.055,0.01 0.038,0.007 0.077,0.014 0.116,0.02 0.016,0.002 0.031,0.006 0.047,0.008 0.017,0.002 0.034,0.004 0.052,0.006 0.036,0.005 0.072,0.009 0.109,0.012 0.018,0.002 0.035,0.004 0.052,0.006 0.016,10e-4 0.033,10e-4 0.049,0.003 0.037,0.003 0.074,0.004 0.111,0.006 0.019,10e-4 0.037,0.003 0.056,0.003 0.015,0 0.03,0 0.045,0 0.04,10e-4 0.08,0 0.12,-10e-4 0.02,0 0.04,0 0.06,0 0.012,0 0.024,-0.002 0.035,-0.002 0.049,-0.002 0.099,-0.006 0.148,-0.01 0.02,-0.002 0.04,-0.002 0.06,-0.004 0.006,-10e-4 0.012,-0.002 0.018,-0.003 0.084,-0.009 0.167,-0.02 0.249,-0.035 0.004,-10e-4 0.008,-10e-4 0.012,-0.002 0.024,-0.004 0.047,-0.01 0.071,-0.015 0.04,-0.008 0.081,-0.016 0.121,-0.026 0.029,-0.007 0.058,-0.015 0.086,-0.023 0.038,-0.01 0.076,-0.02 0.113,-0.032 0.008,-0.002 0.016,-0.004 0.024,-0.007 0.013,-0.004 0.026,-0.01 0.039,-0.015 0.059,-0.02 0.116,-0.042 0.172,-0.065 0.021,-0.009 0.042,-0.017 0.063,-0.027 0.071,-0.032 0.141,-0.066 0.207,-0.104 l 14.954,-8.69 c 0.009,-0.005 0.018,-0.01 0.027,-0.016 0.02,-0.012 0.037,-0.025 0.056,-0.038 0.027,-0.017 0.054,-0.035 0.079,-0.053 0.022,-0.016 0.041,-0.032 0.061,-0.048 0.023,-0.018 0.046,-0.037 0.067,-0.055 0.004,-0.004 0.009,-0.007 0.014,-0.011 0.028,-0.026 0.054,-0.053 0.079,-0.079 0.005,-0.006 0.009,-0.011 0.014,-0.017 0.015,-0.017 0.029,-0.033 0.043,-0.05 0.006,-0.007 0.01,-0.015 0.015,-0.022 0.019,-0.025 0.036,-0.051 0.051,-0.076 0.007,-0.011 0.015,-0.021 0.022,-0.032 0.003,-0.005 0.005,-0.011 0.008,-0.017 0.012,-0.023 0.022,-0.045 0.032,-0.068 0.006,-0.013 0.014,-0.026 0.019,-0.04 0.002,-0.005 0.002,-0.009 0.004,-0.014 0.008,-0.022 0.013,-0.044 0.019,-0.065 0.004,-0.015 0.01,-0.029 0.013,-0.044 10e-4,-0.004 10e-4,-0.008 10e-4,-0.012 0.004,-0.023 0.006,-0.046 0.008,-0.069 10e-4,-0.015 0.005,-0.03 0.005,-0.045 0,-0.006 0,-0.013 0,-0.019 l 0.008,-2.745 c -0.005,0.018 -0.009,0.04 -0.01,0.061 z"
   inkscape:connector-curvature="0"
   style="fill:url(#XMLID_6_)" />
			<g
   id="XMLID_571_">
				<linearGradient
   id="XMLID_7_"
   gradientUnits="userSpaceOnUse"
   x1="6.8115001"
   y1="35.2976"
   x2="41.196999"
   y2="35.2976">
					<stop
   offset="0"
   style="stop-color:#498DEA"
   id="stop40" />
					<stop
   offset="1"
   style="stop-color:#020D83"
   id="stop42" />
				</linearGradient>
				<path
   id="XMLID_572_"
   class="st6"
   d="m 40.55,34.401 c 0.858,0.495 0.863,1.298 0.01,1.794 l -14.954,8.691 c -0.852,0.495 -2.239,0.495 -3.097,0 L 7.457,36.196 C 6.599,35.701 6.595,34.898 7.447,34.402 l 14.954,-8.691 c 0.852,-0.495 2.238,-0.495 3.096,0 z"
   inkscape:connector-curvature="0"
   style="fill:url(#XMLID_7_)" />
			</g>
		</g>
	</g>
	<g
   id="XMLID_198_">
		<g
   id="XMLID_314_">
			<g
   id="XMLID_315_"
   class="st0"
   style="enable-background:new">
				<g
   id="XMLID_340_">
					<polygon
   id="XMLID_341_"
   class="st7"
   points="24.023,16.624 25.415,17.417 29.987,20.074 30.419,20.388 "
   style="fill:#2a497d" />
				</g>
				<g
   id="XMLID_322_">
					<defs
   id="defs52">
						<path
   id="XMLID_323_"
   d="m 29.639,20.467 -6.396,-3.764 c 0.292,-0.169 0.573,-0.197 0.78,-0.079 l 6.396,3.764 c -0.208,-0.118 -0.488,-0.09 -0.78,0.079 z"
   inkscape:connector-curvature="0" />
					</defs>
					<linearGradient
   id="XMLID_8_"
   gradientUnits="userSpaceOnUse"
   x1="26.961201"
   y1="18.319799"
   x2="26.700899"
   y2="18.7707">
						<stop
   offset="0"
   style="stop-color:#6DB0BC"
   id="stop54" />
						<stop
   offset="1"
   style="stop-color:#4F8EFE"
   id="stop56" />
					</linearGradient>
					<use
   xlink:href="#XMLID_323_"
   style="overflow:visible;fill:url(#XMLID_8_)"
   id="use59"
   x="0"
   y="0"
   width="100%"
   height="100%" />
					<clipPath
   id="XMLID_9_">
						<use
   xlink:href="#XMLID_323_"
   style="overflow:visible"
   id="use61"
   x="0"
   y="0"
   width="100%"
   height="100%" />
					</clipPath>
					<g
   id="XMLID_324_"
   class="st8"
   clip-path="url(#XMLID_9_)"
   style="enable-background:new">
						<linearGradient
   id="XMLID_10_"
   gradientUnits="userSpaceOnUse"
   x1="26.4655"
   y1="18.549"
   x2="26.428301"
   y2="18.6133">
							<stop
   offset="0"
   style="stop-color:#6DB0BC"
   id="stop64" />
							<stop
   offset="1"
   style="stop-color:#4F8EFE"
   id="stop66" />
						</linearGradient>
						<path
   id="XMLID_339_"
   class="st9"
   d="m 29.639,20.467 -6.396,-3.764 c 0.004,-0.002 0.008,-0.005 0.012,-0.007 l 6.396,3.764 c -0.004,0.002 -0.008,0.004 -0.012,0.007"
   inkscape:connector-curvature="0"
   style="fill:url(#XMLID_10_)" />
						<linearGradient
   id="XMLID_11_"
   gradientUnits="userSpaceOnUse"
   x1="26.5021"
   y1="18.5196"
   x2="26.4491"
   y2="18.6113">
							<stop
   offset="0"
   style="stop-color:#6DB0BC"
   id="stop70" />
							<stop
   offset="1"
   style="stop-color:#4F8EFE"
   id="stop72" />
						</linearGradient>
						<path
   id="XMLID_338_"
   class="st10"
   d="m 29.651,20.46 -6.396,-3.764 c 0.015,-0.009 0.03,-0.017 0.045,-0.024 l 6.396,3.764 c -0.015,0.007 -0.03,0.015 -0.045,0.024"
   inkscape:connector-curvature="0"
   style="fill:url(#XMLID_11_)" />
						<linearGradient
   id="XMLID_12_"
   gradientUnits="userSpaceOnUse"
   x1="26.546499"
   y1="18.497299"
   x2="26.494699"
   y2="18.587099">
							<stop
   offset="0"
   style="stop-color:#6DB0BC"
   id="stop76" />
							<stop
   offset="1"
   style="stop-color:#4F8EFE"
   id="stop78" />
						</linearGradient>
						<path
   id="XMLID_337_"
   class="st11"
   d="M 29.696,20.435 23.3,16.671 c 0.015,-0.008 0.03,-0.015 0.045,-0.022 l 6.396,3.764 c -0.015,0.007 -0.03,0.015 -0.045,0.022"
   inkscape:connector-curvature="0"
   style="fill:url(#XMLID_12_)" />
						<linearGradient
   id="XMLID_13_"
   gradientUnits="userSpaceOnUse"
   x1="26.590799"
   y1="18.4771"
   x2="26.5399"
   y2="18.565201">
							<stop
   offset="0"
   style="stop-color:#6DB0BC"
   id="stop82" />
							<stop
   offset="1"
   style="stop-color:#4F8EFE"
   id="stop84" />
						</linearGradient>
						<path
   id="XMLID_336_"
   class="st12"
   d="m 29.741,20.413 -6.396,-3.764 c 0.015,-0.007 0.03,-0.014 0.045,-0.02 l 6.396,3.764 c -0.015,0.007 -0.03,0.013 -0.045,0.02"
   inkscape:connector-curvature="0"
   style="fill:url(#XMLID_13_)" />
						<linearGradient
   id="XMLID_14_"
   gradientUnits="userSpaceOnUse"
   x1="26.635099"
   y1="18.4589"
   x2="26.584999"
   y2="18.5455">
							<stop
   offset="0"
   style="stop-color:#6DB0BC"
   id="stop88" />
							<stop
   offset="1"
   style="stop-color:#4F8EFE"
   id="stop90" />
						</linearGradient>
						<path
   id="XMLID_335_"
   class="st13"
   d="M 29.786,20.393 23.39,16.629 c 0.015,-0.006 0.03,-0.012 0.045,-0.018 l 6.396,3.764 c -0.015,0.006 -0.03,0.012 -0.045,0.018"
   inkscape:connector-curvature="0"
   style="fill:url(#XMLID_14_)" />
						<linearGradient
   id="XMLID_15_"
   gradientUnits="userSpaceOnUse"
   x1="26.6796"
   y1="18.442801"
   x2="26.6304"
   y2="18.528">
							<stop
   offset="0"
   style="stop-color:#6DB0BC"
   id="stop94" />
							<stop
   offset="1"
   style="stop-color:#4F8EFE"
   id="stop96" />
						</linearGradient>
						<path
   id="XMLID_334_"
   class="st14"
   d="m 29.83,20.375 -6.396,-3.764 c 0.015,-0.006 0.03,-0.011 0.045,-0.016 l 6.396,3.764 c -0.014,0.006 -0.029,0.011 -0.045,0.016"
   inkscape:connector-curvature="0"
   style="fill:url(#XMLID_15_)" />
						<linearGradient
   id="XMLID_16_"
   gradientUnits="userSpaceOnUse"
   x1="26.7248"
   y1="18.428699"
   x2="26.6763"
   y2="18.5126">
							<stop
   offset="0"
   style="stop-color:#6DB0BC"
   id="stop100" />
							<stop
   offset="1"
   style="stop-color:#4F8EFE"
   id="stop102" />
						</linearGradient>
						<path
   id="XMLID_333_"
   class="st15"
   d="M 29.876,20.36 23.48,16.596 c 0.015,-0.005 0.031,-0.01 0.046,-0.014 l 6.396,3.764 c -0.016,0.004 -0.031,0.009 -0.046,0.014"
   inkscape:connector-curvature="0"
   style="fill:url(#XMLID_16_)" />
						<linearGradient
   id="XMLID_17_"
   gradientUnits="userSpaceOnUse"
   x1="26.7707"
   y1="18.4167"
   x2="26.723"
   y2="18.499399">
							<stop
   offset="0"
   style="stop-color:#6DB0BC"
   id="stop106" />
							<stop
   offset="1"
   style="stop-color:#4F8EFE"
   id="stop108" />
						</linearGradient>
						<path
   id="XMLID_332_"
   class="st16"
   d="m 29.921,20.346 -6.396,-3.764 c 0.016,-0.004 0.031,-0.008 0.047,-0.011 l 6.396,3.764 c -0.015,0.003 -0.031,0.007 -0.047,0.011"
   inkscape:connector-curvature="0"
   style="fill:url(#XMLID_17_)" />
						<linearGradient
   id="XMLID_18_"
   gradientUnits="userSpaceOnUse"
   x1="26.817801"
   y1="18.407101"
   x2="26.7708"
   y2="18.4886">
							<stop
   offset="0"
   style="stop-color:#6DB0BC"
   id="stop112" />
							<stop
   offset="1"
   style="stop-color:#4F8EFE"
   id="stop114" />
						</linearGradient>
						<path
   id="XMLID_331_"
   class="st17"
   d="m 29.968,20.335 -6.396,-3.764 c 0.016,-0.004 0.032,-0.007 0.048,-0.009 l 6.396,3.764 C 30,20.328 29.984,20.331 29.968,20.335"
   inkscape:connector-curvature="0"
   style="fill:url(#XMLID_18_)" />
						<linearGradient
   id="XMLID_19_"
   gradientUnits="userSpaceOnUse"
   x1="26.8666"
   y1="18.4"
   x2="26.8202"
   y2="18.480301">
							<stop
   offset="0"
   style="stop-color:#6DB0BC"
   id="stop118" />
							<stop
   offset="1"
   style="stop-color:#4F8EFE"
   id="stop120" />
						</linearGradient>
						<path
   id="XMLID_330_"
   class="st18"
   d="M 30.016,20.326 23.62,16.562 c 0.017,-0.003 0.034,-0.005 0.05,-0.006 l 6.396,3.764 c -0.016,0.001 -0.033,0.003 -0.05,0.006"
   inkscape:connector-curvature="0"
   style="fill:url(#XMLID_19_)" />
						<linearGradient
   id="XMLID_20_"
   gradientUnits="userSpaceOnUse"
   x1="26.9179"
   y1="18.395901"
   x2="26.8722"
   y2="18.475">
							<stop
   offset="0"
   style="stop-color:#6DB0BC"
   id="stop124" />
							<stop
   offset="1"
   style="stop-color:#4F8EFE"
   id="stop126" />
						</linearGradient>
						<path
   id="XMLID_329_"
   class="st19"
   d="M 30.066,20.319 23.67,16.555 c 0.018,-0.002 0.036,-0.003 0.053,-0.003 l 6.396,3.764 c -0.017,0 -0.035,0.002 -0.053,0.003"
   inkscape:connector-curvature="0"
   style="fill:url(#XMLID_20_)" />
						<linearGradient
   id="XMLID_21_"
   gradientUnits="userSpaceOnUse"
   x1="26.972401"
   y1="18.3958"
   x2="26.927601"
   y2="18.473301">
							<stop
   offset="0"
   style="stop-color:#6DB0BC"
   id="stop130" />
							<stop
   offset="1"
   style="stop-color:#4F8EFE"
   id="stop132" />
						</linearGradient>
						<path
   id="XMLID_328_"
   class="st20"
   d="m 30.12,20.316 -6.396,-3.764 c 0.019,0 0.038,0 0.057,0.001 l 6.396,3.764 C 30.158,20.316 30.139,20.316 30.12,20.316"
   inkscape:connector-curvature="0"
   style="fill:url(#XMLID_21_)" />
						<linearGradient
   id="XMLID_22_"
   gradientUnits="userSpaceOnUse"
   x1="27.032499"
   y1="18.4009"
   x2="26.9886"
   y2="18.4769">
							<stop
   offset="0"
   style="stop-color:#6DB0BC"
   id="stop136" />
							<stop
   offset="1"
   style="stop-color:#4F8EFE"
   id="stop138" />
						</linearGradient>
						<path
   id="XMLID_327_"
   class="st21"
   d="M 30.176,20.317 23.78,16.553 c 0.022,10e-4 0.043,0.004 0.064,0.007 l 6.396,3.764 c -0.02,-0.003 -0.042,-0.005 -0.064,-0.007"
   inkscape:connector-curvature="0"
   style="fill:url(#XMLID_22_)" />
						<linearGradient
   id="XMLID_23_"
   gradientUnits="userSpaceOnUse"
   x1="27.102501"
   y1="18.4154"
   x2="27.0602"
   y2="18.4886">
							<stop
   offset="0"
   style="stop-color:#6DB0BC"
   id="stop142" />
							<stop
   offset="1"
   style="stop-color:#4F8EFE"
   id="stop144" />
						</linearGradient>
						<path
   id="XMLID_326_"
   class="st22"
   d="m 30.241,20.325 -6.396,-3.764 c 0.026,0.005 0.052,0.011 0.077,0.019 l 6.396,3.764 c -0.025,-0.008 -0.051,-0.015 -0.077,-0.019"
   inkscape:connector-curvature="0"
   style="fill:url(#XMLID_23_)" />
						<linearGradient
   id="XMLID_24_"
   gradientUnits="userSpaceOnUse"
   x1="27.189199"
   y1="18.451401"
   x2="27.152"
   y2="18.5158">
							<stop
   offset="0"
   style="stop-color:#6DB0BC"
   id="stop148" />
							<stop
   offset="1"
   style="stop-color:#4F8EFE"
   id="stop150" />
						</linearGradient>
						<path
   id="XMLID_325_"
   class="st23"
   d="M 30.318,20.344 23.922,16.58 c 0.035,0.011 0.069,0.026 0.101,0.044 l 6.396,3.764 C 30.387,20.37 30.353,20.355 30.318,20.344"
   inkscape:connector-curvature="0"
   style="fill:url(#XMLID_24_)" />
					</g>
				</g>
				<g
   id="XMLID_320_">
					<linearGradient
   id="XMLID_25_"
   gradientUnits="userSpaceOnUse"
   x1="15.3119"
   y1="23.1026"
   x2="15.3119"
   y2="40.3395">
						<stop
   offset="0"
   style="stop-color:#498DEA"
   id="stop156" />
						<stop
   offset="1"
   style="stop-color:#020D83"
   id="stop158" />
					</linearGradient>
					<polygon
   id="XMLID_321_"
   class="st24"
   points="12.128,36.653 12.1,23.103 18.496,26.867 18.524,40.34 "
   style="fill:url(#XMLID_25_)" />
				</g>
				<g
   id="XMLID_318_">
					<linearGradient
   id="XMLID_26_"
   gradientUnits="userSpaceOnUse"
   x1="20.8694"
   y1="16.7024"
   x2="20.8694"
   y2="26.867001">
						<stop
   offset="0"
   style="stop-color:#498DEA"
   id="stop163" />
						<stop
   offset="1"
   style="stop-color:#020D83"
   id="stop165" />
					</linearGradient>
					<polygon
   id="XMLID_319_"
   class="st25"
   points="12.1,23.103 23.243,16.702 29.639,20.467 18.496,26.867 "
   style="fill:url(#XMLID_26_)" />
				</g>
				<g
   id="XMLID_316_">
					<linearGradient
   id="XMLID_27_"
   gradientUnits="userSpaceOnUse"
   x1="25.3262"
   y1="20.316"
   x2="25.3262"
   y2="40.3395">
						<stop
   offset="0"
   style="stop-color:#498DEA"
   id="stop170" />
						<stop
   offset="1"
   style="stop-color:#020D83"
   id="stop172" />
					</linearGradient>
					<path
   id="XMLID_317_"
   class="st26"
   d="m 29.639,20.467 c 0.292,-0.169 0.573,-0.197 0.78,-0.079 l 1.392,0.793 c 0.208,0.118 0.325,0.373 0.326,0.709 l 0.02,10.611 -13.633,7.839 -0.028,-13.472 z"
   inkscape:connector-curvature="0"
   style="fill:url(#XMLID_27_)" />
				</g>
			</g>
		</g>
		<g
   id="XMLID_307_">
			<g
   id="XMLID_308_"
   class="st0"
   style="enable-background:new">
				<defs
   id="defs180">
					<polygon
   id="XMLID_309_"
   class="st0"
   points="20.476,26.982 29.316,19.75 31.162,32.162 20.498,38.286 "
   style="enable-background:new" />
				</defs>
				<clipPath
   id="XMLID_28_">
					<use
   xlink:href="#XMLID_309_"
   style="overflow:visible"
   id="use182"
   x="0"
   y="0"
   width="100%"
   height="100%" />
				</clipPath>
				<g
   id="XMLID_310_"
   class="st27"
   clip-path="url(#XMLID_28_)">
					<path
   id="XMLID_311_"
   class="st28"
   d="m 20.521,38.246 -0.022,-11.251 8.624,-4.946 c 0.234,-0.135 0.455,-0.161 0.621,-0.073 l -0.703,-0.514 c 0.166,0.088 2.082,1.386 2.082,1.646 l 0.015,9.042 -10.617,6.096 m 8.602,-16.224 -8.647,4.959 0.022,11.304 10.664,-6.124 -0.015,-9.069 c -10e-4,-0.266 -1.919,-1.57 -2.09,-1.66 l 0.703,0.514 c -0.171,-0.089 -0.397,-0.062 -0.637,0.076"
   inkscape:connector-curvature="0"
   style="fill:#3e9e8e" />
				</g>
			</g>
		</g>
		<g
   id="XMLID_226_">
			<g
   id="XMLID_299_">
				<g
   id="XMLID_300_"
   class="st0"
   style="enable-background:new">
					<g
   id="XMLID_305_">
						<polygon
   id="XMLID_306_"
   class="st29"
   points="17.738,34.732 17.738,34.827 17.628,34.891 17.628,34.796 "
   style="fill:#0f1045" />
					</g>
					<g
   id="XMLID_303_">
						<polygon
   id="XMLID_304_"
   class="st30"
   points="14.092,32.572 17.738,34.732 17.628,34.796 13.982,32.636 "
   style="fill:#1b1e80" />
					</g>
					<g
   id="XMLID_301_">
						<polygon
   id="XMLID_302_"
   class="st31"
   points="13.982,32.636 17.628,34.796 17.628,34.891 13.981,32.732 13.981,32.684 "
   style="fill:#121456" />
					</g>
				</g>
			</g>
			<g
   id="XMLID_291_">
				<g
   id="XMLID_292_"
   class="st0"
   style="enable-background:new">
					<g
   id="XMLID_297_">
						<polygon
   id="XMLID_298_"
   class="st29"
   points="17.738,33.988 17.738,34.084 17.628,34.148 17.628,34.053 "
   style="fill:#0f1045" />
					</g>
					<g
   id="XMLID_295_">
						<polygon
   id="XMLID_296_"
   class="st30"
   points="14.092,31.829 17.738,33.988 17.628,34.053 13.982,31.893 "
   style="fill:#1b1e80" />
					</g>
					<g
   id="XMLID_293_">
						<polygon
   id="XMLID_294_"
   class="st31"
   points="13.982,31.893 17.628,34.053 17.628,34.148 13.981,31.989 13.981,31.941 "
   style="fill:#121456" />
					</g>
				</g>
			</g>
			<g
   id="XMLID_283_">
				<g
   id="XMLID_284_"
   class="st0"
   style="enable-background:new">
					<g
   id="XMLID_289_">
						<polygon
   id="XMLID_290_"
   class="st29"
   points="17.738,33.245 17.738,33.341 17.628,33.405 17.628,33.309 "
   style="fill:#0f1045" />
					</g>
					<g
   id="XMLID_287_">
						<polygon
   id="XMLID_288_"
   class="st30"
   points="14.092,31.086 17.738,33.245 17.628,33.309 13.982,31.15 "
   style="fill:#1b1e80" />
					</g>
					<g
   id="XMLID_285_">
						<polygon
   id="XMLID_286_"
   class="st31"
   points="13.982,31.15 17.628,33.309 17.628,33.405 13.981,31.245 13.981,31.198 "
   style="fill:#121456" />
					</g>
				</g>
			</g>
			<g
   id="XMLID_275_">
				<g
   id="XMLID_276_"
   class="st0"
   style="enable-background:new">
					<g
   id="XMLID_281_">
						<polygon
   id="XMLID_282_"
   class="st29"
   points="17.738,32.502 17.738,32.597 17.628,32.661 17.628,32.566 "
   style="fill:#0f1045" />
					</g>
					<g
   id="XMLID_279_">
						<polygon
   id="XMLID_280_"
   class="st30"
   points="14.092,30.342 17.738,32.502 17.628,32.566 13.982,30.406 "
   style="fill:#1b1e80" />
					</g>
					<g
   id="XMLID_277_">
						<polygon
   id="XMLID_278_"
   class="st31"
   points="13.982,30.406 17.628,32.566 17.628,32.661 13.981,30.502 13.981,30.454 "
   style="fill:#121456" />
					</g>
				</g>
			</g>
			<g
   id="XMLID_267_">
				<g
   id="XMLID_268_"
   class="st0"
   style="enable-background:new">
					<g
   id="XMLID_273_">
						<polygon
   id="XMLID_274_"
   class="st29"
   points="17.738,31.759 17.738,31.854 17.628,31.918 17.628,31.823 "
   style="fill:#0f1045" />
					</g>
					<g
   id="XMLID_271_">
						<polygon
   id="XMLID_272_"
   class="st30"
   points="14.092,29.599 17.738,31.759 17.628,31.823 13.982,29.663 "
   style="fill:#1b1e80" />
					</g>
					<g
   id="XMLID_269_">
						<polygon
   id="XMLID_270_"
   class="st31"
   points="13.982,29.663 17.628,31.823 17.628,31.918 13.981,29.759 13.981,29.711 "
   style="fill:#121456" />
					</g>
				</g>
			</g>
			<g
   id="XMLID_259_">
				<g
   id="XMLID_260_"
   class="st0"
   style="enable-background:new">
					<g
   id="XMLID_265_">
						<polygon
   id="XMLID_266_"
   class="st29"
   points="17.738,31.015 17.738,31.111 17.628,31.175 17.628,31.079 "
   style="fill:#0f1045" />
					</g>
					<g
   id="XMLID_263_">
						<polygon
   id="XMLID_264_"
   class="st30"
   points="14.092,28.856 17.738,31.015 17.628,31.079 13.982,28.92 "
   style="fill:#1b1e80" />
					</g>
					<g
   id="XMLID_261_">
						<polygon
   id="XMLID_262_"
   class="st31"
   points="13.982,28.92 17.628,31.079 17.628,31.175 13.981,29.015 13.981,28.968 "
   style="fill:#121456" />
					</g>
				</g>
			</g>
			<g
   id="XMLID_251_">
				<g
   id="XMLID_252_"
   class="st0"
   style="enable-background:new">
					<g
   id="XMLID_257_">
						<polygon
   id="XMLID_258_"
   class="st29"
   points="17.738,30.272 17.738,30.367 17.628,30.432 17.628,30.336 "
   style="fill:#0f1045" />
					</g>
					<g
   id="XMLID_255_">
						<polygon
   id="XMLID_256_"
   class="st30"
   points="14.092,28.112 17.738,30.272 17.628,30.336 13.982,28.176 "
   style="fill:#1b1e80" />
					</g>
					<g
   id="XMLID_253_">
						<polygon
   id="XMLID_254_"
   class="st31"
   points="13.982,28.176 17.628,30.336 17.628,30.432 13.981,28.272 13.981,28.224 "
   style="fill:#121456" />
					</g>
				</g>
			</g>
			<g
   id="XMLID_243_">
				<g
   id="XMLID_244_"
   class="st0"
   style="enable-background:new">
					<g
   id="XMLID_249_">
						<polygon
   id="XMLID_250_"
   class="st29"
   points="17.738,29.529 17.738,29.624 17.628,29.688 17.628,29.593 "
   style="fill:#0f1045" />
					</g>
					<g
   id="XMLID_247_">
						<polygon
   id="XMLID_248_"
   class="st30"
   points="14.092,27.369 17.738,29.529 17.628,29.593 13.982,27.433 "
   style="fill:#1b1e80" />
					</g>
					<g
   id="XMLID_245_">
						<polygon
   id="XMLID_246_"
   class="st31"
   points="13.982,27.433 17.628,29.593 17.628,29.688 13.981,27.529 13.981,27.481 "
   style="fill:#121456" />
					</g>
				</g>
			</g>
			<g
   id="XMLID_235_">
				<g
   id="XMLID_236_"
   class="st0"
   style="enable-background:new">
					<g
   id="XMLID_241_">
						<polygon
   id="XMLID_242_"
   class="st29"
   points="17.738,28.785 17.738,28.881 17.628,28.945 17.628,28.849 "
   style="fill:#0f1045" />
					</g>
					<g
   id="XMLID_239_">
						<polygon
   id="XMLID_240_"
   class="st30"
   points="14.092,26.626 17.738,28.785 17.628,28.849 13.982,26.69 "
   style="fill:#1b1e80" />
					</g>
					<g
   id="XMLID_237_">
						<polygon
   id="XMLID_238_"
   class="st31"
   points="13.982,26.69 17.628,28.849 17.628,28.945 13.981,26.785 13.981,26.738 "
   style="fill:#121456" />
					</g>
				</g>
			</g>
			<g
   id="XMLID_227_">
				<g
   id="XMLID_228_"
   class="st0"
   style="enable-background:new">
					<g
   id="XMLID_233_">
						<polygon
   id="XMLID_234_"
   class="st29"
   points="17.738,28.042 17.738,28.138 17.628,28.202 17.628,28.106 "
   style="fill:#0f1045" />
					</g>
					<g
   id="XMLID_231_">
						<polygon
   id="XMLID_232_"
   class="st30"
   points="14.092,25.882 17.738,28.042 17.628,28.106 13.982,25.946 "
   style="fill:#1b1e80" />
					</g>
					<g
   id="XMLID_229_">
						<polygon
   id="XMLID_230_"
   class="st31"
   points="13.982,25.946 17.628,28.106 17.628,28.202 13.981,26.042 13.981,25.994 "
   style="fill:#121456" />
					</g>
				</g>
			</g>
		</g>
		<g
   id="XMLID_199_">
			
				<image
   sodipodi:absref="C:\Users\Copsec\Desktop\前端页面\12-17\1A0F8DE88C7109E3.png"
   xlink:href="1A0F8DE88C7109E3.png"
   style="overflow:visible"
   width="100"
   height="790"
   id="XMLID_225_"
   transform="matrix(0.0094,0,0,0.0094,12.6086,25.1702)">
			</image>
			<g
   id="XMLID_200_">
				<g
   id="XMLID_217_">
					<g
   id="XMLID_218_"
   class="st0"
   style="enable-background:new">
						<g
   id="XMLID_223_">
							<polygon
   id="XMLID_224_"
   class="st32"
   points="13.308,30.771 13.304,32.28 13.193,32.344 13.198,30.835 "
   style="fill:#009983" />
						</g>
						<g
   id="XMLID_221_">
							<polygon
   id="XMLID_222_"
   class="st33"
   points="12.958,30.569 13.308,30.771 13.198,30.835 12.848,30.633 "
   style="fill:#00b99e" />
						</g>
						<g
   id="XMLID_219_">
							<polygon
   id="XMLID_220_"
   class="st34"
   points="13.193,32.344 12.843,32.142 12.848,30.633 13.198,30.835 "
   style="fill:#00e5c4" />
						</g>
					</g>
				</g>
				<g
   id="XMLID_209_">
					<g
   id="XMLID_210_"
   class="st0"
   style="enable-background:new">
						<g
   id="XMLID_215_">
							<polygon
   id="XMLID_216_"
   class="st32"
   points="13.308,28.189 13.304,29.698 13.193,29.762 13.198,28.253 "
   style="fill:#009983" />
						</g>
						<g
   id="XMLID_213_">
							<polygon
   id="XMLID_214_"
   class="st33"
   points="12.958,27.987 13.308,28.189 13.198,28.253 12.848,28.051 "
   style="fill:#00b99e" />
						</g>
						<g
   id="XMLID_211_">
							<polygon
   id="XMLID_212_"
   class="st34"
   points="13.193,29.762 12.843,29.56 12.848,28.051 13.198,28.253 "
   style="fill:#00e5c4" />
						</g>
					</g>
				</g>
				<g
   id="XMLID_201_">
					<g
   id="XMLID_202_"
   class="st0"
   style="enable-background:new">
						<g
   id="XMLID_207_">
							<polygon
   id="XMLID_208_"
   class="st32"
   points="13.308,25.607 13.304,27.116 13.193,27.18 13.198,25.671 "
   style="fill:#009983" />
						</g>
						<g
   id="XMLID_205_">
							<polygon
   id="XMLID_206_"
   class="st33"
   points="12.958,25.405 13.308,25.607 13.198,25.671 12.848,25.469 "
   style="fill:#00b99e" />
						</g>
						<g
   id="XMLID_203_">
							<polygon
   id="XMLID_204_"
   class="st34"
   points="13.193,27.18 12.843,26.978 12.848,25.469 13.198,25.671 "
   style="fill:#00e5c4" />
						</g>
					</g>
				</g>
			</g>
		</g>
	</g>
	<g
   id="XMLID_177_">
		<g
   id="XMLID_469_">
			<radialGradient
   id="XMLID_29_"
   cx="24.694599"
   cy="36.317101"
   r="5.0581002"
   gradientUnits="userSpaceOnUse">
				<stop
   offset="0"
   style="stop-color:#FFFEFD"
   id="stop298" />
				<stop
   offset="1"
   style="stop-color:#DE3627"
   id="stop300" />
			</radialGradient>
			<polygon
   id="XMLID_470_"
   class="st35"
   points="21.306,38.666 21.282,30.031 28.083,34.036 28.107,42.604 "
   style="fill:url(#XMLID_29_);stroke:#1d2d5f;stroke-width:0.1;stroke-miterlimit:10" />
		</g>
		<g
   id="XMLID_467_">
			<radialGradient
   id="XMLID_30_"
   cx="25.564501"
   cy="31.526699"
   r="3.5093999"
   gradientUnits="userSpaceOnUse">
				<stop
   offset="0"
   style="stop-color:#FFFEFD"
   id="stop305" />
				<stop
   offset="1"
   style="stop-color:#DE3627"
   id="stop307" />
			</radialGradient>
			<polygon
   id="XMLID_356_"
   class="st36"
   points="21.282,30.03 21.454,29.932 23.047,29.018 29.847,33.021 28.082,34.035 21.454,30.13 "
   style="fill:url(#XMLID_30_);stroke:#1d2d5f;stroke-width:0.1;stroke-miterlimit:10" />
		</g>
		<g
   id="XMLID_465_">
			<radialGradient
   id="XMLID_31_"
   cx="28.9813"
   cy="37.812698"
   r="3.4472001"
   gradientUnits="userSpaceOnUse">
				<stop
   offset="0"
   style="stop-color:#FFFEFD"
   id="stop312" />
				<stop
   offset="1"
   style="stop-color:#DE3627"
   id="stop314" />
			</radialGradient>
			<polygon
   id="XMLID_354_"
   class="st37"
   points="29.855,33.027 29.88,41.586 28.107,42.604 28.082,34.035 29.847,33.021 "
   style="fill:url(#XMLID_31_);stroke:#1d2d5f;stroke-width:0.1;stroke-miterlimit:10" />
		</g>
		<path
   id="XMLID_369_"
   class="st38"
   d="m 28.082,38.342 0.027,-0.045 -1.221,-0.719 v -2.449 l 1.195,0.704 0.027,-0.045 -3.786,-2.23 V 31.805 H 24.27 v 1.722 l -2.963,-1.745 -0.027,0.045 1.79,1.054 v 2.449 l -1.764,-1.039 -0.027,0.045 1.79,1.054 v 0.026 h 0.044 l 1.766,1.04 v 2.288 l -3.586,-2.112 -0.027,0.045 1.474,0.868 v 1.978 h 0.052 v -1.947 l 2.086,1.228 v 0.027 h 0.046 l 1.622,0.955 v 1.902 h 0.052 v -1.871 l 1.469,0.865 0.027,-0.045 -3.163,-1.863 v -2.288 z m -4.959,-5.43 1.147,0.675 v 0.004 h 0.007 l 2.558,1.507 v 2.449 l -3.712,-2.186 z"
   inkscape:connector-curvature="0"
   style="fill:#343d96" />
	</g>
	<g
   id="XMLID_558_"
   class="st39"
   style="opacity:0.2">
		<g
   id="XMLID_565_">
			<linearGradient
   id="XMLID_32_"
   gradientUnits="userSpaceOnUse"
   x1="23.5846"
   y1="45.2248"
   x2="23.5846"
   y2="45.226002">
				<stop
   offset="0"
   style="stop-color:#498DEA"
   id="stop321" />
				<stop
   offset="1"
   style="stop-color:#020D83"
   id="stop323" />
			</linearGradient>
			<polygon
   id="XMLID_567_"
   class="st40"
   points="23.588,45.226 23.581,45.225 23.585,45.225 "
   style="fill:url(#XMLID_32_)" />
			<linearGradient
   id="XMLID_33_"
   gradientUnits="userSpaceOnUse"
   x1="15.4127"
   y1="0.00022353471"
   x2="15.4127"
   y2="45.257">
				<stop
   offset="0.202"
   style="stop-color:#00CBD4;stop-opacity:0"
   id="stop327" />
				<stop
   offset="1"
   style="stop-color:#00F4FF"
   id="stop329" />
			</linearGradient>
			<path
   id="XMLID_566_"
   class="st41"
   d="m 24.021,45.256 v 10e-4 c -0.019,0 -0.036,-10e-4 -0.053,-0.002 -0.019,0 -0.037,-0.002 -0.055,-0.002 h -0.007 c -0.036,-10e-4 -0.071,-0.002 -0.107,-0.005 -0.035,-0.002 -0.068,-0.006 -0.102,-0.009 -0.036,-0.004 -0.073,-0.007 -0.109,-0.012 -0.002,0 -0.005,0 -0.007,-10e-4 -0.03,-0.004 -0.061,-0.007 -0.091,-0.012 -10e-4,0 -0.002,0 -0.004,-10e-4 -0.005,0 -0.01,-10e-4 -0.015,-0.002 -0.03,-0.005 -0.058,-0.01 -0.087,-0.015 -0.004,-10e-4 -0.007,-10e-4 -0.011,-0.002 -0.002,0 -0.005,-0.001 -0.007,-0.001 -0.027,-0.005 -0.056,-0.01 -0.083,-0.016 -0.016,-0.004 -0.031,-0.007 -0.046,-0.011 -0.029,-0.007 -0.057,-0.014 -0.084,-0.021 -10e-4,0 -0.004,-0.001 -0.005,-0.001 -0.026,-0.007 -0.051,-0.014 -0.076,-0.021 -0.03,-0.009 -0.06,-0.017 -0.088,-0.027 -0.019,-0.006 -0.037,-0.012 -0.056,-0.019 -0.03,-0.011 -0.061,-0.022 -0.091,-0.033 -0.004,-10e-4 -0.007,-0.002 -0.011,-0.004 -0.035,-0.014 -0.067,-0.027 -0.1,-0.042 -0.076,-0.032 -0.148,-0.069 -0.217,-0.109 L 7.457,36.199 C 7.161,36.028 6.966,35.821 6.873,35.601 6.858,35.564 6.846,35.527 6.837,35.489 6.833,35.475 6.83,35.463 6.827,35.451 6.82,35.416 6.816,35.382 6.813,35.347 c 0,-0.004 -10e-4,-0.007 -10e-4,-0.01 0,-0.004 -0.001,-0.006 -0.001,-0.01 L 6.807,36.525 6.803,36.523 6.838,0 23.997,9.644 24.008,25.341 Z"
   inkscape:connector-curvature="0"
   style="fill:url(#XMLID_33_)" />
		</g>
		<g
   id="XMLID_559_">
			<linearGradient
   id="XMLID_34_"
   gradientUnits="userSpaceOnUse"
   x1="23.999399"
   y1="35.323002"
   x2="23.999399"
   y2="48">
				<stop
   offset="0"
   style="stop-color:#498DEA"
   id="stop334" />
				<stop
   offset="1"
   style="stop-color:#020D83"
   id="stop336" />
			</linearGradient>
			<path
   id="XMLID_563_"
   class="st42"
   d="m 41.196,35.329 v 0.255 l -0.002,0.936 -0.005,1.528 v 0.02 c 0,0.015 -0.004,0.03 -0.005,0.045 -0.002,0.022 -0.004,0.046 -0.007,0.069 -10e-4,0.004 -10e-4,0.007 -10e-4,0.011 -0.004,0.015 -0.009,0.03 -0.014,0.045 -0.005,0.021 -0.011,0.043 -0.019,0.064 -10e-4,0.005 -0.002,0.01 -0.004,0.014 -0.005,0.014 -0.012,0.027 -0.019,0.04 -0.01,0.024 -0.02,0.046 -0.032,0.068 -0.002,0.006 -0.004,0.011 -0.007,0.017 -0.006,0.011 -0.015,0.021 -0.021,0.032 -0.016,0.025 -0.033,0.051 -0.052,0.076 -0.005,0.007 -0.009,0.015 -0.015,0.022 -0.014,0.017 -0.029,0.033 -0.042,0.05 -0.005,0.006 -0.01,0.012 -0.015,0.017 -0.025,0.027 -0.051,0.053 -0.078,0.079 -0.005,0.004 -0.01,0.007 -0.014,0.011 -0.021,0.019 -0.045,0.037 -0.068,0.056 -0.02,0.016 -0.038,0.032 -0.061,0.048 -0.025,0.017 -0.052,0.035 -0.078,0.052 -0.02,0.012 -0.037,0.026 -0.057,0.038 -0.009,0.005 -0.017,0.01 -0.027,0.015 l -14.954,8.69 c -0.066,0.038 -0.135,0.073 -0.207,0.105 -0.02,0.009 -0.041,0.017 -0.062,0.026 -0.056,0.024 -0.113,0.046 -0.172,0.066 -0.012,0.004 -0.025,0.01 -0.038,0.015 -0.007,0.002 -0.016,0.004 -0.025,0.006 -0.036,0.012 -0.074,0.022 -0.112,0.032 -0.03,0.007 -0.057,0.016 -0.087,0.024 -0.04,0.01 -0.081,0.017 -0.12,0.026 -0.024,0.005 -0.047,0.01 -0.071,0.015 -0.005,0 -0.009,10e-4 -0.012,10e-4 -0.082,0.015 -0.165,0.026 -0.249,0.035 -0.006,10e-4 -0.012,0.002 -0.019,0.002 -0.02,0.002 -0.04,0.002 -0.06,0.004 -0.048,0.005 -0.098,0.009 -0.148,0.01 -0.011,10e-4 -0.024,0.002 -0.035,0.002 -0.02,10e-4 -0.04,0 -0.061,10e-4 h -0.164 c -0.019,0 -0.037,-0.002 -0.056,-0.002 -0.037,-10e-4 -0.074,-0.004 -0.11,-0.006 -0.017,-10e-4 -0.033,-10e-4 -0.05,-0.002 -0.017,-0.001 -0.035,-0.005 -0.052,-0.006 -0.037,-0.004 -0.073,-0.007 -0.109,-0.012 -0.017,-10e-4 -0.035,-0.002 -0.052,-0.005 -0.015,-0.002 -0.031,-0.006 -0.046,-0.009 -0.04,-0.006 -0.078,-0.012 -0.117,-0.02 -0.017,-0.004 -0.036,-0.006 -0.055,-0.01 -0.012,-0.002 -0.024,-0.006 -0.036,-0.009 -0.046,-0.01 -0.091,-0.021 -0.135,-0.033 C 23.12,47.878 23.101,47.874 23.082,47.869 23.076,47.868 23.07,47.864 23.063,47.863 22.982,47.839 22.904,47.813 22.827,47.784 22.823,47.783 22.82,47.782 22.816,47.78 22.781,47.766 22.749,47.751 22.717,47.737 22.698,47.728 22.679,47.721 22.66,47.712 22.605,47.686 22.551,47.659 22.5,47.628 L 7.447,38.938 C 7.015,38.689 6.801,38.363 6.801,38.035 L 6.806,36.52 6.81,35.322 c 0,0.004 0.001,0.006 0.001,0.01 0.002,0.069 0.016,0.139 0.04,0.208 0.006,0.019 0.014,0.037 0.021,0.056 0.093,0.219 0.288,0.427 0.584,0.598 l 15.052,8.69 c 0.069,0.04 0.141,0.077 0.217,0.109 0.033,0.015 0.066,0.029 0.1,0.042 0.033,0.014 0.067,0.026 0.102,0.037 0.019,0.006 0.037,0.012 0.056,0.019 0.082,0.029 0.166,0.052 0.253,0.071 0.015,0.004 0.03,0.007 0.046,0.011 0.033,0.007 0.067,0.015 0.102,0.02 0.033,0.007 0.067,0.014 0.102,0.017 10e-4,10e-4 0.002,10e-4 0.004,10e-4 0.03,0.005 0.061,0.009 0.091,0.012 0.002,10e-4 0.005,10e-4 0.007,10e-4 0.036,0.005 0.073,0.009 0.109,0.012 0.033,0.005 0.068,0.007 0.102,0.009 0.019,0.001 0.038,0.002 0.057,0.004 0.055,0.004 0.109,0.005 0.165,0.006 h 0.016 c 0.139,10e-4 0.277,-0.006 0.413,-0.021 0.079,-0.007 0.159,-0.02 0.237,-0.033 0.004,0 0.009,0 0.012,-10e-4 0.005,-0.001 0.01,-0.002 0.015,-0.002 0.063,-0.012 0.126,-0.025 0.188,-0.041 0.068,-0.015 0.135,-0.033 0.2,-0.055 0.048,-0.015 0.097,-0.031 0.143,-0.05 0.029,-0.011 0.055,-0.022 0.082,-0.033 0.004,-10e-4 0.006,-0.002 0.01,-0.004 0.021,-0.009 0.042,-0.017 0.063,-0.027 0.029,-0.012 0.056,-0.026 0.084,-0.04 0.041,-0.02 0.082,-0.041 0.122,-0.064 l 14.955,-8.69 c 0.03,-0.017 0.056,-0.036 0.083,-0.053 0.002,-10e-4 0.005,-0.004 0.009,-0.006 0.024,-0.016 0.047,-0.032 0.069,-0.047 0.02,-0.012 0.036,-0.027 0.055,-0.042 0.002,-0.002 0.005,-0.004 0.007,-0.006 0.019,-0.014 0.037,-0.029 0.055,-0.043 0.006,-0.005 0.011,-0.01 0.017,-0.016 0.015,-0.014 0.029,-0.027 0.043,-0.041 0.015,-0.015 0.03,-0.03 0.043,-0.045 10e-4,-0.001 10e-4,-0.001 10e-4,-0.002 0.005,-0.005 0.01,-0.011 0.014,-0.015 0.01,-0.011 0.019,-0.022 0.027,-0.035 0.005,-0.006 0.01,-0.012 0.015,-0.019 0.006,-0.006 0.011,-0.012 0.015,-0.019 0.012,-0.015 0.021,-0.031 0.031,-0.046 0.007,-0.011 0.015,-0.021 0.021,-0.031 0.01,-0.016 0.021,-0.032 0.03,-0.048 0.022,-0.04 0.041,-0.081 0.055,-0.122 0.004,-0.011 0.006,-0.021 0.01,-0.032 0.004,-0.011 0.006,-0.022 0.009,-0.033 10e-4,-0.004 0.002,-0.009 0.004,-0.012 0.004,-0.015 0.007,-0.029 0.01,-0.043 0.001,-0.005 0.001,-0.011 0.001,-0.016 0.006,-0.031 0.01,-0.062 0.011,-0.093 z"
   inkscape:connector-curvature="0"
   style="fill:url(#XMLID_34_)" />
			<linearGradient
   id="XMLID_35_"
   gradientUnits="userSpaceOnUse"
   x1="32.596001"
   y1="0.00022353471"
   x2="32.596001"
   y2="45.257099">
				<stop
   offset="0.202"
   style="stop-color:#00CBD4;stop-opacity:0"
   id="stop340" />
				<stop
   offset="1"
   style="stop-color:#00F4FF"
   id="stop342" />
			</linearGradient>
			<path
   id="XMLID_562_"
   class="st43"
   d="m 41.196,35.329 c -10e-4,0.031 -0.005,0.062 -0.011,0.092 0,0.005 0,0.011 -0.001,0.016 -0.002,0.015 -0.006,0.029 -0.01,0.043 -10e-4,0.004 -0.002,0.009 -0.004,0.012 -0.002,0.011 -0.006,0.022 -0.009,0.033 -0.004,0.011 -0.006,0.021 -0.01,0.032 -0.014,0.041 -0.032,0.082 -0.055,0.122 -0.009,0.016 -0.02,0.032 -0.03,0.048 -0.006,0.01 -0.014,0.02 -0.021,0.031 -0.01,0.015 -0.019,0.031 -0.031,0.046 -0.004,0.006 -0.009,0.012 -0.015,0.019 -0.005,0.006 -0.01,0.012 -0.015,0.019 -0.009,0.012 -0.017,0.024 -0.027,0.035 -0.004,0.004 -0.009,0.01 -0.014,0.015 0,10e-4 0,10e-4 -10e-4,0.002 -0.014,0.015 -0.029,0.03 -0.043,0.045 -0.015,0.014 -0.029,0.027 -0.043,0.041 -0.006,0.006 -0.011,0.011 -0.017,0.016 -0.017,0.015 -0.036,0.03 -0.055,0.043 -0.002,0.002 -0.005,0.004 -0.007,0.006 -0.017,0.014 -0.036,0.027 -0.055,0.042 -0.022,0.015 -0.046,0.031 -0.069,0.047 -0.004,0.002 -0.006,0.005 -0.009,0.006 -0.027,0.017 -0.053,0.036 -0.083,0.053 l -14.955,8.69 c -0.04,0.024 -0.081,0.045 -0.122,0.064 -0.029,0.014 -0.056,0.027 -0.084,0.04 -0.021,0.01 -0.042,0.019 -0.063,0.027 -0.004,10e-4 -0.006,0.002 -0.01,0.004 -0.027,0.011 -0.053,0.022 -0.082,0.033 -0.046,0.019 -0.094,0.035 -0.143,0.05 -0.037,0.011 -0.076,0.021 -0.113,0.032 -0.029,0.007 -0.057,0.016 -0.087,0.022 -0.062,0.016 -0.125,0.029 -0.188,0.041 -0.005,0 -0.01,0.001 -0.015,0.002 -0.004,10e-4 -0.009,10e-4 -0.012,10e-4 -0.078,0.014 -0.157,0.026 -0.237,0.033 -0.136,0.015 -0.274,0.022 -0.413,0.021 V 45.252 L 24.015,25.337 23.996,9.644 41.162,0 41.195,35.273 v 0.056 z"
   inkscape:connector-curvature="0"
   style="fill:url(#XMLID_35_)" />
			<linearGradient
   id="XMLID_36_"
   gradientUnits="userSpaceOnUse"
   x1="41.195099"
   y1="35.584599"
   x2="41.195099"
   y2="36.520901">
				<stop
   offset="0.202"
   style="stop-color:#00CBD4;stop-opacity:0"
   id="stop346" />
				<stop
   offset="1"
   style="stop-color:#00F4FF"
   id="stop348" />
			</linearGradient>
			<polygon
   id="XMLID_561_"
   class="st44"
   points="41.197,36.518 41.193,36.521 41.196,35.585 "
   style="fill:url(#XMLID_36_)" />
		</g>
	</g>
</g>
</svg>