<?xml version="1.0" encoding="UTF-8" standalone="no"?>
<!-- Generator: Adobe Illustrator 22.0.0, SVG Export Plug-In . SVG Version: 6.00 Build 0)  -->

<svg
   xmlns:dc="http://purl.org/dc/elements/1.1/"
   xmlns:cc="http://creativecommons.org/ns#"
   xmlns:rdf="http://www.w3.org/1999/02/22-rdf-syntax-ns#"
   xmlns:svg="http://www.w3.org/2000/svg"
   xmlns="http://www.w3.org/2000/svg"
   xmlns:xlink="http://www.w3.org/1999/xlink"
   xmlns:sodipodi="http://sodipodi.sourceforge.net/DTD/sodipodi-0.dtd"
   xmlns:inkscape="http://www.inkscape.org/namespaces/inkscape"
   version="1.1"
   id="图层_1"
   x="0px"
   y="0px"
   viewBox="0 0 50 50"
   xml:space="preserve"
   sodipodi:docname="5.svg"
   width="50"
   height="50"
   inkscape:version="0.92.4 (5da689c313, 2019-01-14)"><metadata
   id="metadata585"><rdf:RDF><cc:Work
       rdf:about=""><dc:format>image/svg+xml</dc:format><dc:type
         rdf:resource="http://purl.org/dc/dcmitype/StillImage" /><dc:title></dc:title></cc:Work></rdf:RDF></metadata><defs
   id="defs583" /><sodipodi:namedview
   pagecolor="#ffffff"
   bordercolor="#666666"
   borderopacity="1"
   objecttolerance="10"
   gridtolerance="10"
   guidetolerance="10"
   inkscape:pageopacity="0"
   inkscape:pageshadow="2"
   inkscape:window-width="1366"
   inkscape:window-height="706"
   id="namedview581"
   showgrid="false"
   inkscape:zoom="4.9166667"
   inkscape:cx="24"
   inkscape:cy="24"
   inkscape:window-x="-8"
   inkscape:window-y="-8"
   inkscape:window-maximized="1"
   inkscape:current-layer="图层_1" />
<style
   type="text/css"
   id="style2">
	.st0{enable-background:new    ;}
	.st1{fill:url(#XMLID_3_);}
	.st2{fill:url(#XMLID_4_);}
	.st3{fill:url(#XMLID_5_);}
	.st4{fill:url(#XMLID_6_);}
	.st5{fill:url(#XMLID_7_);}
	.st6{fill:url(#XMLID_8_);}
	.st7{fill:#2A497D;}
	.st8{fill:url(#XMLID_9_);}
	.st9{fill:url(#SVGID_1_);}
	.st10{fill:url(#XMLID_10_);}
	.st11{clip-path:url(#SVGID_3_);}
	.st12{fill:#3E9E8E;}
	.st13{fill:#0F1045;}
	.st14{fill:#1B1E80;}
	.st15{fill:#121456;}
	.st16{fill:#009983;}
	.st17{fill:#00B99E;}
	.st18{fill:#00E5C4;}
	.st19{opacity:0.9;fill:url(#XMLID_11_);enable-background:new    ;}
	.st20{fill:url(#XMLID_12_);}
	.st21{opacity:0.51;fill:url(#XMLID_13_);enable-background:new    ;}
	.st22{fill:url(#XMLID_14_);}
	.st23{fill:url(#XMLID_15_);}
	.st24{fill:url(#XMLID_16_);}
	.st25{opacity:0.6;fill:url(#XMLID_17_);enable-background:new    ;}
	.st26{fill:url(#XMLID_18_);}
	.st27{opacity:0.62;fill:url(#XMLID_19_);enable-background:new    ;}
	.st28{fill:url(#XMLID_20_);}
	.st29{fill:url(#XMLID_21_);}
	.st30{fill:url(#XMLID_22_);}
	.st31{fill:url(#XMLID_23_);}
	.st32{fill:url(#XMLID_24_);}
	.st33{opacity:0.6;fill:url(#XMLID_25_);enable-background:new    ;}
	.st34{fill:url(#XMLID_26_);}
	.st35{fill:url(#XMLID_27_);}
	.st36{fill:url(#XMLID_28_);}
	.st37{opacity:0.85;fill:url(#XMLID_29_);enable-background:new    ;}
	.st38{fill:url(#XMLID_30_);}
	.st39{opacity:0.86;fill:url(#XMLID_31_);enable-background:new    ;}
	.st40{opacity:0.86;fill:url(#XMLID_32_);enable-background:new    ;}
	.st41{fill:url(#XMLID_33_);}
	.st42{opacity:0.85;fill:url(#XMLID_34_);enable-background:new    ;}
	.st43{fill:url(#XMLID_35_);}
	.st44{opacity:0.9;fill:url(#XMLID_36_);enable-background:new    ;}
	.st45{opacity:0.9;fill:url(#XMLID_37_);enable-background:new    ;}
	.st46{opacity:0.9;fill:url(#XMLID_38_);enable-background:new    ;}
	.st47{opacity:0.9;fill:url(#XMLID_39_);enable-background:new    ;}
	.st48{opacity:0.2;}
	.st49{fill:url(#XMLID_40_);}
	.st50{fill:url(#XMLID_41_);}
	.st51{fill:url(#XMLID_42_);}
	.st52{fill:url(#XMLID_43_);}
	.st53{fill:url(#XMLID_44_);}
</style>
<g
   id="XMLID_892_"
   transform="matrix(1.3724872,0,0,1.2499926,-8.0251833,-9.7973602)">
	<g
   id="XMLID_893_"
   class="st0"
   style="enable-background:new">
		
			<linearGradient
   id="XMLID_3_"
   gradientUnits="userSpaceOnUse"
   x1="24.003"
   y1="1244.295"
   x2="24.003"
   y2="1257.0044"
   gradientTransform="translate(0,-1209)">
			<stop
   offset="0"
   style="stop-color:#498DEA"
   id="stop4" />
			<stop
   offset="1"
   style="stop-color:#020D83"
   id="stop6" />
		</linearGradient>
		<path
   id="XMLID_896_"
   class="st1"
   d="m 41.191,35.368 c -0.002,0.023 -0.004,0.046 -0.008,0.069 -0.003,0.019 -0.009,0.037 -0.014,0.056 -0.006,0.022 -0.011,0.044 -0.019,0.066 -0.006,0.018 -0.015,0.036 -0.022,0.053 -0.01,0.023 -0.02,0.046 -0.032,0.068 -0.009,0.016 -0.019,0.032 -0.029,0.049 -0.016,0.026 -0.033,0.051 -0.051,0.076 -0.018,0.024 -0.037,0.048 -0.058,0.072 -0.005,0.006 -0.009,0.011 -0.014,0.017 -0.028,0.031 -0.059,0.061 -0.092,0.09 -0.021,0.019 -0.044,0.037 -0.067,0.056 -0.02,0.016 -0.04,0.033 -0.061,0.048 -0.025,0.018 -0.052,0.035 -0.079,0.052 -0.028,0.018 -0.054,0.036 -0.083,0.054 l -14.954,8.691 c -0.066,0.038 -0.135,0.072 -0.207,0.104 -0.021,0.009 -0.042,0.018 -0.063,0.027 -0.056,0.023 -0.113,0.045 -0.172,0.065 -0.021,0.007 -0.042,0.015 -0.063,0.022 -0.037,0.012 -0.075,0.022 -0.113,0.032 -0.029,0.008 -0.057,0.016 -0.086,0.023 -0.04,0.01 -0.081,0.018 -0.121,0.026 -0.027,0.006 -0.055,0.012 -0.082,0.017 -0.082,0.014 -0.165,0.026 -0.249,0.035 -0.026,0.003 -0.052,0.004 -0.078,0.007 -0.049,0.004 -0.098,0.008 -0.148,0.01 -0.032,10e-4 -0.063,0.002 -0.095,0.003 -0.04,10e-4 -0.08,10e-4 -0.12,10e-4 -0.034,0 -0.067,-10e-4 -0.1,-0.003 -0.037,-10e-4 -0.074,-0.003 -0.111,-0.006 -0.034,-0.002 -0.068,-0.005 -0.101,-0.008 -0.036,-0.004 -0.073,-0.008 -0.109,-0.012 -0.033,-0.004 -0.065,-0.009 -0.098,-0.014 -0.039,-0.006 -0.078,-0.013 -0.116,-0.02 -0.03,-0.006 -0.061,-0.012 -0.091,-0.018 -0.046,-0.01 -0.091,-0.021 -0.136,-0.033 -0.025,-0.007 -0.05,-0.013 -0.075,-0.02 -0.08,-0.024 -0.159,-0.05 -0.235,-0.079 C 22.801,45.029 22.765,45.013 22.728,44.997 22.709,44.989 22.69,44.981 22.671,44.972 22.616,44.946 22.562,44.918 22.51,44.888 L 7.458,36.198 C 7.026,35.949 6.811,35.622 6.812,35.295 L 6.804,38.04 c -0.001,0.327 0.215,0.654 0.646,0.903 l 15.052,8.69 c 0.052,0.03 0.105,0.058 0.161,0.084 0.018,0.009 0.038,0.016 0.057,0.025 0.033,0.015 0.065,0.03 0.099,0.043 0.004,0.002 0.008,0.003 0.012,0.004 0.076,0.03 0.155,0.056 0.235,0.079 0.006,0.002 0.012,0.005 0.019,0.006 0.018,0.005 0.038,0.009 0.056,0.014 0.045,0.012 0.09,0.023 0.136,0.033 0.012,0.003 0.024,0.006 0.036,0.009 0.018,0.004 0.037,0.006 0.055,0.01 0.038,0.007 0.077,0.014 0.116,0.02 0.016,0.002 0.031,0.006 0.047,0.008 0.017,0.002 0.034,0.004 0.052,0.006 0.036,0.005 0.072,0.009 0.109,0.012 0.018,0.002 0.035,0.004 0.052,0.006 0.016,0.001 0.033,0.001 0.049,0.003 0.037,0.003 0.074,0.004 0.111,0.006 0.019,0.001 0.037,0.003 0.056,0.003 0.015,0 0.03,0 0.045,0 0.04,0.001 0.08,0 0.12,-10e-4 0.02,0 0.04,0 0.06,0 0.012,0 0.024,-0.002 0.035,-0.002 0.049,-0.002 0.099,-0.006 0.148,-0.01 0.02,-0.002 0.04,-0.002 0.06,-0.004 0.006,-0.001 0.012,-0.002 0.018,-0.003 0.084,-0.009 0.167,-0.02 0.249,-0.035 0.004,-10e-4 0.008,-10e-4 0.012,-0.002 0.024,-0.004 0.047,-0.01 0.071,-0.015 0.04,-0.008 0.081,-0.016 0.121,-0.026 0.029,-0.007 0.058,-0.015 0.086,-0.023 0.038,-0.01 0.076,-0.02 0.113,-0.032 0.008,-0.002 0.016,-0.004 0.024,-0.007 0.013,-0.004 0.026,-0.01 0.039,-0.015 0.059,-0.02 0.116,-0.042 0.172,-0.065 0.021,-0.009 0.042,-0.017 0.063,-0.027 0.071,-0.032 0.141,-0.066 0.207,-0.104 l 14.954,-8.69 c 0.009,-0.005 0.018,-0.01 0.027,-0.016 0.02,-0.012 0.037,-0.025 0.056,-0.038 0.027,-0.017 0.054,-0.035 0.079,-0.053 0.022,-0.016 0.041,-0.032 0.061,-0.048 0.023,-0.018 0.046,-0.037 0.067,-0.055 0.004,-0.004 0.009,-0.007 0.014,-0.011 0.028,-0.026 0.054,-0.053 0.079,-0.079 0.005,-0.006 0.009,-0.011 0.014,-0.017 0.015,-0.017 0.029,-0.033 0.043,-0.05 0.006,-0.007 0.01,-0.015 0.015,-0.022 0.019,-0.025 0.036,-0.051 0.051,-0.076 0.007,-0.011 0.015,-0.021 0.022,-0.032 0.003,-0.005 0.005,-0.011 0.008,-0.017 0.012,-0.023 0.022,-0.045 0.032,-0.068 0.006,-0.013 0.014,-0.026 0.019,-0.04 0.002,-0.005 0.002,-0.009 0.004,-0.014 0.008,-0.022 0.013,-0.044 0.019,-0.065 0.004,-0.015 0.01,-0.029 0.013,-0.044 10e-4,-0.004 10e-4,-0.008 10e-4,-0.012 0.004,-0.023 0.006,-0.046 0.008,-0.069 10e-4,-0.015 0.005,-0.03 0.005,-0.045 0,-0.006 0,-0.013 0,-0.019 l 0.008,-2.745 c -0.006,0.017 -0.009,0.039 -0.011,0.06 z"
   inkscape:connector-curvature="0"
   style="fill:url(#XMLID_3_)" />
		<g
   id="XMLID_894_">
			
				<linearGradient
   id="XMLID_4_"
   gradientUnits="userSpaceOnUse"
   x1="6.8106999"
   y1="1244.2985"
   x2="41.196602"
   y2="1244.2985"
   gradientTransform="translate(0,-1209)">
				<stop
   offset="0"
   style="stop-color:#498DEA"
   id="stop10" />
				<stop
   offset="1"
   style="stop-color:#020D83"
   id="stop12" />
			</linearGradient>
			<path
   id="XMLID_895_"
   class="st2"
   d="m 40.55,34.401 c 0.858,0.495 0.863,1.298 0.01,1.794 l -14.954,8.691 c -0.852,0.495 -2.239,0.495 -3.097,0 L 7.457,36.196 C 6.599,35.701 6.595,34.898 7.447,34.402 l 14.954,-8.691 c 0.852,-0.495 2.238,-0.495 3.096,0 z"
   inkscape:connector-curvature="0"
   style="fill:url(#XMLID_4_)" />
		</g>
	</g>
</g>
<g
   id="XMLID_887_"
   transform="matrix(1.3724872,0,0,1.2499926,-8.0251833,-9.7973602)">
	<g
   id="XMLID_888_"
   class="st0"
   style="enable-background:new">
		
			<linearGradient
   id="XMLID_5_"
   gradientUnits="userSpaceOnUse"
   x1="24.003"
   y1="1244.295"
   x2="24.003"
   y2="1257.0044"
   gradientTransform="translate(0,-1209)">
			<stop
   offset="0"
   style="stop-color:#498DEA"
   id="stop19" />
			<stop
   offset="1"
   style="stop-color:#020D83"
   id="stop21" />
		</linearGradient>
		<path
   id="XMLID_891_"
   class="st3"
   d="m 41.191,35.368 c -0.002,0.023 -0.004,0.046 -0.008,0.069 -0.003,0.019 -0.009,0.037 -0.014,0.056 -0.006,0.022 -0.011,0.044 -0.019,0.066 -0.006,0.018 -0.015,0.036 -0.022,0.053 -0.01,0.023 -0.02,0.046 -0.032,0.068 -0.009,0.016 -0.019,0.032 -0.029,0.049 -0.016,0.026 -0.033,0.051 -0.051,0.076 -0.018,0.024 -0.037,0.048 -0.058,0.072 -0.005,0.006 -0.009,0.011 -0.014,0.017 -0.028,0.031 -0.059,0.061 -0.092,0.09 -0.021,0.019 -0.044,0.037 -0.067,0.056 -0.02,0.016 -0.04,0.033 -0.061,0.048 -0.025,0.018 -0.052,0.035 -0.079,0.052 -0.028,0.018 -0.054,0.036 -0.083,0.054 l -14.954,8.691 c -0.066,0.038 -0.135,0.072 -0.207,0.104 -0.021,0.009 -0.042,0.018 -0.063,0.027 -0.056,0.023 -0.113,0.045 -0.172,0.065 -0.021,0.007 -0.042,0.015 -0.063,0.022 -0.037,0.012 -0.075,0.022 -0.113,0.032 -0.029,0.008 -0.057,0.016 -0.086,0.023 -0.04,0.01 -0.081,0.018 -0.121,0.026 -0.027,0.006 -0.055,0.012 -0.082,0.017 -0.082,0.014 -0.165,0.026 -0.249,0.035 -0.026,0.003 -0.052,0.004 -0.078,0.007 -0.049,0.004 -0.098,0.008 -0.148,0.01 -0.032,10e-4 -0.063,0.002 -0.095,0.003 -0.04,10e-4 -0.08,10e-4 -0.12,10e-4 -0.034,0 -0.067,-10e-4 -0.1,-0.003 -0.037,-10e-4 -0.074,-0.003 -0.111,-0.006 -0.034,-0.002 -0.068,-0.005 -0.101,-0.008 -0.036,-0.004 -0.073,-0.008 -0.109,-0.012 -0.033,-0.004 -0.065,-0.009 -0.098,-0.014 -0.039,-0.006 -0.078,-0.013 -0.116,-0.02 -0.03,-0.006 -0.061,-0.012 -0.091,-0.018 -0.046,-0.01 -0.091,-0.021 -0.136,-0.033 -0.025,-0.007 -0.05,-0.013 -0.075,-0.02 -0.08,-0.024 -0.159,-0.05 -0.235,-0.079 C 22.801,45.029 22.765,45.013 22.728,44.997 22.709,44.989 22.69,44.981 22.671,44.972 22.616,44.946 22.562,44.918 22.51,44.888 L 7.458,36.198 C 7.026,35.949 6.811,35.622 6.812,35.295 L 6.804,38.04 c -0.001,0.327 0.215,0.654 0.646,0.903 l 15.052,8.69 c 0.052,0.03 0.105,0.058 0.161,0.084 0.018,0.009 0.038,0.016 0.057,0.025 0.033,0.015 0.065,0.03 0.099,0.043 0.004,0.002 0.008,0.003 0.012,0.004 0.076,0.03 0.155,0.056 0.235,0.079 0.006,0.002 0.012,0.005 0.019,0.006 0.018,0.005 0.038,0.009 0.056,0.014 0.045,0.012 0.09,0.023 0.136,0.033 0.012,0.003 0.024,0.006 0.036,0.009 0.018,0.004 0.037,0.006 0.055,0.01 0.038,0.007 0.077,0.014 0.116,0.02 0.016,0.002 0.031,0.006 0.047,0.008 0.017,0.002 0.034,0.004 0.052,0.006 0.036,0.005 0.072,0.009 0.109,0.012 0.018,0.002 0.035,0.004 0.052,0.006 0.016,0.001 0.033,0.001 0.049,0.003 0.037,0.003 0.074,0.004 0.111,0.006 0.019,0.001 0.037,0.003 0.056,0.003 0.015,0 0.03,0 0.045,0 0.04,0.001 0.08,0 0.12,-10e-4 0.02,0 0.04,0 0.06,0 0.012,0 0.024,-0.002 0.035,-0.002 0.049,-0.002 0.099,-0.006 0.148,-0.01 0.02,-0.002 0.04,-0.002 0.06,-0.004 0.006,-0.001 0.012,-0.002 0.018,-0.003 0.084,-0.009 0.167,-0.02 0.249,-0.035 0.004,-10e-4 0.008,-10e-4 0.012,-0.002 0.024,-0.004 0.047,-0.01 0.071,-0.015 0.04,-0.008 0.081,-0.016 0.121,-0.026 0.029,-0.007 0.058,-0.015 0.086,-0.023 0.038,-0.01 0.076,-0.02 0.113,-0.032 0.008,-0.002 0.016,-0.004 0.024,-0.007 0.013,-0.004 0.026,-0.01 0.039,-0.015 0.059,-0.02 0.116,-0.042 0.172,-0.065 0.021,-0.009 0.042,-0.017 0.063,-0.027 0.071,-0.032 0.141,-0.066 0.207,-0.104 l 14.954,-8.69 c 0.009,-0.005 0.018,-0.01 0.027,-0.016 0.02,-0.012 0.037,-0.025 0.056,-0.038 0.027,-0.017 0.054,-0.035 0.079,-0.053 0.022,-0.016 0.041,-0.032 0.061,-0.048 0.023,-0.018 0.046,-0.037 0.067,-0.055 0.004,-0.004 0.009,-0.007 0.014,-0.011 0.028,-0.026 0.054,-0.053 0.079,-0.079 0.005,-0.006 0.009,-0.011 0.014,-0.017 0.015,-0.017 0.029,-0.033 0.043,-0.05 0.006,-0.007 0.01,-0.015 0.015,-0.022 0.019,-0.025 0.036,-0.051 0.051,-0.076 0.007,-0.011 0.015,-0.021 0.022,-0.032 0.003,-0.005 0.005,-0.011 0.008,-0.017 0.012,-0.023 0.022,-0.045 0.032,-0.068 0.006,-0.013 0.014,-0.026 0.019,-0.04 0.002,-0.005 0.002,-0.009 0.004,-0.014 0.008,-0.022 0.013,-0.044 0.019,-0.065 0.004,-0.015 0.01,-0.029 0.013,-0.044 10e-4,-0.004 10e-4,-0.008 10e-4,-0.012 0.004,-0.023 0.006,-0.046 0.008,-0.069 10e-4,-0.015 0.005,-0.03 0.005,-0.045 0,-0.006 0,-0.013 0,-0.019 l 0.008,-2.745 c -0.006,0.017 -0.009,0.039 -0.011,0.06 z"
   inkscape:connector-curvature="0"
   style="fill:url(#XMLID_5_)" />
		<g
   id="XMLID_889_">
			
				<linearGradient
   id="XMLID_6_"
   gradientUnits="userSpaceOnUse"
   x1="6.8106999"
   y1="1244.2985"
   x2="41.196602"
   y2="1244.2985"
   gradientTransform="translate(0,-1209)">
				<stop
   offset="0"
   style="stop-color:#498DEA"
   id="stop25" />
				<stop
   offset="1"
   style="stop-color:#020D83"
   id="stop27" />
			</linearGradient>
			<path
   id="XMLID_890_"
   class="st4"
   d="m 40.55,34.401 c 0.858,0.495 0.863,1.298 0.01,1.794 l -14.954,8.691 c -0.852,0.495 -2.239,0.495 -3.097,0 L 7.457,36.196 C 6.599,35.701 6.595,34.898 7.447,34.402 l 14.954,-8.691 c 0.852,-0.495 2.238,-0.495 3.096,0 z"
   inkscape:connector-curvature="0"
   style="fill:url(#XMLID_6_)" />
		</g>
	</g>
</g>
<g
   id="XMLID_882_"
   transform="matrix(1.3724872,0,0,1.2499926,-8.0251833,-9.7973602)">
	<g
   id="XMLID_883_"
   class="st0"
   style="enable-background:new">
		
			<linearGradient
   id="XMLID_7_"
   gradientUnits="userSpaceOnUse"
   x1="24.003"
   y1="1244.2939"
   x2="24.003"
   y2="1257.0034"
   gradientTransform="translate(0,-1209)">
			<stop
   offset="0"
   style="stop-color:#15C7FF"
   id="stop34" />
			<stop
   offset="1"
   style="stop-color:#001E3F"
   id="stop36" />
		</linearGradient>
		<path
   id="XMLID_886_"
   class="st5"
   d="m 41.191,35.368 c -0.002,0.023 -0.004,0.046 -0.008,0.069 -0.003,0.019 -0.009,0.037 -0.014,0.056 -0.006,0.022 -0.011,0.044 -0.019,0.066 -0.006,0.018 -0.015,0.036 -0.022,0.053 -0.01,0.023 -0.02,0.046 -0.032,0.068 -0.009,0.016 -0.019,0.032 -0.029,0.049 -0.016,0.026 -0.033,0.051 -0.051,0.076 -0.018,0.024 -0.037,0.048 -0.058,0.072 -0.005,0.006 -0.009,0.011 -0.014,0.017 -0.028,0.031 -0.059,0.061 -0.092,0.09 -0.021,0.019 -0.044,0.037 -0.067,0.056 -0.02,0.016 -0.04,0.033 -0.061,0.048 -0.025,0.018 -0.052,0.035 -0.079,0.052 -0.028,0.018 -0.054,0.036 -0.083,0.054 l -14.954,8.69 c -0.066,0.038 -0.135,0.072 -0.207,0.104 -0.021,0.009 -0.042,0.018 -0.063,0.027 -0.056,0.023 -0.113,0.045 -0.172,0.065 -0.021,0.007 -0.042,0.015 -0.063,0.022 -0.037,0.012 -0.075,0.022 -0.113,0.032 -0.029,0.008 -0.057,0.016 -0.086,0.023 -0.04,0.01 -0.081,0.018 -0.121,0.026 -0.027,0.006 -0.055,0.012 -0.082,0.017 -0.082,0.014 -0.165,0.026 -0.249,0.035 -0.026,0.003 -0.052,0.004 -0.078,0.007 -0.049,0.004 -0.098,0.008 -0.148,0.01 -0.032,10e-4 -0.063,0.002 -0.095,0.003 -0.04,10e-4 -0.08,10e-4 -0.12,10e-4 -0.034,0 -0.067,-10e-4 -0.1,-0.003 C 23.874,45.252 23.837,45.25 23.8,45.247 23.766,45.245 23.732,45.242 23.699,45.239 23.663,45.235 23.626,45.231 23.59,45.227 23.557,45.223 23.525,45.218 23.492,45.213 23.453,45.207 23.414,45.2 23.376,45.193 c -0.03,-0.006 -0.061,-0.012 -0.091,-0.018 -0.046,-0.01 -0.091,-0.021 -0.136,-0.033 -0.025,-0.007 -0.05,-0.013 -0.075,-0.02 -0.08,-0.024 -0.159,-0.05 -0.235,-0.079 C 22.801,45.028 22.765,45.012 22.728,44.996 22.709,44.988 22.69,44.98 22.671,44.971 22.616,44.945 22.562,44.917 22.51,44.887 L 7.458,36.197 C 7.026,35.948 6.811,35.621 6.812,35.294 l -0.008,2.745 c -0.001,0.327 0.215,0.654 0.646,0.903 l 15.052,8.69 c 0.052,0.03 0.105,0.058 0.161,0.084 0.018,0.009 0.038,0.016 0.057,0.025 0.033,0.015 0.065,0.03 0.099,0.043 0.004,0.002 0.008,0.003 0.012,0.004 0.076,0.03 0.155,0.056 0.235,0.079 0.006,0.002 0.012,0.005 0.019,0.006 0.018,0.005 0.038,0.009 0.056,0.014 0.045,0.012 0.09,0.023 0.136,0.033 0.012,0.003 0.024,0.006 0.036,0.009 0.018,0.004 0.037,0.006 0.055,0.01 0.038,0.007 0.077,0.014 0.116,0.02 0.016,0.002 0.031,0.006 0.047,0.008 0.017,0.002 0.034,0.004 0.052,0.006 0.036,0.005 0.072,0.009 0.109,0.012 0.018,0.002 0.035,0.004 0.052,0.006 0.016,10e-4 0.033,10e-4 0.049,0.003 0.037,0.003 0.074,0.004 0.111,0.006 0.019,10e-4 0.037,0.003 0.056,0.003 0.015,0 0.03,0 0.045,0 0.04,10e-4 0.08,0 0.12,-10e-4 0.02,0 0.04,0 0.06,0 0.012,0 0.024,-0.002 0.035,-0.002 0.049,-0.002 0.099,-0.006 0.148,-0.01 0.02,-0.002 0.04,-0.002 0.06,-0.004 0.006,-10e-4 0.012,-0.002 0.018,-0.003 0.084,-0.009 0.167,-0.02 0.249,-0.035 0.004,-10e-4 0.008,-10e-4 0.012,-0.002 0.024,-0.004 0.047,-0.01 0.071,-0.015 0.04,-0.008 0.081,-0.016 0.121,-0.026 0.029,-0.007 0.058,-0.015 0.086,-0.023 0.038,-0.01 0.076,-0.02 0.113,-0.032 0.008,-0.002 0.016,-0.004 0.024,-0.007 0.013,-0.004 0.026,-0.01 0.039,-0.015 0.059,-0.02 0.116,-0.042 0.172,-0.065 0.021,-0.009 0.042,-0.017 0.063,-0.027 0.071,-0.032 0.141,-0.066 0.207,-0.104 l 14.954,-8.69 c 0.009,-0.005 0.018,-0.01 0.027,-0.016 0.02,-0.012 0.037,-0.025 0.056,-0.038 0.027,-0.017 0.054,-0.035 0.079,-0.053 0.022,-0.016 0.041,-0.032 0.061,-0.048 0.023,-0.018 0.046,-0.037 0.067,-0.055 0.004,-0.004 0.009,-0.007 0.014,-0.011 0.028,-0.026 0.054,-0.053 0.079,-0.079 0.005,-0.006 0.009,-0.011 0.014,-0.017 0.015,-0.017 0.029,-0.033 0.043,-0.05 0.006,-0.007 0.01,-0.015 0.015,-0.022 0.019,-0.025 0.036,-0.051 0.051,-0.076 0.007,-0.011 0.015,-0.021 0.022,-0.032 0.003,-0.005 0.005,-0.011 0.008,-0.017 0.012,-0.023 0.022,-0.045 0.032,-0.068 0.006,-0.013 0.014,-0.026 0.019,-0.04 0.002,-0.005 0.002,-0.009 0.004,-0.014 0.008,-0.022 0.013,-0.044 0.019,-0.065 0.004,-0.015 0.01,-0.029 0.013,-0.044 10e-4,-0.004 10e-4,-0.008 10e-4,-0.012 0.004,-0.023 0.006,-0.046 0.008,-0.069 10e-4,-0.015 0.005,-0.03 0.005,-0.045 0,-0.006 0,-0.013 0,-0.019 l 0.008,-2.745 c -0.006,0.018 -0.009,0.04 -0.011,0.061 z"
   inkscape:connector-curvature="0"
   style="fill:url(#XMLID_7_)" />
		<g
   id="XMLID_884_">
			
				<linearGradient
   id="XMLID_8_"
   gradientUnits="userSpaceOnUse"
   x1="6.8106999"
   y1="1244.2985"
   x2="41.196602"
   y2="1244.2985"
   gradientTransform="translate(0,-1209)">
				<stop
   offset="0"
   style="stop-color:#15C7FF"
   id="stop40" />
				<stop
   offset="1"
   style="stop-color:#001E3F"
   id="stop42" />
			</linearGradient>
			<path
   id="XMLID_885_"
   class="st6"
   d="m 40.55,34.401 c 0.858,0.495 0.863,1.298 0.01,1.794 l -14.954,8.691 c -0.852,0.495 -2.239,0.495 -3.097,0 L 7.457,36.196 C 6.599,35.701 6.595,34.898 7.447,34.402 l 14.954,-8.691 c 0.852,-0.495 2.238,-0.495 3.096,0 z"
   inkscape:connector-curvature="0"
   style="fill:url(#XMLID_8_)" />
		</g>
	</g>
</g>
<g
   id="XMLID_738_"
   transform="matrix(1.3724872,0,0,1.2499926,-8.0251833,-9.7973602)">
	<g
   id="XMLID_854_">
		<g
   id="XMLID_855_"
   class="st0"
   style="enable-background:new">
			<g
   id="XMLID_880_">
				<polygon
   id="XMLID_881_"
   class="st7"
   points="26.234,18.236 30.806,20.893 31.238,21.207 24.842,17.443 "
   style="fill:#2a497d" />
			</g>
			<g
   id="XMLID_860_">
				
					<linearGradient
   id="XMLID_9_"
   gradientUnits="userSpaceOnUse"
   x1="16.130501"
   y1="1232.922"
   x2="16.130501"
   y2="1250.1591"
   gradientTransform="translate(0,-1209)">
					<stop
   offset="0"
   style="stop-color:#15C7FF"
   id="stop51" />
					<stop
   offset="1"
   style="stop-color:#001E3F"
   id="stop53" />
				</linearGradient>
				<polygon
   id="XMLID_861_"
   class="st8"
   points="12.919,23.922 19.315,27.686 19.342,41.159 12.947,37.473 "
   style="fill:url(#XMLID_9_)" />
			</g>
			<linearGradient
   id="SVGID_1_"
   gradientUnits="userSpaceOnUse"
   x1="22.078501"
   y1="17.372"
   x2="22.078501"
   y2="27.686001">
				<stop
   offset="0"
   style="stop-color:#15C7FF"
   id="stop58" />
				<stop
   offset="1"
   style="stop-color:#001E3F"
   id="stop60" />
			</linearGradient>
			<path
   class="st9"
   d="m 31.237,21.207 -0.003,-0.002 c 10e-4,0.001 0.003,0.001 0.003,0.002 L 24.842,17.443 C 24.81,17.425 24.776,17.41 24.741,17.399 l 0.063,0.037 c 0,0 -10e-4,0 -0.002,0 L 24.74,17.399 c -0.025,-0.008 -0.051,-0.014 -0.077,-0.019 -0.021,-0.003 -0.042,-0.006 -0.064,-0.007 -0.019,-0.001 -0.038,-0.001 -0.057,-0.001 -0.017,0 -0.035,0.001 -0.053,0.003 -0.001,0 -0.002,0 -0.003,0 -0.002,0 -0.004,0 -0.007,0.001 -0.013,10e-4 -0.026,0.002 -0.04,0.005 -0.016,0.002 -0.032,0.005 -0.048,0.009 -0.016,0.003 -0.031,0.007 -0.047,0.011 -0.015,0.004 -0.031,0.009 -0.046,0.014 -0.015,0.005 -0.03,0.01 -0.045,0.016 -0.015,0.006 -0.03,0.012 -0.045,0.018 v 0 c -0.015,0.006 -0.03,0.013 -0.044,0.02 -0.015,0.007 -0.03,0.014 -0.045,0.022 -0.015,0.007 -0.03,0.015 -0.045,0.024 l 0.003,0.002 c 0,0 0,0 -0.001,0 l -0.003,-0.002 c -0.004,0.002 -0.008,0.005 -0.012,0.007 v 0 l -11.142,6.4 6.396,3.764 11.142,-6.4 c 0.145,-0.084 0.287,-0.132 0.419,-0.146 0.002,0 0.004,-0.001 0.006,-0.001 0.131,-0.012 0.252,0.009 0.355,0.068 z"
   id="path63"
   inkscape:connector-curvature="0"
   style="fill:url(#SVGID_1_)" />
			<g
   id="XMLID_856_">
				
					<linearGradient
   id="XMLID_10_"
   gradientUnits="userSpaceOnUse"
   x1="26.144501"
   y1="1230.1351"
   x2="26.144501"
   y2="1250.158"
   gradientTransform="translate(0,-1209)">
					<stop
   offset="0"
   style="stop-color:#15C7FF"
   id="stop65" />
					<stop
   offset="1"
   style="stop-color:#001E3F"
   id="stop67" />
				</linearGradient>
				<path
   id="XMLID_857_"
   class="st10"
   d="m 30.457,21.286 c 0.292,-0.169 0.573,-0.197 0.78,-0.079 L 32.629,22 c 0.208,0.118 0.325,0.373 0.326,0.709 l 0.02,10.611 -13.633,7.838 -0.028,-13.472 z"
   inkscape:connector-curvature="0"
   style="fill:url(#XMLID_10_)" />
			</g>
		</g>
	</g>
	<g
   id="XMLID_847_">
		<g
   id="XMLID_848_"
   class="st0"
   style="enable-background:new">
			<g
   id="g84">
				<g
   id="g82">
					<defs
   id="defs75">
						<polygon
   id="SVGID_2_"
   points="30.135,20.57 31.981,32.981 21.316,39.105 21.295,27.801 " />
					</defs>
					<clipPath
   id="SVGID_3_">
						<use
   xlink:href="#SVGID_2_"
   style="overflow:visible"
   id="use77"
   x="0"
   y="0"
   width="100%"
   height="100%" />
					</clipPath>
					<g
   id="XMLID_850_"
   class="st11"
   clip-path="url(#SVGID_3_)">
						<path
   id="XMLID_851_"
   class="st12"
   d="m 21.339,39.066 -0.022,-11.251 8.624,-4.946 c 0.234,-0.135 0.455,-0.161 0.621,-0.073 L 29.86,22.28 c 0.166,0.088 2.082,1.386 2.082,1.646 l 0.015,9.042 -10.618,6.098 m 8.603,-16.224 -8.647,4.959 0.022,11.304 10.664,-6.124 -0.015,-9.069 c -0.001,-0.266 -1.919,-1.57 -2.09,-1.66 l 0.703,0.514 c -0.171,-0.09 -0.397,-0.063 -0.637,0.076"
   inkscape:connector-curvature="0"
   style="fill:#3e9e8e" />
					</g>
				</g>
			</g>
		</g>
	</g>
	<g
   id="XMLID_766_">
		<g
   id="XMLID_839_">
			<g
   id="XMLID_840_"
   class="st0"
   style="enable-background:new">
				<g
   id="XMLID_845_">
					<polygon
   id="XMLID_846_"
   class="st13"
   points="18.557,35.647 18.446,35.711 18.447,35.615 18.557,35.551 "
   style="fill:#0f1045" />
				</g>
				<g
   id="XMLID_843_">
					<polygon
   id="XMLID_844_"
   class="st14"
   points="18.557,35.551 18.447,35.615 14.8,33.456 14.911,33.392 "
   style="fill:#1b1e80" />
				</g>
				<g
   id="XMLID_841_">
					<polygon
   id="XMLID_842_"
   class="st15"
   points="18.446,35.711 14.8,33.551 14.8,33.504 14.8,33.456 18.447,35.615 "
   style="fill:#121456" />
				</g>
			</g>
		</g>
		<g
   id="XMLID_831_">
			<g
   id="XMLID_832_"
   class="st0"
   style="enable-background:new">
				<g
   id="XMLID_837_">
					<polygon
   id="XMLID_838_"
   class="st13"
   points="18.557,34.903 18.446,34.967 18.447,34.872 18.557,34.808 "
   style="fill:#0f1045" />
				</g>
				<g
   id="XMLID_835_">
					<polygon
   id="XMLID_836_"
   class="st14"
   points="18.557,34.808 18.447,34.872 14.8,32.712 14.911,32.648 "
   style="fill:#1b1e80" />
				</g>
				<g
   id="XMLID_833_">
					<polygon
   id="XMLID_834_"
   class="st15"
   points="18.446,34.967 14.8,32.808 14.8,32.76 14.8,32.712 18.447,34.872 "
   style="fill:#121456" />
				</g>
			</g>
		</g>
		<g
   id="XMLID_823_">
			<g
   id="XMLID_824_"
   class="st0"
   style="enable-background:new">
				<g
   id="XMLID_829_">
					<polygon
   id="XMLID_830_"
   class="st13"
   points="18.557,34.16 18.446,34.224 18.447,34.129 18.557,34.065 "
   style="fill:#0f1045" />
				</g>
				<g
   id="XMLID_827_">
					<polygon
   id="XMLID_828_"
   class="st14"
   points="18.557,34.065 18.447,34.129 14.8,31.969 14.911,31.905 "
   style="fill:#1b1e80" />
				</g>
				<g
   id="XMLID_825_">
					<polygon
   id="XMLID_826_"
   class="st15"
   points="18.446,34.224 14.8,32.065 14.8,32.017 14.8,31.969 18.447,34.129 "
   style="fill:#121456" />
				</g>
			</g>
		</g>
		<g
   id="XMLID_815_">
			<g
   id="XMLID_816_"
   class="st0"
   style="enable-background:new">
				<g
   id="XMLID_821_">
					<polygon
   id="XMLID_822_"
   class="st13"
   points="18.557,33.417 18.446,33.481 18.447,33.385 18.557,33.321 "
   style="fill:#0f1045" />
				</g>
				<g
   id="XMLID_819_">
					<polygon
   id="XMLID_820_"
   class="st14"
   points="18.557,33.321 18.447,33.385 14.8,31.226 14.911,31.162 "
   style="fill:#1b1e80" />
				</g>
				<g
   id="XMLID_817_">
					<polygon
   id="XMLID_818_"
   class="st15"
   points="18.446,33.481 14.8,31.321 14.8,31.274 14.8,31.226 18.447,33.385 "
   style="fill:#121456" />
				</g>
			</g>
		</g>
		<g
   id="XMLID_807_">
			<g
   id="XMLID_808_"
   class="st0"
   style="enable-background:new">
				<g
   id="XMLID_813_">
					<polygon
   id="XMLID_814_"
   class="st13"
   points="18.557,32.673 18.446,32.738 18.447,32.642 18.557,32.578 "
   style="fill:#0f1045" />
				</g>
				<g
   id="XMLID_811_">
					<polygon
   id="XMLID_812_"
   class="st14"
   points="18.557,32.578 18.447,32.642 14.8,30.482 14.911,30.418 "
   style="fill:#1b1e80" />
				</g>
				<g
   id="XMLID_809_">
					<polygon
   id="XMLID_810_"
   class="st15"
   points="18.446,32.738 14.8,30.578 14.8,30.53 14.8,30.482 18.447,32.642 "
   style="fill:#121456" />
				</g>
			</g>
		</g>
		<g
   id="XMLID_799_">
			<g
   id="XMLID_800_"
   class="st0"
   style="enable-background:new">
				<g
   id="XMLID_805_">
					<polygon
   id="XMLID_806_"
   class="st13"
   points="18.557,31.93 18.446,31.994 18.447,31.899 18.557,31.835 "
   style="fill:#0f1045" />
				</g>
				<g
   id="XMLID_803_">
					<polygon
   id="XMLID_804_"
   class="st14"
   points="18.557,31.835 18.447,31.899 14.8,29.739 14.911,29.675 "
   style="fill:#1b1e80" />
				</g>
				<g
   id="XMLID_801_">
					<polygon
   id="XMLID_802_"
   class="st15"
   points="18.446,31.994 14.8,29.835 14.8,29.787 14.8,29.739 18.447,31.899 "
   style="fill:#121456" />
				</g>
			</g>
		</g>
		<g
   id="XMLID_791_">
			<g
   id="XMLID_792_"
   class="st0"
   style="enable-background:new">
				<g
   id="XMLID_797_">
					<polygon
   id="XMLID_798_"
   class="st13"
   points="18.557,31.187 18.446,31.251 18.447,31.155 18.557,31.091 "
   style="fill:#0f1045" />
				</g>
				<g
   id="XMLID_795_">
					<polygon
   id="XMLID_796_"
   class="st14"
   points="18.557,31.091 18.447,31.155 14.8,28.996 14.911,28.932 "
   style="fill:#1b1e80" />
				</g>
				<g
   id="XMLID_793_">
					<polygon
   id="XMLID_794_"
   class="st15"
   points="18.446,31.251 14.8,29.091 14.8,29.044 14.8,28.996 18.447,31.155 "
   style="fill:#121456" />
				</g>
			</g>
		</g>
		<g
   id="XMLID_783_">
			<g
   id="XMLID_784_"
   class="st0"
   style="enable-background:new">
				<g
   id="XMLID_789_">
					<polygon
   id="XMLID_790_"
   class="st13"
   points="18.557,30.444 18.446,30.508 18.447,30.412 18.557,30.348 "
   style="fill:#0f1045" />
				</g>
				<g
   id="XMLID_787_">
					<polygon
   id="XMLID_788_"
   class="st14"
   points="18.557,30.348 18.447,30.412 14.8,28.252 14.911,28.188 "
   style="fill:#1b1e80" />
				</g>
				<g
   id="XMLID_785_">
					<polygon
   id="XMLID_786_"
   class="st15"
   points="18.446,30.508 14.8,28.348 14.8,28.3 14.8,28.252 18.447,30.412 "
   style="fill:#121456" />
				</g>
			</g>
		</g>
		<g
   id="XMLID_775_">
			<g
   id="XMLID_776_"
   class="st0"
   style="enable-background:new">
				<g
   id="XMLID_781_">
					<polygon
   id="XMLID_782_"
   class="st13"
   points="18.557,29.7 18.446,29.764 18.447,29.669 18.557,29.605 "
   style="fill:#0f1045" />
				</g>
				<g
   id="XMLID_779_">
					<polygon
   id="XMLID_780_"
   class="st14"
   points="18.557,29.605 18.447,29.669 14.8,27.509 14.911,27.445 "
   style="fill:#1b1e80" />
				</g>
				<g
   id="XMLID_777_">
					<polygon
   id="XMLID_778_"
   class="st15"
   points="18.446,29.764 14.8,27.605 14.8,27.557 14.8,27.509 18.447,29.669 "
   style="fill:#121456" />
				</g>
			</g>
		</g>
		<g
   id="XMLID_767_">
			<g
   id="XMLID_768_"
   class="st0"
   style="enable-background:new">
				<g
   id="XMLID_773_">
					<polygon
   id="XMLID_774_"
   class="st13"
   points="18.557,28.957 18.446,29.021 18.447,28.925 18.557,28.861 "
   style="fill:#0f1045" />
				</g>
				<g
   id="XMLID_771_">
					<polygon
   id="XMLID_772_"
   class="st14"
   points="18.557,28.861 18.447,28.925 14.8,26.766 14.911,26.702 "
   style="fill:#1b1e80" />
				</g>
				<g
   id="XMLID_769_">
					<polygon
   id="XMLID_770_"
   class="st15"
   points="18.446,29.021 14.8,26.861 14.8,26.814 14.8,26.766 18.447,28.925 "
   style="fill:#121456" />
				</g>
			</g>
		</g>
	</g>
	<g
   id="XMLID_739_">
		<g
   id="XMLID_740_">
			<g
   id="XMLID_757_">
				<g
   id="XMLID_758_"
   class="st0"
   style="enable-background:new">
					<g
   id="XMLID_763_">
						<polygon
   id="XMLID_764_"
   class="st16"
   points="14.122,33.1 14.012,33.164 14.016,31.655 14.127,31.59 "
   style="fill:#009983" />
					</g>
					<g
   id="XMLID_761_">
						<polygon
   id="XMLID_762_"
   class="st17"
   points="14.127,31.59 14.016,31.655 13.666,31.453 13.777,31.388 "
   style="fill:#00b99e" />
					</g>
					<g
   id="XMLID_759_">
						<polygon
   id="XMLID_760_"
   class="st18"
   points="13.662,32.962 13.666,31.453 14.016,31.655 14.012,33.164 "
   style="fill:#00e5c4" />
					</g>
				</g>
			</g>
			<g
   id="XMLID_749_">
				<g
   id="XMLID_750_"
   class="st0"
   style="enable-background:new">
					<g
   id="XMLID_755_">
						<polygon
   id="XMLID_756_"
   class="st16"
   points="14.122,30.518 14.012,30.582 14.016,29.073 14.127,29.008 "
   style="fill:#009983" />
					</g>
					<g
   id="XMLID_753_">
						<polygon
   id="XMLID_754_"
   class="st17"
   points="14.127,29.008 14.016,29.073 13.666,28.87 13.777,28.806 "
   style="fill:#00b99e" />
					</g>
					<g
   id="XMLID_751_">
						<polygon
   id="XMLID_752_"
   class="st18"
   points="13.662,30.38 13.666,28.87 14.016,29.073 14.012,30.582 "
   style="fill:#00e5c4" />
					</g>
				</g>
			</g>
			<g
   id="XMLID_741_">
				<g
   id="XMLID_742_"
   class="st0"
   style="enable-background:new">
					<g
   id="XMLID_747_">
						<polygon
   id="XMLID_748_"
   class="st16"
   points="14.122,27.936 14.012,28 14.016,26.49 14.127,26.426 "
   style="fill:#009983" />
					</g>
					<g
   id="XMLID_745_">
						<polygon
   id="XMLID_746_"
   class="st17"
   points="14.127,26.426 14.016,26.49 13.666,26.288 13.777,26.224 "
   style="fill:#00b99e" />
					</g>
					<g
   id="XMLID_743_">
						<polygon
   id="XMLID_744_"
   class="st18"
   points="13.662,27.798 13.666,26.288 14.016,26.49 14.012,28 "
   style="fill:#00e5c4" />
					</g>
				</g>
			</g>
		</g>
	</g>
</g>
<g
   id="XMLID_2_"
   transform="matrix(1.3724872,0,0,1.2499926,-8.0251833,-9.7973602)">
	
		<linearGradient
   id="XMLID_11_"
   gradientUnits="userSpaceOnUse"
   x1="28.440599"
   y1="1247.8392"
   x2="27.686399"
   y2="1250.1416"
   gradientTransform="translate(0,-1209)">
		<stop
   offset="0"
   style="stop-color:#FFFFFF"
   id="stop196" />
		<stop
   offset="0.0214"
   style="stop-color:#EFEFEF"
   id="stop198" />
		<stop
   offset="0.0932"
   style="stop-color:#BDBDBD"
   id="stop200" />
		<stop
   offset="0.1706"
   style="stop-color:#909090"
   id="stop202" />
		<stop
   offset="0.2518"
   style="stop-color:#696969"
   id="stop204" />
		<stop
   offset="0.3377"
   style="stop-color:#494949"
   id="stop206" />
		<stop
   offset="0.4296"
   style="stop-color:#2E2E2E"
   id="stop208" />
		<stop
   offset="0.5299"
   style="stop-color:#1A1A1A"
   id="stop210" />
		<stop
   offset="0.6428"
   style="stop-color:#0B0B0B"
   id="stop212" />
		<stop
   offset="0.7787"
   style="stop-color:#030303"
   id="stop214" />
		<stop
   offset="1"
   style="stop-color:#000000"
   id="stop216" />
	</linearGradient>
	<path
   id="XMLID_721_"
   class="st19"
   d="m 26.404,37.604 c 0,0 1.157,1.699 4.061,1.221 l 0.032,1.189 c 0,0 -2.208,0.777 -4.117,-0.55 z"
   inkscape:connector-curvature="0"
   style="opacity:0.9;fill:url(#XMLID_11_);enable-background:new" />
	
		<linearGradient
   id="XMLID_12_"
   gradientUnits="userSpaceOnUse"
   x1="23.641899"
   y1="1244.1466"
   x2="25.8668"
   y2="1247.2827"
   gradientTransform="translate(0,-1209)">
		<stop
   offset="0"
   style="stop-color:#1C6BB3"
   id="stop220" />
		<stop
   offset="0.3846"
   style="stop-color:#00B0ED"
   id="stop222" />
		<stop
   offset="0.4767"
   style="stop-color:#22B9F3"
   id="stop224" />
		<stop
   offset="0.6026"
   style="stop-color:#49C3F9"
   id="stop226" />
		<stop
   offset="0.7027"
   style="stop-color:#62CAFD"
   id="stop228" />
		<stop
   offset="0.7637"
   style="stop-color:#6BCCFF"
   id="stop230" />
		<stop
   offset="0.9231"
   style="stop-color:#FFCCFF"
   id="stop232" />
	</linearGradient>
	<path
   id="XMLID_720_"
   class="st20"
   d="m 25.767,37.137 1.165,-0.618 0.018,-0.029 c 0,0 -0.518,-0.849 -1.671,-1.294 0,0 -1.066,-0.441 -2.456,-0.04 l -1.133,0.562 c -0.001,0 3.236,0.992 4.077,1.419 z"
   inkscape:connector-curvature="0"
   style="fill:url(#XMLID_12_)" />
	
		<linearGradient
   id="XMLID_13_"
   gradientUnits="userSpaceOnUse"
   x1="23.667101"
   y1="1244.1364"
   x2="25.892099"
   y2="1247.2725"
   gradientTransform="translate(0,-1209)">
		<stop
   offset="0"
   style="stop-color:#C42424"
   id="stop236" />
		<stop
   offset="1"
   style="stop-color:#38005D"
   id="stop238" />
	</linearGradient>
	<path
   id="XMLID_719_"
   class="st21"
   d="m 25.792,37.127 1.165,-0.618 0.018,-0.029 c 0,0 -0.518,-0.849 -1.671,-1.294 0,0 -1.066,-0.441 -2.456,-0.04 l -1.133,0.561 c -0.001,0 3.237,0.992 4.077,1.42 z"
   inkscape:connector-curvature="0"
   style="opacity:0.51000001;fill:url(#XMLID_13_);enable-background:new" />
	
		<linearGradient
   id="XMLID_14_"
   gradientUnits="userSpaceOnUse"
   x1="26.0452"
   y1="1245.5479"
   x2="26.871901"
   y2="1249.7175"
   gradientTransform="translate(0,-1209)">
		<stop
   offset="0"
   style="stop-color:#174FA6"
   id="stop242" />
		<stop
   offset="0.456"
   style="stop-color:#008FED"
   id="stop244" />
		<stop
   offset="0.4858"
   style="stop-color:#1695EF"
   id="stop246" />
		<stop
   offset="0.5877"
   style="stop-color:#5CA8F4"
   id="stop248" />
		<stop
   offset="0.6793"
   style="stop-color:#94B8F9"
   id="stop250" />
		<stop
   offset="0.7576"
   style="stop-color:#BCC3FC"
   id="stop252" />
		<stop
   offset="0.8194"
   style="stop-color:#D5CAFE"
   id="stop254" />
		<stop
   offset="0.8571"
   style="stop-color:#DECCFF"
   id="stop256" />
	</linearGradient>
	<polygon
   id="XMLID_716_"
   class="st22"
   points="26.949,36.49 25.816,37.052 25.816,40.008 26.949,39.447 "
   style="fill:url(#XMLID_14_)" />
	
		<linearGradient
   id="XMLID_15_"
   gradientUnits="userSpaceOnUse"
   x1="23.0569"
   y1="1247.4291"
   x2="26.0193"
   y2="1245.0162"
   gradientTransform="translate(0,-1209)">
		<stop
   offset="0"
   style="stop-color:#0099F0"
   id="stop260" />
		<stop
   offset="1"
   style="stop-color:#C2F2FF"
   id="stop262" />
	</linearGradient>
	<path
   id="XMLID_714_"
   class="st23"
   d="m 25.816,40.008 c 0,0 -1.386,-1.807 -4.127,-1.156 v -3.135 c 0,0 2.526,-0.889 4.127,1.334 0,0 0,2.957 0,2.957 z"
   inkscape:connector-curvature="0"
   style="fill:url(#XMLID_15_)" />
	
		<linearGradient
   id="XMLID_16_"
   gradientUnits="userSpaceOnUse"
   x1="30.934799"
   y1="1246.8726"
   x2="31.202101"
   y2="1251.5989"
   gradientTransform="translate(0,-1209)">
		<stop
   offset="0.2637"
   style="stop-color:#C95C00"
   id="stop266" />
		<stop
   offset="0.5152"
   style="stop-color:#DF5D19"
   id="stop268" />
		<stop
   offset="0.8159"
   style="stop-color:#F35E32"
   id="stop270" />
		<stop
   offset="1"
   style="stop-color:#FB5E3B"
   id="stop272" />
	</linearGradient>
	<polygon
   id="XMLID_713_"
   class="st24"
   points="30.439,38.785 31.488,38.24 31.656,38.172 31.653,41.319 30.508,41.892 30.455,41.84 "
   style="fill:url(#XMLID_16_)" />
	
		<linearGradient
   id="XMLID_17_"
   gradientUnits="userSpaceOnUse"
   x1="26.5618"
   y1="1249.0663"
   x2="26.5408"
   y2="1246.4778"
   gradientTransform="translate(0,-1209)">
		<stop
   offset="0"
   style="stop-color:#C42424"
   id="stop276" />
		<stop
   offset="1"
   style="stop-color:#38005D"
   id="stop278" />
	</linearGradient>
	<polygon
   id="XMLID_712_"
   class="st25"
   points="26.143,37.498 26.143,39.852 26.442,39.707 26.957,37.37 26.937,37.106 "
   style="opacity:0.6;fill:url(#XMLID_17_);enable-background:new" />
	
		<linearGradient
   id="XMLID_18_"
   gradientUnits="userSpaceOnUse"
   x1="26.704"
   y1="1245.2336"
   x2="31.060499"
   y2="1248.5385"
   gradientTransform="translate(0,-1209)">
		<stop
   offset="0.2637"
   style="stop-color:#FF9C00"
   id="stop282" />
		<stop
   offset="0.2821"
   style="stop-color:#FF9F02"
   id="stop284" />
		<stop
   offset="0.5971"
   style="stop-color:#FDC621"
   id="stop286" />
		<stop
   offset="0.8473"
   style="stop-color:#FBDF34"
   id="stop288" />
		<stop
   offset="1"
   style="stop-color:#FBE83B"
   id="stop290" />
	</linearGradient>
	<path
   id="XMLID_711_"
   class="st26"
   d="m 26.384,37.589 1.145,-0.573 c 0,0 0.287,0.371 0.902,0.753 0,0 0.511,0.286 0.862,0.373 0,0 0.379,0.123 0.753,0.146 0,0 0.692,0.142 1.609,-0.115 l -1.145,0.573 c 0,0 -0.712,0.22 -1.201,0.188 10e-4,-10e-4 -2.328,-0.087 -2.925,-1.345 z"
   inkscape:connector-curvature="0"
   style="fill:url(#XMLID_18_)" />
	
		<linearGradient
   id="XMLID_19_"
   gradientUnits="userSpaceOnUse"
   x1="26.386999"
   y1="1246.9741"
   x2="31.659"
   y2="1246.9741"
   gradientTransform="translate(0,-1209)">
		<stop
   offset="0"
   style="stop-color:#C42424"
   id="stop294" />
		<stop
   offset="1"
   style="stop-color:#38005D"
   id="stop296" />
	</linearGradient>
	<path
   id="XMLID_710_"
   class="st27"
   d="m 26.387,37.587 1.145,-0.573 c 0,0 0.287,0.371 0.903,0.753 0,0 0.511,0.287 0.862,0.373 0,0 0.379,0.123 0.753,0.146 0,0 0.692,0.142 1.609,-0.115 l -1.157,0.583 c 0,0 -0.7,0.209 -1.188,0.177 -0.001,-10e-4 -2.33,-0.087 -2.927,-1.344 z"
   inkscape:connector-curvature="0"
   style="opacity:0.62000002;fill:url(#XMLID_19_);enable-background:new" />
	
		<linearGradient
   id="XMLID_20_"
   gradientUnits="userSpaceOnUse"
   x1="32.562"
   y1="1253.4546"
   x2="26.9219"
   y2="1246.8784"
   gradientTransform="translate(0,-1209)">
		<stop
   offset="0.2637"
   style="stop-color:#FF9C00"
   id="stop300" />
		<stop
   offset="0.2821"
   style="stop-color:#FF9F02"
   id="stop302" />
		<stop
   offset="0.5971"
   style="stop-color:#FDC621"
   id="stop304" />
		<stop
   offset="0.8473"
   style="stop-color:#FBDF34"
   id="stop306" />
		<stop
   offset="1"
   style="stop-color:#FBE83B"
   id="stop308" />
	</linearGradient>
	<path
   id="XMLID_709_"
   class="st28"
   d="m 26.384,37.589 c 0,0 1.386,1.807 4.127,1.156 v 3.135 c 0,0 -2.525,0.889 -4.127,-1.334 0,0 0,-2.957 0,-2.957 z"
   inkscape:connector-curvature="0"
   style="fill:url(#XMLID_20_)" />
	
		<linearGradient
   id="XMLID_21_"
   gradientUnits="userSpaceOnUse"
   x1="22.196699"
   y1="1239.6949"
   x2="26.2085"
   y2="1242.6353"
   gradientTransform="translate(0,-1209)">
		<stop
   offset="0"
   style="stop-color:#AD0000"
   id="stop312" />
		<stop
   offset="0.1193"
   style="stop-color:#BA1812"
   id="stop314" />
		<stop
   offset="0.417"
   style="stop-color:#D74F3D"
   id="stop316" />
		<stop
   offset="0.6736"
   style="stop-color:#ED775B"
   id="stop318" />
		<stop
   offset="0.8763"
   style="stop-color:#FA906E"
   id="stop320" />
		<stop
   offset="1"
   style="stop-color:#FF9975"
   id="stop322" />
	</linearGradient>
	<path
   id="XMLID_706_"
   class="st29"
   d="m 25.767,33.4 1.165,-0.618 0.018,-0.029 c 0,0 -0.518,-0.849 -1.671,-1.294 0,0 -1.066,-0.441 -2.456,-0.04 L 21.69,31.98 c -0.001,0.001 3.236,0.993 4.077,1.42 z"
   inkscape:connector-curvature="0"
   style="fill:url(#XMLID_21_)" />
	
		<linearGradient
   id="XMLID_22_"
   gradientUnits="userSpaceOnUse"
   x1="26.045099"
   y1="1241.8112"
   x2="26.871799"
   y2="1245.9807"
   gradientTransform="translate(0,-1209)">
		<stop
   offset="0.2637"
   style="stop-color:#A85200"
   id="stop326" />
		<stop
   offset="0.4308"
   style="stop-color:#C07111"
   id="stop328" />
		<stop
   offset="0.6804"
   style="stop-color:#E09828"
   id="stop330" />
		<stop
   offset="0.8789"
   style="stop-color:#F4B136"
   id="stop332" />
		<stop
   offset="1"
   style="stop-color:#FBBA3B"
   id="stop334" />
	</linearGradient>
	<polygon
   id="XMLID_701_"
   class="st30"
   points="26.949,32.754 25.816,33.315 25.816,36.272 26.949,35.71 "
   style="fill:url(#XMLID_22_)" />
	
		<linearGradient
   id="XMLID_23_"
   gradientUnits="userSpaceOnUse"
   x1="22.361601"
   y1="1241.6127"
   x2="26.064301"
   y2="1245.8411"
   gradientTransform="translate(0,-1209)">
		<stop
   offset="0.2637"
   style="stop-color:#FF7300"
   id="stop338" />
		<stop
   offset="0.4783"
   style="stop-color:#FE9F16"
   id="stop340" />
		<stop
   offset="0.707"
   style="stop-color:#FCC62A"
   id="stop342" />
		<stop
   offset="0.8889"
   style="stop-color:#FBDF36"
   id="stop344" />
		<stop
   offset="1"
   style="stop-color:#FBE83B"
   id="stop346" />
	</linearGradient>
	<path
   id="XMLID_696_"
   class="st31"
   d="m 25.816,36.272 c 0,0 -1.386,-1.807 -4.127,-1.156 v -3.135 c 0,0 2.526,-0.889 4.127,1.334 0,0 0,2.957 0,2.957 z"
   inkscape:connector-curvature="0"
   style="fill:url(#XMLID_23_)" />
	
		<linearGradient
   id="XMLID_24_"
   gradientUnits="userSpaceOnUse"
   x1="30.934799"
   y1="1243.1356"
   x2="31.2022"
   y2="1247.8621"
   gradientTransform="translate(0,-1209)">
		<stop
   offset="0"
   style="stop-color:#007800"
   id="stop350" />
		<stop
   offset="0.0423"
   style="stop-color:#0B7C06"
   id="stop352" />
		<stop
   offset="0.2903"
   style="stop-color:#458F24"
   id="stop354" />
		<stop
   offset="0.5187"
   style="stop-color:#739F3C"
   id="stop356" />
		<stop
   offset="0.7204"
   style="stop-color:#94AA4E"
   id="stop358" />
		<stop
   offset="0.8877"
   style="stop-color:#A9B158"
   id="stop360" />
		<stop
   offset="1"
   style="stop-color:#B0B35C"
   id="stop362" />
	</linearGradient>
	<polygon
   id="XMLID_691_"
   class="st32"
   points="30.439,35.048 31.488,34.503 31.656,34.435 31.653,37.582 30.508,38.155 30.455,38.103 "
   style="fill:url(#XMLID_24_)" />
	
		<linearGradient
   id="XMLID_25_"
   gradientUnits="userSpaceOnUse"
   x1="26.5618"
   y1="1245.3188"
   x2="26.5408"
   y2="1242.7302"
   gradientTransform="translate(0,-1209)">
		<stop
   offset="0"
   style="stop-color:#C42424"
   id="stop366" />
		<stop
   offset="1"
   style="stop-color:#38005D"
   id="stop368" />
	</linearGradient>
	<polygon
   id="XMLID_686_"
   class="st33"
   points="26.143,33.751 26.143,36.105 26.442,35.96 26.957,33.623 26.937,33.358 "
   style="opacity:0.6;fill:url(#XMLID_25_);enable-background:new" />
	
		<linearGradient
   id="XMLID_26_"
   gradientUnits="userSpaceOnUse"
   x1="24.955099"
   y1="1245.4087"
   x2="25.8001"
   y2="1246.455"
   gradientTransform="translate(0,-1209)">
		<stop
   offset="0"
   style="stop-color:#0099F0"
   id="stop372" />
		<stop
   offset="1"
   style="stop-color:#E3F2FF"
   id="stop374" />
	</linearGradient>
	<path
   id="XMLID_681_"
   class="st34"
   d="m 25.286,36.436 c 0,0 0.415,0.363 0.549,0.541 l 1.115,-0.505 -1.101,0.604 -0.038,2.799 -0.024,-2.815 c 0,0 -0.177,-0.308 -0.501,-0.624 z"
   inkscape:connector-curvature="0"
   style="fill:url(#XMLID_26_)" />
	
		<linearGradient
   id="XMLID_27_"
   gradientUnits="userSpaceOnUse"
   x1="28.138201"
   y1="1241.7155"
   x2="29.740801"
   y2="1244.329"
   gradientTransform="translate(0,-1209)">
		<stop
   offset="0"
   style="stop-color:#006100"
   id="stop378" />
		<stop
   offset="0.1512"
   style="stop-color:#1D7114"
   id="stop380" />
		<stop
   offset="0.4228"
   style="stop-color:#4A8B33"
   id="stop382" />
		<stop
   offset="0.6647"
   style="stop-color:#6B9D49"
   id="stop384" />
		<stop
   offset="0.8653"
   style="stop-color:#80A957"
   id="stop386" />
		<stop
   offset="1"
   style="stop-color:#87AD5C"
   id="stop388" />
	</linearGradient>
	<path
   id="XMLID_676_"
   class="st35"
   d="m 26.384,33.853 1.145,-0.573 c 0,0 0.287,0.371 0.902,0.753 0,0 0.511,0.286 0.862,0.373 0,0 0.379,0.123 0.753,0.146 0,0 0.692,0.143 1.609,-0.115 L 30.51,35.01 c 0,0 -0.712,0.22 -1.201,0.188 10e-4,-0.002 -2.328,-0.088 -2.925,-1.345 z"
   inkscape:connector-curvature="0"
   style="fill:url(#XMLID_27_)" />
	
		<linearGradient
   id="XMLID_28_"
   gradientUnits="userSpaceOnUse"
   x1="29.4163"
   y1="1244.1639"
   x2="26.4816"
   y2="1246.692"
   gradientTransform="translate(0,-1209)">
		<stop
   offset="0"
   style="stop-color:#00C25E"
   id="stop392" />
		<stop
   offset="0.1757"
   style="stop-color:#36CB5E"
   id="stop394" />
		<stop
   offset="0.3888"
   style="stop-color:#70D45D"
   id="stop396" />
		<stop
   offset="0.5856"
   style="stop-color:#9EDC5D"
   id="stop398" />
		<stop
   offset="0.7593"
   style="stop-color:#BFE15C"
   id="stop400" />
		<stop
   offset="0.9033"
   style="stop-color:#D4E55C"
   id="stop402" />
		<stop
   offset="1"
   style="stop-color:#DBE65C"
   id="stop404" />
	</linearGradient>
	<path
   id="XMLID_671_"
   class="st36"
   d="m 26.384,33.853 c 0,0 1.386,1.807 4.127,1.156 v 3.135 c 0,0 -2.525,0.889 -4.127,-1.334 0,0 0,-2.957 0,-2.957 z"
   inkscape:connector-curvature="0"
   style="fill:url(#XMLID_28_)" />
	
		<linearGradient
   id="XMLID_29_"
   gradientUnits="userSpaceOnUse"
   x1="29.129601"
   y1="1244.3838"
   x2="30.280199"
   y2="1244.8981"
   gradientTransform="translate(0,-1209)">
		<stop
   offset="0"
   style="stop-color:#009636"
   id="stop408" />
		<stop
   offset="0.1774"
   style="stop-color:#3EAF50"
   id="stop410" />
		<stop
   offset="0.366"
   style="stop-color:#78C769"
   id="stop412" />
		<stop
   offset="0.5401"
   style="stop-color:#A6D97C"
   id="stop414" />
		<stop
   offset="0.6937"
   style="stop-color:#C7E78A"
   id="stop416" />
		<stop
   offset="0.8211"
   style="stop-color:#DCEF93"
   id="stop418" />
		<stop
   offset="0.9066"
   style="stop-color:#E3F296"
   id="stop420" />
	</linearGradient>
	<path
   id="XMLID_666_"
   class="st37"
   d="m 31.642,34.441 -1.133,0.56 -0.613,0.115 c 0,0 0.493,-0.015 0.576,-0.044 l 0.039,2.995 0.037,-3.011 z"
   inkscape:connector-curvature="0"
   style="opacity:0.85;fill:url(#XMLID_29_);enable-background:new" />
	
		<linearGradient
   id="XMLID_30_"
   gradientUnits="userSpaceOnUse"
   x1="28.158501"
   y1="1251.2399"
   x2="30.7752"
   y2="1248.7903"
   gradientTransform="translate(0,-1209)">
		<stop
   offset="0"
   style="stop-color:#FF9C00"
   id="stop424" />
		<stop
   offset="0.02"
   style="stop-color:#FFA008"
   id="stop426" />
		<stop
   offset="0.1548"
   style="stop-color:#FEB93A"
   id="stop428" />
		<stop
   offset="0.2926"
   style="stop-color:#FDCE65"
   id="stop430" />
		<stop
   offset="0.4309"
   style="stop-color:#FCE089"
   id="stop432" />
		<stop
   offset="0.5701"
   style="stop-color:#FCEEA4"
   id="stop434" />
		<stop
   offset="0.7105"
   style="stop-color:#FBF7B8"
   id="stop436" />
		<stop
   offset="0.8527"
   style="stop-color:#FBFDC3"
   id="stop438" />
		<stop
   offset="1"
   style="stop-color:#FBFFC7"
   id="stop440" />
	</linearGradient>
	<path
   id="XMLID_661_"
   class="st38"
   d="m 31.642,38.175 -1.133,0.561 -0.613,0.114 c 0,0 0.493,-0.014 0.576,-0.044 l 0.039,2.995 0.037,-3.011 z"
   inkscape:connector-curvature="0"
   style="fill:url(#XMLID_30_)" />
	
		<linearGradient
   id="XMLID_31_"
   gradientUnits="userSpaceOnUse"
   x1="25.5847"
   y1="1241.864"
   x2="26.1602"
   y2="1243.0149"
   gradientTransform="translate(0,-1209)">
		<stop
   offset="0"
   style="stop-color:#FF9C00"
   id="stop444" />
		<stop
   offset="0.0014"
   style="stop-color:#FF9C00"
   id="stop446" />
		<stop
   offset="0.1625"
   style="stop-color:#FEBA2B"
   id="stop448" />
		<stop
   offset="0.3252"
   style="stop-color:#FDD34E"
   id="stop450" />
		<stop
   offset="0.4902"
   style="stop-color:#FCE669"
   id="stop452" />
		<stop
   offset="0.6566"
   style="stop-color:#FBF47D"
   id="stop454" />
		<stop
   offset="0.8253"
   style="stop-color:#FBFC88"
   id="stop456" />
		<stop
   offset="1"
   style="stop-color:#FBFF8C"
   id="stop458" />
	</linearGradient>
	<path
   id="XMLID_658_"
   class="st39"
   d="m 25.286,32.718 c 0,0 0.415,0.363 0.549,0.541 l 1.115,-0.505 -1.101,0.604 -0.038,2.799 -0.024,-2.815 c 0,-10e-4 -0.177,-0.309 -0.501,-0.624 z"
   inkscape:connector-curvature="0"
   style="opacity:0.86000001;fill:url(#XMLID_31_);enable-background:new" />
	
		<linearGradient
   id="XMLID_32_"
   gradientUnits="userSpaceOnUse"
   x1="22.9394"
   y1="1240.5621"
   x2="25.168699"
   y2="1243.2065"
   gradientTransform="translate(0,-1209)">
		<stop
   offset="0"
   style="stop-color:#FF9C00"
   id="stop462" />
		<stop
   offset="0.0014"
   style="stop-color:#FF9C00"
   id="stop464" />
		<stop
   offset="0.1625"
   style="stop-color:#FFB32B"
   id="stop466" />
		<stop
   offset="0.3252"
   style="stop-color:#FFC54E"
   id="stop468" />
		<stop
   offset="0.4902"
   style="stop-color:#FFD469"
   id="stop470" />
		<stop
   offset="0.6566"
   style="stop-color:#FFDE7D"
   id="stop472" />
		<stop
   offset="0.8253"
   style="stop-color:#FFE488"
   id="stop474" />
		<stop
   offset="1"
   style="stop-color:#FFE68C"
   id="stop476" />
	</linearGradient>
	<path
   id="XMLID_655_"
   class="st40"
   d="m 21.756,31.971 c 0,0 2.452,-0.9 4.029,1.347 l 0.095,-0.037 c 0.001,10e-4 -1.316,-2.267 -4.124,-1.31 z"
   inkscape:connector-curvature="0"
   style="opacity:0.86000001;fill:url(#XMLID_32_);enable-background:new" />
	
		<linearGradient
   id="XMLID_33_"
   gradientUnits="userSpaceOnUse"
   x1="22.2908"
   y1="1244.2563"
   x2="24.2363"
   y2="1245.3588"
   gradientTransform="translate(0,-1209)">
		<stop
   offset="0"
   style="stop-color:#0099F0"
   id="stop480" />
		<stop
   offset="1"
   style="stop-color:#C2F2FF"
   id="stop482" />
	</linearGradient>
	<path
   id="XMLID_654_"
   class="st41"
   d="m 21.775,35.69 c 0,0 2.471,-0.797 4.01,1.397 L 25.88,37.05 c 0.001,0.001 -1.297,-2.318 -4.105,-1.36 z"
   inkscape:connector-curvature="0"
   style="fill:url(#XMLID_33_)" />
	
		<linearGradient
   id="XMLID_34_"
   gradientUnits="userSpaceOnUse"
   x1="27.060801"
   y1="1242.2709"
   x2="29.130699"
   y2="1244.028"
   gradientTransform="translate(0,-1209)">
		<stop
   offset="0"
   style="stop-color:#009636"
   id="stop486" />
		<stop
   offset="0.1774"
   style="stop-color:#3EAF50"
   id="stop488" />
		<stop
   offset="0.366"
   style="stop-color:#78C769"
   id="stop490" />
		<stop
   offset="0.5401"
   style="stop-color:#A6D97C"
   id="stop492" />
		<stop
   offset="0.6937"
   style="stop-color:#C7E78A"
   id="stop494" />
		<stop
   offset="0.8211"
   style="stop-color:#DCEF93"
   id="stop496" />
		<stop
   offset="0.9066"
   style="stop-color:#E3F296"
   id="stop498" />
	</linearGradient>
	<path
   id="XMLID_653_"
   class="st42"
   d="m 26.488,33.969 c 0,0 1.158,1.605 3.985,1.103 l 0.099,-0.061 c 0,0 -1.593,0.253 -2.614,-0.174 -10e-4,0 -0.506,-0.078 -1.47,-0.868 z"
   inkscape:connector-curvature="0"
   style="opacity:0.85;fill:url(#XMLID_34_);enable-background:new" />
	
		<linearGradient
   id="XMLID_35_"
   gradientUnits="userSpaceOnUse"
   x1="26.3249"
   y1="1249.2814"
   x2="28.941601"
   y2="1246.8317"
   gradientTransform="translate(0,-1209)">
		<stop
   offset="0"
   style="stop-color:#FF9C00"
   id="stop502" />
		<stop
   offset="0.02"
   style="stop-color:#FFA008"
   id="stop504" />
		<stop
   offset="0.1548"
   style="stop-color:#FEB93A"
   id="stop506" />
		<stop
   offset="0.2926"
   style="stop-color:#FDCE65"
   id="stop508" />
		<stop
   offset="0.4309"
   style="stop-color:#FCE089"
   id="stop510" />
		<stop
   offset="0.5701"
   style="stop-color:#FCEEA4"
   id="stop512" />
		<stop
   offset="0.7105"
   style="stop-color:#FBF7B8"
   id="stop514" />
		<stop
   offset="0.8527"
   style="stop-color:#FBFDC3"
   id="stop516" />
		<stop
   offset="1"
   style="stop-color:#FBFFC7"
   id="stop518" />
	</linearGradient>
	<path
   id="XMLID_652_"
   class="st43"
   d="m 26.488,37.696 c 0,0 1.158,1.605 3.985,1.103 l 0.099,-0.061 c 0,0 -1.593,0.253 -2.614,-0.174 -10e-4,0 -0.506,-0.079 -1.47,-0.868 z"
   inkscape:connector-curvature="0"
   style="fill:url(#XMLID_35_)" />
	
		<linearGradient
   id="XMLID_36_"
   gradientUnits="userSpaceOnUse"
   x1="28.438499"
   y1="15.133"
   x2="28.438499"
   y2="11.7298"
   gradientTransform="matrix(1,0,0,-1,0,49)">
		<stop
   offset="0"
   style="stop-color:#FFFFFF"
   id="stop522" />
		<stop
   offset="0.5153"
   style="stop-color:#FFFFFF;stop-opacity:0"
   id="stop524" />
	</linearGradient>
	<path
   id="XMLID_643_"
   class="st44"
   d="m 26.404,33.867 c 0,0 1.157,1.699 4.061,1.221 l 0.032,2.128 c 0,0 -3.077,0.492 -4.117,-1.488 z"
   inkscape:connector-curvature="0"
   style="opacity:0.9;fill:url(#XMLID_36_);enable-background:new" />
	
		<linearGradient
   id="XMLID_37_"
   gradientUnits="userSpaceOnUse"
   x1="23.7435"
   y1="17.208099"
   x2="23.7435"
   y2="13.677"
   gradientTransform="matrix(1,0,0,-1,0,49)">
		<stop
   offset="0"
   style="stop-color:#FFFFFF"
   id="stop528" />
		<stop
   offset="0.5153"
   style="stop-color:#FFFFFF;stop-opacity:0"
   id="stop530" />
	</linearGradient>
	<path
   id="XMLID_642_"
   class="st45"
   d="m 21.689,31.981 c 0,0 2.539,-0.937 4.098,1.361 l 0.011,1.981 c 0,0 -1.48,-2.88 -4.109,-1.682 z"
   inkscape:connector-curvature="0"
   style="opacity:0.9;fill:url(#XMLID_37_);enable-background:new" />
	
		<linearGradient
   id="XMLID_38_"
   gradientUnits="userSpaceOnUse"
   x1="23.7435"
   y1="13.4341"
   x2="23.7435"
   y2="10.728"
   gradientTransform="matrix(1,0,0,-1,0,49)">
		<stop
   offset="0"
   style="stop-color:#FFFFFF"
   id="stop534" />
		<stop
   offset="0.5153"
   style="stop-color:#FFFFFF;stop-opacity:0"
   id="stop536" />
	</linearGradient>
	<path
   id="XMLID_641_"
   class="st46"
   d="m 21.689,35.755 c 0,0 2.539,-0.937 4.098,1.361 l 0.011,1.156 c 0,0 -1.48,-2.055 -4.109,-0.857 z"
   inkscape:connector-curvature="0"
   style="opacity:0.9;fill:url(#XMLID_38_);enable-background:new" />
	
		<linearGradient
   id="XMLID_39_"
   gradientUnits="userSpaceOnUse"
   x1="28.442499"
   y1="11.406"
   x2="28.442499"
   y2="8.7699003"
   gradientTransform="matrix(1,0,0,-1,0,49)">
		<stop
   offset="0"
   style="stop-color:#FFFFFF"
   id="stop540" />
		<stop
   offset="0.5153"
   style="stop-color:#FFFFFF;stop-opacity:0"
   id="stop542" />
	</linearGradient>
	<path
   id="XMLID_631_"
   class="st47"
   d="m 26.408,37.594 c 0,0 1.157,1.699 4.061,1.221 l 0.032,1.189 c 0,0 -2.208,0.777 -4.117,-0.55 z"
   inkscape:connector-curvature="0"
   style="opacity:0.9;fill:url(#XMLID_39_);enable-background:new" />
</g>
<g
   id="XMLID_630_"
   class="st48"
   style="opacity:0.2"
   transform="matrix(1.3724872,0,0,1.2499926,-8.0251833,-9.7973602)">
	<g
   id="XMLID_636_">
		
			<linearGradient
   id="XMLID_40_"
   gradientUnits="userSpaceOnUse"
   x1="23.585501"
   y1="1254.2278"
   x2="23.585501"
   y2="1254.229"
   gradientTransform="translate(0,-1209)">
			<stop
   offset="0"
   style="stop-color:#498DEA"
   id="stop547" />
			<stop
   offset="1"
   style="stop-color:#020D83"
   id="stop549" />
		</linearGradient>
		<polygon
   id="XMLID_638_"
   class="st49"
   points="23.589,45.229 23.582,45.228 23.586,45.228 "
   style="fill:url(#XMLID_40_)" />
		
			<linearGradient
   id="XMLID_41_"
   gradientUnits="userSpaceOnUse"
   x1="15.413"
   y1="1209.0031"
   x2="15.413"
   y2="1254.2594"
   gradientTransform="translate(0,-1209)">
			<stop
   offset="0.202"
   style="stop-color:#00CBD4;stop-opacity:0"
   id="stop553" />
			<stop
   offset="1"
   style="stop-color:#00F4FF"
   id="stop555" />
		</linearGradient>
		<path
   id="XMLID_637_"
   class="st50"
   d="m 24.022,45.259 v 0 c -0.019,10e-4 -0.036,0 -0.053,-10e-4 -0.019,0 -0.037,-0.002 -0.055,-0.002 H 23.907 C 23.871,45.255 23.836,45.254 23.8,45.251 23.765,45.249 23.732,45.245 23.698,45.242 23.662,45.238 23.625,45.235 23.589,45.23 c -0.002,0 -0.005,0 -0.007,-10e-4 -0.03,-0.004 -0.061,-0.007 -0.091,-0.012 -0.001,0 -0.002,0 -0.004,-10e-4 -0.005,0 -0.01,-10e-4 -0.015,-0.002 -0.03,-0.005 -0.058,-0.01 -0.087,-0.015 -0.004,-10e-4 -0.007,-10e-4 -0.011,-0.002 -0.002,0 -0.005,-0.001 -0.007,-0.001 -0.027,-0.005 -0.056,-0.01 -0.083,-0.016 -0.016,-0.004 -0.031,-0.007 -0.046,-0.011 -0.029,-0.007 -0.057,-0.014 -0.084,-0.021 -0.001,0 -0.004,-0.001 -0.005,-0.001 -0.026,-0.007 -0.051,-0.014 -0.076,-0.021 -0.03,-0.009 -0.06,-0.017 -0.088,-0.027 -0.019,-0.006 -0.037,-0.012 -0.056,-0.019 -0.03,-0.011 -0.061,-0.022 -0.091,-0.033 -0.004,-10e-4 -0.007,-0.002 -0.011,-0.004 -0.035,-0.014 -0.067,-0.027 -0.1,-0.042 -0.076,-0.032 -0.148,-0.069 -0.217,-0.109 L 7.458,36.202 C 7.162,36.031 6.967,35.824 6.874,35.604 6.859,35.567 6.847,35.53 6.838,35.492 6.834,35.478 6.831,35.466 6.828,35.454 6.821,35.419 6.817,35.385 6.814,35.35 c 0,-0.004 -0.001,-0.007 -0.001,-0.01 0,-0.004 -10e-4,-0.006 -10e-4,-0.01 L 6.808,36.528 6.804,36.526 6.839,0.003 23.998,9.647 24.009,25.344 Z"
   inkscape:connector-curvature="0"
   style="fill:url(#XMLID_41_)" />
	</g>
	<g
   id="XMLID_632_">
		
			<linearGradient
   id="XMLID_42_"
   gradientUnits="userSpaceOnUse"
   x1="23.9995"
   y1="1244.325"
   x2="23.9995"
   y2="1257"
   gradientTransform="translate(0,-1209)">
			<stop
   offset="0"
   style="stop-color:#498DEA"
   id="stop560" />
			<stop
   offset="1"
   style="stop-color:#020D83"
   id="stop562" />
		</linearGradient>
		<path
   id="XMLID_635_"
   class="st51"
   d="m 41.197,35.332 v 0.255 l -0.002,0.936 -0.005,1.528 v 0.02 c 0,0.015 -0.004,0.03 -0.005,0.045 -0.002,0.022 -0.004,0.046 -0.007,0.069 -10e-4,0.004 -10e-4,0.007 -10e-4,0.011 -0.004,0.015 -0.009,0.03 -0.014,0.045 -0.005,0.021 -0.011,0.043 -0.019,0.064 -10e-4,0.005 -0.002,0.01 -0.004,0.014 -0.005,0.014 -0.012,0.027 -0.019,0.04 -0.01,0.024 -0.02,0.046 -0.032,0.068 -0.002,0.006 -0.004,0.011 -0.007,0.017 -0.006,0.011 -0.015,0.021 -0.021,0.032 -0.016,0.025 -0.033,0.051 -0.052,0.076 -0.005,0.007 -0.009,0.015 -0.015,0.022 -0.014,0.017 -0.029,0.033 -0.042,0.05 -0.005,0.006 -0.01,0.012 -0.015,0.017 -0.025,0.027 -0.051,0.053 -0.078,0.079 -0.005,0.004 -0.01,0.007 -0.014,0.011 -0.021,0.019 -0.045,0.037 -0.068,0.056 -0.02,0.016 -0.038,0.032 -0.061,0.048 -0.025,0.017 -0.052,0.035 -0.078,0.052 -0.02,0.012 -0.037,0.026 -0.057,0.038 -0.009,0.005 -0.017,0.01 -0.027,0.015 L 25.6,47.63 c -0.066,0.038 -0.135,0.073 -0.207,0.105 -0.02,0.009 -0.041,0.017 -0.062,0.026 -0.056,0.024 -0.113,0.046 -0.172,0.066 -0.012,0.004 -0.025,0.01 -0.038,0.015 -0.007,0.002 -0.016,0.004 -0.025,0.006 -0.036,0.012 -0.074,0.022 -0.112,0.032 -0.03,0.007 -0.057,0.016 -0.087,0.024 -0.04,0.01 -0.081,0.017 -0.12,0.026 -0.024,0.005 -0.047,0.01 -0.071,0.015 -0.005,0 -0.009,10e-4 -0.012,10e-4 -0.082,0.015 -0.165,0.026 -0.249,0.035 -0.006,10e-4 -0.012,0.002 -0.019,0.002 -0.02,0.002 -0.04,0.002 -0.06,0.004 -0.048,0.005 -0.098,0.009 -0.148,0.01 -0.011,10e-4 -0.024,0.002 -0.035,0.002 -0.02,10e-4 -0.04,0 -0.061,10e-4 H 23.958 C 23.939,48 23.921,47.998 23.902,47.998 23.865,47.997 23.828,47.994 23.792,47.992 23.775,47.991 23.759,47.991 23.742,47.99 23.725,47.989 23.707,47.985 23.69,47.984 23.653,47.98 23.617,47.977 23.581,47.972 23.564,47.971 23.546,47.97 23.529,47.967 23.514,47.965 23.498,47.961 23.483,47.958 23.443,47.952 23.405,47.946 23.366,47.938 23.349,47.934 23.33,47.932 23.311,47.928 23.299,47.926 23.287,47.922 23.275,47.919 23.229,47.909 23.184,47.898 23.14,47.886 23.121,47.881 23.102,47.877 23.083,47.872 23.077,47.871 23.071,47.867 23.064,47.866 22.983,47.842 22.905,47.816 22.828,47.787 22.824,47.786 22.821,47.785 22.817,47.783 22.782,47.769 22.75,47.754 22.718,47.74 22.699,47.731 22.68,47.724 22.661,47.715 22.606,47.689 22.552,47.662 22.501,47.631 L 7.448,38.941 C 7.016,38.692 6.802,38.366 6.802,38.038 l 0.005,-1.515 0.004,-1.198 c 0,0.004 0.001,0.006 0.001,0.01 0.002,0.069 0.016,0.139 0.04,0.208 0.006,0.019 0.014,0.037 0.021,0.056 0.093,0.219 0.288,0.427 0.584,0.598 l 15.052,8.69 c 0.069,0.04 0.141,0.077 0.217,0.109 0.033,0.015 0.066,0.029 0.1,0.042 0.033,0.014 0.067,0.026 0.102,0.037 0.019,0.006 0.037,0.012 0.056,0.019 0.082,0.029 0.166,0.052 0.253,0.071 0.015,0.004 0.03,0.007 0.046,0.011 0.033,0.007 0.067,0.015 0.102,0.02 0.033,0.007 0.067,0.014 0.102,0.017 0.001,10e-4 0.002,10e-4 0.004,10e-4 0.03,0.005 0.061,0.009 0.091,0.012 0.002,10e-4 0.005,10e-4 0.007,10e-4 0.036,0.005 0.073,0.009 0.109,0.012 0.033,0.005 0.068,0.007 0.102,0.009 0.019,0.001 0.038,0.002 0.057,0.004 0.055,0.004 0.109,0.005 0.165,0.006 h 0.016 c 0.139,10e-4 0.277,-0.006 0.413,-0.021 0.079,-0.007 0.159,-0.02 0.237,-0.033 0.004,0 0.009,0 0.012,-10e-4 0.005,-0.001 0.01,-0.002 0.015,-0.002 0.063,-0.012 0.126,-0.025 0.188,-0.041 0.068,-0.015 0.135,-0.033 0.2,-0.055 0.048,-0.015 0.097,-0.031 0.143,-0.05 0.029,-0.011 0.055,-0.022 0.082,-0.033 0.004,-10e-4 0.006,-0.002 0.01,-0.004 0.021,-0.009 0.042,-0.017 0.063,-0.027 0.029,-0.012 0.056,-0.026 0.084,-0.04 0.041,-0.02 0.082,-0.041 0.122,-0.064 l 14.955,-8.69 c 0.03,-0.017 0.056,-0.036 0.083,-0.053 0.002,-10e-4 0.005,-0.004 0.009,-0.006 0.024,-0.016 0.047,-0.032 0.069,-0.047 0.02,-0.012 0.036,-0.027 0.055,-0.042 0.002,-0.002 0.005,-0.004 0.007,-0.006 0.019,-0.014 0.037,-0.029 0.055,-0.043 0.006,-0.005 0.011,-0.01 0.017,-0.016 0.015,-0.014 0.029,-0.027 0.043,-0.041 0.015,-0.015 0.03,-0.03 0.043,-0.045 0.001,-0.001 0.001,-0.001 0.001,-0.002 0.005,-0.005 0.01,-0.011 0.014,-0.015 0.01,-0.011 0.019,-0.022 0.027,-0.035 0.005,-0.006 0.01,-0.012 0.015,-0.019 0.006,-0.006 0.011,-0.012 0.015,-0.019 0.012,-0.015 0.021,-0.031 0.031,-0.046 0.007,-0.011 0.015,-0.021 0.021,-0.031 0.01,-0.016 0.021,-0.032 0.03,-0.048 0.022,-0.04 0.041,-0.081 0.055,-0.122 0.004,-0.011 0.006,-0.021 0.01,-0.032 0.004,-0.011 0.006,-0.022 0.009,-0.033 10e-4,-0.004 0.002,-0.009 0.004,-0.012 0.004,-0.015 0.007,-0.029 0.01,-0.043 10e-4,-0.005 10e-4,-0.011 10e-4,-0.016 0.006,-0.031 0.01,-0.062 0.011,-0.093 z"
   inkscape:connector-curvature="0"
   style="fill:url(#XMLID_42_)" />
		
			<linearGradient
   id="XMLID_43_"
   gradientUnits="userSpaceOnUse"
   x1="32.597"
   y1="1209.0031"
   x2="32.597"
   y2="1254.2561"
   gradientTransform="translate(0,-1209)">
			<stop
   offset="0.202"
   style="stop-color:#00CBD4;stop-opacity:0"
   id="stop566" />
			<stop
   offset="1"
   style="stop-color:#00F4FF"
   id="stop568" />
		</linearGradient>
		<path
   id="XMLID_634_"
   class="st52"
   d="m 41.197,35.332 c -0.001,0.031 -0.005,0.062 -0.011,0.092 0,0.005 0,0.011 -10e-4,0.016 -0.002,0.015 -0.006,0.029 -0.01,0.043 -10e-4,0.004 -0.002,0.009 -0.004,0.012 -0.002,0.011 -0.006,0.022 -0.009,0.033 -0.004,0.011 -0.006,0.021 -0.01,0.032 -0.014,0.041 -0.032,0.082 -0.055,0.122 -0.009,0.016 -0.02,0.032 -0.03,0.048 -0.006,0.01 -0.014,0.02 -0.021,0.031 -0.01,0.015 -0.019,0.031 -0.031,0.046 -0.004,0.006 -0.009,0.012 -0.015,0.019 -0.005,0.006 -0.01,0.012 -0.015,0.019 -0.009,0.012 -0.017,0.024 -0.027,0.035 -0.004,0.004 -0.009,0.01 -0.014,0.015 0,10e-4 0,10e-4 -0.001,0.002 -0.014,0.015 -0.029,0.03 -0.043,0.045 -0.015,0.014 -0.029,0.027 -0.043,0.041 -0.006,0.006 -0.011,0.011 -0.017,0.016 -0.017,0.015 -0.036,0.03 -0.055,0.043 -0.002,0.002 -0.005,0.004 -0.007,0.006 -0.017,0.014 -0.036,0.027 -0.055,0.042 -0.022,0.015 -0.046,0.031 -0.069,0.047 -0.004,0.002 -0.006,0.005 -0.009,0.006 -0.027,0.017 -0.053,0.036 -0.083,0.053 l -14.955,8.69 c -0.04,0.024 -0.081,0.045 -0.122,0.064 -0.029,0.014 -0.056,0.027 -0.084,0.04 -0.021,0.01 -0.042,0.019 -0.063,0.027 -0.004,10e-4 -0.006,0.002 -0.01,0.004 -0.027,0.011 -0.053,0.022 -0.082,0.033 -0.046,0.019 -0.094,0.035 -0.143,0.05 -0.037,0.011 -0.076,0.021 -0.113,0.032 -0.029,0.007 -0.057,0.016 -0.087,0.022 -0.062,0.016 -0.125,0.029 -0.188,0.041 -0.005,0 -0.01,0.001 -0.015,0.002 -0.004,10e-4 -0.009,10e-4 -0.012,10e-4 -0.078,0.014 -0.157,0.026 -0.237,0.033 -0.136,0.015 -0.274,0.022 -0.413,0.021 V 45.255 L 24.016,25.34 23.997,9.647 41.163,0.003 41.196,35.276 Z"
   inkscape:connector-curvature="0"
   style="fill:url(#XMLID_43_)" />
		
			<linearGradient
   id="XMLID_44_"
   gradientUnits="userSpaceOnUse"
   x1="41.195999"
   y1="1244.588"
   x2="41.195999"
   y2="1245.524"
   gradientTransform="translate(0,-1209)">
			<stop
   offset="0.202"
   style="stop-color:#00CBD4;stop-opacity:0"
   id="stop572" />
			<stop
   offset="1"
   style="stop-color:#00F4FF"
   id="stop574" />
		</linearGradient>
		<polygon
   id="XMLID_633_"
   class="st53"
   points="41.198,36.521 41.194,36.524 41.197,35.588 "
   style="fill:url(#XMLID_44_)" />
	</g>
</g>
</svg>