<?xml version="1.0" encoding="UTF-8" standalone="no"?>
<!-- Generator: Adobe Illustrator 19.0.0, SVG Export Plug-In . SVG Version: 6.00 Build 0)  -->

<svg
   xmlns:dc="http://purl.org/dc/elements/1.1/"
   xmlns:cc="http://creativecommons.org/ns#"
   xmlns:rdf="http://www.w3.org/1999/02/22-rdf-syntax-ns#"
   xmlns:svg="http://www.w3.org/2000/svg"
   xmlns="http://www.w3.org/2000/svg"
   xmlns:xlink="http://www.w3.org/1999/xlink"
   xmlns:sodipodi="http://sodipodi.sourceforge.net/DTD/sodipodi-0.dtd"
   xmlns:inkscape="http://www.inkscape.org/namespaces/inkscape"
   version="1.1"
   id="图层_1"
   x="0px"
   y="0px"
   viewBox="0 0 50 50"
   xml:space="preserve"
   sodipodi:docname="win-32-e1.svg"
   width="50"
   height="50"
   inkscape:version="0.92.4 (5da689c313, 2019-01-14)"><metadata
   id="metadata693"><rdf:RDF><cc:Work
       rdf:about=""><dc:format>image/svg+xml</dc:format><dc:type
         rdf:resource="http://purl.org/dc/dcmitype/StillImage" /><dc:title></dc:title></cc:Work></rdf:RDF></metadata><defs
   id="defs691" /><sodipodi:namedview
   pagecolor="#ffffff"
   bordercolor="#666666"
   borderopacity="1"
   objecttolerance="10"
   gridtolerance="10"
   guidetolerance="10"
   inkscape:pageopacity="0"
   inkscape:pageshadow="2"
   inkscape:window-width="1366"
   inkscape:window-height="706"
   id="namedview689"
   showgrid="false"
   inkscape:zoom="4.9166667"
   inkscape:cx="24"
   inkscape:cy="24"
   inkscape:window-x="-8"
   inkscape:window-y="-8"
   inkscape:window-maximized="1"
   inkscape:current-layer="图层_1" />
<g
   id="图层_3"
   transform="matrix(1.402038,0,0,1.2669246,-10.11025,-11.016949)">
	<g
   id="XMLID_1274_">
		<g
   id="XMLID_892_">
			<g
   id="XMLID_893_"
   style="enable-background:new">
				<linearGradient
   id="XMLID_2_"
   gradientUnits="userSpaceOnUse"
   x1="25.1457"
   y1="35.2915"
   x2="25.1457"
   y2="48">
					<stop
   offset="0"
   style="stop-color:#FFBC89"
   id="stop2" />
					<stop
   offset="1"
   style="stop-color:#E60012"
   id="stop4" />
				</linearGradient>
				<path
   id="XMLID_896_"
   style="fill:url(#XMLID_2_)"
   d="m 42.337,35.368 c -0.002,0.023 -0.004,0.046 -0.008,0.069 -0.003,0.019 -0.009,0.037 -0.014,0.056 -0.006,0.022 -0.011,0.044 -0.019,0.066 -0.006,0.018 -0.015,0.036 -0.022,0.053 -0.01,0.023 -0.02,0.046 -0.032,0.068 -0.009,0.016 -0.019,0.032 -0.029,0.049 -0.016,0.026 -0.033,0.051 -0.051,0.076 -0.018,0.024 -0.037,0.048 -0.058,0.072 -0.005,0.006 -0.009,0.011 -0.014,0.017 -0.028,0.031 -0.059,0.061 -0.092,0.09 -0.021,0.019 -0.044,0.037 -0.067,0.056 -0.02,0.016 -0.04,0.033 -0.061,0.048 -0.025,0.018 -0.052,0.035 -0.079,0.052 -0.028,0.018 -0.054,0.036 -0.083,0.054 l -14.954,8.691 c -0.066,0.038 -0.135,0.072 -0.207,0.104 -0.021,0.009 -0.042,0.018 -0.063,0.027 -0.056,0.023 -0.113,0.045 -0.172,0.065 -0.021,0.007 -0.041,0.015 -0.063,0.022 -0.037,0.012 -0.075,0.022 -0.113,0.032 -0.029,0.008 -0.057,0.016 -0.086,0.023 -0.04,0.01 -0.081,0.018 -0.121,0.026 -0.027,0.006 -0.055,0.012 -0.082,0.017 -0.082,0.014 -0.165,0.026 -0.249,0.035 -0.026,0.003 -0.052,0.004 -0.078,0.007 -0.049,0.004 -0.098,0.008 -0.148,0.01 -0.032,10e-4 -0.063,0.002 -0.095,0.003 -0.04,10e-4 -0.08,10e-4 -0.12,10e-4 -0.034,0 -0.067,-10e-4 -0.1,-0.003 -0.037,-10e-4 -0.074,-0.003 -0.111,-0.006 -0.034,-0.002 -0.068,-0.005 -0.101,-0.008 -0.036,-0.004 -0.073,-0.008 -0.109,-0.012 -0.033,-0.004 -0.065,-0.009 -0.098,-0.014 -0.039,-0.006 -0.078,-0.013 -0.116,-0.02 -0.03,-0.006 -0.061,-0.012 -0.091,-0.018 -0.046,-0.01 -0.091,-0.021 -0.136,-0.033 -0.025,-0.007 -0.05,-0.013 -0.075,-0.02 -0.08,-0.024 -0.159,-0.05 -0.235,-0.079 -0.038,-0.015 -0.074,-0.031 -0.111,-0.047 -0.019,-0.008 -0.038,-0.016 -0.057,-0.025 -0.055,-0.026 -0.109,-0.054 -0.161,-0.084 L 8.604,36.198 C 8.172,35.949 7.957,35.622 7.958,35.295 L 7.95,38.04 c -0.001,0.327 0.215,0.654 0.646,0.903 l 15.052,8.69 c 0.052,0.03 0.105,0.058 0.161,0.084 0.018,0.009 0.038,0.016 0.057,0.025 0.033,0.015 0.065,0.03 0.099,0.043 0.004,0.002 0.008,0.003 0.012,0.004 0.076,0.03 0.155,0.056 0.235,0.079 0.006,0.002 0.012,0.005 0.019,0.006 0.018,0.005 0.038,0.009 0.056,0.014 0.045,0.012 0.09,0.023 0.136,0.033 0.012,0.003 0.024,0.006 0.036,0.009 0.018,0.004 0.037,0.006 0.055,0.01 0.038,0.007 0.077,0.014 0.116,0.02 0.016,0.002 0.031,0.006 0.047,0.008 0.017,0.002 0.034,0.004 0.052,0.006 0.036,0.005 0.072,0.009 0.109,0.012 0.018,0.002 0.035,0.004 0.052,0.006 0.016,0.001 0.033,0.001 0.049,0.003 0.037,0.003 0.074,0.004 0.111,0.006 0.019,0.001 0.037,0.003 0.056,0.003 0.015,0 0.03,0 0.045,0 0.04,0.001 0.08,0 0.12,-10e-4 0.02,0 0.04,0 0.06,0 0.012,0 0.024,-0.002 0.035,-0.002 0.049,-0.002 0.099,-0.006 0.148,-0.01 0.02,-0.002 0.04,-0.002 0.06,-0.004 0.006,-0.001 0.012,-0.002 0.018,-0.003 0.084,-0.009 0.167,-0.02 0.249,-0.035 0.004,-10e-4 0.008,-10e-4 0.012,-0.002 0.024,-0.004 0.047,-0.01 0.071,-0.015 0.04,-0.008 0.081,-0.016 0.121,-0.026 0.029,-0.007 0.058,-0.015 0.086,-0.023 0.038,-0.01 0.076,-0.02 0.113,-0.032 0.008,-0.002 0.016,-0.004 0.024,-0.007 0.013,-0.004 0.026,-0.01 0.039,-0.015 0.059,-0.02 0.116,-0.042 0.172,-0.065 0.021,-0.009 0.042,-0.017 0.063,-0.027 0.071,-0.032 0.141,-0.066 0.207,-0.104 l 14.954,-8.691 c 0.009,-0.005 0.018,-0.01 0.027,-0.016 0.02,-0.012 0.037,-0.025 0.056,-0.038 0.027,-0.017 0.054,-0.035 0.079,-0.053 0.022,-0.016 0.041,-0.032 0.061,-0.048 0.023,-0.018 0.046,-0.037 0.067,-0.055 0.004,-0.004 0.009,-0.007 0.014,-0.011 0.028,-0.026 0.054,-0.053 0.079,-0.079 0.005,-0.006 0.009,-0.011 0.014,-0.017 0.015,-0.017 0.029,-0.033 0.043,-0.05 0.006,-0.007 0.01,-0.015 0.015,-0.022 0.019,-0.025 0.036,-0.051 0.051,-0.076 0.007,-0.011 0.015,-0.021 0.022,-0.032 0.003,-0.005 0.005,-0.011 0.008,-0.017 0.012,-0.023 0.022,-0.045 0.032,-0.068 0.006,-0.013 0.014,-0.026 0.019,-0.04 0.002,-0.005 0.002,-0.009 0.004,-0.014 0.008,-0.022 0.013,-0.044 0.019,-0.065 0.004,-0.015 0.01,-0.029 0.013,-0.044 10e-4,-0.004 10e-4,-0.008 10e-4,-0.012 0.004,-0.023 0.006,-0.046 0.008,-0.069 10e-4,-0.015 0.005,-0.03 0.005,-0.045 0,-0.006 0,-0.013 0,-0.019 l 0.008,-2.745 c -0.006,0.018 -0.009,0.04 -0.011,0.061 z"
   inkscape:connector-curvature="0" />
				<g
   id="XMLID_894_">
					<linearGradient
   id="XMLID_3_"
   gradientUnits="userSpaceOnUse"
   x1="7.9568"
   y1="35.2976"
   x2="42.3424"
   y2="35.2976">
						<stop
   offset="0"
   style="stop-color:#FFBC89"
   id="stop8" />
						<stop
   offset="1"
   style="stop-color:#E60012"
   id="stop10" />
					</linearGradient>
					<path
   id="XMLID_895_"
   style="fill:url(#XMLID_3_)"
   d="m 41.696,34.401 c 0.858,0.495 0.863,1.298 0.01,1.794 l -14.954,8.691 c -0.852,0.495 -2.239,0.495 -3.097,0 L 8.603,36.196 C 7.745,35.701 7.741,34.898 8.593,34.402 l 14.954,-8.691 c 0.852,-0.495 2.238,-0.495 3.096,0 z"
   inkscape:connector-curvature="0" />
				</g>
			</g>
		</g>
		<g
   id="XMLID_887_">
			<g
   id="XMLID_888_"
   style="enable-background:new">
				<linearGradient
   id="XMLID_4_"
   gradientUnits="userSpaceOnUse"
   x1="25.1457"
   y1="35.2915"
   x2="25.1457"
   y2="48">
					<stop
   offset="0"
   style="stop-color:#FFBC89"
   id="stop17" />
					<stop
   offset="1"
   style="stop-color:#E60012"
   id="stop19" />
				</linearGradient>
				<path
   id="XMLID_891_"
   style="fill:url(#XMLID_4_)"
   d="m 42.337,35.368 c -0.002,0.023 -0.004,0.046 -0.008,0.069 -0.003,0.019 -0.009,0.037 -0.014,0.056 -0.006,0.022 -0.011,0.044 -0.019,0.066 -0.006,0.018 -0.015,0.036 -0.022,0.053 -0.01,0.023 -0.02,0.046 -0.032,0.068 -0.009,0.016 -0.019,0.032 -0.029,0.049 -0.016,0.026 -0.033,0.051 -0.051,0.076 -0.018,0.024 -0.037,0.048 -0.058,0.072 -0.005,0.006 -0.009,0.011 -0.014,0.017 -0.028,0.031 -0.059,0.061 -0.092,0.09 -0.021,0.019 -0.044,0.037 -0.067,0.056 -0.02,0.016 -0.04,0.033 -0.061,0.048 -0.025,0.018 -0.052,0.035 -0.079,0.052 -0.028,0.018 -0.054,0.036 -0.083,0.054 l -14.954,8.691 c -0.066,0.038 -0.135,0.072 -0.207,0.104 -0.021,0.009 -0.042,0.018 -0.063,0.027 -0.056,0.023 -0.113,0.045 -0.172,0.065 -0.021,0.007 -0.041,0.015 -0.063,0.022 -0.037,0.012 -0.075,0.022 -0.113,0.032 -0.029,0.008 -0.057,0.016 -0.086,0.023 -0.04,0.01 -0.081,0.018 -0.121,0.026 -0.027,0.006 -0.055,0.012 -0.082,0.017 -0.082,0.014 -0.165,0.026 -0.249,0.035 -0.026,0.003 -0.052,0.004 -0.078,0.007 -0.049,0.004 -0.098,0.008 -0.148,0.01 -0.032,10e-4 -0.063,0.002 -0.095,0.003 -0.04,10e-4 -0.08,10e-4 -0.12,10e-4 -0.034,0 -0.067,-10e-4 -0.1,-0.003 -0.037,-10e-4 -0.074,-0.003 -0.111,-0.006 -0.034,-0.002 -0.068,-0.005 -0.101,-0.008 -0.036,-0.004 -0.073,-0.008 -0.109,-0.012 -0.033,-0.004 -0.065,-0.009 -0.098,-0.014 -0.039,-0.006 -0.078,-0.013 -0.116,-0.02 -0.03,-0.006 -0.061,-0.012 -0.091,-0.018 -0.046,-0.01 -0.091,-0.021 -0.136,-0.033 -0.025,-0.007 -0.05,-0.013 -0.075,-0.02 -0.08,-0.024 -0.159,-0.05 -0.235,-0.079 -0.038,-0.015 -0.074,-0.031 -0.111,-0.047 -0.019,-0.008 -0.038,-0.016 -0.057,-0.025 -0.055,-0.026 -0.109,-0.054 -0.161,-0.084 L 8.604,36.198 C 8.172,35.949 7.957,35.622 7.958,35.295 L 7.95,38.04 c -0.001,0.327 0.215,0.654 0.646,0.903 l 15.052,8.69 c 0.052,0.03 0.105,0.058 0.161,0.084 0.018,0.009 0.038,0.016 0.057,0.025 0.033,0.015 0.065,0.03 0.099,0.043 0.004,0.002 0.008,0.003 0.012,0.004 0.076,0.03 0.155,0.056 0.235,0.079 0.006,0.002 0.012,0.005 0.019,0.006 0.018,0.005 0.038,0.009 0.056,0.014 0.045,0.012 0.09,0.023 0.136,0.033 0.012,0.003 0.024,0.006 0.036,0.009 0.018,0.004 0.037,0.006 0.055,0.01 0.038,0.007 0.077,0.014 0.116,0.02 0.016,0.002 0.031,0.006 0.047,0.008 0.017,0.002 0.034,0.004 0.052,0.006 0.036,0.005 0.072,0.009 0.109,0.012 0.018,0.002 0.035,0.004 0.052,0.006 0.016,0.001 0.033,0.001 0.049,0.003 0.037,0.003 0.074,0.004 0.111,0.006 0.019,0.001 0.037,0.003 0.056,0.003 0.015,0 0.03,0 0.045,0 0.04,0.001 0.08,0 0.12,-10e-4 0.02,0 0.04,0 0.06,0 0.012,0 0.024,-0.002 0.035,-0.002 0.049,-0.002 0.099,-0.006 0.148,-0.01 0.02,-0.002 0.04,-0.002 0.06,-0.004 0.006,-0.001 0.012,-0.002 0.018,-0.003 0.084,-0.009 0.167,-0.02 0.249,-0.035 0.004,-10e-4 0.008,-10e-4 0.012,-0.002 0.024,-0.004 0.047,-0.01 0.071,-0.015 0.04,-0.008 0.081,-0.016 0.121,-0.026 0.029,-0.007 0.058,-0.015 0.086,-0.023 0.038,-0.01 0.076,-0.02 0.113,-0.032 0.008,-0.002 0.016,-0.004 0.024,-0.007 0.013,-0.004 0.026,-0.01 0.039,-0.015 0.059,-0.02 0.116,-0.042 0.172,-0.065 0.021,-0.009 0.042,-0.017 0.063,-0.027 0.071,-0.032 0.141,-0.066 0.207,-0.104 l 14.954,-8.691 c 0.009,-0.005 0.018,-0.01 0.027,-0.016 0.02,-0.012 0.037,-0.025 0.056,-0.038 0.027,-0.017 0.054,-0.035 0.079,-0.053 0.022,-0.016 0.041,-0.032 0.061,-0.048 0.023,-0.018 0.046,-0.037 0.067,-0.055 0.004,-0.004 0.009,-0.007 0.014,-0.011 0.028,-0.026 0.054,-0.053 0.079,-0.079 0.005,-0.006 0.009,-0.011 0.014,-0.017 0.015,-0.017 0.029,-0.033 0.043,-0.05 0.006,-0.007 0.01,-0.015 0.015,-0.022 0.019,-0.025 0.036,-0.051 0.051,-0.076 0.007,-0.011 0.015,-0.021 0.022,-0.032 0.003,-0.005 0.005,-0.011 0.008,-0.017 0.012,-0.023 0.022,-0.045 0.032,-0.068 0.006,-0.013 0.014,-0.026 0.019,-0.04 0.002,-0.005 0.002,-0.009 0.004,-0.014 0.008,-0.022 0.013,-0.044 0.019,-0.065 0.004,-0.015 0.01,-0.029 0.013,-0.044 10e-4,-0.004 10e-4,-0.008 10e-4,-0.012 0.004,-0.023 0.006,-0.046 0.008,-0.069 10e-4,-0.015 0.005,-0.03 0.005,-0.045 0,-0.006 0,-0.013 0,-0.019 l 0.008,-2.745 c -0.006,0.018 -0.009,0.04 -0.011,0.061 z"
   inkscape:connector-curvature="0" />
				<g
   id="XMLID_889_">
					<linearGradient
   id="XMLID_5_"
   gradientUnits="userSpaceOnUse"
   x1="7.9568"
   y1="35.2976"
   x2="42.3424"
   y2="35.2976">
						<stop
   offset="0"
   style="stop-color:#FFBC89"
   id="stop23" />
						<stop
   offset="1"
   style="stop-color:#E60012"
   id="stop25" />
					</linearGradient>
					<path
   id="XMLID_890_"
   style="fill:url(#XMLID_5_)"
   d="m 41.696,34.401 c 0.858,0.495 0.863,1.298 0.01,1.794 l -14.954,8.691 c -0.852,0.495 -2.239,0.495 -3.097,0 L 8.603,36.196 C 7.745,35.701 7.741,34.898 8.593,34.402 l 14.954,-8.691 c 0.852,-0.495 2.238,-0.495 3.096,0 z"
   inkscape:connector-curvature="0" />
				</g>
			</g>
		</g>
		<g
   id="XMLID_882_">
			<g
   id="XMLID_883_"
   style="enable-background:new">
				<linearGradient
   id="XMLID_6_"
   gradientUnits="userSpaceOnUse"
   x1="25.1457"
   y1="35.2915"
   x2="25.1457"
   y2="48">
					<stop
   offset="0"
   style="stop-color:#FFBC89"
   id="stop32" />
					<stop
   offset="1"
   style="stop-color:#E60012"
   id="stop34" />
				</linearGradient>
				<path
   id="XMLID_886_"
   style="fill:url(#XMLID_6_)"
   d="m 42.337,35.368 c -0.002,0.023 -0.004,0.046 -0.008,0.069 -0.003,0.019 -0.009,0.037 -0.014,0.056 -0.006,0.022 -0.011,0.044 -0.019,0.066 -0.006,0.018 -0.015,0.036 -0.022,0.053 -0.01,0.023 -0.02,0.046 -0.032,0.068 -0.009,0.016 -0.019,0.032 -0.029,0.049 -0.016,0.026 -0.033,0.051 -0.051,0.076 -0.018,0.024 -0.037,0.048 -0.058,0.072 -0.005,0.006 -0.009,0.011 -0.014,0.017 -0.028,0.031 -0.059,0.061 -0.092,0.09 -0.021,0.019 -0.044,0.037 -0.067,0.056 -0.02,0.016 -0.04,0.033 -0.061,0.048 -0.025,0.018 -0.052,0.035 -0.079,0.052 -0.028,0.018 -0.054,0.036 -0.083,0.054 l -14.954,8.691 c -0.066,0.038 -0.135,0.072 -0.207,0.104 -0.021,0.009 -0.042,0.018 -0.063,0.027 -0.056,0.023 -0.113,0.045 -0.172,0.065 -0.021,0.007 -0.041,0.015 -0.063,0.022 -0.037,0.012 -0.075,0.022 -0.113,0.032 -0.029,0.008 -0.057,0.016 -0.086,0.023 -0.04,0.01 -0.081,0.018 -0.121,0.026 -0.027,0.006 -0.055,0.012 -0.082,0.017 -0.082,0.014 -0.165,0.026 -0.249,0.035 -0.026,0.003 -0.052,0.004 -0.078,0.007 -0.049,0.004 -0.098,0.008 -0.148,0.01 -0.032,10e-4 -0.063,0.002 -0.095,0.003 -0.04,10e-4 -0.08,10e-4 -0.12,10e-4 -0.034,0 -0.067,-10e-4 -0.1,-0.003 -0.037,-10e-4 -0.074,-0.003 -0.111,-0.006 -0.034,-0.002 -0.068,-0.005 -0.101,-0.008 -0.036,-0.004 -0.073,-0.008 -0.109,-0.012 -0.033,-0.004 -0.065,-0.009 -0.098,-0.014 -0.039,-0.006 -0.078,-0.013 -0.116,-0.02 -0.03,-0.006 -0.061,-0.012 -0.091,-0.018 -0.046,-0.01 -0.091,-0.021 -0.136,-0.033 -0.025,-0.007 -0.05,-0.013 -0.075,-0.02 -0.08,-0.024 -0.159,-0.05 -0.235,-0.079 -0.038,-0.015 -0.074,-0.031 -0.111,-0.047 -0.019,-0.008 -0.038,-0.016 -0.057,-0.025 -0.055,-0.026 -0.109,-0.054 -0.161,-0.084 L 8.604,36.198 C 8.172,35.949 7.957,35.622 7.958,35.295 L 7.95,38.04 c -0.001,0.327 0.215,0.654 0.646,0.903 l 15.052,8.69 c 0.052,0.03 0.105,0.058 0.161,0.084 0.018,0.009 0.038,0.016 0.057,0.025 0.033,0.015 0.065,0.03 0.099,0.043 0.004,0.002 0.008,0.003 0.012,0.004 0.076,0.03 0.155,0.056 0.235,0.079 0.006,0.002 0.012,0.005 0.019,0.006 0.018,0.005 0.038,0.009 0.056,0.014 0.045,0.012 0.09,0.023 0.136,0.033 0.012,0.003 0.024,0.006 0.036,0.009 0.018,0.004 0.037,0.006 0.055,0.01 0.038,0.007 0.077,0.014 0.116,0.02 0.016,0.002 0.031,0.006 0.047,0.008 0.017,0.002 0.034,0.004 0.052,0.006 0.036,0.005 0.072,0.009 0.109,0.012 0.018,0.002 0.035,0.004 0.052,0.006 0.016,0.001 0.033,0.001 0.049,0.003 0.037,0.003 0.074,0.004 0.111,0.006 0.019,0.001 0.037,0.003 0.056,0.003 0.015,0 0.03,0 0.045,0 0.04,0.001 0.08,0 0.12,-10e-4 0.02,0 0.04,0 0.06,0 0.012,0 0.024,-0.002 0.035,-0.002 0.049,-0.002 0.099,-0.006 0.148,-0.01 0.02,-0.002 0.04,-0.002 0.06,-0.004 0.006,-0.001 0.012,-0.002 0.018,-0.003 0.084,-0.009 0.167,-0.02 0.249,-0.035 0.004,-10e-4 0.008,-10e-4 0.012,-0.002 0.024,-0.004 0.047,-0.01 0.071,-0.015 0.04,-0.008 0.081,-0.016 0.121,-0.026 0.029,-0.007 0.058,-0.015 0.086,-0.023 0.038,-0.01 0.076,-0.02 0.113,-0.032 0.008,-0.002 0.016,-0.004 0.024,-0.007 0.013,-0.004 0.026,-0.01 0.039,-0.015 0.059,-0.02 0.116,-0.042 0.172,-0.065 0.021,-0.009 0.042,-0.017 0.063,-0.027 0.071,-0.032 0.141,-0.066 0.207,-0.104 l 14.954,-8.691 c 0.009,-0.005 0.018,-0.01 0.027,-0.016 0.02,-0.012 0.037,-0.025 0.056,-0.038 0.027,-0.017 0.054,-0.035 0.079,-0.053 0.022,-0.016 0.041,-0.032 0.061,-0.048 0.023,-0.018 0.046,-0.037 0.067,-0.055 0.004,-0.004 0.009,-0.007 0.014,-0.011 0.028,-0.026 0.054,-0.053 0.079,-0.079 0.005,-0.006 0.009,-0.011 0.014,-0.017 0.015,-0.017 0.029,-0.033 0.043,-0.05 0.006,-0.007 0.01,-0.015 0.015,-0.022 0.019,-0.025 0.036,-0.051 0.051,-0.076 0.007,-0.011 0.015,-0.021 0.022,-0.032 0.003,-0.005 0.005,-0.011 0.008,-0.017 0.012,-0.023 0.022,-0.045 0.032,-0.068 0.006,-0.013 0.014,-0.026 0.019,-0.04 0.002,-0.005 0.002,-0.009 0.004,-0.014 0.008,-0.022 0.013,-0.044 0.019,-0.065 0.004,-0.015 0.01,-0.029 0.013,-0.044 10e-4,-0.004 10e-4,-0.008 10e-4,-0.012 0.004,-0.023 0.006,-0.046 0.008,-0.069 10e-4,-0.015 0.005,-0.03 0.005,-0.045 0,-0.006 0,-0.013 0,-0.019 l 0.008,-2.745 c -0.006,0.018 -0.009,0.04 -0.011,0.061 z"
   inkscape:connector-curvature="0" />
				<g
   id="XMLID_884_">
					<linearGradient
   id="XMLID_7_"
   gradientUnits="userSpaceOnUse"
   x1="7.9568"
   y1="35.2976"
   x2="42.3424"
   y2="35.2976">
						<stop
   offset="0"
   style="stop-color:#FFBC89"
   id="stop38" />
						<stop
   offset="1"
   style="stop-color:#E60012"
   id="stop40" />
					</linearGradient>
					<path
   id="XMLID_885_"
   style="fill:url(#XMLID_7_)"
   d="m 41.696,34.401 c 0.858,0.495 0.863,1.298 0.01,1.794 l -14.954,8.691 c -0.852,0.495 -2.239,0.495 -3.097,0 L 8.603,36.196 C 7.745,35.701 7.741,34.898 8.593,34.402 l 14.954,-8.691 c 0.852,-0.495 2.238,-0.495 3.096,0 z"
   inkscape:connector-curvature="0" />
				</g>
			</g>
		</g>
		<g
   id="XMLID_738_">
			<g
   id="XMLID_854_">
				<g
   id="XMLID_855_"
   style="enable-background:new">
					<g
   id="XMLID_880_">
						<linearGradient
   id="XMLID_8_"
   gradientUnits="userSpaceOnUse"
   x1="29.1861"
   y1="17.4429"
   x2="29.1861"
   y2="21.207399">
							<stop
   offset="0"
   style="stop-color:#FFBC89"
   id="stop47" />
							<stop
   offset="1"
   style="stop-color:#E60012"
   id="stop49" />
						</linearGradient>
						<polygon
   id="XMLID_881_"
   style="fill:url(#XMLID_8_)"
   points="27.38,18.236 31.952,20.893 32.384,21.207 25.988,17.443 " />
					</g>
					<g
   id="XMLID_862_">
						<defs
   id="defs55">
							<path
   id="XMLID_863_"
   d="m 31.604,21.286 -6.396,-3.764 c 0.292,-0.169 0.573,-0.197 0.78,-0.079 l 6.396,3.764 c -0.208,-0.118 -0.488,-0.09 -0.78,0.079 z"
   inkscape:connector-curvature="0" />
						</defs>
						<linearGradient
   id="XMLID_9_"
   gradientUnits="userSpaceOnUse"
   x1="28.926001"
   y1="19.139099"
   x2="28.665701"
   y2="19.59">
							<stop
   offset="0"
   style="stop-color:#FFBC89"
   id="stop57" />
							<stop
   offset="1"
   style="stop-color:#E60012"
   id="stop59" />
						</linearGradient>
						<use
   xlink:href="#XMLID_863_"
   style="overflow:visible;fill:url(#XMLID_9_)"
   id="use62"
   x="0"
   y="0"
   width="100%"
   height="100%" />
						<clipPath
   id="XMLID_10_">
							<use
   xlink:href="#XMLID_863_"
   style="overflow:visible"
   id="use64"
   x="0"
   y="0"
   width="100%"
   height="100%" />
						</clipPath>
						<g
   id="XMLID_864_"
   style="enable-background:new"
   clip-path="url(#XMLID_10_)">
							<linearGradient
   id="XMLID_11_"
   gradientUnits="userSpaceOnUse"
   x1="28.4303"
   y1="19.368299"
   x2="28.393101"
   y2="19.4326">
								<stop
   offset="0"
   style="stop-color:#FFBC89"
   id="stop67" />
								<stop
   offset="1"
   style="stop-color:#E60012"
   id="stop69" />
							</linearGradient>
							<polyline
   id="XMLID_879_"
   style="fill:url(#XMLID_11_)"
   points="31.604,21.286 25.208,17.522 25.22,17.515 31.616,21.279          31.604,21.286        " />
							<linearGradient
   id="XMLID_12_"
   gradientUnits="userSpaceOnUse"
   x1="28.4669"
   y1="19.3389"
   x2="28.4139"
   y2="19.430599">
								<stop
   offset="0"
   style="stop-color:#FFBC89"
   id="stop73" />
								<stop
   offset="1"
   style="stop-color:#E60012"
   id="stop75" />
							</linearGradient>
							<path
   id="XMLID_878_"
   style="fill:url(#XMLID_12_)"
   d="M 31.616,21.279 25.22,17.515 c 0.015,-0.009 0.03,-0.017 0.045,-0.024 l 6.396,3.764 c -0.015,0.008 -0.03,0.016 -0.045,0.024"
   inkscape:connector-curvature="0" />
							<linearGradient
   id="XMLID_13_"
   gradientUnits="userSpaceOnUse"
   x1="28.511299"
   y1="19.316601"
   x2="28.4594"
   y2="19.406401">
								<stop
   offset="0"
   style="stop-color:#FFBC89"
   id="stop79" />
								<stop
   offset="1"
   style="stop-color:#E60012"
   id="stop81" />
							</linearGradient>
							<path
   id="XMLID_877_"
   style="fill:url(#XMLID_13_)"
   d="m 31.661,21.255 -6.396,-3.764 c 0.015,-0.008 0.03,-0.015 0.045,-0.022 l 6.396,3.764 c -0.015,0.007 -0.03,0.014 -0.045,0.022"
   inkscape:connector-curvature="0" />
							<linearGradient
   id="XMLID_14_"
   gradientUnits="userSpaceOnUse"
   x1="28.5555"
   y1="19.2964"
   x2="28.504601"
   y2="19.384501">
								<stop
   offset="0"
   style="stop-color:#FFBC89"
   id="stop85" />
								<stop
   offset="1"
   style="stop-color:#E60012"
   id="stop87" />
							</linearGradient>
							<path
   id="XMLID_876_"
   style="fill:url(#XMLID_14_)"
   d="M 31.706,21.233 25.31,17.469 c 0.015,-0.007 0.03,-0.014 0.045,-0.02 l 6.396,3.764 c -0.015,0.006 -0.03,0.013 -0.045,0.02"
   inkscape:connector-curvature="0" />
							<linearGradient
   id="XMLID_15_"
   gradientUnits="userSpaceOnUse"
   x1="28.5998"
   y1="19.2782"
   x2="28.549801"
   y2="19.364799">
								<stop
   offset="0"
   style="stop-color:#FFBC89"
   id="stop91" />
								<stop
   offset="1"
   style="stop-color:#E60012"
   id="stop93" />
							</linearGradient>
							<path
   id="XMLID_875_"
   style="fill:url(#XMLID_15_)"
   d="m 31.75,21.213 -6.396,-3.764 c 0.015,-0.006 0.03,-0.012 0.045,-0.018 l 6.396,3.764 c -0.015,0.005 -0.03,0.011 -0.045,0.018"
   inkscape:connector-curvature="0" />
							<linearGradient
   id="XMLID_16_"
   gradientUnits="userSpaceOnUse"
   x1="28.6444"
   y1="19.2621"
   x2="28.5952"
   y2="19.3473">
								<stop
   offset="0"
   style="stop-color:#FFBC89"
   id="stop97" />
								<stop
   offset="1"
   style="stop-color:#E60012"
   id="stop99" />
							</linearGradient>
							<path
   id="XMLID_874_"
   style="fill:url(#XMLID_16_)"
   d="m 31.795,21.195 -6.396,-3.764 c 0.015,-0.006 0.03,-0.011 0.045,-0.016 l 6.396,3.764 c -0.015,0.005 -0.03,0.01 -0.045,0.016"
   inkscape:connector-curvature="0" />
							<linearGradient
   id="XMLID_17_"
   gradientUnits="userSpaceOnUse"
   x1="28.689501"
   y1="19.247999"
   x2="28.6411"
   y2="19.3319">
								<stop
   offset="0"
   style="stop-color:#FFBC89"
   id="stop103" />
								<stop
   offset="1"
   style="stop-color:#E60012"
   id="stop105" />
							</linearGradient>
							<path
   id="XMLID_873_"
   style="fill:url(#XMLID_17_)"
   d="m 31.84,21.179 -6.396,-3.764 c 0.015,-0.005 0.031,-0.01 0.046,-0.014 l 6.396,3.764 c -0.015,0.004 -0.03,0.009 -0.046,0.014"
   inkscape:connector-curvature="0" />
							<linearGradient
   id="XMLID_18_"
   gradientUnits="userSpaceOnUse"
   x1="28.7355"
   y1="19.236099"
   x2="28.6877"
   y2="19.318701">
								<stop
   offset="0"
   style="stop-color:#FFBC89"
   id="stop109" />
								<stop
   offset="1"
   style="stop-color:#E60012"
   id="stop111" />
							</linearGradient>
							<path
   id="XMLID_872_"
   style="fill:url(#XMLID_18_)"
   d="M 31.886,21.165 25.49,17.401 c 0.016,-0.004 0.031,-0.008 0.047,-0.011 l 6.396,3.764 c -0.016,0.003 -0.031,0.007 -0.047,0.011"
   inkscape:connector-curvature="0" />
							<linearGradient
   id="XMLID_19_"
   gradientUnits="userSpaceOnUse"
   x1="28.782499"
   y1="19.2264"
   x2="28.7355"
   y2="19.307899">
								<stop
   offset="0"
   style="stop-color:#FFBC89"
   id="stop115" />
								<stop
   offset="1"
   style="stop-color:#E60012"
   id="stop117" />
							</linearGradient>
							<path
   id="XMLID_871_"
   style="fill:url(#XMLID_19_)"
   d="M 31.933,21.154 25.537,17.39 c 0.016,-0.004 0.032,-0.007 0.048,-0.009 l 6.396,3.764 c -0.016,0.002 -0.032,0.005 -0.048,0.009"
   inkscape:connector-curvature="0" />
							<linearGradient
   id="XMLID_20_"
   gradientUnits="userSpaceOnUse"
   x1="28.8314"
   y1="19.219299"
   x2="28.785"
   y2="19.299601">
								<stop
   offset="0"
   style="stop-color:#FFBC89"
   id="stop121" />
								<stop
   offset="1"
   style="stop-color:#E60012"
   id="stop123" />
							</linearGradient>
							<path
   id="XMLID_870_"
   style="fill:url(#XMLID_20_)"
   d="m 31.981,21.145 -6.396,-3.764 c 0.017,-0.003 0.034,-0.005 0.05,-0.006 l 6.396,3.764 c -0.016,0.001 -0.033,0.003 -0.05,0.006"
   inkscape:connector-curvature="0" />
							<linearGradient
   id="XMLID_21_"
   gradientUnits="userSpaceOnUse"
   x1="28.8827"
   y1="19.2152"
   x2="28.837"
   y2="19.2943">
								<stop
   offset="0"
   style="stop-color:#FFBC89"
   id="stop127" />
								<stop
   offset="1"
   style="stop-color:#E60012"
   id="stop129" />
							</linearGradient>
							<path
   id="XMLID_869_"
   style="fill:url(#XMLID_21_)"
   d="m 32.031,21.139 -6.396,-3.764 c 0.018,-0.002 0.036,-0.003 0.053,-0.003 l 6.396,3.764 c -0.017,0 -0.035,0.001 -0.053,0.003"
   inkscape:connector-curvature="0" />
							<linearGradient
   id="XMLID_22_"
   gradientUnits="userSpaceOnUse"
   x1="28.937099"
   y1="19.215099"
   x2="28.892401"
   y2="19.292601">
								<stop
   offset="0"
   style="stop-color:#FFBC89"
   id="stop133" />
								<stop
   offset="1"
   style="stop-color:#E60012"
   id="stop135" />
							</linearGradient>
							<path
   id="XMLID_868_"
   style="fill:url(#XMLID_22_)"
   d="m 32.084,21.135 -6.396,-3.764 c 0.019,0 0.038,0 0.057,0.001 l 6.396,3.764 c -0.019,-10e-4 -0.038,-10e-4 -0.057,-10e-4"
   inkscape:connector-curvature="0" />
							<linearGradient
   id="XMLID_23_"
   gradientUnits="userSpaceOnUse"
   x1="28.9972"
   y1="19.2202"
   x2="28.9533"
   y2="19.2962">
								<stop
   offset="0"
   style="stop-color:#FFBC89"
   id="stop139" />
								<stop
   offset="1"
   style="stop-color:#E60012"
   id="stop141" />
							</linearGradient>
							<path
   id="XMLID_867_"
   style="fill:url(#XMLID_23_)"
   d="m 32.141,21.137 -6.396,-3.764 c 0.022,10e-4 0.043,0.004 0.064,0.007 l 6.396,3.764 c -0.021,-0.003 -0.042,-0.006 -0.064,-0.007"
   inkscape:connector-curvature="0" />
							<linearGradient
   id="XMLID_24_"
   gradientUnits="userSpaceOnUse"
   x1="29.0672"
   y1="19.234699"
   x2="29.025"
   y2="19.308001">
								<stop
   offset="0"
   style="stop-color:#FFBC89"
   id="stop145" />
								<stop
   offset="1"
   style="stop-color:#E60012"
   id="stop147" />
							</linearGradient>
							<path
   id="XMLID_866_"
   style="fill:url(#XMLID_24_)"
   d="M 32.205,21.144 25.81,17.38 c 0.026,0.005 0.052,0.011 0.077,0.019 l 6.396,3.764 c -0.025,-0.008 -0.051,-0.014 -0.078,-0.019"
   inkscape:connector-curvature="0" />
							<linearGradient
   id="XMLID_25_"
   gradientUnits="userSpaceOnUse"
   x1="29.153999"
   y1="19.2707"
   x2="29.1168"
   y2="19.3351">
								<stop
   offset="0"
   style="stop-color:#FFBC89"
   id="stop151" />
								<stop
   offset="1"
   style="stop-color:#E60012"
   id="stop153" />
							</linearGradient>
							<path
   id="XMLID_865_"
   style="fill:url(#XMLID_25_)"
   d="m 32.283,21.163 -6.396,-3.764 c 0.035,0.011 0.069,0.026 0.101,0.044 l 6.396,3.764 c -0.032,-0.018 -0.066,-0.033 -0.101,-0.044"
   inkscape:connector-curvature="0" />
						</g>
					</g>
					<g
   id="XMLID_860_">
						<linearGradient
   id="XMLID_26_"
   gradientUnits="userSpaceOnUse"
   x1="17.2766"
   y1="23.9219"
   x2="17.2766"
   y2="41.158901">
							<stop
   offset="0"
   style="stop-color:#FFBC89"
   id="stop159" />
							<stop
   offset="1"
   style="stop-color:#E60012"
   id="stop161" />
						</linearGradient>
						<polygon
   id="XMLID_861_"
   style="fill:url(#XMLID_26_)"
   points="14.065,23.922 20.461,27.686 20.488,41.159 14.093,37.473 " />
					</g>
					<g
   id="XMLID_858_">
						<linearGradient
   id="XMLID_27_"
   gradientUnits="userSpaceOnUse"
   x1="22.834101"
   y1="17.5217"
   x2="22.834101"
   y2="27.6863">
							<stop
   offset="0"
   style="stop-color:#FFBC89"
   id="stop166" />
							<stop
   offset="1"
   style="stop-color:#E60012"
   id="stop168" />
						</linearGradient>
						<polygon
   id="XMLID_859_"
   style="fill:url(#XMLID_27_)"
   points="25.208,17.522 31.604,21.286 20.461,27.686 14.065,23.922 " />
					</g>
					<g
   id="XMLID_856_">
						<linearGradient
   id="XMLID_28_"
   gradientUnits="userSpaceOnUse"
   x1="27.290899"
   y1="21.1353"
   x2="27.290899"
   y2="41.158901">
							<stop
   offset="0"
   style="stop-color:#FFBC89"
   id="stop173" />
							<stop
   offset="1"
   style="stop-color:#E60012"
   id="stop175" />
						</linearGradient>
						<path
   id="XMLID_857_"
   style="fill:url(#XMLID_28_)"
   d="m 31.604,21.286 c 0.292,-0.169 0.573,-0.197 0.78,-0.079 L 33.776,22 c 0.208,0.118 0.325,0.373 0.326,0.709 l 0.02,10.611 -13.633,7.838 -0.028,-13.473 z"
   inkscape:connector-curvature="0" />
					</g>
				</g>
			</g>
			<g
   id="XMLID_847_">
				<g
   id="XMLID_848_"
   style="enable-background:new">
					<defs
   id="defs183">
						<polygon
   id="XMLID_849_"
   style="enable-background:new"
   points="31.281,20.57 33.127,32.981 22.462,39.105 22.441,27.801 " />
					</defs>
					<clipPath
   id="XMLID_29_">
						<use
   xlink:href="#XMLID_849_"
   style="overflow:visible"
   id="use185"
   x="0"
   y="0"
   width="100%"
   height="100%" />
					</clipPath>
					<g
   id="XMLID_850_"
   clip-path="url(#XMLID_29_)">
						<radialGradient
   id="XMLID_30_"
   cx="27.7838"
   cy="30.678699"
   r="7.0552001"
   gradientUnits="userSpaceOnUse">
							<stop
   offset="0"
   style="stop-color:#FF7A6A"
   id="stop188" />
							<stop
   offset="1"
   style="stop-color:#E60012"
   id="stop190" />
						</radialGradient>
						<path
   id="XMLID_851_"
   style="fill:url(#XMLID_30_)"
   d="m 22.485,39.066 -0.022,-11.251 8.624,-4.946 c 0.234,-0.135 0.455,-0.161 0.621,-0.073 l -0.703,-0.514 c 0.166,0.088 2.082,1.386 2.082,1.646 l 0.015,9.042 -10.617,6.096 m 8.603,-16.224 -8.647,4.959 0.022,11.304 10.664,-6.124 -0.015,-9.069 c -0.001,-0.266 -1.919,-1.57 -2.09,-1.66 l 0.703,0.514 c -0.171,-0.09 -0.397,-0.063 -0.637,0.076"
   inkscape:connector-curvature="0" />
					</g>
				</g>
			</g>
			<g
   id="XMLID_766_">
				<g
   id="XMLID_839_">
					<g
   id="XMLID_840_"
   style="enable-background:new">
						<g
   id="XMLID_845_">
							<linearGradient
   id="XMLID_31_"
   gradientUnits="userSpaceOnUse"
   x1="19.6476"
   y1="35.551102"
   x2="19.6476"
   y2="35.7108">
								<stop
   offset="0"
   style="stop-color:#FFBC89"
   id="stop197" />
								<stop
   offset="1"
   style="stop-color:#E60012"
   id="stop199" />
							</linearGradient>
							<polygon
   id="XMLID_846_"
   style="fill:url(#XMLID_31_)"
   points="19.703,35.647 19.592,35.711 19.593,35.615 19.703,35.551 " />
						</g>
						<g
   id="XMLID_843_">
							<linearGradient
   id="XMLID_32_"
   gradientUnits="userSpaceOnUse"
   x1="17.8246"
   y1="33.391499"
   x2="17.8246"
   y2="35.6152">
								<stop
   offset="0"
   style="stop-color:#FFBC89"
   id="stop204" />
								<stop
   offset="1"
   style="stop-color:#E60012"
   id="stop206" />
							</linearGradient>
							<polygon
   id="XMLID_844_"
   style="fill:url(#XMLID_32_)"
   points="19.703,35.551 19.593,35.615 15.946,33.456 16.057,33.392 " />
						</g>
						<g
   id="XMLID_841_">
							<linearGradient
   id="XMLID_33_"
   gradientUnits="userSpaceOnUse"
   x1="17.7693"
   y1="33.455601"
   x2="17.7693"
   y2="35.7108">
								<stop
   offset="0"
   style="stop-color:#FFBC89"
   id="stop211" />
								<stop
   offset="1"
   style="stop-color:#E60012"
   id="stop213" />
							</linearGradient>
							<polygon
   id="XMLID_842_"
   style="fill:url(#XMLID_33_)"
   points="19.593,35.615 19.592,35.711 15.946,33.551 15.946,33.504 15.946,33.456 " />
						</g>
					</g>
				</g>
				<g
   id="XMLID_831_">
					<g
   id="XMLID_832_"
   style="enable-background:new">
						<g
   id="XMLID_837_">
							<linearGradient
   id="XMLID_34_"
   gradientUnits="userSpaceOnUse"
   x1="19.6476"
   y1="34.8078"
   x2="19.6476"
   y2="34.967499">
								<stop
   offset="0"
   style="stop-color:#FFBC89"
   id="stop220" />
								<stop
   offset="1"
   style="stop-color:#E60012"
   id="stop222" />
							</linearGradient>
							<polygon
   id="XMLID_838_"
   style="fill:url(#XMLID_34_)"
   points="19.703,34.903 19.592,34.967 19.593,34.872 19.703,34.808 " />
						</g>
						<g
   id="XMLID_835_">
							<linearGradient
   id="XMLID_35_"
   gradientUnits="userSpaceOnUse"
   x1="17.8246"
   y1="32.648201"
   x2="17.8246"
   y2="34.871899">
								<stop
   offset="0"
   style="stop-color:#FFBC89"
   id="stop227" />
								<stop
   offset="1"
   style="stop-color:#E60012"
   id="stop229" />
							</linearGradient>
							<polygon
   id="XMLID_836_"
   style="fill:url(#XMLID_35_)"
   points="19.703,34.808 19.593,34.872 15.946,32.712 16.057,32.648 " />
						</g>
						<g
   id="XMLID_833_">
							<linearGradient
   id="XMLID_36_"
   gradientUnits="userSpaceOnUse"
   x1="17.7693"
   y1="32.712299"
   x2="17.7693"
   y2="34.967499">
								<stop
   offset="0"
   style="stop-color:#FFBC89"
   id="stop234" />
								<stop
   offset="1"
   style="stop-color:#E60012"
   id="stop236" />
							</linearGradient>
							<polygon
   id="XMLID_834_"
   style="fill:url(#XMLID_36_)"
   points="19.593,34.872 19.592,34.967 15.946,32.808 15.946,32.76 15.946,32.712 " />
						</g>
					</g>
				</g>
				<g
   id="XMLID_823_">
					<g
   id="XMLID_824_"
   style="enable-background:new">
						<g
   id="XMLID_829_">
							<linearGradient
   id="XMLID_37_"
   gradientUnits="userSpaceOnUse"
   x1="19.6476"
   y1="34.064499"
   x2="19.6476"
   y2="34.224098">
								<stop
   offset="0"
   style="stop-color:#FFBC89"
   id="stop243" />
								<stop
   offset="1"
   style="stop-color:#E60012"
   id="stop245" />
							</linearGradient>
							<polygon
   id="XMLID_830_"
   style="fill:url(#XMLID_37_)"
   points="19.703,34.16 19.592,34.224 19.593,34.129 19.703,34.064 " />
						</g>
						<g
   id="XMLID_827_">
							<linearGradient
   id="XMLID_38_"
   gradientUnits="userSpaceOnUse"
   x1="17.8246"
   y1="31.9049"
   x2="17.8246"
   y2="34.128601">
								<stop
   offset="0"
   style="stop-color:#FFBC89"
   id="stop250" />
								<stop
   offset="1"
   style="stop-color:#E60012"
   id="stop252" />
							</linearGradient>
							<polygon
   id="XMLID_828_"
   style="fill:url(#XMLID_38_)"
   points="19.703,34.064 19.593,34.129 15.946,31.969 16.057,31.905 " />
						</g>
						<g
   id="XMLID_825_">
							<linearGradient
   id="XMLID_39_"
   gradientUnits="userSpaceOnUse"
   x1="17.7693"
   y1="31.969"
   x2="17.7693"
   y2="34.224098">
								<stop
   offset="0"
   style="stop-color:#FFBC89"
   id="stop257" />
								<stop
   offset="1"
   style="stop-color:#E60012"
   id="stop259" />
							</linearGradient>
							<polygon
   id="XMLID_826_"
   style="fill:url(#XMLID_39_)"
   points="19.593,34.129 19.592,34.224 15.946,32.065 15.946,32.017 15.946,31.969 " />
						</g>
					</g>
				</g>
				<g
   id="XMLID_815_">
					<g
   id="XMLID_816_"
   style="enable-background:new">
						<g
   id="XMLID_821_">
							<linearGradient
   id="XMLID_40_"
   gradientUnits="userSpaceOnUse"
   x1="19.6476"
   y1="33.321201"
   x2="19.6476"
   y2="33.480801">
								<stop
   offset="0"
   style="stop-color:#FFBC89"
   id="stop266" />
								<stop
   offset="1"
   style="stop-color:#E60012"
   id="stop268" />
							</linearGradient>
							<polygon
   id="XMLID_822_"
   style="fill:url(#XMLID_40_)"
   points="19.703,33.417 19.592,33.481 19.593,33.385 19.703,33.321 " />
						</g>
						<g
   id="XMLID_819_">
							<linearGradient
   id="XMLID_41_"
   gradientUnits="userSpaceOnUse"
   x1="17.8246"
   y1="31.1616"
   x2="17.8246"
   y2="33.3853">
								<stop
   offset="0"
   style="stop-color:#FFBC89"
   id="stop273" />
								<stop
   offset="1"
   style="stop-color:#E60012"
   id="stop275" />
							</linearGradient>
							<polygon
   id="XMLID_820_"
   style="fill:url(#XMLID_41_)"
   points="19.703,33.321 19.593,33.385 15.946,31.226 16.057,31.162 " />
						</g>
						<g
   id="XMLID_817_">
							<linearGradient
   id="XMLID_42_"
   gradientUnits="userSpaceOnUse"
   x1="17.7693"
   y1="31.2257"
   x2="17.7693"
   y2="33.480801">
								<stop
   offset="0"
   style="stop-color:#FFBC89"
   id="stop280" />
								<stop
   offset="1"
   style="stop-color:#E60012"
   id="stop282" />
							</linearGradient>
							<polygon
   id="XMLID_818_"
   style="fill:url(#XMLID_42_)"
   points="19.593,33.385 19.592,33.481 15.946,31.321 15.946,31.274 15.946,31.226 " />
						</g>
					</g>
				</g>
				<g
   id="XMLID_807_">
					<g
   id="XMLID_808_"
   style="enable-background:new">
						<g
   id="XMLID_813_">
							<linearGradient
   id="XMLID_43_"
   gradientUnits="userSpaceOnUse"
   x1="19.6476"
   y1="32.5779"
   x2="19.6476"
   y2="32.737499">
								<stop
   offset="0"
   style="stop-color:#FFBC89"
   id="stop289" />
								<stop
   offset="1"
   style="stop-color:#E60012"
   id="stop291" />
							</linearGradient>
							<polygon
   id="XMLID_814_"
   style="fill:url(#XMLID_43_)"
   points="19.703,32.673 19.592,32.738 19.593,32.642 19.703,32.578 " />
						</g>
						<g
   id="XMLID_811_">
							<linearGradient
   id="XMLID_44_"
   gradientUnits="userSpaceOnUse"
   x1="17.8246"
   y1="30.418301"
   x2="17.8246"
   y2="32.641899">
								<stop
   offset="0"
   style="stop-color:#FFBC89"
   id="stop296" />
								<stop
   offset="1"
   style="stop-color:#E60012"
   id="stop298" />
							</linearGradient>
							<polygon
   id="XMLID_812_"
   style="fill:url(#XMLID_44_)"
   points="19.703,32.578 19.593,32.642 15.946,30.482 16.057,30.418 " />
						</g>
						<g
   id="XMLID_809_">
							<linearGradient
   id="XMLID_45_"
   gradientUnits="userSpaceOnUse"
   x1="17.7693"
   y1="30.4823"
   x2="17.7693"
   y2="32.737499">
								<stop
   offset="0"
   style="stop-color:#FFBC89"
   id="stop303" />
								<stop
   offset="1"
   style="stop-color:#E60012"
   id="stop305" />
							</linearGradient>
							<polygon
   id="XMLID_810_"
   style="fill:url(#XMLID_45_)"
   points="19.593,32.642 19.592,32.738 15.946,30.578 15.946,30.53 15.946,30.482 " />
						</g>
					</g>
				</g>
				<g
   id="XMLID_799_">
					<g
   id="XMLID_800_"
   style="enable-background:new">
						<g
   id="XMLID_805_">
							<linearGradient
   id="XMLID_46_"
   gradientUnits="userSpaceOnUse"
   x1="19.6476"
   y1="31.834499"
   x2="19.6476"
   y2="31.9942">
								<stop
   offset="0"
   style="stop-color:#FFBC89"
   id="stop312" />
								<stop
   offset="1"
   style="stop-color:#E60012"
   id="stop314" />
							</linearGradient>
							<polygon
   id="XMLID_806_"
   style="fill:url(#XMLID_46_)"
   points="19.703,31.93 19.592,31.994 19.593,31.899 19.703,31.835 " />
						</g>
						<g
   id="XMLID_803_">
							<linearGradient
   id="XMLID_47_"
   gradientUnits="userSpaceOnUse"
   x1="17.8246"
   y1="29.6749"
   x2="17.8246"
   y2="31.8986">
								<stop
   offset="0"
   style="stop-color:#FFBC89"
   id="stop319" />
								<stop
   offset="1"
   style="stop-color:#E60012"
   id="stop321" />
							</linearGradient>
							<polygon
   id="XMLID_804_"
   style="fill:url(#XMLID_47_)"
   points="19.703,31.835 19.593,31.899 15.946,29.739 16.057,29.675 " />
						</g>
						<g
   id="XMLID_801_">
							<linearGradient
   id="XMLID_48_"
   gradientUnits="userSpaceOnUse"
   x1="17.7693"
   y1="29.739"
   x2="17.7693"
   y2="31.9942">
								<stop
   offset="0"
   style="stop-color:#FFBC89"
   id="stop326" />
								<stop
   offset="1"
   style="stop-color:#E60012"
   id="stop328" />
							</linearGradient>
							<polygon
   id="XMLID_802_"
   style="fill:url(#XMLID_48_)"
   points="19.593,31.899 19.592,31.994 15.946,29.835 15.946,29.787 15.946,29.739 " />
						</g>
					</g>
				</g>
				<g
   id="XMLID_791_">
					<g
   id="XMLID_792_"
   style="enable-background:new">
						<g
   id="XMLID_797_">
							<linearGradient
   id="XMLID_49_"
   gradientUnits="userSpaceOnUse"
   x1="19.6476"
   y1="31.0912"
   x2="19.6476"
   y2="31.2509">
								<stop
   offset="0"
   style="stop-color:#FFBC89"
   id="stop335" />
								<stop
   offset="1"
   style="stop-color:#E60012"
   id="stop337" />
							</linearGradient>
							<polygon
   id="XMLID_798_"
   style="fill:url(#XMLID_49_)"
   points="19.703,31.187 19.592,31.251 19.593,31.155 19.703,31.091 " />
						</g>
						<g
   id="XMLID_795_">
							<linearGradient
   id="XMLID_50_"
   gradientUnits="userSpaceOnUse"
   x1="17.8246"
   y1="28.931601"
   x2="17.8246"
   y2="31.1553">
								<stop
   offset="0"
   style="stop-color:#FFBC89"
   id="stop342" />
								<stop
   offset="1"
   style="stop-color:#E60012"
   id="stop344" />
							</linearGradient>
							<polygon
   id="XMLID_796_"
   style="fill:url(#XMLID_50_)"
   points="19.703,31.091 19.593,31.155 15.946,28.996 16.057,28.932 " />
						</g>
						<g
   id="XMLID_793_">
							<linearGradient
   id="XMLID_51_"
   gradientUnits="userSpaceOnUse"
   x1="17.7693"
   y1="28.995701"
   x2="17.7693"
   y2="31.2509">
								<stop
   offset="0"
   style="stop-color:#FFBC89"
   id="stop349" />
								<stop
   offset="1"
   style="stop-color:#E60012"
   id="stop351" />
							</linearGradient>
							<polygon
   id="XMLID_794_"
   style="fill:url(#XMLID_51_)"
   points="19.593,31.155 19.592,31.251 15.946,29.091 15.946,29.044 15.946,28.996 " />
						</g>
					</g>
				</g>
				<g
   id="XMLID_783_">
					<g
   id="XMLID_784_"
   style="enable-background:new">
						<g
   id="XMLID_789_">
							<linearGradient
   id="XMLID_52_"
   gradientUnits="userSpaceOnUse"
   x1="19.6476"
   y1="30.3479"
   x2="19.6476"
   y2="30.507601">
								<stop
   offset="0"
   style="stop-color:#FFBC89"
   id="stop358" />
								<stop
   offset="1"
   style="stop-color:#E60012"
   id="stop360" />
							</linearGradient>
							<polygon
   id="XMLID_790_"
   style="fill:url(#XMLID_52_)"
   points="19.703,30.443 19.592,30.508 19.593,30.412 19.703,30.348 " />
						</g>
						<g
   id="XMLID_787_">
							<linearGradient
   id="XMLID_53_"
   gradientUnits="userSpaceOnUse"
   x1="17.8246"
   y1="28.188299"
   x2="17.8246"
   y2="30.412001">
								<stop
   offset="0"
   style="stop-color:#FFBC89"
   id="stop365" />
								<stop
   offset="1"
   style="stop-color:#E60012"
   id="stop367" />
							</linearGradient>
							<polygon
   id="XMLID_788_"
   style="fill:url(#XMLID_53_)"
   points="19.703,30.348 19.593,30.412 15.946,28.252 16.057,28.188 " />
						</g>
						<g
   id="XMLID_785_">
							<linearGradient
   id="XMLID_54_"
   gradientUnits="userSpaceOnUse"
   x1="17.7693"
   y1="28.252399"
   x2="17.7693"
   y2="30.507601">
								<stop
   offset="0"
   style="stop-color:#FFBC89"
   id="stop372" />
								<stop
   offset="1"
   style="stop-color:#E60012"
   id="stop374" />
							</linearGradient>
							<polygon
   id="XMLID_786_"
   style="fill:url(#XMLID_54_)"
   points="19.593,30.412 19.592,30.508 15.946,28.348 15.946,28.3 15.946,28.252 " />
						</g>
					</g>
				</g>
				<g
   id="XMLID_775_">
					<g
   id="XMLID_776_"
   style="enable-background:new">
						<g
   id="XMLID_781_">
							<linearGradient
   id="XMLID_55_"
   gradientUnits="userSpaceOnUse"
   x1="19.6476"
   y1="29.604601"
   x2="19.6476"
   y2="29.764299">
								<stop
   offset="0"
   style="stop-color:#FFBC89"
   id="stop381" />
								<stop
   offset="1"
   style="stop-color:#E60012"
   id="stop383" />
							</linearGradient>
							<polygon
   id="XMLID_782_"
   style="fill:url(#XMLID_55_)"
   points="19.703,29.7 19.592,29.764 19.593,29.669 19.703,29.605 " />
						</g>
						<g
   id="XMLID_779_">
							<linearGradient
   id="XMLID_56_"
   gradientUnits="userSpaceOnUse"
   x1="17.8246"
   y1="27.445"
   x2="17.8246"
   y2="29.668699">
								<stop
   offset="0"
   style="stop-color:#FFBC89"
   id="stop388" />
								<stop
   offset="1"
   style="stop-color:#E60012"
   id="stop390" />
							</linearGradient>
							<polygon
   id="XMLID_780_"
   style="fill:url(#XMLID_56_)"
   points="19.703,29.605 19.593,29.669 15.946,27.509 16.057,27.445 " />
						</g>
						<g
   id="XMLID_777_">
							<linearGradient
   id="XMLID_57_"
   gradientUnits="userSpaceOnUse"
   x1="17.7693"
   y1="27.5091"
   x2="17.7693"
   y2="29.764299">
								<stop
   offset="0"
   style="stop-color:#FFBC89"
   id="stop395" />
								<stop
   offset="1"
   style="stop-color:#E60012"
   id="stop397" />
							</linearGradient>
							<polygon
   id="XMLID_778_"
   style="fill:url(#XMLID_57_)"
   points="19.593,29.669 19.592,29.764 15.946,27.605 15.946,27.557 15.946,27.509 " />
						</g>
					</g>
				</g>
				<g
   id="XMLID_767_">
					<g
   id="XMLID_768_"
   style="enable-background:new">
						<g
   id="XMLID_773_">
							<linearGradient
   id="XMLID_58_"
   gradientUnits="userSpaceOnUse"
   x1="19.6476"
   y1="28.8613"
   x2="19.6476"
   y2="29.021">
								<stop
   offset="0"
   style="stop-color:#FFBC89"
   id="stop404" />
								<stop
   offset="1"
   style="stop-color:#E60012"
   id="stop406" />
							</linearGradient>
							<polygon
   id="XMLID_774_"
   style="fill:url(#XMLID_58_)"
   points="19.703,28.957 19.592,29.021 19.593,28.925 19.703,28.861 " />
						</g>
						<g
   id="XMLID_771_">
							<linearGradient
   id="XMLID_59_"
   gradientUnits="userSpaceOnUse"
   x1="17.8246"
   y1="26.7017"
   x2="17.8246"
   y2="28.9254">
								<stop
   offset="0"
   style="stop-color:#FFBC89"
   id="stop411" />
								<stop
   offset="1"
   style="stop-color:#E60012"
   id="stop413" />
							</linearGradient>
							<polygon
   id="XMLID_772_"
   style="fill:url(#XMLID_59_)"
   points="19.703,28.861 19.593,28.925 15.946,26.766 16.057,26.702 " />
						</g>
						<g
   id="XMLID_769_">
							<linearGradient
   id="XMLID_60_"
   gradientUnits="userSpaceOnUse"
   x1="17.7693"
   y1="26.7658"
   x2="17.7693"
   y2="29.021">
								<stop
   offset="0"
   style="stop-color:#FFBC89"
   id="stop418" />
								<stop
   offset="1"
   style="stop-color:#E60012"
   id="stop420" />
							</linearGradient>
							<polygon
   id="XMLID_770_"
   style="fill:url(#XMLID_60_)"
   points="19.593,28.925 19.592,29.021 15.946,26.861 15.946,26.814 15.946,26.766 " />
						</g>
					</g>
				</g>
			</g>
			<g
   id="XMLID_739_">
				
					<image
   sodipodi:absref="C:\Users\Copsec\Desktop\前端页面\12-17\8111C479.png"
   xlink:href="8111C479.png"
   style="overflow:visible"
   width="100"
   height="790"
   id="XMLID_765_"
   transform="matrix(0.0094,0,0,0.0094,14.5734,25.9896)">
				</image>
				<g
   id="XMLID_740_">
					<g
   id="XMLID_757_">
						<g
   id="XMLID_758_"
   style="enable-background:new">
							<g
   id="XMLID_763_">
								<linearGradient
   id="XMLID_61_"
   gradientUnits="userSpaceOnUse"
   x1="15.158"
   y1="32.376999"
   x2="15.2726"
   y2="32.376999">
									<stop
   offset="0"
   style="stop-color:#FFBC89"
   id="stop429" />
									<stop
   offset="1"
   style="stop-color:#E60012"
   id="stop431" />
								</linearGradient>
								<polygon
   id="XMLID_764_"
   style="fill:url(#XMLID_61_)"
   points="15.268,33.1 15.158,33.164 15.162,31.655 15.273,31.59 " />
							</g>
							<g
   id="XMLID_761_">
								<linearGradient
   id="XMLID_62_"
   gradientUnits="userSpaceOnUse"
   x1="14.8124"
   y1="31.5214"
   x2="15.2726"
   y2="31.5214">
									<stop
   offset="0"
   style="stop-color:#FFBC89"
   id="stop436" />
									<stop
   offset="1"
   style="stop-color:#E60012"
   id="stop438" />
								</linearGradient>
								<polygon
   id="XMLID_762_"
   style="fill:url(#XMLID_62_)"
   points="15.273,31.59 15.162,31.655 14.812,31.452 14.923,31.388 " />
							</g>
							<g
   id="XMLID_759_">
								<linearGradient
   id="XMLID_63_"
   gradientUnits="userSpaceOnUse"
   x1="14.8081"
   y1="32.308102"
   x2="15.1623"
   y2="32.308102">
									<stop
   offset="0"
   style="stop-color:#FFBC89"
   id="stop443" />
									<stop
   offset="1"
   style="stop-color:#E60012"
   id="stop445" />
								</linearGradient>
								<polygon
   id="XMLID_760_"
   style="fill:url(#XMLID_63_)"
   points="14.808,32.962 14.812,31.452 15.162,31.655 15.158,33.164 " />
							</g>
						</g>
					</g>
					<g
   id="XMLID_749_">
						<g
   id="XMLID_750_"
   style="enable-background:new">
							<g
   id="XMLID_755_">
								<linearGradient
   id="XMLID_64_"
   gradientUnits="userSpaceOnUse"
   x1="15.158"
   y1="29.795"
   x2="15.2726"
   y2="29.795">
									<stop
   offset="0"
   style="stop-color:#FFBC89"
   id="stop452" />
									<stop
   offset="1"
   style="stop-color:#E60012"
   id="stop454" />
								</linearGradient>
								<polygon
   id="XMLID_756_"
   style="fill:url(#XMLID_64_)"
   points="15.268,30.518 15.158,30.582 15.162,29.072 15.273,29.008 " />
							</g>
							<g
   id="XMLID_753_">
								<linearGradient
   id="XMLID_65_"
   gradientUnits="userSpaceOnUse"
   x1="14.8124"
   y1="28.9394"
   x2="15.2726"
   y2="28.9394">
									<stop
   offset="0"
   style="stop-color:#FFBC89"
   id="stop459" />
									<stop
   offset="1"
   style="stop-color:#E60012"
   id="stop461" />
								</linearGradient>
								<polygon
   id="XMLID_754_"
   style="fill:url(#XMLID_65_)"
   points="15.273,29.008 15.162,29.072 14.812,28.87 14.923,28.806 " />
							</g>
							<g
   id="XMLID_751_">
								<linearGradient
   id="XMLID_66_"
   gradientUnits="userSpaceOnUse"
   x1="14.8081"
   y1="29.726"
   x2="15.1623"
   y2="29.726">
									<stop
   offset="0"
   style="stop-color:#FFBC89"
   id="stop466" />
									<stop
   offset="1"
   style="stop-color:#E60012"
   id="stop468" />
								</linearGradient>
								<polygon
   id="XMLID_752_"
   style="fill:url(#XMLID_66_)"
   points="14.808,30.38 14.812,28.87 15.162,29.072 15.158,30.582 " />
							</g>
						</g>
					</g>
					<g
   id="XMLID_741_">
						<g
   id="XMLID_742_"
   style="enable-background:new">
							<g
   id="XMLID_747_">
								<linearGradient
   id="XMLID_67_"
   gradientUnits="userSpaceOnUse"
   x1="15.158"
   y1="27.212999"
   x2="15.2726"
   y2="27.212999">
									<stop
   offset="0"
   style="stop-color:#FFBC89"
   id="stop475" />
									<stop
   offset="1"
   style="stop-color:#E60012"
   id="stop477" />
								</linearGradient>
								<polygon
   id="XMLID_748_"
   style="fill:url(#XMLID_67_)"
   points="15.268,27.935 15.158,28 15.162,26.49 15.273,26.426 " />
							</g>
							<g
   id="XMLID_745_">
								<linearGradient
   id="XMLID_68_"
   gradientUnits="userSpaceOnUse"
   x1="14.8124"
   y1="26.357401"
   x2="15.2726"
   y2="26.357401">
									<stop
   offset="0"
   style="stop-color:#FFBC89"
   id="stop482" />
									<stop
   offset="1"
   style="stop-color:#E60012"
   id="stop484" />
								</linearGradient>
								<polygon
   id="XMLID_746_"
   style="fill:url(#XMLID_68_)"
   points="15.273,26.426 15.162,26.49 14.812,26.288 14.923,26.224 " />
							</g>
							<g
   id="XMLID_743_">
								<linearGradient
   id="XMLID_69_"
   gradientUnits="userSpaceOnUse"
   x1="14.8081"
   y1="27.143999"
   x2="15.1623"
   y2="27.143999">
									<stop
   offset="0"
   style="stop-color:#FFBC89"
   id="stop489" />
									<stop
   offset="1"
   style="stop-color:#E60012"
   id="stop491" />
								</linearGradient>
								<polygon
   id="XMLID_744_"
   style="fill:url(#XMLID_69_)"
   points="14.808,27.798 14.812,26.288 15.162,26.49 15.158,28 " />
							</g>
						</g>
					</g>
				</g>
			</g>
		</g>
		<g
   id="XMLID_630_">
			<linearGradient
   id="XMLID_70_"
   gradientUnits="userSpaceOnUse"
   x1="27.988501"
   y1="39.600498"
   x2="27.412701"
   y2="41.357899">
				<stop
   offset="0"
   style="stop-color:#FFBC89"
   id="stop501" />
				<stop
   offset="1"
   style="stop-color:#E60012"
   id="stop503" />
			</linearGradient>
			<path
   id="XMLID_721_"
   style="opacity:0.9;fill:url(#XMLID_70_)"
   d="m 26.434,38.657 c 0,0 0.883,1.297 3.1,0.932 l 0.025,0.908 c 0,0 -1.686,0.593 -3.143,-0.42 z"
   inkscape:connector-curvature="0" />
			<linearGradient
   id="XMLID_71_"
   gradientUnits="userSpaceOnUse"
   x1="24.3251"
   y1="36.782001"
   x2="26.023399"
   y2="39.1759">
				<stop
   offset="0"
   style="stop-color:#FFBC89"
   id="stop507" />
				<stop
   offset="1"
   style="stop-color:#E60012"
   id="stop509" />
			</linearGradient>
			<path
   id="XMLID_720_"
   style="fill:url(#XMLID_71_)"
   d="m 25.947,38.301 0.889,-0.472 0.014,-0.022 c 0,0 -0.395,-0.648 -1.276,-0.988 0,0 -0.814,-0.337 -1.875,-0.031 l -0.865,0.429 c 0.001,0.001 2.472,0.758 3.113,1.084 z"
   inkscape:connector-curvature="0" />
			<linearGradient
   id="XMLID_72_"
   gradientUnits="userSpaceOnUse"
   x1="24.3445"
   y1="36.773998"
   x2="26.0429"
   y2="39.167999">
				<stop
   offset="0"
   style="stop-color:#FFBC89"
   id="stop513" />
				<stop
   offset="1"
   style="stop-color:#E60012"
   id="stop515" />
			</linearGradient>
			<path
   id="XMLID_719_"
   style="opacity:0.51000001;fill:url(#XMLID_72_)"
   d="m 25.967,38.293 0.889,-0.472 0.014,-0.022 c 0,0 -0.395,-0.648 -1.276,-0.988 0,0 -0.814,-0.337 -1.875,-0.031 l -0.865,0.429 c 0,10e-4 2.471,0.758 3.113,1.084 z"
   inkscape:connector-curvature="0" />
			<linearGradient
   id="XMLID_73_"
   gradientUnits="userSpaceOnUse"
   x1="26.160101"
   y1="37.851299"
   x2="26.7911"
   y2="41.034199">
				<stop
   offset="0"
   style="stop-color:#FFBC89"
   id="stop519" />
				<stop
   offset="1"
   style="stop-color:#E60012"
   id="stop521" />
			</linearGradient>
			<polygon
   id="XMLID_716_"
   style="fill:url(#XMLID_73_)"
   points="26.85,37.807 25.985,38.236 25.985,40.493 26.85,40.064 " />
			<linearGradient
   id="XMLID_74_"
   gradientUnits="userSpaceOnUse"
   x1="23.879101"
   y1="39.287498"
   x2="26.1404"
   y2="37.445599">
				<stop
   offset="0"
   style="stop-color:#FFBC89"
   id="stop525" />
				<stop
   offset="1"
   style="stop-color:#E60012"
   id="stop527" />
			</linearGradient>
			<path
   id="XMLID_714_"
   style="fill:url(#XMLID_74_)"
   d="m 25.985,40.493 c 0,0 -1.058,-1.379 -3.15,-0.882 v -2.393 c 0,0 1.928,-0.678 3.15,1.018 z"
   inkscape:connector-curvature="0" />
			<linearGradient
   id="XMLID_75_"
   gradientUnits="userSpaceOnUse"
   x1="29.892401"
   y1="38.862499"
   x2="30.096399"
   y2="42.470299">
				<stop
   offset="0"
   style="stop-color:#FFBC89"
   id="stop531" />
				<stop
   offset="1"
   style="stop-color:#E60012"
   id="stop533" />
			</linearGradient>
			<polygon
   id="XMLID_713_"
   style="fill:url(#XMLID_75_)"
   points="29.567,41.93 29.526,41.891 29.514,39.559 30.315,39.143 30.443,39.091 30.441,41.493 " />
			<linearGradient
   id="XMLID_76_"
   gradientUnits="userSpaceOnUse"
   x1="26.554701"
   y1="40.537102"
   x2="26.538601"
   y2="38.561199">
				<stop
   offset="0"
   style="stop-color:#FFBC89"
   id="stop537" />
				<stop
   offset="1"
   style="stop-color:#E60012"
   id="stop539" />
			</linearGradient>
			<polygon
   id="XMLID_712_"
   style="opacity:0.6;fill:url(#XMLID_76_)"
   points="26.841,38.277 26.235,38.577 26.235,40.374 26.463,40.263 26.856,38.479 " />
			<linearGradient
   id="XMLID_77_"
   gradientUnits="userSpaceOnUse"
   x1="26.663099"
   y1="37.611198"
   x2="29.9886"
   y2="40.133999">
				<stop
   offset="0"
   style="stop-color:#FFBC89"
   id="stop543" />
				<stop
   offset="1"
   style="stop-color:#E60012"
   id="stop545" />
			</linearGradient>
			<path
   id="XMLID_711_"
   style="fill:url(#XMLID_77_)"
   d="m 26.419,38.646 0.874,-0.437 c 0,0 0.219,0.283 0.689,0.575 0,0 0.39,0.219 0.658,0.285 0,0 0.289,0.094 0.574,0.111 0,0 0.528,0.109 1.229,-0.088 l -0.874,0.437 c 0,0 -0.544,0.168 -0.917,0.143 0,0 -1.778,-0.066 -2.233,-1.026 z"
   inkscape:connector-curvature="0" />
			<linearGradient
   id="XMLID_78_"
   gradientUnits="userSpaceOnUse"
   x1="26.421101"
   y1="38.9398"
   x2="30.445101"
   y2="38.9398">
				<stop
   offset="0"
   style="stop-color:#FFBC89"
   id="stop549" />
				<stop
   offset="1"
   style="stop-color:#E60012"
   id="stop551" />
			</linearGradient>
			<path
   id="XMLID_710_"
   style="opacity:0.62000002;fill:url(#XMLID_78_)"
   d="m 26.421,38.644 0.874,-0.437 c 0,0 0.219,0.283 0.689,0.575 0,0 0.39,0.219 0.658,0.285 0,0 0.289,0.094 0.575,0.111 0,0 0.528,0.109 1.229,-0.088 l -0.883,0.445 c 0,0 -0.534,0.16 -0.907,0.135 -10e-4,0 -1.779,-0.066 -2.235,-1.026 z"
   inkscape:connector-curvature="0" />
			<linearGradient
   id="XMLID_79_"
   gradientUnits="userSpaceOnUse"
   x1="31.134501"
   y1="43.886799"
   x2="26.8293"
   y2="38.867001">
				<stop
   offset="0"
   style="stop-color:#FFBC89"
   id="stop555" />
				<stop
   offset="1"
   style="stop-color:#E60012"
   id="stop557" />
			</linearGradient>
			<path
   id="XMLID_709_"
   style="fill:url(#XMLID_79_)"
   d="m 26.419,38.646 c 0,0 1.058,1.379 3.15,0.882 v 2.393 c 0,0 -1.928,0.678 -3.15,-1.019 z"
   inkscape:connector-curvature="0" />
			<linearGradient
   id="XMLID_80_"
   gradientUnits="userSpaceOnUse"
   x1="23.2218"
   y1="33.384201"
   x2="26.284201"
   y2="35.6287">
				<stop
   offset="0"
   style="stop-color:#FFBC89"
   id="stop561" />
				<stop
   offset="1"
   style="stop-color:#E60012"
   id="stop563" />
			</linearGradient>
			<path
   id="XMLID_706_"
   style="fill:url(#XMLID_80_)"
   d="m 25.947,35.449 0.889,-0.472 0.014,-0.022 c 0,0 -0.395,-0.648 -1.276,-0.988 0,0 -0.814,-0.337 -1.875,-0.031 l -0.865,0.429 c 0.001,0 2.472,0.758 3.113,1.084 z"
   inkscape:connector-curvature="0" />
			<linearGradient
   id="XMLID_81_"
   gradientUnits="userSpaceOnUse"
   x1="26.160101"
   y1="34.998901"
   x2="26.7911"
   y2="38.181801">
				<stop
   offset="0"
   style="stop-color:#FFBC89"
   id="stop567" />
				<stop
   offset="1"
   style="stop-color:#E60012"
   id="stop569" />
			</linearGradient>
			<polygon
   id="XMLID_701_"
   style="fill:url(#XMLID_81_)"
   points="26.85,34.955 25.985,35.384 25.985,37.64 26.85,37.212 " />
			<linearGradient
   id="XMLID_82_"
   gradientUnits="userSpaceOnUse"
   x1="23.3482"
   y1="34.8475"
   x2="26.174601"
   y2="38.075199">
				<stop
   offset="0"
   style="stop-color:#FFBC89"
   id="stop573" />
				<stop
   offset="1"
   style="stop-color:#E60012"
   id="stop575" />
			</linearGradient>
			<path
   id="XMLID_696_"
   style="fill:url(#XMLID_82_)"
   d="m 25.985,37.64 c 0,0 -1.058,-1.379 -3.15,-0.882 v -2.393 c 0,0 1.928,-0.678 3.15,1.018 z"
   inkscape:connector-curvature="0" />
			<linearGradient
   id="XMLID_83_"
   gradientUnits="userSpaceOnUse"
   x1="29.892401"
   y1="36.009998"
   x2="30.096399"
   y2="39.617901">
				<stop
   offset="0"
   style="stop-color:#FFBC89"
   id="stop579" />
				<stop
   offset="1"
   style="stop-color:#E60012"
   id="stop581" />
			</linearGradient>
			<polygon
   id="XMLID_691_"
   style="fill:url(#XMLID_83_)"
   points="29.567,39.078 29.526,39.039 29.514,36.707 30.315,36.29 30.443,36.239 30.441,38.641 " />
			<linearGradient
   id="XMLID_84_"
   gradientUnits="userSpaceOnUse"
   x1="26.554701"
   y1="37.676498"
   x2="26.538601"
   y2="35.7005">
				<stop
   offset="0"
   style="stop-color:#FFBC89"
   id="stop585" />
				<stop
   offset="1"
   style="stop-color:#E60012"
   id="stop587" />
			</linearGradient>
			<polygon
   id="XMLID_686_"
   style="opacity:0.6;fill:url(#XMLID_84_)"
   points="26.841,35.417 26.235,35.716 26.235,37.513 26.463,37.403 26.856,35.618 " />
			<linearGradient
   id="XMLID_85_"
   gradientUnits="userSpaceOnUse"
   x1="25.3277"
   y1="37.7453"
   x2="25.9727"
   y2="38.5439">
				<stop
   offset="0"
   style="stop-color:#FFBC89"
   id="stop591" />
				<stop
   offset="1"
   style="stop-color:#E60012"
   id="stop593" />
			</linearGradient>
			<path
   id="XMLID_681_"
   style="fill:url(#XMLID_85_)"
   d="m 25.58,37.766 c 0,0 0.317,0.277 0.419,0.413 l 0.851,-0.385 -0.84,0.461 -0.029,2.137 -0.018,-2.149 c 0,-0.001 -0.135,-0.236 -0.383,-0.477 z"
   inkscape:connector-curvature="0" />
			<linearGradient
   id="XMLID_86_"
   gradientUnits="userSpaceOnUse"
   x1="27.7582"
   y1="34.925598"
   x2="28.981501"
   y2="36.920601">
				<stop
   offset="0"
   style="stop-color:#FFBC89"
   id="stop597" />
				<stop
   offset="1"
   style="stop-color:#E60012"
   id="stop599" />
			</linearGradient>
			<path
   id="XMLID_676_"
   style="fill:url(#XMLID_86_)"
   d="m 26.419,35.794 0.874,-0.437 c 0,0 0.219,0.283 0.689,0.574 0,0 0.39,0.219 0.658,0.285 0,0 0.289,0.094 0.574,0.111 0,0 0.528,0.109 1.229,-0.088 l -0.874,0.437 c 0,0 -0.544,0.168 -0.917,0.143 0,10e-4 -1.778,-0.065 -2.233,-1.025 z"
   inkscape:connector-curvature="0" />
			<linearGradient
   id="XMLID_87_"
   gradientUnits="userSpaceOnUse"
   x1="28.733101"
   y1="36.794701"
   x2="26.492901"
   y2="38.7244">
				<stop
   offset="0"
   style="stop-color:#FFBC89"
   id="stop603" />
				<stop
   offset="1"
   style="stop-color:#E60012"
   id="stop605" />
			</linearGradient>
			<path
   id="XMLID_671_"
   style="fill:url(#XMLID_87_)"
   d="m 26.419,35.794 c 0,0 1.058,1.379 3.15,0.882 v 2.393 c 0,0 -1.928,0.678 -3.15,-1.019 z"
   inkscape:connector-curvature="0" />
			<linearGradient
   id="XMLID_88_"
   gradientUnits="userSpaceOnUse"
   x1="28.514601"
   y1="36.962502"
   x2="29.3929"
   y2="37.355">
				<stop
   offset="0"
   style="stop-color:#FFBC89"
   id="stop609" />
				<stop
   offset="1"
   style="stop-color:#E60012"
   id="stop611" />
			</linearGradient>
			<path
   id="XMLID_666_"
   style="opacity:0.85;fill:url(#XMLID_88_)"
   d="m 30.432,36.243 -0.865,0.428 -0.467,0.087 c 0,0 0.376,-0.011 0.44,-0.034 l 0.03,2.286 0.029,-2.298 z"
   inkscape:connector-curvature="0" />
			<linearGradient
   id="XMLID_89_"
   gradientUnits="userSpaceOnUse"
   x1="27.7735"
   y1="42.196499"
   x2="29.770901"
   y2="40.326698">
				<stop
   offset="0"
   style="stop-color:#FFBC89"
   id="stop615" />
				<stop
   offset="1"
   style="stop-color:#E60012"
   id="stop617" />
			</linearGradient>
			<path
   id="XMLID_661_"
   style="fill:url(#XMLID_89_)"
   d="m 30.432,39.094 -0.865,0.428 -0.467,0.087 c 0,0 0.376,-0.011 0.44,-0.034 l 0.03,2.286 0.029,-2.298 z"
   inkscape:connector-curvature="0" />
			<linearGradient
   id="XMLID_90_"
   gradientUnits="userSpaceOnUse"
   x1="25.808399"
   y1="35.039299"
   x2="26.2477"
   y2="35.9179">
				<stop
   offset="0"
   style="stop-color:#FFBC89"
   id="stop621" />
				<stop
   offset="1"
   style="stop-color:#E60012"
   id="stop623" />
			</linearGradient>
			<path
   id="XMLID_658_"
   style="opacity:0.86000001;fill:url(#XMLID_90_)"
   d="m 25.58,34.928 c 0,0 0.317,0.277 0.419,0.413 l 0.851,-0.385 -0.84,0.461 -0.029,2.136 -0.018,-2.149 c 0,0 -0.135,-0.235 -0.383,-0.476 z"
   inkscape:connector-curvature="0" />
			<linearGradient
   id="XMLID_91_"
   gradientUnits="userSpaceOnUse"
   x1="23.789101"
   y1="34.0457"
   x2="25.490801"
   y2="36.064301">
				<stop
   offset="0"
   style="stop-color:#FFBC89"
   id="stop627" />
				<stop
   offset="1"
   style="stop-color:#E60012"
   id="stop629" />
			</linearGradient>
			<path
   id="XMLID_655_"
   style="opacity:0.86000001;fill:url(#XMLID_91_)"
   d="m 22.886,34.358 c 0,0 1.872,-0.687 3.076,1.029 l 0.073,-0.028 c -0.001,-0.001 -1.006,-1.732 -3.149,-1.001 z"
   inkscape:connector-curvature="0" />
			<linearGradient
   id="XMLID_92_"
   gradientUnits="userSpaceOnUse"
   x1="23.2941"
   y1="36.865601"
   x2="24.7792"
   y2="37.7071">
				<stop
   offset="0"
   style="stop-color:#FFBC89"
   id="stop633" />
				<stop
   offset="1"
   style="stop-color:#E60012"
   id="stop635" />
			</linearGradient>
			<path
   id="XMLID_654_"
   style="fill:url(#XMLID_92_)"
   d="m 22.9,37.197 c 0,0 1.886,-0.609 3.061,1.067 l 0.073,-0.028 c 0,-10e-4 -0.99,-1.771 -3.134,-1.039 z"
   inkscape:connector-curvature="0" />
			<linearGradient
   id="XMLID_93_"
   gradientUnits="userSpaceOnUse"
   x1="26.935101"
   y1="35.350101"
   x2="28.5151"
   y2="36.691299">
				<stop
   offset="0"
   style="stop-color:#FFBC89"
   id="stop639" />
				<stop
   offset="1"
   style="stop-color:#E60012"
   id="stop641" />
			</linearGradient>
			<path
   id="XMLID_653_"
   style="opacity:0.85;fill:url(#XMLID_93_)"
   d="m 26.498,35.883 c 0,0 0.884,1.225 3.042,0.842 l 0.075,-0.046 c 0,0 -1.216,0.193 -1.995,-0.133 0,0 -0.386,-0.061 -1.122,-0.663 z"
   inkscape:connector-curvature="0" />
			<linearGradient
   id="XMLID_94_"
   gradientUnits="userSpaceOnUse"
   x1="26.373301"
   y1="40.700901"
   x2="28.370701"
   y2="38.831001">
				<stop
   offset="0"
   style="stop-color:#FFBC89"
   id="stop645" />
				<stop
   offset="1"
   style="stop-color:#E60012"
   id="stop647" />
			</linearGradient>
			<path
   id="XMLID_652_"
   style="fill:url(#XMLID_94_)"
   d="m 26.498,38.727 c 0,0 0.884,1.225 3.042,0.842 l 0.075,-0.046 c 0,0 -1.216,0.193 -1.995,-0.133 0,0 -0.386,-0.06 -1.122,-0.663 z"
   inkscape:connector-curvature="0" />
			
				<image
   sodipodi:absref="C:\Users\Copsec\Desktop\前端页面\12-17\8111C47B.png"
   xlink:href="8111C47B.png"
   style="overflow:visible;opacity:0.31000001"
   width="1"
   height="6"
   id="XMLID_644_"
   transform="matrix(0.24,0,0,0.24,29.4913,36.7526)">
			</image>
		</g>
		<g
   id="XMLID_632_"
   style="opacity:0.2">
			<g
   id="XMLID_636_">
				<linearGradient
   id="XMLID_95_"
   gradientUnits="userSpaceOnUse"
   x1="24.730301"
   y1="45.224701"
   x2="24.730301"
   y2="45.225899">
					<stop
   offset="0"
   style="stop-color:#FFBC89"
   id="stop653" />
					<stop
   offset="1"
   style="stop-color:#E60012"
   id="stop655" />
				</linearGradient>
				<polygon
   id="XMLID_638_"
   style="fill:url(#XMLID_95_)"
   points="24.727,45.225 24.73,45.225 24.734,45.226 " />
				<linearGradient
   id="XMLID_96_"
   gradientUnits="userSpaceOnUse"
   x1="16.558399"
   y1="-3.8744469e-10"
   x2="16.558399"
   y2="45.256901">
					<stop
   offset="0.202"
   style="stop-color:#E60012;stop-opacity:0"
   id="stop659" />
					<stop
   offset="1"
   style="stop-color:#E60012"
   id="stop661" />
				</linearGradient>
				<path
   id="XMLID_637_"
   style="fill:url(#XMLID_96_)"
   d="m 25.167,45.256 v 10e-4 c -0.019,0 -0.036,-10e-4 -0.053,-0.002 -0.019,0 -0.037,-0.002 -0.055,-0.002 h -0.007 c -0.036,-10e-4 -0.071,-0.002 -0.107,-0.005 -0.035,-0.002 -0.068,-0.006 -0.102,-0.009 -0.036,-0.004 -0.073,-0.007 -0.109,-0.012 -0.002,0 -0.005,0 -0.007,-10e-4 -0.03,-0.004 -0.061,-0.007 -0.091,-0.012 -10e-4,0 -0.002,0 -0.004,-10e-4 -0.005,0 -0.01,-10e-4 -0.015,-0.002 -0.03,-0.005 -0.058,-0.01 -0.087,-0.015 -0.004,-10e-4 -0.007,-10e-4 -0.011,-0.002 -0.002,0 -0.005,-0.001 -0.007,-0.001 -0.027,-0.005 -0.056,-0.01 -0.083,-0.016 -0.016,-0.004 -0.031,-0.007 -0.046,-0.011 -0.029,-0.007 -0.057,-0.014 -0.084,-0.021 -0.001,0 -0.004,-0.001 -0.005,-0.001 -0.026,-0.007 -0.051,-0.014 -0.076,-0.021 -0.03,-0.009 -0.06,-0.017 -0.088,-0.027 -0.019,-0.006 -0.037,-0.012 -0.056,-0.019 -0.03,-0.011 -0.061,-0.022 -0.091,-0.033 -0.004,-10e-4 -0.007,-0.002 -0.011,-0.004 -0.035,-0.014 -0.067,-0.027 -0.1,-0.042 -0.076,-0.032 -0.148,-0.069 -0.217,-0.109 L 8.603,36.199 C 8.307,36.028 8.112,35.821 8.019,35.601 8.004,35.564 7.992,35.527 7.983,35.489 7.979,35.475 7.976,35.463 7.973,35.451 7.966,35.416 7.962,35.382 7.959,35.347 c 0,-0.004 -10e-4,-0.007 -10e-4,-0.01 0,-0.004 -0.001,-0.006 -0.001,-0.01 L 7.953,36.525 7.95,36.518 7.983,0 25.142,9.644 25.153,25.341 Z"
   inkscape:connector-curvature="0" />
			</g>
			<g
   id="XMLID_633_">
				<linearGradient
   id="XMLID_97_"
   gradientUnits="userSpaceOnUse"
   x1="25.1451"
   y1="35.3228"
   x2="25.1451"
   y2="47.999901">
					<stop
   offset="0"
   style="stop-color:#FFBC89"
   id="stop666" />
					<stop
   offset="1"
   style="stop-color:#E60012"
   id="stop668" />
				</linearGradient>
				<path
   id="XMLID_635_"
   style="fill:url(#XMLID_97_)"
   d="m 42.342,35.329 v 0.255 l -0.002,0.936 -0.005,1.528 v 0.02 c 0,0.015 -0.004,0.03 -0.005,0.045 -0.002,0.022 -0.004,0.046 -0.007,0.069 -10e-4,0.004 -10e-4,0.007 -10e-4,0.011 -0.004,0.015 -0.009,0.03 -0.014,0.045 -0.005,0.021 -0.011,0.043 -0.019,0.064 -0.001,0.005 -0.002,0.01 -0.004,0.014 -0.005,0.014 -0.012,0.027 -0.019,0.04 -0.01,0.024 -0.02,0.046 -0.032,0.068 -0.002,0.006 -0.004,0.011 -0.007,0.017 -0.006,0.011 -0.015,0.021 -0.021,0.032 -0.016,0.025 -0.033,0.051 -0.052,0.076 -0.005,0.007 -0.009,0.015 -0.015,0.022 -0.014,0.017 -0.029,0.033 -0.042,0.05 -0.005,0.006 -0.01,0.012 -0.015,0.017 -0.025,0.027 -0.051,0.053 -0.078,0.079 -0.005,0.004 -0.01,0.007 -0.014,0.011 -0.021,0.019 -0.045,0.037 -0.068,0.056 -0.02,0.016 -0.038,0.032 -0.061,0.048 -0.025,0.017 -0.052,0.035 -0.078,0.052 -0.02,0.012 -0.037,0.026 -0.057,0.038 -0.009,0.005 -0.017,0.01 -0.027,0.015 l -14.954,8.69 c -0.066,0.038 -0.135,0.073 -0.207,0.105 -0.02,0.009 -0.041,0.017 -0.062,0.026 -0.056,0.024 -0.113,0.046 -0.172,0.066 -0.012,0.004 -0.025,0.01 -0.038,0.015 -0.007,0.002 -0.016,0.004 -0.025,0.006 -0.036,0.012 -0.074,0.022 -0.112,0.032 -0.03,0.007 -0.057,0.016 -0.087,0.024 -0.04,0.01 -0.081,0.017 -0.12,0.026 -0.024,0.005 -0.047,0.01 -0.071,0.015 -0.005,0 -0.009,10e-4 -0.012,10e-4 -0.082,0.015 -0.165,0.026 -0.249,0.035 -0.006,10e-4 -0.012,0.002 -0.019,0.002 -0.02,0.002 -0.04,0.002 -0.06,0.004 -0.048,0.005 -0.098,0.009 -0.148,0.01 -0.011,10e-4 -0.024,0.002 -0.035,0.002 -0.02,10e-4 -0.04,0 -0.061,10e-4 h -0.164 c -0.019,0 -0.037,-0.002 -0.056,-0.002 -0.037,-10e-4 -0.074,-0.004 -0.11,-0.006 -0.017,-10e-4 -0.033,-10e-4 -0.05,-0.002 -0.017,-0.001 -0.035,-0.005 -0.052,-0.006 -0.037,-0.004 -0.073,-0.007 -0.109,-0.012 -0.017,-10e-4 -0.035,-0.002 -0.052,-0.005 -0.015,-0.002 -0.031,-0.006 -0.046,-0.009 -0.04,-0.006 -0.078,-0.012 -0.117,-0.02 -0.017,-0.004 -0.036,-0.006 -0.055,-0.01 -0.012,-0.002 -0.024,-0.006 -0.036,-0.009 -0.046,-0.01 -0.091,-0.021 -0.135,-0.033 -0.019,-0.005 -0.038,-0.009 -0.057,-0.014 -0.006,-10e-4 -0.012,-0.005 -0.019,-0.006 -0.081,-0.024 -0.159,-0.05 -0.236,-0.079 -0.004,-10e-4 -0.007,-0.002 -0.011,-0.004 -0.035,-0.014 -0.067,-0.029 -0.099,-0.043 -0.019,-0.009 -0.038,-0.016 -0.057,-0.025 -0.055,-0.026 -0.109,-0.053 -0.16,-0.084 L 8.593,38.938 C 8.161,38.689 7.947,38.363 7.947,38.035 L 7.952,36.52 7.956,35.322 c 0,0.004 10e-4,0.006 10e-4,0.01 0.002,0.069 0.016,0.139 0.04,0.208 0.006,0.019 0.014,0.037 0.021,0.056 0.093,0.219 0.288,0.427 0.584,0.598 l 15.052,8.69 c 0.069,0.04 0.141,0.077 0.217,0.109 0.033,0.015 0.066,0.029 0.1,0.042 0.033,0.014 0.067,0.026 0.102,0.037 0.019,0.006 0.037,0.012 0.056,0.019 0.082,0.029 0.166,0.052 0.253,0.071 0.015,0.004 0.03,0.007 0.046,0.011 0.033,0.007 0.067,0.015 0.102,0.02 0.033,0.007 0.067,0.014 0.102,0.017 10e-4,10e-4 0.002,10e-4 0.004,10e-4 0.03,0.005 0.061,0.009 0.091,0.012 0.002,10e-4 0.005,10e-4 0.007,10e-4 0.036,0.005 0.073,0.009 0.109,0.012 0.033,0.005 0.068,0.007 0.102,0.009 0.019,0.001 0.038,0.002 0.057,0.004 0.055,0.004 0.109,0.005 0.165,0.006 h 0.016 c 0.139,10e-4 0.277,-0.006 0.413,-0.021 0.079,-0.007 0.159,-0.02 0.237,-0.033 0.004,0 0.009,0 0.012,-10e-4 0.005,-0.001 0.01,-0.002 0.015,-0.002 0.063,-0.012 0.126,-0.025 0.188,-0.041 0.068,-0.015 0.135,-0.033 0.2,-0.055 0.048,-0.015 0.097,-0.031 0.143,-0.05 0.029,-0.011 0.055,-0.022 0.082,-0.033 0.004,-10e-4 0.006,-0.002 0.01,-0.004 0.021,-0.009 0.042,-0.017 0.063,-0.027 0.029,-0.012 0.056,-0.026 0.084,-0.04 0.041,-0.02 0.082,-0.041 0.122,-0.064 l 14.955,-8.69 c 0.03,-0.017 0.056,-0.036 0.083,-0.053 0.002,-10e-4 0.005,-0.004 0.009,-0.006 0.024,-0.016 0.047,-0.032 0.069,-0.047 0.02,-0.012 0.036,-0.027 0.055,-0.042 0.002,-0.002 0.005,-0.004 0.007,-0.006 0.019,-0.014 0.037,-0.029 0.055,-0.043 0.006,-0.005 0.011,-0.01 0.017,-0.016 0.015,-0.014 0.029,-0.027 0.043,-0.041 0.015,-0.015 0.03,-0.03 0.043,-0.045 10e-4,-0.001 10e-4,-0.001 10e-4,-0.002 0.005,-0.005 0.01,-0.011 0.014,-0.015 0.01,-0.011 0.019,-0.022 0.027,-0.035 0.005,-0.006 0.01,-0.012 0.015,-0.019 0.006,-0.006 0.011,-0.012 0.015,-0.019 0.012,-0.015 0.021,-0.031 0.031,-0.046 0.007,-0.011 0.015,-0.021 0.021,-0.031 0.01,-0.016 0.021,-0.032 0.03,-0.048 0.022,-0.04 0.041,-0.081 0.055,-0.122 0.004,-0.011 0.006,-0.021 0.01,-0.032 0.004,-0.011 0.006,-0.022 0.009,-0.033 10e-4,-0.004 0.002,-0.009 0.004,-0.012 0.004,-0.015 0.007,-0.029 0.01,-0.043 0.001,-0.005 0.001,-0.011 0.001,-0.016 0.006,-0.031 0.009,-0.062 0.011,-0.093 z"
   inkscape:connector-curvature="0" />
				<linearGradient
   id="XMLID_98_"
   gradientUnits="userSpaceOnUse"
   x1="33.741798"
   y1="3.828973e-10"
   x2="33.741798"
   y2="45.257">
					<stop
   offset="0.202"
   style="stop-color:#E60012;stop-opacity:0"
   id="stop672" />
					<stop
   offset="1"
   style="stop-color:#E60012"
   id="stop674" />
				</linearGradient>
				<path
   id="XMLID_634_"
   style="fill:url(#XMLID_98_)"
   d="m 42.342,35.329 c -10e-4,0.031 -0.005,0.062 -0.011,0.092 0,0.005 0,0.011 -0.001,0.016 -0.002,0.015 -0.006,0.029 -0.01,0.043 -10e-4,0.004 -0.002,0.009 -0.004,0.012 -0.002,0.011 -0.006,0.022 -0.009,0.033 -0.004,0.011 -0.006,0.021 -0.01,0.032 -0.014,0.041 -0.032,0.082 -0.055,0.122 -0.009,0.016 -0.02,0.032 -0.03,0.048 -0.006,0.01 -0.014,0.02 -0.021,0.031 -0.01,0.015 -0.019,0.031 -0.031,0.046 -0.004,0.006 -0.009,0.012 -0.015,0.019 -0.005,0.006 -0.01,0.012 -0.015,0.019 -0.009,0.012 -0.017,0.024 -0.027,0.035 -0.004,0.004 -0.009,0.01 -0.014,0.015 0,10e-4 0,10e-4 -10e-4,0.002 -0.014,0.015 -0.029,0.03 -0.043,0.045 -0.015,0.014 -0.029,0.027 -0.043,0.041 -0.006,0.006 -0.011,0.011 -0.017,0.016 -0.017,0.015 -0.036,0.03 -0.055,0.043 -0.002,0.002 -0.005,0.004 -0.007,0.006 -0.017,0.014 -0.036,0.027 -0.055,0.042 -0.022,0.015 -0.046,0.031 -0.069,0.047 -0.004,0.002 -0.006,0.005 -0.009,0.006 -0.027,0.017 -0.053,0.036 -0.083,0.053 l -14.955,8.69 c -0.04,0.024 -0.081,0.045 -0.122,0.064 -0.029,0.014 -0.056,0.027 -0.084,0.04 -0.021,0.01 -0.042,0.019 -0.063,0.027 -0.004,10e-4 -0.006,0.002 -0.01,0.004 -0.027,0.011 -0.053,0.022 -0.082,0.033 -0.046,0.019 -0.094,0.035 -0.143,0.05 -0.037,0.011 -0.076,0.021 -0.113,0.032 -0.029,0.007 -0.057,0.016 -0.087,0.022 -0.062,0.016 -0.125,0.029 -0.188,0.041 -0.005,0 -0.01,0.001 -0.015,0.002 -0.004,10e-4 -0.009,10e-4 -0.012,10e-4 -0.078,0.014 -0.157,0.026 -0.237,0.033 -0.136,0.015 -0.274,0.022 -0.413,0.021 V 45.252 L 25.161,25.34 25.142,9.644 42.308,0 42.341,35.273 v 0.056 z"
   inkscape:connector-curvature="0" />
				<linearGradient
   id="XMLID_99_"
   gradientUnits="userSpaceOnUse"
   x1="42.3409"
   y1="35.584499"
   x2="42.3409"
   y2="36.520699">
					<stop
   offset="0.202"
   style="stop-color:#E60012;stop-opacity:0"
   id="stop678" />
					<stop
   offset="1"
   style="stop-color:#E60012"
   id="stop680" />
				</linearGradient>
				<polygon
   id="XMLID_639_"
   style="fill:url(#XMLID_99_)"
   points="42.339,36.521 42.342,35.584 42.343,36.518 " />
			</g>
		</g>
	</g>
</g>
</svg>