<?xml version="1.0" encoding="UTF-8" standalone="no"?>
<!-- Generator: Adobe Illustrator 22.0.0, SVG Export Plug-In . SVG Version: 6.00 Build 0)  -->

<svg
   xmlns:dc="http://purl.org/dc/elements/1.1/"
   xmlns:cc="http://creativecommons.org/ns#"
   xmlns:rdf="http://www.w3.org/1999/02/22-rdf-syntax-ns#"
   xmlns:svg="http://www.w3.org/2000/svg"
   xmlns="http://www.w3.org/2000/svg"
   xmlns:xlink="http://www.w3.org/1999/xlink"
   xmlns:sodipodi="http://sodipodi.sourceforge.net/DTD/sodipodi-0.dtd"
   xmlns:inkscape="http://www.inkscape.org/namespaces/inkscape"
   version="1.1"
   id="图层_1"
   x="0px"
   y="0px"
   viewBox="0 0 50 50"
   xml:space="preserve"
   sodipodi:docname="7.svg"
   width="50"
   height="50"
   inkscape:version="0.92.4 (5da689c313, 2019-01-14)"><metadata
   id="metadata339"><rdf:RDF><cc:Work
       rdf:about=""><dc:format>image/svg+xml</dc:format><dc:type
         rdf:resource="http://purl.org/dc/dcmitype/StillImage" /><dc:title></dc:title></cc:Work></rdf:RDF></metadata><defs
   id="defs337" /><sodipodi:namedview
   pagecolor="#ffffff"
   bordercolor="#666666"
   borderopacity="1"
   objecttolerance="10"
   gridtolerance="10"
   guidetolerance="10"
   inkscape:pageopacity="0"
   inkscape:pageshadow="2"
   inkscape:window-width="1366"
   inkscape:window-height="706"
   id="namedview335"
   showgrid="false"
   inkscape:zoom="4.9166667"
   inkscape:cx="24"
   inkscape:cy="24"
   inkscape:window-x="-8"
   inkscape:window-y="-8"
   inkscape:window-maximized="1"
   inkscape:current-layer="图层_1" />
<style
   type="text/css"
   id="style2">
	.st0{enable-background:new    ;}
	.st1{fill:url(#XMLID_23_);}
	.st2{fill:url(#XMLID_82_);}
	.st3{fill:url(#XMLID_83_);}
	.st4{fill:url(#XMLID_85_);}
	.st5{fill:#2A497D;}
	.st6{fill:url(#XMLID_87_);}
	.st7{fill:url(#SVGID_1_);}
	.st8{fill:url(#XMLID_99_);}
	.st9{clip-path:url(#SVGID_3_);}
	.st10{fill:#3E9E8E;}
	.st11{fill:#0F1045;}
	.st12{fill:#1B1E80;}
	.st13{fill:#121456;}
	.st14{fill:#009983;}
	.st15{fill:#00B99E;}
	.st16{fill:#00E5C4;}
	.st17{fill:url(#XMLID_100_);stroke:#343D96;stroke-width:0.25;stroke-miterlimit:10;}
	.st18{fill:url(#XMLID_105_);}
	.st19{fill:url(#XMLID_109_);}
	.st20{fill:url(#XMLID_115_);}
	.st21{fill:url(#XMLID_124_);}
	.st22{fill:url(#XMLID_126_);}
	.st23{fill:url(#XMLID_128_);}
	.st24{fill:url(#XMLID_129_);}
	.st25{fill:url(#XMLID_134_);}
	.st26{fill:url(#XMLID_135_);}
	.st27{opacity:0.2;}
	.st28{fill:url(#XMLID_136_);}
	.st29{fill:url(#XMLID_139_);}
	.st30{fill:url(#XMLID_140_);}
	.st31{fill:url(#XMLID_141_);}
	.st32{fill:url(#XMLID_142_);}
</style>
<g
   id="XMLID_161_"
   transform="matrix(1.3961372,0,0,1.2372861,-8.5928301,-9.3905423)">
	<g
   id="XMLID_162_"
   class="st0"
   style="enable-background:new">
		
			<linearGradient
   id="XMLID_23_"
   gradientUnits="userSpaceOnUse"
   x1="24.003"
   y1="13.706"
   x2="24.003"
   y2="0.99659997"
   gradientTransform="matrix(1,0,0,-1,0,49)">
			<stop
   offset="0"
   style="stop-color:#498DEA"
   id="stop4" />
			<stop
   offset="1"
   style="stop-color:#020D83"
   id="stop6" />
		</linearGradient>
		<path
   id="XMLID_165_"
   class="st1"
   d="m 41.192,35.368 c -0.002,0.023 -0.004,0.046 -0.008,0.069 -0.003,0.019 -0.009,0.037 -0.014,0.056 -0.006,0.022 -0.011,0.044 -0.019,0.066 -0.006,0.018 -0.015,0.036 -0.022,0.053 -0.01,0.023 -0.02,0.046 -0.032,0.068 -0.009,0.016 -0.019,0.032 -0.029,0.049 -0.016,0.026 -0.033,0.051 -0.051,0.076 -0.018,0.024 -0.037,0.048 -0.058,0.072 -0.005,0.006 -0.009,0.011 -0.015,0.017 -0.028,0.031 -0.059,0.061 -0.092,0.09 -0.021,0.019 -0.044,0.037 -0.067,0.056 -0.02,0.016 -0.04,0.033 -0.061,0.048 -0.025,0.018 -0.052,0.035 -0.079,0.052 -0.028,0.018 -0.054,0.036 -0.083,0.054 l -14.954,8.69 c -0.066,0.038 -0.135,0.072 -0.207,0.104 -0.021,0.009 -0.042,0.018 -0.063,0.027 -0.056,0.023 -0.113,0.045 -0.172,0.065 -0.021,0.007 -0.041,0.015 -0.063,0.022 -0.037,0.012 -0.075,0.022 -0.113,0.032 -0.029,0.008 -0.057,0.016 -0.086,0.023 -0.04,0.01 -0.081,0.018 -0.121,0.026 -0.027,0.006 -0.055,0.012 -0.082,0.017 -0.082,0.014 -0.165,0.026 -0.249,0.035 -0.026,0.003 -0.052,0.004 -0.078,0.007 -0.049,0.004 -0.098,0.008 -0.148,0.01 -0.032,10e-4 -0.063,0.002 -0.095,0.003 -0.04,10e-4 -0.08,10e-4 -0.12,10e-4 -0.034,0 -0.067,-10e-4 -0.1,-0.003 C 23.874,45.252 23.837,45.25 23.8,45.247 23.766,45.245 23.732,45.242 23.699,45.239 23.663,45.235 23.626,45.231 23.59,45.227 23.557,45.223 23.525,45.218 23.492,45.213 23.453,45.207 23.414,45.2 23.376,45.193 c -0.03,-0.006 -0.061,-0.012 -0.091,-0.018 -0.046,-0.01 -0.091,-0.021 -0.136,-0.033 -0.025,-0.007 -0.05,-0.013 -0.075,-0.02 -0.08,-0.024 -0.159,-0.05 -0.235,-0.079 C 22.801,45.028 22.765,45.012 22.728,44.996 22.709,44.988 22.69,44.98 22.671,44.971 22.616,44.945 22.562,44.917 22.51,44.887 L 7.458,36.197 C 7.026,35.948 6.811,35.621 6.812,35.294 l -0.008,2.745 c -0.001,0.327 0.215,0.654 0.646,0.903 l 15.052,8.69 c 0.052,0.03 0.105,0.058 0.161,0.084 0.018,0.009 0.038,0.016 0.057,0.025 0.033,0.015 0.065,0.03 0.099,0.043 0.004,0.002 0.008,0.003 0.012,0.004 0.076,0.03 0.155,0.056 0.235,0.079 0.006,0.002 0.012,0.005 0.019,0.006 0.018,0.005 0.038,0.009 0.056,0.014 0.045,0.012 0.09,0.023 0.136,0.033 0.012,0.003 0.024,0.006 0.036,0.009 0.018,0.004 0.037,0.006 0.055,0.01 0.038,0.007 0.077,0.014 0.116,0.02 0.016,0.002 0.031,0.006 0.047,0.008 0.017,0.002 0.034,0.004 0.052,0.006 0.036,0.005 0.072,0.009 0.109,0.012 0.018,0.002 0.035,0.004 0.052,0.006 0.016,10e-4 0.033,10e-4 0.049,0.003 0.037,0.003 0.074,0.004 0.111,0.006 0.019,10e-4 0.037,0.003 0.056,0.003 0.015,0 0.03,0 0.045,0 0.04,10e-4 0.08,0 0.12,-10e-4 0.02,0 0.04,0 0.06,0 0.012,0 0.024,-0.002 0.035,-0.002 0.049,-0.002 0.099,-0.006 0.148,-0.01 0.02,-0.002 0.04,-0.002 0.06,-0.004 0.006,-10e-4 0.012,-0.002 0.018,-0.003 0.084,-0.009 0.167,-0.02 0.249,-0.035 0.004,-10e-4 0.008,-10e-4 0.012,-0.002 0.024,-0.004 0.047,-0.01 0.071,-0.015 0.04,-0.008 0.081,-0.016 0.121,-0.026 0.029,-0.007 0.058,-0.015 0.086,-0.023 0.038,-0.01 0.076,-0.02 0.113,-0.032 0.008,-0.002 0.016,-0.004 0.024,-0.007 0.013,-0.004 0.026,-0.01 0.039,-0.015 0.059,-0.02 0.116,-0.042 0.172,-0.065 0.021,-0.009 0.042,-0.017 0.063,-0.027 0.071,-0.032 0.141,-0.066 0.207,-0.104 l 14.954,-8.69 c 0.009,-0.005 0.018,-0.01 0.027,-0.016 0.02,-0.012 0.037,-0.025 0.056,-0.038 0.027,-0.017 0.054,-0.035 0.079,-0.053 0.022,-0.016 0.041,-0.032 0.061,-0.048 0.023,-0.018 0.046,-0.037 0.067,-0.055 0.004,-0.004 0.009,-0.007 0.014,-0.011 0.028,-0.026 0.054,-0.053 0.079,-0.079 0.005,-0.006 0.009,-0.011 0.014,-0.017 0.015,-0.017 0.029,-0.033 0.043,-0.05 0.006,-0.007 0.01,-0.015 0.015,-0.022 0.019,-0.025 0.036,-0.051 0.051,-0.076 0.007,-0.011 0.015,-0.021 0.022,-0.032 0.003,-0.005 0.005,-0.011 0.008,-0.017 0.012,-0.023 0.022,-0.045 0.032,-0.068 0.006,-0.013 0.014,-0.026 0.019,-0.04 0.002,-0.005 0.002,-0.009 0.004,-0.014 0.008,-0.022 0.013,-0.044 0.019,-0.065 0.004,-0.015 0.01,-0.029 0.013,-0.044 10e-4,-0.004 10e-4,-0.008 10e-4,-0.012 0.004,-0.023 0.006,-0.046 0.008,-0.069 10e-4,-0.015 0.005,-0.03 0.005,-0.045 0,-0.006 0,-0.013 0,-0.019 l 0.008,-2.745 c -0.005,0.018 -0.009,0.04 -0.01,0.061 z"
   style="fill:url(#XMLID_23_)"
   inkscape:connector-curvature="0" />
		<g
   id="XMLID_163_">
			
				<linearGradient
   id="XMLID_82_"
   gradientUnits="userSpaceOnUse"
   x1="6.8106999"
   y1="13.7015"
   x2="41.196602"
   y2="13.7015"
   gradientTransform="matrix(1,0,0,-1,0,49)">
				<stop
   offset="0"
   style="stop-color:#498DEA"
   id="stop10" />
				<stop
   offset="1"
   style="stop-color:#020D83"
   id="stop12" />
			</linearGradient>
			<path
   id="XMLID_164_"
   class="st2"
   d="m 40.55,34.401 c 0.858,0.495 0.863,1.298 0.01,1.794 l -14.954,8.691 c -0.852,0.495 -2.239,0.495 -3.097,0 L 7.457,36.196 C 6.599,35.701 6.595,34.898 7.447,34.402 l 14.954,-8.691 c 0.852,-0.495 2.238,-0.495 3.096,0 z"
   style="fill:url(#XMLID_82_)"
   inkscape:connector-curvature="0" />
		</g>
	</g>
</g>
<g
   id="XMLID_549_"
   transform="matrix(1.3961372,0,0,1.2372861,-8.5928301,-9.3905423)">
	<g
   id="XMLID_550_"
   class="st0"
   style="enable-background:new">
		
			<radialGradient
   id="XMLID_83_"
   cx="24.003"
   cy="7.3512998"
   r="12.9651"
   gradientTransform="matrix(1,0,0,-1,0,49)"
   gradientUnits="userSpaceOnUse">
			<stop
   offset="0"
   style="stop-color:#FFFFFF"
   id="stop19" />
			<stop
   offset="0.1175"
   style="stop-color:#D6DAEB"
   id="stop21" />
			<stop
   offset="0.2566"
   style="stop-color:#ACB5D6"
   id="stop23" />
			<stop
   offset="0.399"
   style="stop-color:#8A96C5"
   id="stop25" />
			<stop
   offset="0.5431"
   style="stop-color:#6F7EB8"
   id="stop27" />
			<stop
   offset="0.6896"
   style="stop-color:#5C6DAE"
   id="stop29" />
			<stop
   offset="0.8399"
   style="stop-color:#5162A9"
   id="stop31" />
			<stop
   offset="1"
   style="stop-color:#4D5FA7"
   id="stop33" />
		</radialGradient>
		<path
   id="XMLID_557_"
   class="st3"
   d="m 41.192,35.368 c -0.002,0.023 -0.004,0.046 -0.008,0.069 -0.003,0.019 -0.009,0.037 -0.014,0.056 -0.006,0.022 -0.011,0.044 -0.019,0.066 -0.006,0.018 -0.015,0.036 -0.022,0.053 -0.01,0.023 -0.02,0.046 -0.032,0.068 -0.009,0.016 -0.019,0.032 -0.029,0.049 -0.016,0.026 -0.033,0.051 -0.051,0.076 -0.018,0.024 -0.037,0.048 -0.058,0.072 -0.005,0.006 -0.009,0.011 -0.015,0.017 -0.028,0.031 -0.059,0.061 -0.092,0.09 -0.021,0.019 -0.044,0.037 -0.067,0.056 -0.02,0.016 -0.04,0.033 -0.061,0.048 -0.025,0.018 -0.052,0.035 -0.079,0.052 -0.028,0.018 -0.054,0.036 -0.083,0.054 l -14.954,8.69 c -0.066,0.038 -0.135,0.072 -0.207,0.104 -0.021,0.009 -0.042,0.018 -0.063,0.027 -0.056,0.023 -0.113,0.045 -0.172,0.065 -0.021,0.007 -0.041,0.015 -0.063,0.022 -0.037,0.012 -0.075,0.022 -0.113,0.032 -0.029,0.008 -0.057,0.016 -0.086,0.023 -0.04,0.01 -0.081,0.018 -0.121,0.026 -0.027,0.006 -0.055,0.012 -0.082,0.017 -0.082,0.014 -0.165,0.026 -0.249,0.035 -0.026,0.003 -0.052,0.004 -0.078,0.007 -0.049,0.004 -0.098,0.008 -0.148,0.01 -0.032,10e-4 -0.063,0.002 -0.095,0.003 -0.04,10e-4 -0.08,10e-4 -0.12,10e-4 -0.034,0 -0.067,-10e-4 -0.1,-0.003 C 23.874,45.252 23.837,45.25 23.8,45.247 23.766,45.245 23.732,45.242 23.699,45.239 23.663,45.235 23.626,45.231 23.59,45.227 23.557,45.223 23.525,45.218 23.492,45.213 23.453,45.207 23.414,45.2 23.376,45.193 c -0.03,-0.006 -0.061,-0.012 -0.091,-0.018 -0.046,-0.01 -0.091,-0.021 -0.136,-0.033 -0.025,-0.007 -0.05,-0.013 -0.075,-0.02 -0.08,-0.024 -0.159,-0.05 -0.235,-0.079 C 22.801,45.028 22.765,45.012 22.728,44.996 22.709,44.988 22.69,44.98 22.671,44.971 22.616,44.945 22.562,44.917 22.51,44.887 L 7.458,36.197 C 7.026,35.948 6.811,35.621 6.812,35.294 l -0.008,2.745 c -0.001,0.327 0.215,0.654 0.646,0.903 l 15.052,8.69 c 0.052,0.03 0.105,0.058 0.161,0.084 0.018,0.009 0.038,0.016 0.057,0.025 0.033,0.015 0.065,0.03 0.099,0.043 0.004,0.002 0.008,0.003 0.012,0.004 0.076,0.03 0.155,0.056 0.235,0.079 0.006,0.002 0.012,0.005 0.019,0.006 0.018,0.005 0.038,0.009 0.056,0.014 0.045,0.012 0.09,0.023 0.136,0.033 0.012,0.003 0.024,0.006 0.036,0.009 0.018,0.004 0.037,0.006 0.055,0.01 0.038,0.007 0.077,0.014 0.116,0.02 0.016,0.002 0.031,0.006 0.047,0.008 0.017,0.002 0.034,0.004 0.052,0.006 0.036,0.005 0.072,0.009 0.109,0.012 0.018,0.002 0.035,0.004 0.052,0.006 0.016,10e-4 0.033,10e-4 0.049,0.003 0.037,0.003 0.074,0.004 0.111,0.006 0.019,10e-4 0.037,0.003 0.056,0.003 0.015,0 0.03,0 0.045,0 0.04,10e-4 0.08,0 0.12,-10e-4 0.02,0 0.04,0 0.06,0 0.012,0 0.024,-0.002 0.035,-0.002 0.049,-0.002 0.099,-0.006 0.148,-0.01 0.02,-0.002 0.04,-0.002 0.06,-0.004 0.006,-10e-4 0.012,-0.002 0.018,-0.003 0.084,-0.009 0.167,-0.02 0.249,-0.035 0.004,-10e-4 0.008,-10e-4 0.012,-0.002 0.024,-0.004 0.047,-0.01 0.071,-0.015 0.04,-0.008 0.081,-0.016 0.121,-0.026 0.029,-0.007 0.058,-0.015 0.086,-0.023 0.038,-0.01 0.076,-0.02 0.113,-0.032 0.008,-0.002 0.016,-0.004 0.024,-0.007 0.013,-0.004 0.026,-0.01 0.039,-0.015 0.059,-0.02 0.116,-0.042 0.172,-0.065 0.021,-0.009 0.042,-0.017 0.063,-0.027 0.071,-0.032 0.141,-0.066 0.207,-0.104 l 14.954,-8.69 c 0.009,-0.005 0.018,-0.01 0.027,-0.016 0.02,-0.012 0.037,-0.025 0.056,-0.038 0.027,-0.017 0.054,-0.035 0.079,-0.053 0.022,-0.016 0.041,-0.032 0.061,-0.048 0.023,-0.018 0.046,-0.037 0.067,-0.055 0.004,-0.004 0.009,-0.007 0.014,-0.011 0.028,-0.026 0.054,-0.053 0.079,-0.079 0.005,-0.006 0.009,-0.011 0.014,-0.017 0.015,-0.017 0.029,-0.033 0.043,-0.05 0.006,-0.007 0.01,-0.015 0.015,-0.022 0.019,-0.025 0.036,-0.051 0.051,-0.076 0.007,-0.011 0.015,-0.021 0.022,-0.032 0.003,-0.005 0.005,-0.011 0.008,-0.017 0.012,-0.023 0.022,-0.045 0.032,-0.068 0.006,-0.013 0.014,-0.026 0.019,-0.04 0.002,-0.005 0.002,-0.009 0.004,-0.014 0.008,-0.022 0.013,-0.044 0.019,-0.065 0.004,-0.015 0.01,-0.029 0.013,-0.044 10e-4,-0.004 10e-4,-0.008 10e-4,-0.012 0.004,-0.023 0.006,-0.046 0.008,-0.069 10e-4,-0.015 0.005,-0.03 0.005,-0.045 0,-0.006 0,-0.013 0,-0.019 l 0.008,-2.745 c -0.005,0.018 -0.009,0.04 -0.01,0.061 z"
   style="fill:url(#XMLID_83_)"
   inkscape:connector-curvature="0" />
		<g
   id="XMLID_554_">
			
				<radialGradient
   id="XMLID_85_"
   cx="24.0037"
   cy="13.7015"
   r="14.0495"
   gradientTransform="matrix(1,0,0,-1,0,49)"
   gradientUnits="userSpaceOnUse">
				<stop
   offset="0"
   style="stop-color:#FFFFFF"
   id="stop37" />
				<stop
   offset="0.1175"
   style="stop-color:#D6DAEB"
   id="stop39" />
				<stop
   offset="0.2566"
   style="stop-color:#ACB5D6"
   id="stop41" />
				<stop
   offset="0.399"
   style="stop-color:#8A96C5"
   id="stop43" />
				<stop
   offset="0.5431"
   style="stop-color:#6F7EB8"
   id="stop45" />
				<stop
   offset="0.6896"
   style="stop-color:#5C6DAE"
   id="stop47" />
				<stop
   offset="0.8399"
   style="stop-color:#5162A9"
   id="stop49" />
				<stop
   offset="1"
   style="stop-color:#4D5FA7"
   id="stop51" />
			</radialGradient>
			<path
   id="XMLID_555_"
   class="st4"
   d="m 40.55,34.401 c 0.858,0.495 0.863,1.298 0.01,1.794 l -14.954,8.691 c -0.852,0.495 -2.239,0.495 -3.097,0 L 7.457,36.196 C 6.599,35.701 6.595,34.898 7.447,34.402 l 14.954,-8.691 c 0.852,-0.495 2.238,-0.495 3.096,0 z"
   style="fill:url(#XMLID_85_)"
   inkscape:connector-curvature="0" />
		</g>
	</g>
</g>
<g
   id="XMLID_3_"
   transform="matrix(1.3961372,0,0,1.2372861,-8.5928301,-9.3905423)">
	<g
   id="XMLID_130_">
		<g
   id="XMLID_131_"
   class="st0"
   style="enable-background:new">
			<g
   id="XMLID_159_">
				<polygon
   id="XMLID_160_"
   class="st5"
   points="30.806,20.893 31.239,21.207 24.843,17.443 26.235,18.236 "
   style="fill:#2a497d" />
			</g>
			<g
   id="XMLID_137_">
				
					<radialGradient
   id="XMLID_87_"
   cx="16.131001"
   cy="16.459499"
   r="6.5036998"
   gradientTransform="matrix(1,0,0,-1,0,49)"
   gradientUnits="userSpaceOnUse">
					<stop
   offset="0"
   style="stop-color:#FFFFFF"
   id="stop60" />
					<stop
   offset="0.1175"
   style="stop-color:#D6DAEB"
   id="stop62" />
					<stop
   offset="0.2566"
   style="stop-color:#ACB5D6"
   id="stop64" />
					<stop
   offset="0.399"
   style="stop-color:#8A96C5"
   id="stop66" />
					<stop
   offset="0.5431"
   style="stop-color:#6F7EB8"
   id="stop68" />
					<stop
   offset="0.6896"
   style="stop-color:#5C6DAE"
   id="stop70" />
					<stop
   offset="0.8399"
   style="stop-color:#5162A9"
   id="stop72" />
					<stop
   offset="1"
   style="stop-color:#4D5FA7"
   id="stop74" />
				</radialGradient>
				<polygon
   id="XMLID_138_"
   class="st6"
   points="19.315,27.686 19.343,41.159 12.947,37.473 12.919,23.922 "
   style="fill:url(#XMLID_87_)" />
			</g>
			<radialGradient
   id="SVGID_1_"
   cx="22.078501"
   cy="22.528999"
   r="7.4327002"
   gradientUnits="userSpaceOnUse">
				<stop
   offset="0"
   style="stop-color:#FFFFFF"
   id="stop79" />
				<stop
   offset="0.1175"
   style="stop-color:#D6DAEB"
   id="stop81" />
				<stop
   offset="0.2566"
   style="stop-color:#ACB5D6"
   id="stop83" />
				<stop
   offset="0.399"
   style="stop-color:#8A96C5"
   id="stop85" />
				<stop
   offset="0.5431"
   style="stop-color:#6F7EB8"
   id="stop87" />
				<stop
   offset="0.6896"
   style="stop-color:#5C6DAE"
   id="stop89" />
				<stop
   offset="0.8399"
   style="stop-color:#5162A9"
   id="stop91" />
				<stop
   offset="1"
   style="stop-color:#4D5FA7"
   id="stop93" />
			</radialGradient>
			<path
   class="st7"
   d="M 24.842,17.443 C 24.81,17.425 24.776,17.41 24.741,17.399 24.717,17.391 24.692,17.386 24.667,17.381 L 24.664,17.379 C 24.643,17.376 24.622,17.373 24.6,17.372 l 0.063,0.037 c -0.001,0 -0.002,0 -0.002,0 l -0.06,-0.035 c -0.019,-10e-4 -0.038,-10e-4 -0.057,-10e-4 -0.017,0 -0.034,10e-4 -0.052,0.003 L 24.49,17.375 c -0.016,0.001 -0.033,0.003 -0.05,0.006 l 0.011,0.006 c 0,0 -0.001,0 -0.001,0 l -0.01,-0.006 c -0.016,0.002 -0.032,0.005 -0.048,0.009 -0.016,0.003 -0.031,0.007 -0.047,0.011 -0.015,0.004 -0.031,0.009 -0.046,0.014 -0.015,0.005 -0.03,0.01 -0.045,0.016 -0.015,0.006 -0.03,0.012 -0.045,0.018 -0.014,0.006 -0.029,0.013 -0.043,0.019 h -0.001 c -0.015,0.007 -0.03,0.014 -0.045,0.022 l 0.013,0.007 c -10e-4,0 -10e-4,0 -0.002,0.001 l -0.012,-0.007 c -0.015,0.007 -0.03,0.015 -0.045,0.024 -0.004,0.002 -0.008,0.005 -0.012,0.007 l -11.143,6.4 6.396,3.764 11.143,-6.4 c 0.293,-0.169 0.573,-0.197 0.78,-0.079 z"
   id="path96"
   style="fill:url(#SVGID_1_)"
   inkscape:connector-curvature="0" />
			<g
   id="XMLID_132_">
				
					<radialGradient
   id="XMLID_99_"
   cx="26.1455"
   cy="17.853399"
   r="8.5698004"
   gradientTransform="matrix(1,0,0,-1,0,49)"
   gradientUnits="userSpaceOnUse">
					<stop
   offset="0"
   style="stop-color:#FFFFFF"
   id="stop98" />
					<stop
   offset="0.1175"
   style="stop-color:#D6DAEB"
   id="stop100" />
					<stop
   offset="0.2566"
   style="stop-color:#ACB5D6"
   id="stop102" />
					<stop
   offset="0.399"
   style="stop-color:#8A96C5"
   id="stop104" />
					<stop
   offset="0.5431"
   style="stop-color:#6F7EB8"
   id="stop106" />
					<stop
   offset="0.6896"
   style="stop-color:#5C6DAE"
   id="stop108" />
					<stop
   offset="0.8399"
   style="stop-color:#5162A9"
   id="stop110" />
					<stop
   offset="1"
   style="stop-color:#4D5FA7"
   id="stop112" />
				</radialGradient>
				<path
   id="XMLID_133_"
   class="st8"
   d="m 30.458,21.286 c 0.292,-0.169 0.573,-0.197 0.78,-0.079 L 32.63,22 c 0.208,0.118 0.325,0.373 0.326,0.709 l 0.02,10.611 -13.633,7.838 -0.028,-13.472 z"
   style="fill:url(#XMLID_99_)"
   inkscape:connector-curvature="0" />
			</g>
		</g>
	</g>
	<g
   id="XMLID_122_">
		<g
   id="XMLID_123_"
   class="st0"
   style="enable-background:new">
			<g
   id="g127">
				<defs
   id="defs120">
					<polygon
   id="SVGID_2_"
   points="31.981,32.981 21.317,39.105 21.295,27.801 30.136,20.57 " />
				</defs>
				<clipPath
   id="SVGID_3_">
					<use
   xlink:href="#SVGID_2_"
   style="overflow:visible"
   id="use122"
   x="0"
   y="0"
   width="100%"
   height="100%" />
				</clipPath>
				<g
   id="XMLID_125_"
   class="st9"
   clip-path="url(#SVGID_3_)">
					<path
   id="XMLID_127_"
   class="st10"
   d="m 21.34,39.066 -0.022,-11.251 8.624,-4.946 c 0.234,-0.135 0.455,-0.161 0.621,-0.073 L 29.86,22.28 c 0.166,0.088 2.082,1.386 2.082,1.646 l 0.015,9.042 -10.617,6.098 m 8.603,-16.224 -8.647,4.959 0.022,11.304 10.664,-6.124 -0.015,-9.069 c -10e-4,-0.266 -1.919,-1.57 -2.09,-1.66 l 0.703,0.514 c -0.171,-0.09 -0.397,-0.063 -0.637,0.076"
   inkscape:connector-curvature="0"
   style="fill:#3e9e8e" />
				</g>
			</g>
		</g>
	</g>
	<g
   id="XMLID_32_">
		<g
   id="XMLID_113_">
			<g
   id="XMLID_114_"
   class="st0"
   style="enable-background:new">
				<g
   id="XMLID_120_">
					<polygon
   id="XMLID_121_"
   class="st11"
   points="18.447,35.711 18.447,35.615 18.557,35.551 18.557,35.647 "
   style="fill:#0f1045" />
				</g>
				<g
   id="XMLID_118_">
					<polygon
   id="XMLID_119_"
   class="st12"
   points="18.447,35.615 14.801,33.456 14.911,33.392 18.557,35.551 "
   style="fill:#1b1e80" />
				</g>
				<g
   id="XMLID_116_">
					<polygon
   id="XMLID_117_"
   class="st13"
   points="14.801,33.551 14.801,33.504 14.801,33.456 18.447,35.615 18.447,35.711 "
   style="fill:#121456" />
				</g>
			</g>
		</g>
		<g
   id="XMLID_103_">
			<g
   id="XMLID_104_"
   class="st0"
   style="enable-background:new">
				<g
   id="XMLID_111_">
					<polygon
   id="XMLID_112_"
   class="st11"
   points="18.447,34.967 18.447,34.872 18.557,34.808 18.557,34.903 "
   style="fill:#0f1045" />
				</g>
				<g
   id="XMLID_108_">
					<polygon
   id="XMLID_110_"
   class="st12"
   points="18.447,34.872 14.801,32.712 14.911,32.648 18.557,34.808 "
   style="fill:#1b1e80" />
				</g>
				<g
   id="XMLID_106_">
					<polygon
   id="XMLID_107_"
   class="st13"
   points="14.801,32.808 14.801,32.76 14.801,32.712 18.447,34.872 18.447,34.967 "
   style="fill:#121456" />
				</g>
			</g>
		</g>
		<g
   id="XMLID_93_">
			<g
   id="XMLID_94_"
   class="st0"
   style="enable-background:new">
				<g
   id="XMLID_101_">
					<polygon
   id="XMLID_102_"
   class="st11"
   points="18.447,34.224 18.447,34.129 18.557,34.065 18.557,34.16 "
   style="fill:#0f1045" />
				</g>
				<g
   id="XMLID_97_">
					<polygon
   id="XMLID_98_"
   class="st12"
   points="18.447,34.129 14.801,31.969 14.911,31.905 18.557,34.065 "
   style="fill:#1b1e80" />
				</g>
				<g
   id="XMLID_95_">
					<polygon
   id="XMLID_96_"
   class="st13"
   points="14.801,32.065 14.801,32.017 14.801,31.969 18.447,34.129 18.447,34.224 "
   style="fill:#121456" />
				</g>
			</g>
		</g>
		<g
   id="XMLID_81_">
			<g
   id="XMLID_84_"
   class="st0"
   style="enable-background:new">
				<g
   id="XMLID_91_">
					<polygon
   id="XMLID_92_"
   class="st11"
   points="18.447,33.481 18.447,33.385 18.557,33.321 18.557,33.417 "
   style="fill:#0f1045" />
				</g>
				<g
   id="XMLID_89_">
					<polygon
   id="XMLID_90_"
   class="st12"
   points="18.447,33.385 14.801,31.226 14.911,31.162 18.557,33.321 "
   style="fill:#1b1e80" />
				</g>
				<g
   id="XMLID_86_">
					<polygon
   id="XMLID_88_"
   class="st13"
   points="14.801,31.321 14.801,31.274 14.801,31.226 18.447,33.385 18.447,33.481 "
   style="fill:#121456" />
				</g>
			</g>
		</g>
		<g
   id="XMLID_73_">
			<g
   id="XMLID_74_"
   class="st0"
   style="enable-background:new">
				<g
   id="XMLID_79_">
					<polygon
   id="XMLID_80_"
   class="st11"
   points="18.447,32.738 18.447,32.642 18.557,32.578 18.557,32.673 "
   style="fill:#0f1045" />
				</g>
				<g
   id="XMLID_77_">
					<polygon
   id="XMLID_78_"
   class="st12"
   points="18.447,32.642 14.801,30.482 14.911,30.418 18.557,32.578 "
   style="fill:#1b1e80" />
				</g>
				<g
   id="XMLID_75_">
					<polygon
   id="XMLID_76_"
   class="st13"
   points="14.801,30.578 14.801,30.53 14.801,30.482 18.447,32.642 18.447,32.738 "
   style="fill:#121456" />
				</g>
			</g>
		</g>
		<g
   id="XMLID_65_">
			<g
   id="XMLID_66_"
   class="st0"
   style="enable-background:new">
				<g
   id="XMLID_71_">
					<polygon
   id="XMLID_72_"
   class="st11"
   points="18.447,31.994 18.447,31.899 18.557,31.835 18.557,31.93 "
   style="fill:#0f1045" />
				</g>
				<g
   id="XMLID_69_">
					<polygon
   id="XMLID_70_"
   class="st12"
   points="18.447,31.899 14.801,29.739 14.911,29.675 18.557,31.835 "
   style="fill:#1b1e80" />
				</g>
				<g
   id="XMLID_67_">
					<polygon
   id="XMLID_68_"
   class="st13"
   points="14.801,29.835 14.801,29.787 14.801,29.739 18.447,31.899 18.447,31.994 "
   style="fill:#121456" />
				</g>
			</g>
		</g>
		<g
   id="XMLID_57_">
			<g
   id="XMLID_58_"
   class="st0"
   style="enable-background:new">
				<g
   id="XMLID_63_">
					<polygon
   id="XMLID_64_"
   class="st11"
   points="18.447,31.251 18.447,31.155 18.557,31.091 18.557,31.187 "
   style="fill:#0f1045" />
				</g>
				<g
   id="XMLID_61_">
					<polygon
   id="XMLID_62_"
   class="st12"
   points="18.447,31.155 14.801,28.996 14.911,28.932 18.557,31.091 "
   style="fill:#1b1e80" />
				</g>
				<g
   id="XMLID_59_">
					<polygon
   id="XMLID_60_"
   class="st13"
   points="14.801,29.091 14.801,29.044 14.801,28.996 18.447,31.155 18.447,31.251 "
   style="fill:#121456" />
				</g>
			</g>
		</g>
		<g
   id="XMLID_49_">
			<g
   id="XMLID_50_"
   class="st0"
   style="enable-background:new">
				<g
   id="XMLID_55_">
					<polygon
   id="XMLID_56_"
   class="st11"
   points="18.447,30.508 18.447,30.412 18.557,30.348 18.557,30.444 "
   style="fill:#0f1045" />
				</g>
				<g
   id="XMLID_53_">
					<polygon
   id="XMLID_54_"
   class="st12"
   points="18.447,30.412 14.801,28.252 14.911,28.188 18.557,30.348 "
   style="fill:#1b1e80" />
				</g>
				<g
   id="XMLID_51_">
					<polygon
   id="XMLID_52_"
   class="st13"
   points="14.801,28.348 14.801,28.3 14.801,28.252 18.447,30.412 18.447,30.508 "
   style="fill:#121456" />
				</g>
			</g>
		</g>
		<g
   id="XMLID_41_">
			<g
   id="XMLID_42_"
   class="st0"
   style="enable-background:new">
				<g
   id="XMLID_47_">
					<polygon
   id="XMLID_48_"
   class="st11"
   points="18.447,29.764 18.447,29.669 18.557,29.605 18.557,29.7 "
   style="fill:#0f1045" />
				</g>
				<g
   id="XMLID_45_">
					<polygon
   id="XMLID_46_"
   class="st12"
   points="18.447,29.669 14.801,27.509 14.911,27.445 18.557,29.605 "
   style="fill:#1b1e80" />
				</g>
				<g
   id="XMLID_43_">
					<polygon
   id="XMLID_44_"
   class="st13"
   points="14.801,27.605 14.801,27.557 14.801,27.509 18.447,29.669 18.447,29.764 "
   style="fill:#121456" />
				</g>
			</g>
		</g>
		<g
   id="XMLID_33_">
			<g
   id="XMLID_34_"
   class="st0"
   style="enable-background:new">
				<g
   id="XMLID_39_">
					<polygon
   id="XMLID_40_"
   class="st11"
   points="18.447,29.021 18.447,28.925 18.557,28.861 18.557,28.957 "
   style="fill:#0f1045" />
				</g>
				<g
   id="XMLID_37_">
					<polygon
   id="XMLID_38_"
   class="st12"
   points="18.447,28.925 14.801,26.766 14.911,26.702 18.557,28.861 "
   style="fill:#1b1e80" />
				</g>
				<g
   id="XMLID_35_">
					<polygon
   id="XMLID_36_"
   class="st13"
   points="14.801,26.861 14.801,26.814 14.801,26.766 18.447,28.925 18.447,29.021 "
   style="fill:#121456" />
				</g>
			</g>
		</g>
	</g>
	<g
   id="XMLID_4_">
		<g
   id="XMLID_5_">
			<g
   id="XMLID_22_">
				<g
   id="XMLID_24_"
   class="st0"
   style="enable-background:new">
					<g
   id="XMLID_29_">
						<polygon
   id="XMLID_30_"
   class="st14"
   points="14.013,33.164 14.017,31.655 14.127,31.59 14.123,33.1 "
   style="fill:#009983" />
					</g>
					<g
   id="XMLID_27_">
						<polygon
   id="XMLID_28_"
   class="st15"
   points="14.017,31.655 13.667,31.453 13.777,31.388 14.127,31.59 "
   style="fill:#00b99e" />
					</g>
					<g
   id="XMLID_25_">
						<polygon
   id="XMLID_26_"
   class="st16"
   points="13.667,31.453 14.017,31.655 14.013,33.164 13.663,32.962 "
   style="fill:#00e5c4" />
					</g>
				</g>
			</g>
			<g
   id="XMLID_14_">
				<g
   id="XMLID_15_"
   class="st0"
   style="enable-background:new">
					<g
   id="XMLID_20_">
						<polygon
   id="XMLID_21_"
   class="st14"
   points="14.013,30.582 14.017,29.073 14.127,29.008 14.123,30.518 "
   style="fill:#009983" />
					</g>
					<g
   id="XMLID_18_">
						<polygon
   id="XMLID_19_"
   class="st15"
   points="14.017,29.073 13.667,28.87 13.777,28.806 14.127,29.008 "
   style="fill:#00b99e" />
					</g>
					<g
   id="XMLID_16_">
						<polygon
   id="XMLID_17_"
   class="st16"
   points="13.667,28.87 14.017,29.073 14.013,30.582 13.663,30.38 "
   style="fill:#00e5c4" />
					</g>
				</g>
			</g>
			<g
   id="XMLID_6_">
				<g
   id="XMLID_7_"
   class="st0"
   style="enable-background:new">
					<g
   id="XMLID_12_">
						<polygon
   id="XMLID_13_"
   class="st14"
   points="14.013,28 14.017,26.49 14.127,26.426 14.123,27.936 "
   style="fill:#009983" />
					</g>
					<g
   id="XMLID_10_">
						<polygon
   id="XMLID_11_"
   class="st15"
   points="14.017,26.49 13.667,26.288 13.777,26.224 14.127,26.426 "
   style="fill:#00b99e" />
					</g>
					<g
   id="XMLID_8_">
						<polygon
   id="XMLID_9_"
   class="st16"
   points="13.667,26.288 14.017,26.49 14.013,28 13.663,27.798 "
   style="fill:#00e5c4" />
					</g>
				</g>
			</g>
		</g>
	</g>
</g>
<g
   id="XMLID_178_"
   transform="matrix(1.3961372,0,0,1.2372861,-8.5928301,-9.3905423)">
	
		<radialGradient
   id="XMLID_100_"
   cx="27.6355"
   cy="12.648"
   r="5.9552002"
   gradientTransform="matrix(1,0,0,-1,0,49)"
   gradientUnits="userSpaceOnUse">
		<stop
   offset="0"
   style="stop-color:#FFFEFD"
   id="stop239" />
		<stop
   offset="1"
   style="stop-color:#00E5C4"
   id="stop241" />
	</radialGradient>
	<path
   id="XMLID_176_"
   class="st17"
   d="m 23.41,32.142 c -2.306,2.343 -2.294,6.119 0.027,8.447 2.336,2.312 6.103,2.3 8.424,-0.027 2.306,-2.343 2.294,-6.119 -0.027,-8.447 -2.336,-2.312 -6.102,-2.3 -8.424,0.027 z"
   style="fill:url(#XMLID_100_);stroke:#343d96;stroke-width:0.25;stroke-miterlimit:10"
   inkscape:connector-curvature="0" />
	<g
   id="XMLID_179_">
		
			<radialGradient
   id="XMLID_105_"
   cx="27.583"
   cy="11.8905"
   r="4.1845999"
   gradientTransform="matrix(1,0,0,-1,0,49)"
   gradientUnits="userSpaceOnUse">
			<stop
   offset="0"
   style="stop-color:#498DEA"
   id="stop245" />
			<stop
   offset="1"
   style="stop-color:#020D83"
   id="stop247" />
		</radialGradient>
		<path
   id="XMLID_175_"
   class="st18"
   d="m 28.937,41.907 c -0.037,-0.054 -0.075,-0.11 -0.115,-0.166 -0.037,-0.075 -0.075,-0.152 -0.115,-0.23 0.013,-0.116 0.026,-0.234 0.039,-0.352 -0.002,-0.117 -0.005,-0.236 -0.009,-0.355 0.011,-0.122 0.021,-0.245 0.031,-0.368 -0.004,-0.123 -0.008,-0.246 -0.013,-0.371 0.038,-0.128 0.077,-0.256 0.115,-0.385 -0.036,-0.124 -0.074,-0.249 -0.113,-0.376 -0.073,-0.07 -0.147,-0.14 -0.221,-0.212 -0.072,-0.109 -0.145,-0.219 -0.219,-0.33 -0.044,-0.092 -0.088,-0.185 -0.133,-0.279 0.002,-0.114 0.003,-0.229 0.004,-0.343 0.048,-0.096 0.096,-0.193 0.144,-0.29 10e-4,-0.115 0.003,-0.231 0.004,-0.346 -0.111,0.002 -0.223,0.003 -0.334,0.004 -0.063,-0.095 -0.126,-0.189 -0.19,-0.284 -0.082,-0.059 -0.163,-0.118 -0.245,-0.177 -0.112,-0.02 -0.225,-0.04 -0.338,-0.06 C 27.116,36.948 27.002,36.91 26.889,36.871 26.807,36.814 26.725,36.757 26.643,36.7 26.596,36.605 26.549,36.51 26.502,36.415 26.436,36.317 26.37,36.22 26.304,36.123 26.24,36.027 26.176,35.931 26.113,35.835 c 0.032,0.114 0.064,0.229 0.097,0.344 0.031,0.116 0.063,0.233 0.095,0.349 -0.049,-0.117 -0.098,-0.233 -0.146,-0.349 -0.064,-0.093 -0.128,-0.186 -0.191,-0.279 -0.078,-0.115 -0.154,-0.229 -0.23,-0.342 -0.045,-0.091 -0.09,-0.182 -0.134,-0.273 0.033,-0.115 0.067,-0.231 0.1,-0.346 0.005,-0.13 0.01,-0.26 0.017,-0.39 -0.04,-0.109 -0.079,-0.218 -0.117,-0.326 -0.056,-0.088 -0.112,-0.175 -0.165,-0.261 -0.068,-0.066 -0.136,-0.131 -0.202,-0.194 -0.085,-0.045 -0.168,-0.088 -0.251,-0.13 -0.09,0.029 -0.18,0.059 -0.27,0.089 -0.09,0.029 -0.179,0.058 -0.269,0.087 -0.098,0.082 -0.195,0.164 -0.293,0.246 -0.013,-0.098 -0.025,-0.196 -0.036,-0.292 0.059,-0.108 0.119,-0.216 0.18,-0.324 -0.044,-0.057 -0.086,-0.112 -0.127,-0.166 0.099,-0.037 0.199,-0.074 0.299,-0.11 -0.073,-0.034 -0.144,-0.066 -0.214,-0.097 0.088,-0.052 0.176,-0.103 0.265,-0.154 0.077,-0.05 0.153,-0.099 0.23,-0.148 0.081,-0.017 0.163,-0.034 0.245,-0.05 0.077,0.019 0.156,0.039 0.235,0.06 0.084,-0.014 0.169,-0.027 0.253,-0.04 0.08,0.022 0.161,0.046 0.243,0.07 0.093,-0.064 0.185,-0.128 0.277,-0.192 0.084,-0.009 0.168,-0.018 0.252,-0.026 0.099,0.009 0.199,0.019 0.299,0.03 0.087,-0.006 0.173,-0.012 0.26,-0.017 0.085,0.051 0.171,0.102 0.258,0.155 0.103,-0.041 0.206,-0.08 0.307,-0.119 0.102,-0.002 0.205,-0.003 0.307,-0.002 0.087,-0.019 0.174,-0.037 0.261,-0.054 -0.033,-0.091 -0.065,-0.182 -0.097,-0.272 0.073,0.054 0.148,0.108 0.222,0.163 0.004,0.11 0.007,0.22 0.011,0.332 0.015,-0.017 0.029,-0.034 0.044,-0.051 0.016,0.018 0.031,0.036 0.047,0.054 -0.014,0.036 -0.028,0.072 -0.042,0.108 -0.059,-0.002 -0.118,-0.003 -0.177,-0.004 0.031,0.038 0.061,0.076 0.092,0.114 0.015,0.037 0.031,0.074 0.046,0.111 -0.045,-0.02 -0.09,-0.04 -0.135,-0.06 -0.044,0.037 -0.089,0.074 -0.134,0.111 0.031,0 0.062,0.001 0.092,0.001 -0.044,0.036 -0.088,0.072 -0.133,0.108 -0.045,0.038 -0.09,0.076 -0.136,0.115 0,0.055 0.001,0.11 0.001,0.166 0.031,0.037 0.061,0.075 0.092,0.112 0.044,0 0.088,0 0.133,10e-4 0.033,0.02 0.065,0.041 0.098,0.061 0.015,0.018 0.031,0.037 0.046,0.055 0.047,0.019 0.094,0.039 0.141,0.058 0.032,0.001 0.063,0.001 0.095,0.002 0.016,0.057 0.031,0.115 0.047,0.172 0.001,0.038 0.002,0.075 0.003,0.113 0.032,0.038 0.065,0.077 0.097,0.115 0.03,-0.057 0.059,-0.113 0.089,-0.17 -0.018,-0.076 -0.035,-0.151 -0.053,-0.226 0.03,0.001 0.06,0.002 0.09,0.003 0.046,-0.035 0.092,-0.07 0.137,-0.105 -0.02,-0.095 -0.04,-0.19 -0.06,-0.284 -0.003,-0.056 -0.006,-0.112 -0.008,-0.168 0.013,-0.054 0.025,-0.107 0.038,-0.161 0.002,0.037 0.004,0.074 0.006,0.112 0.06,0.02 0.12,0.04 0.18,0.061 0.062,0.023 0.124,0.046 0.186,0.07 0.033,0.057 0.066,0.113 0.099,0.17 0.004,0.054 0.008,0.109 0.011,0.163 0.032,0.022 0.063,0.043 0.095,0.065 0.012,-0.055 0.023,-0.111 0.035,-0.166 0.028,-0.035 0.056,-0.069 0.084,-0.103 0.048,0.04 0.095,0.08 0.143,0.119 0.019,0.057 0.038,0.114 0.057,0.171 0.021,0.055 0.042,0.111 0.062,0.166 0.017,0.038 0.034,0.076 0.05,0.114 -0.011,0.036 -0.023,0.071 -0.034,0.107 0.042,-0.034 0.084,-0.068 0.126,-0.101 0.032,0.02 0.063,0.039 0.095,0.059 0.003,0.036 0.006,0.073 0.008,0.109 -0.046,-0.003 -0.092,-0.006 -0.139,-0.009 -0.026,0.035 -0.053,0.071 -0.08,0.107 -0.031,0.016 -0.061,0.032 -0.092,0.048 -0.017,-0.019 -0.034,-0.037 -0.051,-0.056 -0.063,-0.022 -0.126,-0.043 -0.188,-0.065 -0.047,-0.002 -0.094,-0.005 -0.141,-0.007 -0.044,0.034 -0.089,0.069 -0.133,0.104 -0.092,0.054 -0.185,0.109 -0.278,0.164 -0.091,0.054 -0.184,0.109 -0.276,0.164 -0.047,0.037 -0.094,0.075 -0.142,0.112 0.063,-0.018 0.127,-0.035 0.19,-0.052 0.047,-0.036 0.094,-0.073 0.14,-0.109 0.062,-0.038 0.124,-0.076 0.186,-0.113 0.031,-0.037 0.062,-0.075 0.092,-0.112 0.061,-0.017 0.121,-0.035 0.181,-0.051 0.046,-0.016 0.091,-0.032 0.137,-0.048 0.002,0.037 0.004,0.075 0.006,0.112 0.019,0.058 0.038,0.116 0.056,0.174 0.048,0.021 0.096,0.043 0.144,0.064 -0.045,0.034 -0.091,0.069 -0.137,0.104 -0.047,-0.002 -0.095,-0.003 -0.143,-0.005 0.015,-0.036 0.031,-0.072 0.046,-0.108 -0.047,0.015 -0.093,0.031 -0.14,0.047 -0.062,0.036 -0.125,0.072 -0.188,0.108 0.001,0.038 0.002,0.077 0.003,0.115 -0.03,0.018 -0.061,0.035 -0.091,0.053 -0.031,0.02 -0.063,0.04 -0.094,0.059 -0.047,0.075 -0.095,0.151 -0.143,0.227 -0.016,-0.04 -0.032,-0.08 -0.048,-0.12 -0.031,0.039 -0.063,0.079 -0.094,0.118 0.033,0.038 0.065,0.076 0.098,0.113 -0.015,0.038 -0.03,0.076 -0.046,0.115 -0.048,0.039 -0.096,0.077 -0.145,0.116 -0.031,0.057 -0.061,0.114 -0.092,0.171 -0.033,0.022 -0.066,0.043 -0.099,0.064 0.017,0.037 0.034,0.074 0.05,0.111 0.017,0.039 0.034,0.078 0.05,0.118 0,0.058 10e-4,0.117 10e-4,0.175 -0.033,-0.04 -0.067,-0.08 -0.1,-0.119 -0.032,-0.038 -0.065,-0.076 -0.097,-0.114 0,-0.038 0,-0.077 -10e-4,-0.115 -0.032,0 -0.063,0 -0.095,0 -0.081,-0.018 -0.162,-0.037 -0.243,-0.055 -0.049,0.019 -0.097,0.037 -0.146,0.056 -0.032,-0.018 -0.063,-0.037 -0.095,-0.055 -0.049,0.019 -0.097,0.038 -0.146,0.056 -0.032,0.019 -0.065,0.038 -0.097,0.056 -0.049,0.039 -0.097,0.079 -0.146,0.118 0.017,0.038 0.035,0.077 0.052,0.115 -0.017,0.06 -0.034,0.12 -0.051,0.181 0.018,0.057 0.035,0.114 0.053,0.172 0.046,0.038 0.093,0.077 0.139,0.115 0.049,0.018 0.098,0.037 0.147,0.055 0.034,-0.038 0.067,-0.077 0.101,-0.116 0.03,-0.038 0.061,-0.076 0.091,-0.114 0.05,-0.02 0.099,-0.041 0.149,-0.061 -0.016,0.058 -0.033,0.116 -0.049,0.175 0,0.059 0,0.119 0.001,0.178 -0.015,0.056 -0.031,0.113 -0.046,0.169 0.063,-0.039 0.127,-0.078 0.19,-0.117 0.033,0.019 0.066,0.039 0.099,0.058 0.031,0.019 0.063,0.038 0.094,0.057 0,0.097 0,0.194 0,0.291 0.032,0.038 0.064,0.076 0.095,0.114 0.049,-0.019 0.099,-0.038 0.148,-0.057 0.047,-0.001 0.094,-0.001 0.14,-0.002 -0.032,0.019 -0.064,0.038 -0.097,0.057 0.032,0.019 0.064,0.039 0.096,0.058 0.048,-0.039 0.096,-0.078 0.144,-0.117 0.05,-0.038 0.099,-0.077 0.149,-0.115 0.032,-0.02 0.065,-0.041 0.097,-0.061 0.015,0.02 0.031,0.039 0.046,0.059 0.049,-10e-4 0.098,-0.002 0.147,-0.003 0.046,0.017 0.092,0.033 0.138,0.049 0.032,0.019 0.065,0.038 0.097,0.056 0.047,-0.021 0.093,-0.042 0.14,-0.062 0.047,0.036 0.094,0.073 0.141,0.109 0.031,0.018 0.062,0.037 0.092,0.055 -0.001,0.037 -0.002,0.073 -0.003,0.11 0.062,0.018 0.124,0.035 0.186,0.052 0.032,-0.021 0.064,-0.042 0.096,-0.064 0.045,0.018 0.09,0.035 0.134,0.053 0.032,0.016 0.064,0.032 0.096,0.048 -0.005,0.111 -0.011,0.222 -0.018,0.333 -0.032,0.002 -0.065,0.004 -0.097,0.006 -0.016,0.037 -0.033,0.075 -0.049,0.112 C 30,38.042 30.033,38.021 30.066,38 c 0.031,-0.019 0.062,-0.039 0.093,-0.059 0.017,-0.001 0.033,-0.002 0.05,-0.003 -0.034,0.038 -0.068,0.077 -0.102,0.115 0.047,-0.003 0.093,-0.007 0.139,-0.01 0.047,-0.022 0.093,-0.044 0.14,-0.066 0.028,0.016 0.056,0.032 0.084,0.048 0.092,-0.008 0.184,-0.015 0.275,-0.024 0.029,0.033 0.057,0.066 0.085,0.099 0.024,0.032 0.048,0.064 0.072,0.096 0.049,-0.039 0.097,-0.079 0.146,-0.118 -0.02,0.054 -0.04,0.107 -0.06,0.16 -0.006,0.051 -0.012,0.103 -0.018,0.154 -0.018,0.035 -0.035,0.071 -0.053,0.106 -0.048,0.041 -0.096,0.083 -0.144,0.124 -0.037,0.056 -0.075,0.112 -0.112,0.169 -0.016,0.122 -0.033,0.243 -0.051,0.364 -0.02,0.036 -0.04,0.072 -0.06,0.108 -0.019,0.037 -0.038,0.074 -0.056,0.111 -0.029,0.005 -0.058,0.01 -0.088,0.015 -0.049,0.043 -0.097,0.085 -0.145,0.128 -0.046,0.023 -0.091,0.047 -0.137,0.07 -0.021,0.055 -0.042,0.11 -0.063,0.165 -0.005,0.033 -0.01,0.066 -0.015,0.099 -0.029,0.005 -0.058,0.009 -0.087,0.014 -0.022,0.054 -0.043,0.108 -0.065,0.161 -0.037,0.056 -0.074,0.113 -0.111,0.169 -0.018,0.038 -0.036,0.075 -0.054,0.113 -0.025,-0.013 -0.05,-0.026 -0.075,-0.04 -0.037,-0.028 -0.074,-0.056 -0.111,-0.084 -0.024,-0.013 -0.049,-0.026 -0.073,-0.039 0.009,0.032 0.017,0.063 0.025,0.095 0.037,0.03 0.073,0.06 0.109,0.089 -0.01,0.069 -0.021,0.138 -0.031,0.207 -0.043,0.023 -0.086,0.046 -0.128,0.069 -0.043,0.024 -0.086,0.048 -0.128,0.072 -0.019,0.036 -0.037,0.072 -0.056,0.108 -0.002,0.016 -0.004,0.032 -0.007,0.047 -0.011,-0.014 -0.022,-0.027 -0.033,-0.041 -0.03,0.02 -0.059,0.04 -0.089,0.06 0.01,0.033 0.02,0.066 0.029,0.099 0.028,-0.021 0.056,-0.042 0.084,-0.063 -0.018,0.037 -0.036,0.073 -0.054,0.109 -0.032,0.038 -0.063,0.075 -0.095,0.112 -0.033,0.056 -0.066,0.112 -0.099,0.168 0.028,-0.022 0.056,-0.044 0.085,-0.066 0.024,0.014 0.048,0.027 0.071,0.04 -0.002,0.016 -0.005,0.032 -0.007,0.048 -0.017,0.034 -0.035,0.068 -0.052,0.102 -0.031,0.038 -0.062,0.076 -0.093,0.114 0.018,0.045 0.036,0.089 0.053,0.132 -0.025,0.005 -0.05,0.01 -0.076,0.014 -0.03,0.038 -0.059,0.075 -0.088,0.112 0.036,-0.006 0.071,-0.013 0.107,-0.02 0.027,-0.02 0.055,-0.041 0.083,-0.062 -0.006,0.032 -0.011,0.063 -0.017,0.094 0.033,0.008 0.065,0.016 0.098,0.024 -0.003,0.016 -0.007,0.033 -0.01,0.049 -0.072,0.021 -0.143,0.036 -0.214,0.05 z"
   style="fill:url(#XMLID_105_)"
   inkscape:connector-curvature="0" />
		
			<radialGradient
   id="XMLID_109_"
   cx="29.7845"
   cy="14.571"
   r="0.1728"
   gradientTransform="matrix(1,0,0,-1,0,49)"
   gradientUnits="userSpaceOnUse">
			<stop
   offset="0"
   style="stop-color:#498DEA"
   id="stop251" />
			<stop
   offset="1"
   style="stop-color:#020D83"
   id="stop253" />
		</radialGradient>
		<path
   id="XMLID_174_"
   class="st19"
   d="m 29.583,34.539 c -0.002,-0.038 -0.005,-0.077 -0.007,-0.115 0.018,-0.011 0.037,-0.023 0.055,-0.034 0.029,-0.03 0.058,-0.06 0.086,-0.09 0.026,0.002 0.053,0.003 0.079,0.005 0.004,0.025 0.008,0.05 0.013,0.075 -0.002,10e-4 -0.005,0.002 -0.007,0.004 0.031,-0.016 0.062,-0.032 0.093,-0.048 -0.014,0.034 -0.028,0.069 -0.042,0.104 0.046,0.022 0.092,0.044 0.138,0.066 -0.027,0.017 -0.054,0.034 -0.08,0.052 -0.033,-0.002 -0.065,-0.004 -0.098,-0.006 -0.032,-0.021 -0.064,-0.042 -0.096,-0.063 -0.044,0.017 -0.089,0.033 -0.134,0.05 z"
   style="fill:url(#XMLID_109_)"
   inkscape:connector-curvature="0" />
		
			<radialGradient
   id="XMLID_115_"
   cx="30.15"
   cy="16.559"
   r="1.1506"
   gradientTransform="matrix(1,0,0,-1,0,49)"
   gradientUnits="userSpaceOnUse">
			<stop
   offset="0"
   style="stop-color:#498DEA"
   id="stop257" />
			<stop
   offset="1"
   style="stop-color:#020D83"
   id="stop259" />
		</radialGradient>
		<path
   id="XMLID_173_"
   class="st20"
   d="M 30.383,33.537 C 30.385,33.53 30.387,33.523 30.389,33.516 30.369,33.502 30.35,33.489 30.33,33.475 30.302,33.471 30.274,33.467 30.245,33.464 30.2,33.442 30.154,33.42 30.109,33.398 30.07,33.323 30.03,33.249 29.991,33.174 c -0.005,-0.036 -0.01,-0.071 -0.015,-0.106 -0.052,-0.058 -0.103,-0.116 -0.154,-0.173 0.022,-0.049 0.044,-0.098 0.066,-0.147 0.008,-0.033 0.016,-0.067 0.024,-0.1 0.012,-0.013 0.025,-0.027 0.037,-0.04 -0.006,-0.034 -0.012,-0.068 -0.018,-0.102 -0.047,-0.041 -0.095,-0.081 -0.142,-0.121 -0.013,0.014 -0.026,0.028 -0.039,0.042 -0.017,-0.104 -0.035,-0.207 -0.053,-0.309 -0.048,-0.058 -0.096,-0.115 -0.144,-0.172 -0.058,-0.037 -0.116,-0.074 -0.173,-0.11 -0.064,0 -0.129,0.001 -0.194,0.003 -0.038,0.01 -0.076,0.021 -0.115,0.032 -0.029,-0.02 -0.057,-0.04 -0.086,-0.06 0.035,-0.03 0.069,-0.06 0.103,-0.089 -0.039,-0.006 -0.078,-0.011 -0.117,-0.016 -0.006,-0.05 -0.013,-0.1 -0.02,-0.15 0.038,0.005 0.077,0.011 0.115,0.017 0.037,-0.011 0.074,-0.023 0.111,-0.033 0.026,0.004 0.052,0.009 0.078,0.013 -0.006,-0.033 -0.011,-0.066 -0.017,-0.1 0.02,-0.029 0.039,-0.058 0.059,-0.086 0.051,0.01 0.101,0.02 0.152,0.031 0.022,-0.011 0.043,-0.023 0.065,-0.034 0.046,-0.005 0.093,-0.009 0.138,-0.012 0.041,0.025 0.081,0.051 0.122,0.076 0.034,-0.006 0.067,-0.011 0.1,-0.016 0.029,0.023 0.057,0.045 0.086,0.068 0.025,0.007 0.049,0.014 0.074,0.022 -0.033,-0.038 -0.067,-0.076 -0.1,-0.114 0.04,-0.017 0.079,-0.032 0.117,-0.047 0.03,0.023 0.059,0.046 0.089,0.07 0.023,0.008 0.047,0.016 0.07,0.024 0.03,-0.002 0.061,-0.004 0.09,-0.005 0.107,0.04 0.212,0.082 0.316,0.127 0.042,0.029 0.083,0.059 0.124,0.088 0.041,0.03 0.081,0.061 0.122,0.091 0.022,0.01 0.044,0.02 0.066,0.03 -0.026,0.022 -0.053,0.045 -0.082,0.069 0.04,0.004 0.08,0.009 0.12,0.015 -0.022,0.013 -0.046,0.028 -0.069,0.042 0.036,0.015 0.072,0.03 0.107,0.046 0.023,-0.014 0.046,-0.027 0.067,-0.04 0.092,0.043 0.183,0.088 0.273,0.135 -0.019,0.011 -0.038,0.022 -0.058,0.034 -0.028,-0.002 -0.056,-0.004 -0.084,-0.005 -0.016,0.027 -0.033,0.055 -0.051,0.084 0.005,0.037 0.009,0.075 0.013,0.114 0.031,0.025 0.062,0.05 0.094,0.076 0.025,0.01 0.05,0.02 0.075,0.03 -0.044,-0.006 -0.089,-0.01 -0.134,-0.015 0.006,0.014 0.011,0.029 0.016,0.043 0.037,0.04 0.074,0.079 0.111,0.119 -0.043,-0.029 -0.087,-0.058 -0.13,-0.086 0.048,0.043 0.097,0.086 0.146,0.129 -0.027,0.017 -0.054,0.035 -0.082,0.053 -0.024,-0.008 -0.048,-0.016 -0.072,-0.024 0.01,0.031 0.021,0.063 0.031,0.094 -0.038,-0.012 -0.076,-0.024 -0.115,-0.035 0.029,0.023 0.057,0.045 0.086,0.068 0.037,0.039 0.074,0.077 0.11,0.116 0.017,0.018 0.033,0.037 0.049,0.055 -0.025,-0.007 -0.049,-0.015 -0.074,-0.022 -0.043,-0.026 -0.087,-0.052 -0.13,-0.079 0.048,0.042 0.096,0.085 0.144,0.127 -0.05,-10e-4 -0.1,-10e-4 -0.15,-10e-4 -0.034,0.006 -0.067,0.013 -0.102,0.019 -0.056,-0.014 -0.112,-0.028 -0.168,-0.041 -0.037,0.054 -0.076,0.11 -0.116,0.166 -0.038,0.008 -0.076,0.015 -0.114,0.023 -0.024,0.012 -0.048,0.023 -0.072,0.035 -0.03,-0.005 -0.059,-0.011 -0.089,-0.016 0.036,0.039 0.071,0.078 0.107,0.117 -0.03,-0.005 -0.059,-0.01 -0.089,-0.015 0.006,0.034 0.012,0.068 0.018,0.102 -0.005,0.05 -0.009,0.101 -0.014,0.152 -0.03,-0.004 -0.059,-0.009 -0.089,-0.013 -0.007,0.026 -0.015,0.051 -0.023,0.077 0.002,10e-4 0.004,0.003 0.006,0.004 0.008,-0.011 0.016,-0.022 0.024,-0.033 0.003,0.019 0.005,0.037 0.008,0.056 -0.011,-0.008 -0.022,-0.015 -0.033,-0.023 -0.002,0.008 -0.006,0.014 -0.01,0.019 z"
   style="fill:url(#XMLID_115_)"
   inkscape:connector-curvature="0" />
		
			<radialGradient
   id="XMLID_124_"
   cx="31.484301"
   cy="15.6891"
   r="0.1939"
   gradientTransform="matrix(1,0,0,-1,0,49)"
   gradientUnits="userSpaceOnUse">
			<stop
   offset="0"
   style="stop-color:#498DEA"
   id="stop263" />
			<stop
   offset="1"
   style="stop-color:#020D83"
   id="stop265" />
		</radialGradient>
		<path
   id="XMLID_172_"
   class="st21"
   d="m 31.472,33.444 c -0.037,-0.039 -0.074,-0.078 -0.11,-0.118 -0.037,-0.053 -0.073,-0.107 -0.11,-0.16 0.053,0.013 0.107,0.027 0.159,0.04 0.029,0.022 0.058,0.043 0.088,0.065 -0.004,-0.015 -0.008,-0.03 -0.012,-0.045 0.028,0.007 0.055,0.015 0.083,0.022 0.01,-0.013 0.019,-0.025 0.028,-0.038 0.026,0.007 0.053,0.015 0.079,0.023 -0.009,0.013 -0.017,0.025 -0.026,0.038 0.022,0.034 0.045,0.068 0.067,0.102 -0.005,0.027 -0.01,0.054 -0.015,0.081 -0.041,-0.011 -0.081,-0.021 -0.122,-0.031 -0.037,0.007 -0.073,0.014 -0.109,0.021 z"
   style="fill:url(#XMLID_124_)"
   inkscape:connector-curvature="0" />
		
			<radialGradient
   id="XMLID_126_"
   cx="32.262001"
   cy="14.672"
   r="0.12909999"
   gradientTransform="matrix(1,0,0,-1,0,49)"
   gradientUnits="userSpaceOnUse">
			<stop
   offset="0"
   style="stop-color:#498DEA"
   id="stop269" />
			<stop
   offset="1"
   style="stop-color:#020D83"
   id="stop271" />
		</radialGradient>
		<path
   id="XMLID_171_"
   class="st22"
   d="m 32.165,34.451 c -0.012,-0.063 -0.025,-0.127 -0.038,-0.19 0.009,-0.013 0.019,-0.026 0.028,-0.039 0.041,-0.006 0.081,-0.012 0.121,-0.017 0.026,0.006 0.053,0.011 0.079,0.017 -0.007,0.027 -0.014,0.054 -0.021,0.08 0.021,0.034 0.042,0.068 0.063,0.102 -0.023,0.01 -0.047,0.02 -0.07,0.03 -0.054,0.006 -0.108,0.011 -0.162,0.017 z"
   style="fill:url(#XMLID_126_)"
   inkscape:connector-curvature="0" />
		
			<radialGradient
   id="XMLID_128_"
   cx="32.530899"
   cy="14.7132"
   r="0.28670001"
   gradientTransform="matrix(1,0,0,-1,0,49)"
   gradientUnits="userSpaceOnUse">
			<stop
   offset="0"
   style="stop-color:#498DEA"
   id="stop275" />
			<stop
   offset="1"
   style="stop-color:#020D83"
   id="stop277" />
		</radialGradient>
		<path
   id="XMLID_185_"
   class="st23"
   d="m 32.428,34.6 c 0.04,-0.012 0.08,-0.024 0.12,-0.036 0.025,-0.01 0.049,-0.021 0.074,-0.031 -0.037,0.008 -0.074,0.015 -0.111,0.024 0.025,-0.01 0.05,-0.021 0.074,-0.031 -0.042,-0.008 -0.084,-0.016 -0.126,-0.024 0.008,-0.027 0.015,-0.054 0.023,-0.081 0.024,-0.01 0.049,-0.02 0.073,-0.03 -0.022,-0.033 -0.045,-0.067 -0.068,-0.1 -0.03,-0.02 -0.059,-0.04 -0.089,-0.061 -0.035,-0.037 -0.07,-0.074 -0.106,-0.111 10e-4,-0.043 10e-4,-0.086 10e-4,-0.129 0.028,-0.011 0.056,-0.021 0.084,-0.031 -0.008,0.029 -0.017,0.059 -0.026,0.089 0.026,0.006 0.052,0.013 0.078,0.019 0.012,0.044 0.024,0.088 0.035,0.133 0.048,0.04 0.097,0.08 0.145,0.119 0.038,0.051 0.076,0.102 0.114,0.152 -0.003,0.041 -0.005,0.083 -0.009,0.125 -0.014,-0.003 -0.028,-0.006 -0.042,-0.008 -0.039,0.003 -0.078,0.006 -0.117,0.01 0.007,0.005 0.014,0.01 0.021,0.015 C 32.546,34.612 32.517,34.611 32.487,34.61 32.469,34.606 32.451,34.602 32.433,34.599 32.431,34.6 32.43,34.6 32.428,34.6 Z m 0.285,-0.003 c 0.02,-0.025 0.039,-0.049 0.058,-0.072 -0.006,0.027 -0.012,0.053 -0.018,0.08 -0.013,-0.003 -0.027,-0.006 -0.04,-0.008 z"
   style="fill:url(#XMLID_128_)"
   inkscape:connector-curvature="0" />
		
			<radialGradient
   id="XMLID_129_"
   cx="32.754299"
   cy="12.492"
   r="0.93400002"
   gradientTransform="matrix(1,0,0,-1,0,49)"
   gradientUnits="userSpaceOnUse">
			<stop
   offset="0"
   style="stop-color:#498DEA"
   id="stop281" />
			<stop
   offset="1"
   style="stop-color:#020D83"
   id="stop283" />
		</radialGradient>
		<path
   id="XMLID_168_"
   class="st24"
   d="m 33.446,37.548 c -0.003,-0.001 -0.006,-0.002 -0.009,-0.003 -0.003,-0.04 -0.007,-0.08 -0.012,-0.12 0.02,-0.044 0.039,-0.088 0.058,-0.132 -0.008,-0.027 -0.015,-0.053 -0.024,-0.08 -0.08,0.011 -0.161,0.021 -0.243,0.031 0.004,-0.028 0.007,-0.057 0.011,-0.085 -0.04,0.004 -0.079,0.009 -0.119,0.013 -0.045,0.019 -0.091,0.039 -0.136,0.059 -0.081,0.023 -0.163,0.047 -0.246,0.07 -0.084,0.009 -0.17,0.018 -0.256,0.027 -0.028,-0.012 -0.055,-0.025 -0.083,-0.037 -0.026,-0.03 -0.053,-0.059 -0.08,-0.09 -0.026,-0.013 -0.052,-0.026 -0.078,-0.04 -0.011,-0.047 -0.023,-0.095 -0.035,-0.143 -0.043,-0.014 -0.086,-0.028 -0.129,-0.043 0.002,-0.033 0.003,-0.067 0.005,-0.1 -0.043,-0.031 -0.086,-0.062 -0.13,-0.094 0.045,-0.017 0.09,-0.034 0.135,-0.051 0.002,-0.051 0.003,-0.101 0.004,-0.152 -0.014,-0.049 -0.027,-0.099 -0.041,-0.148 0.015,-0.067 0.029,-0.134 0.043,-0.2 0.043,-0.066 0.086,-0.132 0.128,-0.196 0.042,-0.031 0.083,-0.061 0.124,-0.09 0.029,-0.017 0.058,-0.034 0.087,-0.051 -0.002,-0.049 -0.005,-0.098 -0.008,-0.147 0.026,-0.03 0.051,-0.059 0.075,-0.089 0.039,0.002 0.078,0.005 0.118,0.007 -0.003,-0.046 -0.007,-0.092 -0.011,-0.137 0.104,0.008 0.208,0.017 0.31,0.025 0.04,-0.026 0.079,-0.051 0.118,-0.076 0.084,0.008 0.167,0.017 0.25,0.026 0.049,-0.012 0.098,-0.023 0.146,-0.034 0.03,0.003 0.059,0.007 0.088,0.011 -0.011,0.045 -0.023,0.09 -0.035,0.136 -0.033,0.02 -0.066,0.04 -0.099,0.061 0.054,0.005 0.108,0.009 0.161,0.014 0.068,0.617 0.038,1.246 -0.087,1.858 z"
   style="fill:url(#XMLID_129_)"
   inkscape:connector-curvature="0" />
		
			<radialGradient
   id="XMLID_134_"
   cx="32.896099"
   cy="14.4245"
   r="0.7543"
   gradientTransform="matrix(1,0,0,-1,0,49)"
   gradientUnits="userSpaceOnUse">
			<stop
   offset="0"
   style="stop-color:#498DEA"
   id="stop287" />
			<stop
   offset="1"
   style="stop-color:#020D83"
   id="stop289" />
		</radialGradient>
		<path
   id="XMLID_181_"
   class="st25"
   d="m 32.432,35.467 c -0.01,-0.112 -0.022,-0.224 -0.036,-0.336 0.014,-0.014 0.028,-0.028 0.042,-0.041 -0.029,-0.003 -0.058,-0.007 -0.087,-0.01 -0.004,-0.032 -0.008,-0.063 -0.013,-0.095 0.099,0.012 0.196,0.025 0.293,0.038 0.04,-0.008 0.08,-0.017 0.119,-0.024 -0.021,-0.048 -0.043,-0.097 -0.064,-0.145 -0.034,-0.036 -0.068,-0.072 -0.102,-0.108 -0.005,-0.03 -0.011,-0.059 -0.017,-0.089 0.038,-0.008 0.077,-0.016 0.114,-0.024 0.04,0.008 0.08,0.015 0.121,0.023 0.02,-0.024 0.041,-0.048 0.06,-0.071 0.033,-0.02 0.066,-0.039 0.099,-0.058 0.005,-0.026 0.01,-0.052 0.015,-0.078 0.04,0.01 0.08,0.02 0.12,0.03 -0.012,-0.042 -0.025,-0.084 -0.038,-0.126 -0.026,-0.045 -0.052,-0.089 -0.079,-0.134 0.042,0.025 0.085,0.049 0.127,0.073 0.026,0.008 0.052,0.016 0.078,0.023 -0.012,0.033 -0.024,0.068 -0.037,0.103 -0.004,0.023 -0.008,0.047 -0.012,0.071 0.035,-0.003 0.069,-0.007 0.103,-0.01 0.012,-0.004 0.025,-0.007 0.037,-0.011 0.06,0.184 0.11,0.369 0.152,0.557 -0.003,-10e-4 -0.006,-10e-4 -0.009,-0.002 0.004,0.004 0.008,0.008 0.012,0.012 0.01,0.043 0.019,0.087 0.027,0.13 -0.022,-0.035 -0.043,-0.07 -0.066,-0.106 -0.034,0.02 -0.068,0.041 -0.103,0.062 -0.079,-0.013 -0.159,-0.026 -0.24,-0.038 -0.023,0.025 -0.047,0.05 -0.071,0.076 -0.02,0.041 -0.041,0.082 -0.063,0.123 0.004,0.031 0.008,0.062 0.012,0.093 -0.051,0.025 -0.102,0.05 -0.154,0.076 -0.04,0.011 -0.08,0.022 -0.121,0.034 -0.03,-0.017 -0.061,-0.035 -0.091,-0.052 -0.044,0.011 -0.086,0.022 -0.128,0.034 z m 0.811,-1.089 c -0.004,-0.004 -0.008,-0.007 -0.012,-0.011 -0.026,-0.044 -0.051,-0.088 -0.078,-0.133 -0.023,-0.031 -0.046,-0.061 -0.069,-0.092 -0.032,10e-4 -0.063,0.003 -0.096,0.005 -0.021,0.005 -0.043,0.01 -0.065,0.016 -0.021,0.007 -0.042,0.014 -0.063,0.021 -0.009,-0.028 -0.018,-0.056 -0.027,-0.084 -0.026,-0.045 -0.052,-0.091 -0.078,-0.137 0.002,-0.025 0.003,-0.049 0.004,-0.074 0.002,-0.024 0.004,-0.047 0.006,-0.07 0.02,-0.005 0.04,-0.01 0.06,-0.015 0.037,0.014 0.073,0.027 0.11,0.041 0.003,-0.043 0.004,-0.085 0.005,-0.126 0.003,-0.018 0.005,-0.036 0.007,-0.053 0.115,0.232 0.213,0.47 0.296,0.712 z"
   style="fill:url(#XMLID_134_)"
   inkscape:connector-curvature="0" />
		
			<radialGradient
   id="XMLID_135_"
   cx="27.645"
   cy="15.3398"
   r="0.0198"
   gradientTransform="matrix(1,0,0,-1,0,49)"
   gradientUnits="userSpaceOnUse">
			<stop
   offset="0"
   style="stop-color:#498DEA"
   id="stop293" />
			<stop
   offset="1"
   style="stop-color:#020D83"
   id="stop295" />
		</radialGradient>
		<path
   id="XMLID_1_"
   class="st26"
   d="m 27.645,33.688 c 0,-0.019 0,-0.037 0,-0.056"
   style="fill:url(#XMLID_135_)"
   inkscape:connector-curvature="0" />
	</g>
</g>
<g
   id="XMLID_184_"
   class="st27"
   transform="matrix(1.3961372,0,0,1.2372861,-8.5928301,-9.3905423)"
   style="opacity:0.2">
	<g
   id="XMLID_545_">
		
			<linearGradient
   id="XMLID_136_"
   gradientUnits="userSpaceOnUse"
   x1="23.585501"
   y1="3.7722001"
   x2="23.585501"
   y2="3.7709999"
   gradientTransform="matrix(1,0,0,-1,0,49)">
			<stop
   offset="0"
   style="stop-color:#498DEA"
   id="stop301" />
			<stop
   offset="1"
   style="stop-color:#020D83"
   id="stop303" />
		</linearGradient>
		<polygon
   id="XMLID_547_"
   class="st28"
   points="23.582,45.228 23.586,45.228 23.589,45.229 "
   style="fill:url(#XMLID_136_)" />
		
			<linearGradient
   id="XMLID_139_"
   gradientUnits="userSpaceOnUse"
   x1="15.413"
   y1="48.997002"
   x2="15.413"
   y2="3.74"
   gradientTransform="matrix(1,0,0,-1,0,49)">
			<stop
   offset="0.202"
   style="stop-color:#00CBD4;stop-opacity:0"
   id="stop307" />
			<stop
   offset="1"
   style="stop-color:#00F4FF"
   id="stop309" />
		</linearGradient>
		<path
   id="XMLID_546_"
   class="st29"
   d="m 24.022,45.259 v 0 c -0.019,10e-4 -0.036,0 -0.053,-10e-4 -0.019,0 -0.037,-0.002 -0.055,-0.002 H 23.907 C 23.871,45.255 23.836,45.254 23.8,45.251 23.765,45.249 23.732,45.245 23.698,45.242 23.662,45.238 23.625,45.235 23.589,45.23 c -0.002,0 -0.005,0 -0.007,-10e-4 -0.03,-0.004 -0.061,-0.007 -0.091,-0.012 -0.001,0 -0.002,0 -0.004,-10e-4 -0.005,0 -0.01,-10e-4 -0.015,-0.002 -0.03,-0.005 -0.058,-0.01 -0.087,-0.015 -0.004,-10e-4 -0.007,-10e-4 -0.011,-0.002 -0.002,0 -0.005,-0.001 -0.007,-0.001 -0.027,-0.005 -0.056,-0.01 -0.083,-0.016 -0.016,-0.004 -0.031,-0.007 -0.046,-0.011 -0.029,-0.007 -0.057,-0.014 -0.084,-0.021 -0.001,0 -0.004,-0.001 -0.005,-0.001 -0.026,-0.007 -0.051,-0.014 -0.076,-0.021 -0.03,-0.009 -0.06,-0.017 -0.088,-0.027 -0.019,-0.006 -0.037,-0.012 -0.056,-0.019 -0.03,-0.011 -0.061,-0.022 -0.091,-0.033 -0.004,-10e-4 -0.007,-0.002 -0.011,-0.004 -0.035,-0.014 -0.067,-0.027 -0.1,-0.042 -0.076,-0.032 -0.148,-0.069 -0.217,-0.109 L 7.458,36.202 C 7.162,36.031 6.967,35.824 6.874,35.604 6.859,35.567 6.847,35.53 6.838,35.492 6.834,35.478 6.831,35.466 6.828,35.454 6.821,35.419 6.817,35.385 6.814,35.35 c 0,-0.004 -0.001,-0.007 -0.001,-0.01 0,-0.004 -10e-4,-0.006 -10e-4,-0.01 L 6.808,36.528 6.804,36.526 6.839,0.003 23.998,9.647 24.009,25.344 Z"
   style="fill:url(#XMLID_139_)"
   inkscape:connector-curvature="0" />
	</g>
	<g
   id="XMLID_535_">
		
			<linearGradient
   id="XMLID_140_"
   gradientUnits="userSpaceOnUse"
   x1="23.9995"
   y1="13.675"
   x2="23.9995"
   y2="1"
   gradientTransform="matrix(1,0,0,-1,0,49)">
			<stop
   offset="0"
   style="stop-color:#498DEA"
   id="stop314" />
			<stop
   offset="1"
   style="stop-color:#020D83"
   id="stop316" />
		</linearGradient>
		<path
   id="XMLID_539_"
   class="st30"
   d="m 41.197,35.332 v 0.255 l -0.002,0.936 -0.005,1.528 v 0.02 c 0,0.015 -0.004,0.03 -0.005,0.045 -0.002,0.022 -0.004,0.046 -0.007,0.069 -10e-4,0.004 -10e-4,0.007 -10e-4,0.011 -0.004,0.015 -0.009,0.03 -0.014,0.045 -0.005,0.021 -0.011,0.043 -0.019,0.064 -10e-4,0.005 -0.002,0.01 -0.004,0.014 -0.005,0.014 -0.012,0.027 -0.019,0.04 -0.01,0.024 -0.02,0.046 -0.032,0.068 -0.002,0.006 -0.004,0.011 -0.007,0.017 -0.006,0.011 -0.015,0.021 -0.021,0.032 -0.016,0.025 -0.033,0.051 -0.052,0.076 -0.005,0.007 -0.009,0.015 -0.015,0.022 -0.014,0.017 -0.029,0.033 -0.042,0.05 -0.005,0.006 -0.01,0.012 -0.015,0.017 -0.025,0.027 -0.051,0.053 -0.078,0.079 -0.005,0.004 -0.01,0.007 -0.014,0.011 -0.021,0.019 -0.045,0.037 -0.068,0.056 -0.02,0.016 -0.038,0.032 -0.061,0.048 -0.025,0.017 -0.052,0.035 -0.078,0.052 -0.02,0.012 -0.037,0.026 -0.057,0.038 -0.009,0.005 -0.017,0.01 -0.027,0.015 L 25.6,47.63 c -0.066,0.038 -0.135,0.073 -0.207,0.105 -0.02,0.009 -0.041,0.017 -0.062,0.026 -0.056,0.024 -0.113,0.046 -0.172,0.066 -0.012,0.004 -0.025,0.01 -0.038,0.015 -0.007,0.002 -0.016,0.004 -0.025,0.006 -0.036,0.012 -0.074,0.022 -0.112,0.032 -0.03,0.007 -0.057,0.016 -0.087,0.024 -0.04,0.01 -0.081,0.017 -0.12,0.026 -0.024,0.005 -0.047,0.01 -0.071,0.015 -0.005,0 -0.009,10e-4 -0.012,10e-4 -0.082,0.015 -0.165,0.026 -0.249,0.035 -0.006,10e-4 -0.012,0.002 -0.019,0.002 -0.02,0.002 -0.04,0.002 -0.06,0.004 -0.048,0.005 -0.098,0.009 -0.148,0.01 -0.011,10e-4 -0.024,0.002 -0.035,0.002 -0.02,10e-4 -0.04,0 -0.061,10e-4 H 23.958 C 23.939,48 23.921,47.998 23.902,47.998 23.865,47.997 23.828,47.994 23.792,47.992 23.775,47.991 23.759,47.991 23.742,47.99 23.725,47.989 23.707,47.985 23.69,47.984 23.653,47.98 23.617,47.977 23.581,47.972 23.564,47.971 23.546,47.97 23.529,47.967 23.514,47.965 23.498,47.961 23.483,47.958 23.443,47.952 23.405,47.946 23.366,47.938 23.349,47.934 23.33,47.932 23.311,47.928 23.299,47.926 23.287,47.922 23.275,47.919 23.229,47.909 23.184,47.898 23.14,47.886 23.121,47.881 23.102,47.877 23.083,47.872 23.077,47.871 23.071,47.867 23.064,47.866 22.983,47.842 22.905,47.816 22.828,47.787 22.824,47.786 22.821,47.785 22.817,47.783 22.782,47.769 22.75,47.754 22.718,47.74 22.699,47.731 22.68,47.724 22.661,47.715 22.606,47.689 22.552,47.662 22.501,47.631 L 7.448,38.941 C 7.016,38.692 6.802,38.366 6.802,38.038 l 0.005,-1.515 0.004,-1.198 c 0,0.004 0.001,0.006 0.001,0.01 0.002,0.069 0.016,0.139 0.04,0.208 0.006,0.019 0.014,0.037 0.021,0.056 0.093,0.219 0.288,0.427 0.584,0.598 l 15.052,8.69 c 0.069,0.04 0.141,0.077 0.217,0.109 0.033,0.015 0.066,0.029 0.1,0.042 0.033,0.014 0.067,0.026 0.102,0.037 0.019,0.006 0.037,0.012 0.056,0.019 0.082,0.029 0.166,0.052 0.253,0.071 0.015,0.004 0.03,0.007 0.046,0.011 0.033,0.007 0.067,0.015 0.102,0.02 0.033,0.007 0.067,0.014 0.102,0.017 0.001,10e-4 0.002,10e-4 0.004,10e-4 0.03,0.005 0.061,0.009 0.091,0.012 0.002,10e-4 0.005,10e-4 0.007,10e-4 0.036,0.005 0.073,0.009 0.109,0.012 0.033,0.005 0.068,0.007 0.102,0.009 0.019,0.001 0.038,0.002 0.057,0.004 0.055,0.004 0.109,0.005 0.165,0.006 h 0.016 c 0.139,10e-4 0.277,-0.006 0.413,-0.021 0.079,-0.007 0.159,-0.02 0.237,-0.033 0.004,0 0.009,0 0.012,-10e-4 0.005,-0.001 0.01,-0.002 0.015,-0.002 0.063,-0.012 0.126,-0.025 0.188,-0.041 0.068,-0.015 0.135,-0.033 0.2,-0.055 0.048,-0.015 0.097,-0.031 0.143,-0.05 0.029,-0.011 0.055,-0.022 0.082,-0.033 0.004,-10e-4 0.006,-0.002 0.01,-0.004 0.021,-0.009 0.042,-0.017 0.063,-0.027 0.029,-0.012 0.056,-0.026 0.084,-0.04 0.041,-0.02 0.082,-0.041 0.122,-0.064 l 14.955,-8.69 c 0.03,-0.017 0.056,-0.036 0.083,-0.053 0.002,-10e-4 0.005,-0.004 0.009,-0.006 0.024,-0.016 0.047,-0.032 0.069,-0.047 0.02,-0.012 0.036,-0.027 0.055,-0.042 0.002,-0.002 0.005,-0.004 0.007,-0.006 0.019,-0.014 0.037,-0.029 0.055,-0.043 0.006,-0.005 0.011,-0.01 0.017,-0.016 0.015,-0.014 0.029,-0.027 0.043,-0.041 0.015,-0.015 0.03,-0.03 0.043,-0.045 0.001,-0.001 0.001,-0.001 0.001,-0.002 0.005,-0.005 0.01,-0.011 0.014,-0.015 0.01,-0.011 0.019,-0.022 0.027,-0.035 0.005,-0.006 0.01,-0.012 0.015,-0.019 0.006,-0.006 0.011,-0.012 0.015,-0.019 0.012,-0.015 0.021,-0.031 0.031,-0.046 0.007,-0.011 0.015,-0.021 0.021,-0.031 0.01,-0.016 0.021,-0.032 0.03,-0.048 0.022,-0.04 0.041,-0.081 0.055,-0.122 0.004,-0.011 0.006,-0.021 0.01,-0.032 0.004,-0.011 0.006,-0.022 0.009,-0.033 10e-4,-0.004 0.002,-0.009 0.004,-0.012 0.004,-0.015 0.007,-0.029 0.01,-0.043 10e-4,-0.005 10e-4,-0.011 10e-4,-0.016 0.006,-0.031 0.01,-0.062 0.011,-0.093 z"
   style="fill:url(#XMLID_140_)"
   inkscape:connector-curvature="0" />
		
			<linearGradient
   id="XMLID_141_"
   gradientUnits="userSpaceOnUse"
   x1="32.597"
   y1="48.997002"
   x2="32.597"
   y2="3.7439001"
   gradientTransform="matrix(1,0,0,-1,0,49)">
			<stop
   offset="0.202"
   style="stop-color:#00CBD4;stop-opacity:0"
   id="stop320" />
			<stop
   offset="1"
   style="stop-color:#00F4FF"
   id="stop322" />
		</linearGradient>
		<path
   id="XMLID_538_"
   class="st31"
   d="m 41.197,35.332 c -0.001,0.031 -0.005,0.062 -0.011,0.092 0,0.005 0,0.011 -10e-4,0.016 -0.002,0.015 -0.006,0.029 -0.01,0.043 -10e-4,0.004 -0.002,0.009 -0.004,0.012 -0.002,0.011 -0.006,0.022 -0.009,0.033 -0.004,0.011 -0.006,0.021 -0.01,0.032 -0.014,0.041 -0.032,0.082 -0.055,0.122 -0.009,0.016 -0.02,0.032 -0.03,0.048 -0.006,0.01 -0.014,0.02 -0.021,0.031 -0.01,0.015 -0.019,0.031 -0.031,0.046 -0.004,0.006 -0.009,0.012 -0.015,0.019 -0.005,0.006 -0.01,0.012 -0.015,0.019 -0.009,0.012 -0.017,0.024 -0.027,0.035 -0.004,0.004 -0.009,0.01 -0.014,0.015 0,10e-4 0,10e-4 -0.001,0.002 -0.014,0.015 -0.029,0.03 -0.043,0.045 -0.015,0.014 -0.029,0.027 -0.043,0.041 -0.006,0.006 -0.011,0.011 -0.017,0.016 -0.017,0.015 -0.036,0.03 -0.055,0.043 -0.002,0.002 -0.005,0.004 -0.007,0.006 -0.017,0.014 -0.036,0.027 -0.055,0.042 -0.022,0.015 -0.046,0.031 -0.069,0.047 -0.004,0.002 -0.006,0.005 -0.009,0.006 -0.027,0.017 -0.053,0.036 -0.083,0.053 l -14.955,8.69 c -0.04,0.024 -0.081,0.045 -0.122,0.064 -0.029,0.014 -0.056,0.027 -0.084,0.04 -0.021,0.01 -0.042,0.019 -0.063,0.027 -0.004,10e-4 -0.006,0.002 -0.01,0.004 -0.027,0.011 -0.053,0.022 -0.082,0.033 -0.046,0.019 -0.094,0.035 -0.143,0.05 -0.037,0.011 -0.076,0.021 -0.113,0.032 -0.029,0.007 -0.057,0.016 -0.087,0.022 -0.062,0.016 -0.125,0.029 -0.188,0.041 -0.005,0 -0.01,0.001 -0.015,0.002 -0.004,10e-4 -0.009,10e-4 -0.012,10e-4 -0.078,0.014 -0.157,0.026 -0.237,0.033 -0.136,0.015 -0.274,0.022 -0.413,0.021 V 45.255 L 24.016,25.34 23.997,9.647 41.163,0.003 41.196,35.276 Z"
   style="fill:url(#XMLID_141_)"
   inkscape:connector-curvature="0" />
		
			<linearGradient
   id="XMLID_142_"
   gradientUnits="userSpaceOnUse"
   x1="41.195999"
   y1="13.412"
   x2="41.195999"
   y2="12.476"
   gradientTransform="matrix(1,0,0,-1,0,49)">
			<stop
   offset="0.202"
   style="stop-color:#00CBD4;stop-opacity:0"
   id="stop326" />
			<stop
   offset="1"
   style="stop-color:#00F4FF"
   id="stop328" />
		</linearGradient>
		<polygon
   id="XMLID_536_"
   class="st32"
   points="41.194,36.524 41.197,35.588 41.198,36.521 "
   style="fill:url(#XMLID_142_)" />
	</g>
</g>
</svg>