<?xml version="1.0" encoding="UTF-8" standalone="no"?>
<!-- Generator: Adobe Illustrator 22.0.0, SVG Export Plug-In . SVG Version: 6.00 Build 0)  -->

<svg
   xmlns:dc="http://purl.org/dc/elements/1.1/"
   xmlns:cc="http://creativecommons.org/ns#"
   xmlns:rdf="http://www.w3.org/1999/02/22-rdf-syntax-ns#"
   xmlns:svg="http://www.w3.org/2000/svg"
   xmlns="http://www.w3.org/2000/svg"
   xmlns:sodipodi="http://sodipodi.sourceforge.net/DTD/sodipodi-0.dtd"
   xmlns:inkscape="http://www.inkscape.org/namespaces/inkscape"
   version="1.1"
   id="图层_1"
   x="0px"
   y="0px"
   viewBox="0 0 50 50"
   xml:space="preserve"
   sodipodi:docname="1.svg"
   width="50"
   height="50"
   inkscape:version="0.92.4 (5da689c313, 2019-01-14)"><metadata
   id="metadata410"><rdf:RDF><cc:Work
       rdf:about=""><dc:format>image/svg+xml</dc:format><dc:type
         rdf:resource="http://purl.org/dc/dcmitype/StillImage" /><dc:title></dc:title></cc:Work></rdf:RDF></metadata><defs
   id="defs408" /><sodipodi:namedview
   pagecolor="#ffffff"
   bordercolor="#666666"
   borderopacity="1"
   objecttolerance="10"
   gridtolerance="10"
   guidetolerance="10"
   inkscape:pageopacity="0"
   inkscape:pageshadow="2"
   inkscape:window-width="1366"
   inkscape:window-height="706"
   id="namedview406"
   showgrid="false"
   inkscape:zoom="4.9166667"
   inkscape:cx="24"
   inkscape:cy="24"
   inkscape:window-x="-8"
   inkscape:window-y="-8"
   inkscape:window-maximized="1"
   inkscape:current-layer="图层_1" />
<style
   type="text/css"
   id="style2">
	.st0{enable-background:new    ;}
	.st1{fill:url(#XMLID_2_);}
	.st2{fill:url(#XMLID_3_);}
	.st3{fill:url(#XMLID_4_);}
	.st4{fill:url(#XMLID_5_);}
	.st5{fill:url(#XMLID_6_);}
	.st6{fill:url(#XMLID_7_);}
	.st7{fill:url(#XMLID_8_);}
	.st8{fill:url(#XMLID_9_);}
	.st9{fill:url(#XMLID_10_);}
	.st10{fill:url(#XMLID_11_);}
	.st11{fill:url(#XMLID_12_);}
	.st12{fill:url(#XMLID_13_);}
	.st13{fill:url(#XMLID_14_);}
	.st14{fill:url(#XMLID_15_);}
	.st15{fill:url(#XMLID_16_);}
	.st16{fill:url(#XMLID_17_);}
	.st17{fill:url(#XMLID_18_);}
	.st18{fill:url(#XMLID_19_);}
	.st19{fill:url(#XMLID_20_);}
	.st20{fill:url(#XMLID_21_);}
	.st21{fill:url(#XMLID_22_);}
	.st22{fill:url(#XMLID_23_);}
	.st23{fill:url(#XMLID_24_);}
	.st24{fill:url(#XMLID_25_);}
	.st25{fill:url(#XMLID_26_);}
	.st26{fill:url(#XMLID_27_);}
	.st27{fill:url(#XMLID_28_);}
	.st28{fill:url(#XMLID_29_);}
	.st29{fill:url(#XMLID_30_);}
	.st30{fill:url(#XMLID_31_);}
	.st31{fill:url(#XMLID_32_);}
	.st32{fill:url(#XMLID_33_);}
	.st33{fill:url(#XMLID_34_);}
	.st34{fill:url(#XMLID_35_);}
	.st35{fill:url(#XMLID_36_);}
	.st36{fill:url(#XMLID_37_);}
	.st37{fill:url(#XMLID_38_);}
	.st38{fill:url(#XMLID_39_);}
	.st39{fill:url(#XMLID_40_);}
	.st40{fill:url(#XMLID_41_);}
	.st41{fill:url(#XMLID_42_);}
	.st42{fill:url(#XMLID_43_);}
	.st43{fill:url(#XMLID_44_);}
	.st44{fill:url(#XMLID_45_);}
	.st45{fill:url(#XMLID_46_);}
	.st46{fill:url(#XMLID_47_);}
	.st47{fill:url(#XMLID_48_);}
	.st48{fill:url(#XMLID_49_);}
	.st49{fill:url(#XMLID_50_);}
	.st50{fill:url(#XMLID_51_);}
	.st51{fill:url(#XMLID_52_);}
	.st52{fill:url(#XMLID_53_);}
	.st53{fill:url(#XMLID_54_);}
	.st54{fill:url(#XMLID_55_);}
	.st55{fill:url(#XMLID_56_);}
	.st56{fill:url(#XMLID_57_);}
	.st57{fill:url(#XMLID_58_);}
	.st58{opacity:0.2;}
	.st59{fill:url(#XMLID_59_);}
	.st60{fill:url(#XMLID_60_);}
	.st61{fill:url(#XMLID_61_);}
	.st62{fill:url(#XMLID_62_);}
	.st63{fill:url(#XMLID_63_);}
</style>
<g
   id="XMLID_1139_"
   transform="matrix(1.40724,0,0,1.182198,-8.6561329,-6.9496991)">
	<g
   id="XMLID_1140_"
   class="st0"
   style="enable-background:new">
		
			<linearGradient
   id="XMLID_2_"
   gradientUnits="userSpaceOnUse"
   x1="23.971001"
   y1="13.705"
   x2="23.971001"
   y2="0.99559999"
   gradientTransform="matrix(1,0,0,-1,0,49)">
			<stop
   offset="0"
   style="stop-color:#00FFFF"
   id="stop4" />
			<stop
   offset="1"
   style="stop-color:#107587"
   id="stop6" />
		</linearGradient>
		<path
   id="XMLID_1143_"
   class="st1"
   d="m 41.16,35.368 c -0.002,0.023 -0.004,0.046 -0.008,0.069 -0.003,0.019 -0.009,0.037 -0.014,0.056 -0.006,0.022 -0.011,0.044 -0.019,0.066 -0.006,0.018 -0.015,0.036 -0.022,0.053 -0.01,0.023 -0.02,0.046 -0.032,0.068 -0.009,0.016 -0.019,0.032 -0.029,0.049 -0.016,0.026 -0.033,0.051 -0.051,0.076 -0.018,0.024 -0.037,0.048 -0.058,0.072 -0.005,0.006 -0.009,0.011 -0.015,0.017 -0.028,0.031 -0.059,0.061 -0.092,0.09 -0.021,0.019 -0.044,0.037 -0.067,0.056 -0.02,0.016 -0.04,0.033 -0.061,0.048 -0.025,0.018 -0.052,0.035 -0.079,0.052 -0.028,0.018 -0.054,0.036 -0.083,0.054 l -14.954,8.691 c -0.066,0.038 -0.135,0.072 -0.207,0.104 -0.021,0.009 -0.042,0.018 -0.063,0.027 -0.056,0.023 -0.113,0.045 -0.172,0.065 -0.021,0.007 -0.042,0.015 -0.063,0.022 -0.037,0.012 -0.075,0.022 -0.113,0.032 -0.029,0.008 -0.057,0.016 -0.086,0.023 -0.04,0.01 -0.081,0.018 -0.121,0.026 -0.027,0.006 -0.055,0.012 -0.082,0.017 -0.082,0.014 -0.165,0.026 -0.249,0.035 -0.026,0.003 -0.052,0.004 -0.078,0.007 -0.049,0.004 -0.098,0.008 -0.148,0.01 -0.032,10e-4 -0.063,0.002 -0.095,0.003 -0.04,10e-4 -0.08,10e-4 -0.12,10e-4 -0.034,0 -0.067,-10e-4 -0.1,-0.003 -0.037,-10e-4 -0.074,-0.003 -0.111,-0.006 -0.034,-0.002 -0.068,-0.005 -0.101,-0.008 -0.036,-0.004 -0.073,-0.008 -0.109,-0.012 -0.033,-0.004 -0.065,-0.009 -0.098,-0.014 -0.039,-0.006 -0.078,-0.013 -0.116,-0.02 -0.03,-0.006 -0.061,-0.012 -0.091,-0.018 -0.046,-0.01 -0.091,-0.021 -0.136,-0.033 -0.025,-0.007 -0.05,-0.013 -0.075,-0.02 -0.08,-0.024 -0.159,-0.05 -0.235,-0.079 -0.038,-0.015 -0.074,-0.031 -0.111,-0.047 -0.019,-0.008 -0.038,-0.016 -0.057,-0.025 -0.055,-0.026 -0.109,-0.054 -0.161,-0.084 L 7.426,36.198 C 6.994,35.949 6.779,35.622 6.78,35.295 L 6.772,38.04 c -0.001,0.327 0.215,0.654 0.646,0.903 l 15.052,8.69 c 0.052,0.03 0.105,0.058 0.161,0.084 0.018,0.009 0.038,0.016 0.057,0.025 0.033,0.015 0.065,0.03 0.099,0.043 0.004,0.002 0.008,0.003 0.012,0.004 0.076,0.03 0.155,0.056 0.235,0.079 0.006,0.002 0.012,0.005 0.019,0.006 0.018,0.005 0.038,0.009 0.056,0.014 0.045,0.012 0.09,0.023 0.136,0.033 0.012,0.003 0.024,0.006 0.036,0.009 0.018,0.004 0.037,0.006 0.055,0.01 0.038,0.007 0.077,0.014 0.116,0.02 0.016,0.002 0.031,0.006 0.047,0.008 0.017,0.002 0.034,0.004 0.052,0.006 0.036,0.005 0.072,0.009 0.109,0.012 0.018,0.002 0.035,0.004 0.052,0.006 0.016,0.001 0.033,0.001 0.049,0.003 0.037,0.003 0.074,0.004 0.111,0.006 0.019,0.001 0.037,0.003 0.056,0.003 0.015,0 0.03,0 0.045,0 0.04,0.001 0.08,0 0.12,-10e-4 0.02,0 0.04,0 0.06,0 0.012,0 0.024,-0.002 0.035,-0.002 0.049,-0.002 0.099,-0.006 0.148,-0.01 0.02,-0.002 0.04,-0.002 0.06,-0.004 0.006,-0.001 0.012,-0.002 0.018,-0.003 0.084,-0.009 0.167,-0.02 0.249,-0.035 0.004,-10e-4 0.008,-10e-4 0.012,-0.002 0.024,-0.004 0.047,-0.01 0.071,-0.015 0.04,-0.008 0.081,-0.016 0.121,-0.026 0.029,-0.007 0.058,-0.015 0.086,-0.023 0.038,-0.01 0.076,-0.02 0.113,-0.032 0.008,-0.002 0.016,-0.004 0.024,-0.007 0.013,-0.004 0.026,-0.01 0.039,-0.015 0.059,-0.02 0.116,-0.042 0.172,-0.065 0.021,-0.009 0.042,-0.017 0.063,-0.027 0.071,-0.032 0.141,-0.066 0.207,-0.104 l 14.954,-8.69 c 0.009,-0.005 0.018,-0.01 0.027,-0.016 0.02,-0.012 0.037,-0.025 0.056,-0.038 0.027,-0.017 0.054,-0.035 0.079,-0.053 0.022,-0.016 0.041,-0.032 0.061,-0.048 0.023,-0.018 0.046,-0.037 0.067,-0.055 0.004,-0.004 0.009,-0.007 0.014,-0.011 0.028,-0.026 0.054,-0.053 0.079,-0.079 0.005,-0.006 0.009,-0.011 0.014,-0.017 0.015,-0.017 0.029,-0.033 0.043,-0.05 0.006,-0.007 0.01,-0.015 0.015,-0.022 0.019,-0.025 0.036,-0.051 0.051,-0.076 0.007,-0.011 0.015,-0.021 0.022,-0.032 0.003,-0.005 0.005,-0.011 0.008,-0.017 0.012,-0.023 0.022,-0.045 0.032,-0.068 0.006,-0.013 0.014,-0.026 0.019,-0.04 0.002,-0.005 0.002,-0.009 0.004,-0.014 0.008,-0.022 0.013,-0.044 0.019,-0.065 0.004,-0.015 0.01,-0.029 0.013,-0.044 10e-4,-0.004 10e-4,-0.008 10e-4,-0.012 0.004,-0.023 0.006,-0.046 0.008,-0.069 0.001,-0.015 0.005,-0.03 0.005,-0.045 0,-0.006 0,-0.013 0,-0.019 l 0.008,-2.745 c -0.004,0.017 -0.008,0.039 -0.01,0.06 z"
   inkscape:connector-curvature="0"
   style="fill:url(#XMLID_2_)" />
		<g
   id="XMLID_1141_">
			
				<linearGradient
   id="XMLID_3_"
   gradientUnits="userSpaceOnUse"
   x1="6.7796998"
   y1="13.7015"
   x2="41.1656"
   y2="13.7015"
   gradientTransform="matrix(1,0,0,-1,0,49)">
				<stop
   offset="0"
   style="stop-color:#00FFFF"
   id="stop10" />
				<stop
   offset="1"
   style="stop-color:#107587"
   id="stop12" />
			</linearGradient>
			<path
   id="XMLID_1142_"
   class="st2"
   d="m 40.519,34.401 c 0.858,0.495 0.863,1.298 0.01,1.794 l -14.954,8.691 c -0.852,0.495 -2.239,0.495 -3.097,0 L 7.426,36.196 C 6.568,35.701 6.564,34.898 7.416,34.402 L 22.37,25.711 c 0.852,-0.495 2.238,-0.495 3.096,0 z"
   inkscape:connector-curvature="0"
   style="fill:url(#XMLID_3_)" />
		</g>
	</g>
</g>
<g
   id="XMLID_1134_"
   transform="matrix(1.40724,0,0,1.182198,-8.6561329,-6.9496991)">
	<g
   id="XMLID_1135_"
   class="st0"
   style="enable-background:new">
		
			<linearGradient
   id="XMLID_4_"
   gradientUnits="userSpaceOnUse"
   x1="24.034"
   y1="13.705"
   x2="24.034"
   y2="0.99559999"
   gradientTransform="matrix(1,0,0,-1,0,49)">
			<stop
   offset="0"
   style="stop-color:#00FFFF"
   id="stop19" />
			<stop
   offset="1"
   style="stop-color:#107587"
   id="stop21" />
		</linearGradient>
		<path
   id="XMLID_1138_"
   class="st3"
   d="m 41.222,35.368 c -0.002,0.023 -0.004,0.046 -0.008,0.069 -0.003,0.019 -0.009,0.037 -0.014,0.056 -0.006,0.022 -0.011,0.044 -0.019,0.066 -0.006,0.018 -0.015,0.036 -0.022,0.053 -0.01,0.023 -0.02,0.046 -0.032,0.068 -0.009,0.016 -0.019,0.032 -0.029,0.049 -0.016,0.026 -0.033,0.051 -0.051,0.076 -0.018,0.024 -0.037,0.048 -0.058,0.072 -0.005,0.006 -0.009,0.011 -0.014,0.017 -0.028,0.031 -0.059,0.061 -0.092,0.09 -0.021,0.019 -0.044,0.037 -0.067,0.056 -0.02,0.016 -0.04,0.033 -0.061,0.048 -0.025,0.018 -0.052,0.035 -0.079,0.052 -0.028,0.018 -0.054,0.036 -0.083,0.054 l -14.954,8.691 c -0.066,0.038 -0.135,0.072 -0.207,0.104 -0.021,0.009 -0.042,0.018 -0.063,0.027 -0.056,0.023 -0.113,0.045 -0.172,0.065 -0.021,0.007 -0.041,0.015 -0.063,0.022 -0.037,0.012 -0.075,0.022 -0.113,0.032 -0.029,0.008 -0.057,0.016 -0.086,0.023 -0.04,0.01 -0.081,0.018 -0.121,0.026 -0.027,0.006 -0.055,0.012 -0.082,0.017 -0.082,0.014 -0.165,0.026 -0.249,0.035 -0.026,0.003 -0.052,0.004 -0.078,0.007 -0.049,0.004 -0.098,0.008 -0.148,0.01 -0.032,10e-4 -0.063,0.002 -0.095,0.003 -0.04,10e-4 -0.08,10e-4 -0.12,10e-4 -0.034,0 -0.067,-10e-4 -0.1,-0.003 -0.037,-10e-4 -0.074,-0.003 -0.111,-0.006 -0.034,-0.002 -0.068,-0.005 -0.101,-0.008 -0.036,-0.004 -0.073,-0.008 -0.109,-0.012 -0.033,-0.004 -0.065,-0.009 -0.098,-0.014 -0.039,-0.006 -0.078,-0.013 -0.116,-0.02 -0.03,-0.006 -0.061,-0.012 -0.091,-0.018 -0.046,-0.01 -0.091,-0.021 -0.136,-0.033 -0.025,-0.007 -0.05,-0.013 -0.075,-0.02 -0.08,-0.024 -0.159,-0.05 -0.235,-0.079 -0.038,-0.015 -0.074,-0.031 -0.111,-0.047 -0.019,-0.008 -0.038,-0.016 -0.057,-0.025 -0.055,-0.026 -0.109,-0.054 -0.161,-0.084 L 7.489,36.198 C 7.057,35.949 6.842,35.622 6.843,35.295 L 6.835,38.04 c -0.001,0.327 0.215,0.654 0.646,0.903 l 15.052,8.69 c 0.052,0.03 0.105,0.058 0.161,0.084 0.018,0.009 0.038,0.016 0.057,0.025 0.033,0.015 0.065,0.03 0.099,0.043 0.004,0.002 0.008,0.003 0.012,0.004 0.076,0.03 0.155,0.056 0.235,0.079 0.006,0.002 0.012,0.005 0.019,0.006 0.018,0.005 0.038,0.009 0.056,0.014 0.045,0.012 0.09,0.023 0.136,0.033 0.012,0.003 0.024,0.006 0.036,0.009 0.018,0.004 0.037,0.006 0.055,0.01 0.038,0.007 0.077,0.014 0.116,0.02 0.016,0.002 0.031,0.006 0.047,0.008 0.017,0.002 0.034,0.004 0.052,0.006 0.036,0.005 0.072,0.009 0.109,0.012 0.018,0.002 0.035,0.004 0.052,0.006 0.016,0.001 0.033,0.001 0.049,0.003 0.037,0.003 0.074,0.004 0.111,0.006 0.019,0.001 0.037,0.003 0.056,0.003 0.015,0 0.03,0 0.045,0 0.04,0.001 0.08,0 0.12,-10e-4 0.02,0 0.04,0 0.06,0 0.012,0 0.024,-0.002 0.035,-0.002 0.049,-0.002 0.099,-0.006 0.148,-0.01 0.02,-0.002 0.04,-0.002 0.06,-0.004 0.006,-0.001 0.012,-0.002 0.018,-0.003 0.084,-0.009 0.167,-0.02 0.249,-0.035 0.004,-10e-4 0.008,-10e-4 0.012,-0.002 0.024,-0.004 0.047,-0.01 0.071,-0.015 0.04,-0.008 0.081,-0.016 0.121,-0.026 0.029,-0.007 0.058,-0.015 0.086,-0.023 0.038,-0.01 0.076,-0.02 0.113,-0.032 0.008,-0.002 0.016,-0.004 0.024,-0.007 0.013,-0.004 0.026,-0.01 0.039,-0.015 0.059,-0.02 0.116,-0.042 0.172,-0.065 0.021,-0.009 0.042,-0.017 0.063,-0.027 0.071,-0.032 0.141,-0.066 0.207,-0.104 l 14.954,-8.69 c 0.009,-0.005 0.018,-0.01 0.027,-0.016 0.02,-0.012 0.037,-0.025 0.056,-0.038 0.027,-0.017 0.054,-0.035 0.079,-0.053 0.022,-0.016 0.041,-0.032 0.061,-0.048 0.023,-0.018 0.046,-0.037 0.067,-0.055 0.004,-0.004 0.009,-0.007 0.014,-0.011 0.028,-0.026 0.054,-0.053 0.079,-0.079 0.005,-0.006 0.009,-0.011 0.014,-0.017 0.015,-0.017 0.029,-0.033 0.043,-0.05 0.006,-0.007 0.01,-0.015 0.015,-0.022 0.019,-0.025 0.036,-0.051 0.051,-0.076 0.007,-0.011 0.015,-0.021 0.022,-0.032 0.003,-0.005 0.005,-0.011 0.008,-0.017 0.012,-0.023 0.022,-0.045 0.032,-0.068 0.006,-0.013 0.014,-0.026 0.019,-0.04 0.002,-0.005 0.002,-0.009 0.004,-0.014 0.008,-0.022 0.013,-0.044 0.019,-0.065 0.004,-0.015 0.01,-0.029 0.013,-0.044 0.001,-0.004 0.001,-0.008 0.001,-0.012 0.004,-0.023 0.006,-0.046 0.008,-0.069 10e-4,-0.015 0.005,-0.03 0.005,-0.045 0,-0.006 0,-0.013 0,-0.019 l 0.008,-2.745 c -0.005,0.017 -0.009,0.039 -0.011,0.06 z"
   inkscape:connector-curvature="0"
   style="fill:url(#XMLID_4_)" />
		<g
   id="XMLID_1136_">
			
				<linearGradient
   id="XMLID_5_"
   gradientUnits="userSpaceOnUse"
   x1="6.8417001"
   y1="13.7015"
   x2="41.2276"
   y2="13.7015"
   gradientTransform="matrix(1,0,0,-1,0,49)">
				<stop
   offset="0"
   style="stop-color:#00FFFF"
   id="stop25" />
				<stop
   offset="1"
   style="stop-color:#107587"
   id="stop27" />
			</linearGradient>
			<path
   id="XMLID_1137_"
   class="st4"
   d="m 40.581,34.401 c 0.858,0.495 0.863,1.298 0.01,1.794 l -14.954,8.691 c -0.852,0.495 -2.239,0.495 -3.097,0 L 7.488,36.196 C 6.63,35.701 6.626,34.898 7.478,34.402 l 14.954,-8.691 c 0.852,-0.495 2.238,-0.495 3.096,0 z"
   inkscape:connector-curvature="0"
   style="fill:url(#XMLID_5_)" />
		</g>
	</g>
</g>
<g
   id="XMLID_1129_"
   transform="matrix(1.40724,0,0,1.182198,-8.6561329,-6.9496991)">
	<g
   id="XMLID_1130_"
   class="st0"
   style="enable-background:new">
		
			<linearGradient
   id="XMLID_6_"
   gradientUnits="userSpaceOnUse"
   x1="24.034"
   y1="13.705"
   x2="24.034"
   y2="0.99559999"
   gradientTransform="matrix(1,0,0,-1,0,49)">
			<stop
   offset="0"
   style="stop-color:#00FFFF"
   id="stop34" />
			<stop
   offset="1"
   style="stop-color:#107587"
   id="stop36" />
		</linearGradient>
		<path
   id="XMLID_1133_"
   class="st5"
   d="m 41.222,35.368 c -0.002,0.023 -0.004,0.046 -0.008,0.069 -0.003,0.019 -0.009,0.037 -0.014,0.056 -0.006,0.022 -0.011,0.044 -0.019,0.066 -0.006,0.018 -0.015,0.036 -0.022,0.053 -0.01,0.023 -0.02,0.046 -0.032,0.068 -0.009,0.016 -0.019,0.032 -0.029,0.049 -0.016,0.026 -0.033,0.051 -0.051,0.076 -0.018,0.024 -0.037,0.048 -0.058,0.072 -0.005,0.006 -0.009,0.011 -0.014,0.017 -0.028,0.031 -0.059,0.061 -0.092,0.09 -0.021,0.019 -0.044,0.037 -0.067,0.056 -0.02,0.016 -0.04,0.033 -0.061,0.048 -0.025,0.018 -0.052,0.035 -0.079,0.052 -0.028,0.018 -0.054,0.036 -0.083,0.054 l -14.954,8.691 c -0.066,0.038 -0.135,0.072 -0.207,0.104 -0.021,0.009 -0.042,0.018 -0.063,0.027 -0.056,0.023 -0.113,0.045 -0.172,0.065 -0.021,0.007 -0.041,0.015 -0.063,0.022 -0.037,0.012 -0.075,0.022 -0.113,0.032 -0.029,0.008 -0.057,0.016 -0.086,0.023 -0.04,0.01 -0.081,0.018 -0.121,0.026 -0.027,0.006 -0.055,0.012 -0.082,0.017 -0.082,0.014 -0.165,0.026 -0.249,0.035 -0.026,0.003 -0.052,0.004 -0.078,0.007 -0.049,0.004 -0.098,0.008 -0.148,0.01 -0.032,10e-4 -0.063,0.002 -0.095,0.003 -0.04,10e-4 -0.08,10e-4 -0.12,10e-4 -0.034,0 -0.067,-10e-4 -0.1,-0.003 -0.037,-10e-4 -0.074,-0.003 -0.111,-0.006 -0.034,-0.002 -0.068,-0.005 -0.101,-0.008 -0.036,-0.004 -0.073,-0.008 -0.109,-0.012 -0.033,-0.004 -0.065,-0.009 -0.098,-0.014 -0.039,-0.006 -0.078,-0.013 -0.116,-0.02 -0.03,-0.006 -0.061,-0.012 -0.091,-0.018 -0.046,-0.01 -0.091,-0.021 -0.136,-0.033 -0.025,-0.007 -0.05,-0.013 -0.075,-0.02 -0.08,-0.024 -0.159,-0.05 -0.235,-0.079 -0.038,-0.015 -0.074,-0.031 -0.111,-0.047 -0.019,-0.008 -0.038,-0.016 -0.057,-0.025 -0.055,-0.026 -0.109,-0.054 -0.161,-0.084 L 7.489,36.198 C 7.057,35.949 6.842,35.622 6.843,35.295 L 6.835,38.04 c -0.001,0.327 0.215,0.654 0.646,0.903 l 15.052,8.69 c 0.052,0.03 0.105,0.058 0.161,0.084 0.018,0.009 0.038,0.016 0.057,0.025 0.033,0.015 0.065,0.03 0.099,0.043 0.004,0.002 0.008,0.003 0.012,0.004 0.076,0.03 0.155,0.056 0.235,0.079 0.006,0.002 0.012,0.005 0.019,0.006 0.018,0.005 0.038,0.009 0.056,0.014 0.045,0.012 0.09,0.023 0.136,0.033 0.012,0.003 0.024,0.006 0.036,0.009 0.018,0.004 0.037,0.006 0.055,0.01 0.038,0.007 0.077,0.014 0.116,0.02 0.016,0.002 0.031,0.006 0.047,0.008 0.017,0.002 0.034,0.004 0.052,0.006 0.036,0.005 0.072,0.009 0.109,0.012 0.018,0.002 0.035,0.004 0.052,0.006 0.016,0.001 0.033,0.001 0.049,0.003 0.037,0.003 0.074,0.004 0.111,0.006 0.019,0.001 0.037,0.003 0.056,0.003 0.015,0 0.03,0 0.045,0 0.04,0.001 0.08,0 0.12,-10e-4 0.02,0 0.04,0 0.06,0 0.012,0 0.024,-0.002 0.035,-0.002 0.049,-0.002 0.099,-0.006 0.148,-0.01 0.02,-0.002 0.04,-0.002 0.06,-0.004 0.006,-0.001 0.012,-0.002 0.018,-0.003 0.084,-0.009 0.167,-0.02 0.249,-0.035 0.004,-10e-4 0.008,-10e-4 0.012,-0.002 0.024,-0.004 0.047,-0.01 0.071,-0.015 0.04,-0.008 0.081,-0.016 0.121,-0.026 0.029,-0.007 0.058,-0.015 0.086,-0.023 0.038,-0.01 0.076,-0.02 0.113,-0.032 0.008,-0.002 0.016,-0.004 0.024,-0.007 0.013,-0.004 0.026,-0.01 0.039,-0.015 0.059,-0.02 0.116,-0.042 0.172,-0.065 0.021,-0.009 0.042,-0.017 0.063,-0.027 0.071,-0.032 0.141,-0.066 0.207,-0.104 l 14.954,-8.69 c 0.009,-0.005 0.018,-0.01 0.027,-0.016 0.02,-0.012 0.037,-0.025 0.056,-0.038 0.027,-0.017 0.054,-0.035 0.079,-0.053 0.022,-0.016 0.041,-0.032 0.061,-0.048 0.023,-0.018 0.046,-0.037 0.067,-0.055 0.004,-0.004 0.009,-0.007 0.014,-0.011 0.028,-0.026 0.054,-0.053 0.079,-0.079 0.005,-0.006 0.009,-0.011 0.014,-0.017 0.015,-0.017 0.029,-0.033 0.043,-0.05 0.006,-0.007 0.01,-0.015 0.015,-0.022 0.019,-0.025 0.036,-0.051 0.051,-0.076 0.007,-0.011 0.015,-0.021 0.022,-0.032 0.003,-0.005 0.005,-0.011 0.008,-0.017 0.012,-0.023 0.022,-0.045 0.032,-0.068 0.006,-0.013 0.014,-0.026 0.019,-0.04 0.002,-0.005 0.002,-0.009 0.004,-0.014 0.008,-0.022 0.013,-0.044 0.019,-0.065 0.004,-0.015 0.01,-0.029 0.013,-0.044 0.001,-0.004 0.001,-0.008 0.001,-0.012 0.004,-0.023 0.006,-0.046 0.008,-0.069 10e-4,-0.015 0.005,-0.03 0.005,-0.045 0,-0.006 0,-0.013 0,-0.019 l 0.008,-2.745 c -0.005,0.017 -0.009,0.039 -0.011,0.06 z"
   inkscape:connector-curvature="0"
   style="fill:url(#XMLID_6_)" />
		<g
   id="XMLID_1131_">
			
				<linearGradient
   id="XMLID_7_"
   gradientUnits="userSpaceOnUse"
   x1="6.8417001"
   y1="13.7015"
   x2="41.2276"
   y2="13.7015"
   gradientTransform="matrix(1,0,0,-1,0,49)">
				<stop
   offset="0"
   style="stop-color:#00FFFF"
   id="stop40" />
				<stop
   offset="1"
   style="stop-color:#107587"
   id="stop42" />
			</linearGradient>
			<path
   id="XMLID_1132_"
   class="st6"
   d="m 40.581,34.401 c 0.858,0.495 0.863,1.298 0.01,1.794 l -14.954,8.691 c -0.852,0.495 -2.239,0.495 -3.097,0 L 7.488,36.196 C 6.63,35.701 6.626,34.898 7.478,34.402 l 14.954,-8.691 c 0.852,-0.495 2.238,-0.495 3.096,0 z"
   inkscape:connector-curvature="0"
   style="fill:url(#XMLID_7_)" />
		</g>
	</g>
</g>
<g
   id="XMLID_1124_"
   transform="matrix(1.40724,0,0,1.182198,-8.6561329,-6.9496991)">
	<g
   id="XMLID_1125_"
   class="st0"
   style="enable-background:new">
		
			<linearGradient
   id="XMLID_8_"
   gradientUnits="userSpaceOnUse"
   x1="24.034"
   y1="13.783"
   x2="24.034"
   y2="1.0736001"
   gradientTransform="matrix(1,0,0,-1,0,49)">
			<stop
   offset="0"
   style="stop-color:#00FFFF"
   id="stop49" />
			<stop
   offset="1"
   style="stop-color:#107587"
   id="stop51" />
		</linearGradient>
		<path
   id="XMLID_1128_"
   class="st7"
   d="m 41.222,35.29 c -0.002,0.023 -0.004,0.046 -0.008,0.069 -0.003,0.019 -0.009,0.037 -0.014,0.056 -0.006,0.022 -0.011,0.044 -0.019,0.066 -0.006,0.018 -0.015,0.036 -0.022,0.053 -0.01,0.023 -0.02,0.046 -0.032,0.068 -0.009,0.016 -0.019,0.032 -0.029,0.049 -0.016,0.026 -0.033,0.051 -0.051,0.076 -0.018,0.024 -0.037,0.048 -0.058,0.072 -0.005,0.006 -0.009,0.011 -0.014,0.017 -0.028,0.031 -0.059,0.061 -0.092,0.09 -0.021,0.019 -0.044,0.037 -0.067,0.056 -0.02,0.016 -0.04,0.033 -0.061,0.048 -0.025,0.018 -0.052,0.035 -0.079,0.052 -0.028,0.018 -0.054,0.036 -0.083,0.054 l -14.954,8.691 c -0.066,0.038 -0.135,0.072 -0.207,0.104 -0.021,0.009 -0.042,0.018 -0.063,0.027 -0.056,0.023 -0.113,0.045 -0.172,0.065 -0.021,0.007 -0.041,0.015 -0.063,0.022 -0.037,0.012 -0.075,0.022 -0.113,0.032 -0.029,0.008 -0.057,0.016 -0.086,0.023 -0.04,0.01 -0.081,0.018 -0.121,0.026 -0.027,0.006 -0.055,0.012 -0.082,0.017 -0.082,0.014 -0.165,0.026 -0.249,0.035 -0.026,0.003 -0.052,0.004 -0.078,0.007 -0.049,0.004 -0.098,0.008 -0.148,0.01 -0.032,0.001 -0.063,0.002 -0.095,0.003 -0.04,0.001 -0.08,0.001 -0.12,0.001 -0.034,0 -0.067,-0.001 -0.1,-0.003 C 23.905,45.175 23.868,45.173 23.831,45.17 23.797,45.168 23.763,45.165 23.73,45.162 23.694,45.158 23.657,45.154 23.621,45.15 23.588,45.146 23.556,45.141 23.523,45.136 23.484,45.13 23.445,45.123 23.407,45.116 23.377,45.11 23.346,45.104 23.316,45.098 23.27,45.088 23.225,45.077 23.18,45.065 23.155,45.058 23.13,45.052 23.105,45.045 23.025,45.021 22.946,44.995 22.87,44.966 22.832,44.951 22.796,44.935 22.759,44.919 22.74,44.911 22.721,44.903 22.702,44.894 22.647,44.868 22.593,44.84 22.541,44.81 L 7.489,36.12 C 7.057,35.871 6.842,35.544 6.843,35.217 l -0.008,2.745 c -0.001,0.327 0.215,0.654 0.646,0.903 l 15.052,8.69 c 0.052,0.03 0.105,0.058 0.161,0.084 0.018,0.009 0.038,0.016 0.057,0.025 0.033,0.015 0.065,0.03 0.099,0.043 0.004,0.002 0.008,0.003 0.012,0.004 0.076,0.03 0.155,0.056 0.235,0.079 0.006,0.002 0.012,0.005 0.019,0.006 0.018,0.005 0.038,0.009 0.056,0.014 0.045,0.012 0.09,0.023 0.136,0.033 0.012,0.003 0.024,0.006 0.036,0.009 0.018,0.004 0.037,0.006 0.055,0.01 0.038,0.007 0.077,0.014 0.116,0.02 0.016,0.002 0.031,0.006 0.047,0.008 0.017,0.002 0.034,0.004 0.052,0.006 0.036,0.005 0.072,0.009 0.109,0.012 0.018,0.002 0.035,0.004 0.052,0.006 0.016,10e-4 0.033,10e-4 0.049,0.003 0.037,0.003 0.074,0.004 0.111,0.006 0.019,10e-4 0.037,0.003 0.056,0.003 0.015,0 0.03,0 0.045,0 0.04,10e-4 0.08,0 0.12,-0.001 0.02,0 0.04,0 0.06,0 0.012,0 0.024,-0.002 0.035,-0.002 0.049,-0.002 0.099,-0.006 0.148,-0.01 0.02,-0.002 0.04,-0.002 0.06,-0.004 0.006,-10e-4 0.012,-0.002 0.018,-0.003 0.084,-0.009 0.167,-0.02 0.249,-0.035 0.004,-0.001 0.008,-0.001 0.012,-0.002 0.024,-0.004 0.047,-0.01 0.071,-0.015 0.04,-0.008 0.081,-0.016 0.121,-0.026 0.029,-0.007 0.058,-0.015 0.086,-0.023 0.038,-0.01 0.076,-0.02 0.113,-0.032 0.008,-0.002 0.016,-0.004 0.024,-0.007 0.013,-0.004 0.026,-0.01 0.039,-0.015 0.059,-0.02 0.116,-0.042 0.172,-0.065 0.021,-0.009 0.042,-0.017 0.063,-0.027 0.071,-0.032 0.141,-0.066 0.207,-0.104 l 14.954,-8.69 c 0.009,-0.005 0.018,-0.01 0.027,-0.016 0.02,-0.012 0.037,-0.025 0.056,-0.038 0.027,-0.017 0.054,-0.035 0.079,-0.053 0.022,-0.016 0.041,-0.032 0.061,-0.048 0.023,-0.018 0.046,-0.037 0.067,-0.055 0.004,-0.004 0.009,-0.007 0.014,-0.011 0.028,-0.026 0.054,-0.053 0.079,-0.079 0.005,-0.006 0.009,-0.011 0.014,-0.017 0.015,-0.017 0.029,-0.033 0.043,-0.05 0.006,-0.007 0.01,-0.015 0.015,-0.022 0.019,-0.025 0.036,-0.051 0.051,-0.076 0.007,-0.011 0.015,-0.021 0.022,-0.032 0.003,-0.005 0.005,-0.011 0.008,-0.017 0.012,-0.023 0.022,-0.045 0.032,-0.068 0.006,-0.013 0.014,-0.026 0.019,-0.04 0.002,-0.005 0.002,-0.009 0.004,-0.014 0.008,-0.022 0.013,-0.044 0.019,-0.065 0.004,-0.015 0.01,-0.029 0.013,-0.044 0.001,-0.004 0.001,-0.008 0.001,-0.012 0.004,-0.023 0.006,-0.046 0.008,-0.069 10e-4,-0.015 0.005,-0.03 0.005,-0.045 0,-0.006 0,-0.013 0,-0.019 l 0.008,-2.745 c -0.005,0.017 -0.009,0.038 -0.011,0.06 z"
   inkscape:connector-curvature="0"
   style="fill:url(#XMLID_8_)" />
		<g
   id="XMLID_1126_">
			
				<linearGradient
   id="XMLID_9_"
   gradientUnits="userSpaceOnUse"
   x1="6.8417001"
   y1="13.7795"
   x2="41.2276"
   y2="13.7795"
   gradientTransform="matrix(1,0,0,-1,0,49)">
				<stop
   offset="0"
   style="stop-color:#00FFFF"
   id="stop55" />
				<stop
   offset="1"
   style="stop-color:#107587"
   id="stop57" />
			</linearGradient>
			<path
   id="XMLID_1127_"
   class="st8"
   d="m 40.581,34.323 c 0.858,0.495 0.863,1.298 0.01,1.794 l -14.954,8.691 c -0.852,0.495 -2.239,0.495 -3.097,0 L 7.488,36.118 C 6.63,35.623 6.626,34.82 7.478,34.324 l 14.954,-8.691 c 0.852,-0.495 2.238,-0.495 3.096,0 z"
   inkscape:connector-curvature="0"
   style="fill:url(#XMLID_9_)" />
		</g>
	</g>
</g>
<g
   id="XMLID_1119_"
   transform="matrix(1.40724,0,0,1.182198,-8.6561329,-6.9496991)">
	<g
   id="XMLID_1120_"
   class="st0"
   style="enable-background:new">
		
			<linearGradient
   id="XMLID_10_"
   gradientUnits="userSpaceOnUse"
   x1="23.995001"
   y1="13.709"
   x2="23.995001"
   y2="0.99959999"
   gradientTransform="matrix(1,0,0,-1,0,49)">
			<stop
   offset="0"
   style="stop-color:#00FFFF"
   id="stop64" />
			<stop
   offset="1"
   style="stop-color:#107587"
   id="stop66" />
		</linearGradient>
		<path
   id="XMLID_1123_"
   class="st9"
   d="m 41.183,35.368 c -0.002,0.023 -0.004,0.046 -0.008,0.069 -0.003,0.019 -0.009,0.037 -0.014,0.056 -0.006,0.022 -0.011,0.044 -0.019,0.066 -0.006,0.018 -0.015,0.036 -0.022,0.053 -0.01,0.023 -0.02,0.046 -0.032,0.068 -0.009,0.016 -0.019,0.032 -0.029,0.049 -0.016,0.026 -0.033,0.051 -0.051,0.076 -0.018,0.024 -0.037,0.048 -0.058,0.072 -0.005,0.006 -0.009,0.011 -0.015,0.017 -0.028,0.031 -0.059,0.061 -0.092,0.09 -0.021,0.019 -0.044,0.037 -0.067,0.056 -0.02,0.016 -0.04,0.033 -0.061,0.048 -0.025,0.018 -0.052,0.035 -0.079,0.052 -0.028,0.018 -0.054,0.036 -0.083,0.054 l -14.954,8.691 c -0.066,0.038 -0.135,0.072 -0.207,0.104 -0.021,0.009 -0.042,0.018 -0.063,0.027 -0.056,0.023 -0.113,0.045 -0.172,0.065 -0.021,0.007 -0.041,0.015 -0.063,0.022 -0.037,0.012 -0.075,0.022 -0.113,0.032 -0.029,0.008 -0.057,0.016 -0.086,0.023 -0.04,0.01 -0.081,0.018 -0.121,0.026 -0.027,0.006 -0.055,0.012 -0.082,0.017 -0.082,0.014 -0.165,0.026 -0.249,0.035 -0.026,0.003 -0.052,0.004 -0.078,0.007 -0.049,0.004 -0.098,0.008 -0.148,0.01 -0.032,10e-4 -0.063,0.002 -0.095,0.003 -0.04,10e-4 -0.08,10e-4 -0.12,10e-4 -0.034,0 -0.067,-10e-4 -0.1,-0.003 C 23.865,45.253 23.828,45.251 23.791,45.248 23.757,45.246 23.723,45.243 23.69,45.24 23.654,45.236 23.617,45.232 23.581,45.228 23.548,45.224 23.516,45.219 23.483,45.214 23.444,45.208 23.405,45.201 23.367,45.194 23.337,45.188 23.306,45.182 23.276,45.176 23.23,45.166 23.185,45.155 23.14,45.143 23.115,45.136 23.09,45.13 23.065,45.123 22.985,45.099 22.906,45.073 22.83,45.044 22.792,45.029 22.756,45.013 22.719,44.997 22.7,44.989 22.681,44.981 22.662,44.972 22.607,44.946 22.553,44.918 22.501,44.888 L 7.45,36.194 C 7.018,35.945 6.803,35.618 6.804,35.291 l -0.008,2.745 c -0.001,0.327 0.215,0.654 0.646,0.903 l 15.052,8.69 c 0.052,0.03 0.105,0.058 0.161,0.084 0.018,0.009 0.038,0.016 0.057,0.025 0.033,0.015 0.065,0.03 0.099,0.043 0.004,0.002 0.008,0.003 0.012,0.004 0.076,0.03 0.155,0.056 0.235,0.079 0.006,0.002 0.012,0.005 0.019,0.006 0.018,0.005 0.038,0.009 0.056,0.014 0.045,0.012 0.09,0.023 0.136,0.033 0.012,0.003 0.024,0.006 0.036,0.009 0.018,0.004 0.037,0.006 0.055,0.01 0.038,0.007 0.077,0.014 0.116,0.02 0.016,0.002 0.031,0.006 0.047,0.008 0.017,0.002 0.034,0.004 0.052,0.006 0.036,0.005 0.072,0.009 0.109,0.012 0.018,0.002 0.035,0.004 0.052,0.006 0.016,10e-4 0.033,10e-4 0.049,0.003 0.037,0.003 0.074,0.004 0.111,0.006 0.019,10e-4 0.037,0.003 0.056,0.003 0.015,0 0.03,0 0.045,0 0.04,10e-4 0.08,0 0.12,-10e-4 0.02,0 0.04,0 0.06,0 0.012,0 0.024,-0.002 0.035,-0.002 0.049,-0.002 0.099,-0.006 0.148,-0.01 0.02,-0.002 0.04,-0.002 0.06,-0.004 0.006,-10e-4 0.012,-0.002 0.018,-0.003 0.084,-0.009 0.167,-0.02 0.249,-0.035 0.004,-10e-4 0.008,-10e-4 0.012,-0.002 0.024,-0.004 0.047,-0.01 0.071,-0.015 0.04,-0.008 0.081,-0.016 0.121,-0.026 0.029,-0.007 0.058,-0.015 0.086,-0.023 0.038,-0.01 0.076,-0.02 0.113,-0.032 0.008,-0.002 0.016,-0.004 0.024,-0.007 0.013,-0.004 0.026,-0.01 0.039,-0.015 0.059,-0.02 0.116,-0.042 0.172,-0.065 0.021,-0.009 0.042,-0.017 0.063,-0.027 0.071,-0.032 0.141,-0.066 0.207,-0.104 l 14.954,-8.69 c 0.009,-0.005 0.018,-0.01 0.027,-0.016 0.02,-0.012 0.037,-0.025 0.056,-0.038 0.027,-0.017 0.054,-0.035 0.079,-0.053 0.022,-0.016 0.041,-0.032 0.061,-0.048 0.023,-0.018 0.046,-0.037 0.067,-0.055 0.004,-0.004 0.009,-0.007 0.014,-0.011 0.028,-0.026 0.054,-0.053 0.079,-0.079 0.005,-0.006 0.009,-0.011 0.014,-0.017 0.015,-0.017 0.029,-0.033 0.043,-0.05 0.006,-0.007 0.01,-0.015 0.015,-0.022 0.019,-0.025 0.036,-0.051 0.051,-0.076 0.007,-0.011 0.015,-0.021 0.022,-0.032 0.003,-0.005 0.005,-0.011 0.008,-0.017 0.012,-0.023 0.022,-0.045 0.032,-0.068 0.006,-0.013 0.014,-0.026 0.019,-0.04 0.002,-0.005 0.002,-0.009 0.004,-0.014 0.008,-0.022 0.013,-0.044 0.019,-0.065 0.004,-0.015 0.01,-0.029 0.013,-0.044 0.001,-0.004 0.001,-0.008 0.001,-0.012 0.004,-0.023 0.006,-0.046 0.008,-0.069 0.001,-0.015 0.005,-0.03 0.005,-0.045 0,-0.006 0,-0.013 0,-0.019 l 0.008,-2.745 c -0.005,0.021 -0.009,0.043 -0.011,0.064 z"
   inkscape:connector-curvature="0"
   style="fill:url(#XMLID_10_)" />
		<g
   id="XMLID_1121_">
			
				<linearGradient
   id="XMLID_11_"
   gradientUnits="userSpaceOnUse"
   x1="6.8037"
   y1="13.7025"
   x2="41.188599"
   y2="13.7025"
   gradientTransform="matrix(1,0,0,-1,0,49)">
				<stop
   offset="0"
   style="stop-color:#00FFFF"
   id="stop70" />
				<stop
   offset="1"
   style="stop-color:#107587"
   id="stop72" />
			</linearGradient>
			<path
   id="XMLID_1122_"
   class="st10"
   d="m 40.542,34.401 c 0.858,0.495 0.863,1.298 0.01,1.794 l -14.954,8.691 c -0.852,0.495 -2.239,0.495 -3.097,0 L 7.45,36.194 C 6.592,35.699 6.588,34.896 7.44,34.4 l 14.954,-8.691 c 0.852,-0.495 2.238,-0.495 3.096,0 z"
   inkscape:connector-curvature="0"
   style="fill:url(#XMLID_11_)" />
		</g>
	</g>
</g>
<linearGradient
   id="XMLID_12_"
   gradientUnits="userSpaceOnUse"
   x1="23.9935"
   y1="25.913"
   x2="23.9935"
   y2="9.3249998"
   gradientTransform="matrix(1.40724,0,0,-1.182198,-8.6561334,50.978001)">
	<stop
   offset="0"
   style="stop-color:#00FFFF"
   id="stop79" />
	<stop
   offset="1"
   style="stop-color:#107587"
   id="stop81" />
</linearGradient>
<path
   id="XMLID_1118_"
   class="st11"
   d="m 38.265469,36.877928 c 0,-0.09812 0,-0.196245 0,-0.29555 l 0.0028,-1.115995 c 0,-0.0863 0,-0.173783 0,-0.261265 l 0.0014,-0.375939 c 0,-0.223435 0.0014,-0.448053 0.0014,-0.676218 V 33.85623 c 0,-0.124131 0,-0.24708 0.0014,-0.372392 l 0.0014,-0.954035 c 0,-0.313282 0.0014,-3.46384 0.0014,-3.779486 l 0.0014,-0.945759 c 0,-0.320375 0.0014,-0.638387 0.0014,-0.954034 l 0.0014,-0.372392 c 0,-0.0993 0,-0.197427 0,-0.296732 l 0.0014,-0.677399 c 0,-0.125313 0,-0.250625 0.0014,-0.373575 v -0.262447 c 0.0014,-0.380668 0.0014,-0.753061 0.0028,-1.113631 l 0.0014,-0.318011 c 0.0014,-0.455147 -0.432023,-0.917386 -1.348136,-1.353618 v 0 c -0.06192,-0.02955 -0.125245,-0.05793 -0.191384,-0.08749 -0.01829,-0.0083 -0.03799,-0.01655 -0.0563,-0.02482 -0.05067,-0.02246 -0.104132,-0.04374 -0.157611,-0.0662 -0.01688,-0.0071 -0.03377,-0.01418 -0.05208,-0.02128 -0.06896,-0.02719 -0.139317,-0.05557 -0.212494,-0.08276 -0.01407,-0.0047 -0.02814,-0.01063 -0.04221,-0.01537 -0.06051,-0.02246 -0.121023,-0.04374 -0.184348,-0.06621 -0.02251,-0.0083 -0.04504,-0.01537 -0.06755,-0.02365 -0.06473,-0.02246 -0.129467,-0.04374 -0.197015,-0.06503 -0.01407,-0.0047 -0.02674,-0.0083 -0.0394,-0.01301 -0.08021,-0.02601 -0.160425,-0.05082 -0.243453,-0.07566 -0.0211,-0.0058 -0.04363,-0.013 -0.06473,-0.01891 -0.06473,-0.01892 -0.130873,-0.03783 -0.197014,-0.05674 -0.02392,-0.0071 -0.04785,-0.01301 -0.07177,-0.02009 -0.08584,-0.02365 -0.174498,-0.04729 -0.263154,-0.07094 h -0.0014 c -0.01266,-0.0035 -0.02533,-0.0058 -0.03799,-0.0094 -0.06192,-0.01655 -0.123837,-0.03192 -0.187163,-0.04729 -0.02814,-0.0071 -0.05488,-0.01299 -0.08302,-0.02009 -0.05067,-0.01183 -0.09991,-0.02482 -0.150574,-0.03664 -0.03236,-0.007 -0.06473,-0.01537 -0.09569,-0.02246 -0.04785,-0.01063 -0.09569,-0.02246 -0.143539,-0.03311 -0.03377,-0.0071 -0.06896,-0.01537 -0.102726,-0.02246 -0.04644,-0.01063 -0.09429,-0.02009 -0.14213,-0.03073 -0.01121,-0.0023 -0.02392,-0.0047 -0.03517,-0.0071 -0.03517,-0.007 -0.07177,-0.01537 -0.106945,-0.02246 -0.02533,-0.0047 -0.05067,-0.01063 -0.07599,-0.01537 -0.06755,-0.01301 -0.133688,-0.02719 -0.202643,-0.04019 -0.0085,-0.0012 -0.01688,-0.0035 -0.02674,-0.0047 -0.07739,-0.01537 -0.154796,-0.02956 -0.232194,-0.04374 -0.02392,-0.0047 -0.04785,-0.0083 -0.07177,-0.013 -0.04222,-0.0083 -0.08443,-0.01537 -0.126652,-0.02365 -0.0085,-0.0012 -0.01688,-0.0035 -0.02674,-0.0047 -0.111167,-0.02009 -0.22375,-0.03902 -0.33633,-0.05793 -0.02392,-0.0035 -0.04644,-0.0071 -0.07037,-0.01182 -0.0971,-0.01537 -0.195607,-0.03192 -0.294113,-0.04729 -0.01688,-0.0023 -0.03376,-0.0058 -0.05067,-0.0083 -0.0098,-0.0012 -0.02111,-0.0035 -0.03096,-0.0047 -0.108353,-0.01655 -0.218122,-0.03311 -0.329294,-0.04847 -0.01688,-0.0023 -0.03517,-0.0047 -0.05208,-0.007 -0.09568,-0.013 -0.191384,-0.0272 -0.288484,-0.03901 -0.01547,-0.0023 -0.03096,-0.0047 -0.04785,-0.0058 -0.01829,-0.0023 -0.038,-0.0047 -0.05629,-0.007 -0.08021,-0.01063 -0.161833,-0.02128 -0.243453,-0.03073 -0.03095,-0.0035 -0.06051,-0.007 -0.09147,-0.01182 -0.10976,-0.013 -0.220936,-0.02601 -0.333516,-0.03901 -0.0028,0 -0.0071,-0.0012 -0.0098,-0.0012 -0.01688,-0.0023 -0.03376,-0.0035 -0.05067,-0.0058 -0.09006,-0.01063 -0.180126,-0.02009 -0.271596,-0.02956 -0.03658,-0.0035 -0.07318,-0.007 -0.109761,-0.01182 -0.07739,-0.0083 -0.153389,-0.01537 -0.230788,-0.02365 -0.02251,-0.0023 -0.04362,-0.0047 -0.06614,-0.007 -0.01688,-0.0012 -0.03377,-0.0035 -0.04926,-0.0047 -0.08021,-0.0071 -0.159019,-0.01537 -0.239231,-0.02246 -0.03095,-0.0023 -0.06333,-0.0058 -0.09429,-0.0083 -0.111168,-0.0094 -0.223751,-0.01892 -0.336331,-0.02837 -0.0028,0 -0.0056,0 -0.0071,-0.0012 -0.01688,-0.0012 -0.03377,-0.0023 -0.05067,-0.0035 -0.09147,-0.007 -0.184347,-0.01418 -0.277226,-0.02128 -0.038,-0.0023 -0.07739,-0.0058 -0.115394,-0.0083 -0.07459,-0.0058 -0.150574,-0.01063 -0.226565,-0.01537 -0.0197,-0.0012 -0.0394,-0.0023 -0.0591,-0.0047 -0.01121,-0.0012 -0.02111,-0.0012 -0.03236,-0.0023 -0.225158,-0.01537 -0.453131,-0.02837 -0.682511,-0.04019 -0.0071,0 -0.01407,-0.0012 -0.02111,-0.0012 -0.0043,0 -0.0071,0 -0.01121,0 -0.235009,-0.01182 -0.471426,-0.02246 -0.70925,-0.03192 -0.0071,0 -0.01407,-0.0012 -0.0197,-0.0012 -0.0098,0 -0.0211,-0.0012 -0.03096,-0.0012 -0.225159,-0.0083 -0.450316,-0.01537 -0.676883,-0.02128 -0.01121,0 -0.02392,-0.0012 -0.03518,-0.0012 -0.0098,0 -0.0197,0 -0.02955,0 -0.233602,-0.0058 -0.468611,-0.0094 -0.703619,-0.01301 -0.0028,0 -0.0071,0 -0.0098,0 -0.0014,0 -0.0028,0 -0.0043,0 -0.240636,-0.0023 -0.482682,-0.0035 -0.724727,-0.0035 -0.0085,0 -0.01688,0 -0.02533,0 -0.01121,0 -0.02251,0 -0.03379,0 -0.237823,0.0012 -0.475647,0.0023 -0.714878,0.0058 -0.0098,0 -0.0211,0 -0.03095,0 -0.01121,0 -0.02251,0 -0.03236,0.0012 -0.125244,0.0023 -0.250489,0.0047 -0.375734,0.007 -0.01547,0 -0.03236,0.0012 -0.04785,0.0012 -0.10976,0.0023 -0.21953,0.0058 -0.329294,0.0094 -0.01548,0 -0.03095,0.0012 -0.04643,0.0012 -0.01829,0 -0.03659,0.0012 -0.05488,0.0023 -0.149168,0.0047 -0.299743,0.0094 -0.448911,0.01655 -0.0056,0 -0.01121,0 -0.01688,0.0012 -0.153388,0.0058 -0.305372,0.01299 -0.457353,0.02128 -0.01829,0.0012 -0.03658,0.0012 -0.05488,0.0023 -0.0098,0 -0.0197,0.0012 -0.03095,0.0012 -0.23501,0.01183 -0.470019,0.02601 -0.705028,0.04019 -0.0056,0 -0.01266,0.0012 -0.01829,0.0012 -0.23923,0.01537 -0.475645,0.03311 -0.71347,0.05201 -0.0197,0.0012 -0.038,0.0035 -0.05629,0.0047 -0.22375,0.01774 -0.446095,0.03783 -0.667032,0.05911 -0.0197,0.0023 -0.04081,0.0035 -0.06051,0.0058 -0.235009,0.02246 -0.468611,0.04729 -0.699399,0.0733 -0.08162,0.0094 -0.163239,0.01891 -0.24486,0.02837 -0.02533,0.0035 -0.05067,0.0058 -0.07599,0.0094 -0.0563,0.0071 -0.111168,0.01299 -0.166054,0.02009 -0.02814,0.0035 -0.0577,0.0071 -0.08584,0.01063 -0.05348,0.007 -0.10554,0.01301 -0.157611,0.02009 -0.02814,0.0035 -0.05488,0.007 -0.08162,0.01063 -0.06051,0.0083 -0.119615,0.01655 -0.180127,0.02482 -0.01829,0.0023 -0.03517,0.0047 -0.05348,0.0071 -0.07599,0.01063 -0.151981,0.02128 -0.227972,0.03311 -0.0197,0.0023 -0.0394,0.0058 -0.0591,0.0083 -0.05488,0.0083 -0.111166,0.01655 -0.166054,0.02482 -0.02674,0.0035 -0.05347,0.0083 -0.0788,0.01182 -0.04926,0.0071 -0.0971,0.01537 -0.146354,0.02246 -0.02674,0.0047 -0.05208,0.0083 -0.0788,0.01301 -0.05067,0.0083 -0.101318,0.01655 -0.151982,0.02482 -0.01688,0.0023 -0.03236,0.0058 -0.04926,0.0083 -0.0043,0.0012 -0.0085,0.0012 -0.01266,0.0023 -0.09991,0.01655 -0.199829,0.03429 -0.298335,0.05201 -0.01688,0.0035 -0.03236,0.0058 -0.04926,0.0094 -0.09569,0.01774 -0.191386,0.03546 -0.284264,0.0532 -0.01688,0.0035 -0.03236,0.0058 -0.04926,0.0094 -0.09429,0.01893 -0.187162,0.03664 -0.278632,0.05557 -0.01266,0.0023 -0.02533,0.0047 -0.03799,0.0083 -0.09429,0.0201 -0.188571,0.0402 -0.280042,0.06029 -0.0014,0 -0.0014,0 -0.0028,0.0012 -0.0056,0.0012 -0.0098,0.0023 -0.01547,0.0035 -0.06333,0.01418 -0.123838,0.02837 -0.185756,0.04256 -0.0197,0.0047 -0.03941,0.0094 -0.0577,0.013 -0.05208,0.01183 -0.105539,0.02482 -0.156205,0.03783 -0.01547,0.0035 -0.02955,0.0071 -0.04504,0.01063 -0.06473,0.01537 -0.12806,0.03192 -0.191385,0.04729 -0.01407,0.0035 -0.02814,0.0071 -0.04221,0.01063 -0.05067,0.01301 -0.09991,0.02601 -0.14776,0.03902 -0.0098,0.0023 -0.0197,0.0047 -0.02955,0.0083 -0.0098,0.0023 -0.0197,0.0058 -0.02955,0.0083 -0.03236,0.0094 -0.06473,0.01774 -0.09709,0.02719 -0.02111,0.0058 -0.04081,0.01183 -0.06192,0.01655 -0.03517,0.0094 -0.07037,0.02009 -0.104132,0.02955 -0.01688,0.0047 -0.03377,0.0094 -0.05067,0.01418 -0.102724,0.02955 -0.201235,0.06029 -0.298334,0.09103 -0.0028,0.0012 -0.0056,0.0023 -0.0085,0.0023 -0.01688,0.0058 -0.03377,0.01063 -0.05208,0.01655 -0.02533,0.0083 -0.04926,0.01537 -0.07318,0.02365 -0.02111,0.007 -0.0408,0.01301 -0.06051,0.02009 -0.02392,0.0083 -0.04644,0.01537 -0.07037,0.02365 -0.02111,0.0071 -0.04081,0.01418 -0.06051,0.02128 -0.02251,0.0083 -0.04504,0.01537 -0.06755,0.02365 -0.0197,0.007 -0.0394,0.01418 -0.0591,0.02128 -0.02251,0.0083 -0.04363,0.01537 -0.06614,0.02365 -0.0056,0.0023 -0.0098,0.0035 -0.01548,0.0058 -0.0056,0.0023 -0.01121,0.0035 -0.01548,0.0058 -0.06896,0.02601 -0.135095,0.05085 -0.201235,0.07685 -0.0056,0.0023 -0.01121,0.0047 -0.01829,0.0071 -0.06755,0.02719 -0.133688,0.05438 -0.197014,0.08158 0,0 -0.0014,0 -0.0014,0.0012 -0.0014,0.0012 -0.0028,0.0012 -0.0043,0.0023 -0.0591,0.02482 -0.116801,0.05083 -0.171683,0.07684 -0.0056,0.0023 -0.01121,0.0047 -0.01688,0.0083 -0.05348,0.02482 -0.106946,0.05084 -0.157611,0.07566 -0.0043,0.0023 -0.0098,0.0047 -0.01547,0.0071 -0.0028,0.0012 -0.0071,0.0035 -0.0098,0.0047 -0.04785,0.02365 -0.09429,0.04847 -0.139317,0.0733 -0.0085,0.0047 -0.01688,0.0094 -0.02392,0.01301 -0.04504,0.02482 -0.09006,0.04966 -0.132281,0.07566 -0.0014,0.0012 -0.0028,0.0023 -0.0043,0.0023 -0.0043,0.0023 -0.0071,0.0047 -0.0098,0.0058 -0.04081,0.02482 -0.08021,0.04847 -0.118209,0.0733 -0.0043,0.0023 -0.0071,0.0047 -0.01121,0.007 -0.03941,0.02482 -0.07599,0.05083 -0.111167,0.07566 -0.0043,0.0023 -0.0085,0.0047 -0.01121,0.0083 -0.0028,0.0023 -0.0056,0.0047 -0.0085,0.0058 -0.03376,0.02482 -0.06755,0.04966 -0.0985,0.07447 -0.0056,0.0047 -0.01121,0.0094 -0.01688,0.01301 -0.03236,0.02601 -0.06333,0.05201 -0.09288,0.07802 v 0 l -0.0014,0.0012 c -0.02955,0.02601 -0.0577,0.05201 -0.08302,0.07802 -0.0043,0.0035 -0.0085,0.0083 -0.01266,0.01182 -0.02533,0.02601 -0.04926,0.05084 -0.07177,0.07685 -0.0014,0.0023 -0.0043,0.0047 -0.0071,0.007 -0.0028,0.0023 -0.0043,0.0047 -0.0056,0.0071 -0.02251,0.02601 -0.04363,0.0532 -0.06333,0.07921 -0.0028,0.0035 -0.0056,0.0071 -0.0085,0.01182 -0.0197,0.0272 -0.03941,0.05557 -0.05489,0.08393 v 0 0 c -0.01829,0.02956 -0.03236,0.05911 -0.04644,0.08865 -0.0014,0.0035 -0.0028,0.0071 -0.0056,0.01063 -0.01266,0.02837 -0.02392,0.05675 -0.03377,0.08393 -0.0014,0.0023 -0.0028,0.0047 -0.0028,0.0083 -0.0014,0.0035 -0.0014,0.0071 -0.0028,0.01063 -0.0028,0.0083 -0.0043,0.01537 -0.007,0.02365 -0.0028,0.0094 -0.0056,0.01891 -0.0071,0.02837 -0.0014,0.0083 -0.0043,0.01655 -0.0056,0.02365 -0.0014,0.0094 -0.0043,0.01891 -0.0056,0.02719 -0.0014,0.0083 -0.0028,0.01655 -0.0043,0.02482 -0.0014,0.0094 -0.0028,0.01891 -0.0028,0.02837 -0.0014,0.0083 -0.0014,0.01655 -0.0014,0.02364 0,0.0035 -0.0014,0.0083 -0.0014,0.01182 0,0.0094 0,0.02009 0,0.02956 0,0.105213 0,0.210433 0,0.318012 l -0.0028,1.113632 c 0,0.0863 0,0.173781 0,0.261265 l -0.0014,0.375938 c 0,0.223436 -0.0014,0.449236 -0.0014,0.6774 v 0.296732 c 0,0.12413 0,0.247079 -0.0014,0.372393 l -0.0028,0.954032 c 0,0.313284 -0.0014,0.628931 -0.0014,0.943395 l -0.0014,3.783034 c -0.0014,0.319194 -0.0014,0.637204 -0.0014,0.952851 l -0.0014,0.372393 c 0,0.0993 0,0.197426 0,0.295549 l -0.0014,0.678582 c 0,0.125313 0,0.249443 -0.0014,0.372393 v 0.264812 c -0.0014,0.380668 -0.0014,0.753059 -0.0028,1.112448 l -0.0014,0.318011 c 0,0.0035 0,0.0071 0,0.01063 0,0.01774 0.0014,0.03546 0.0028,0.0532 0.0014,0.0094 0.0014,0.01774 0.0028,0.02719 0.0028,0.02482 0.0071,0.04847 0.01266,0.0733 0,0.0023 0.0014,0.0047 0.0014,0.007 0.0071,0.02719 0.01407,0.0532 0.02392,0.08039 0.0028,0.0083 0.0071,0.01655 0.0098,0.02482 0.0071,0.01891 0.01407,0.03664 0.02392,0.05557 0.0043,0.01063 0.0098,0.02009 0.01548,0.03073 0.0085,0.01655 0.01688,0.03311 0.02674,0.05083 0.0056,0.01063 0.01266,0.02128 0.0197,0.03192 0.0098,0.01655 0.02111,0.03311 0.03236,0.04847 0.0071,0.01063 0.01548,0.02128 0.02392,0.03311 0.01266,0.01655 0.02533,0.03311 0.03941,0.04966 0.0085,0.01063 0.01688,0.02128 0.02533,0.03073 0.01548,0.01774 0.03236,0.03546 0.04926,0.0532 0.0085,0.0094 0.01688,0.01774 0.02533,0.02719 0.02533,0.02482 0.05208,0.05084 0.08021,0.07566 0.0014,0.0012 0.0028,0.0023 0.0043,0.0035 0.02955,0.02719 0.06051,0.0532 0.09429,0.08039 0.0098,0.0083 0.02251,0.01655 0.03236,0.02601 0.02251,0.01774 0.04645,0.03664 0.07037,0.05438 0.01407,0.01063 0.02814,0.02009 0.04222,0.03073 0.02251,0.01655 0.04644,0.03311 0.07177,0.04966 0.01548,0.01063 0.03236,0.02128 0.04785,0.03192 0.02533,0.01655 0.05067,0.03192 0.07599,0.04847 0.01688,0.01063 0.03517,0.02128 0.05208,0.03192 0.02674,0.01655 0.05488,0.03192 0.08443,0.04847 0.01829,0.01063 0.03517,0.02009 0.05348,0.03073 0.03236,0.01774 0.06473,0.03546 0.0985,0.0532 0.01688,0.0083 0.03236,0.01655 0.04785,0.02601 0.05067,0.02601 0.102726,0.05201 0.156204,0.07803 0.06192,0.02955 0.125243,0.05792 0.191385,0.08749 0.01829,0.0083 0.03799,0.01655 0.05629,0.02482 0.05067,0.02246 0.104132,0.04374 0.156204,0.0662 0.01688,0.0071 0.03376,0.01418 0.05208,0.02128 0.06896,0.02719 0.139316,0.05557 0.211085,0.08158 0.01407,0.0047 0.02814,0.01063 0.04222,0.01537 0.06051,0.02246 0.121022,0.04374 0.182941,0.0662 0.02251,0.0083 0.04504,0.01537 0.06755,0.02365 0.06473,0.02246 0.129465,0.04374 0.195606,0.06503 0.01407,0.0047 0.02674,0.0094 0.0408,0.013 0.0788,0.02601 0.160424,0.05085 0.243452,0.07566 0.02111,0.0058 0.04363,0.01299 0.06473,0.0189 0.06474,0.01893 0.129466,0.03783 0.195607,0.05676 0.02392,0.0071 0.04785,0.01418 0.07318,0.02009 0.08584,0.02365 0.173091,0.04729 0.263155,0.07094 h 0.0014 c 0.01266,0.0035 0.02674,0.007 0.03941,0.01063 0.06192,0.01537 0.123837,0.03192 0.187163,0.04729 0.02814,0.007 0.05629,0.01418 0.08443,0.02009 0.04926,0.01183 0.09851,0.02365 0.149168,0.03546 0.03236,0.0071 0.06474,0.01537 0.0985,0.02246 0.04645,0.01063 0.09429,0.02128 0.142132,0.03192 0.03517,0.0083 0.06896,0.01537 0.104132,0.02246 0.04644,0.01063 0.09288,0.02009 0.140725,0.03073 0.01121,0.0023 0.02392,0.0047 0.03517,0.0071 0.03517,0.007 0.07177,0.01537 0.108353,0.02246 0.02533,0.0047 0.05067,0.01063 0.076,0.01537 0.06755,0.01418 0.135094,0.02719 0.202642,0.04019 0.0085,0.0012 0.01688,0.0035 0.02674,0.0047 0.0774,0.01537 0.154796,0.02956 0.232195,0.04374 0.02392,0.0047 0.04785,0.0083 0.07177,0.01301 0.04221,0.007 0.08443,0.01537 0.126652,0.02246 0.0085,0.0012 0.01688,0.0023 0.02674,0.0047 0.111168,0.02009 0.223752,0.03902 0.33633,0.05792 0.02392,0.0035 0.04785,0.007 0.07037,0.01183 0.09709,0.01537 0.195607,0.03192 0.294114,0.04729 0.01688,0.0023 0.03376,0.0058 0.05067,0.0083 0.0098,0.0012 0.0197,0.0023 0.02955,0.0047 0.10976,0.01655 0.21953,0.03311 0.330702,0.04847 0.01688,0.0023 0.03376,0.0047 0.05067,0.0071 0.09569,0.01301 0.19279,0.02719 0.28989,0.0402 0.01547,0.0023 0.03095,0.0047 0.04785,0.007 0.01829,0.0023 0.03799,0.0047 0.0563,0.0071 0.08021,0.01063 0.161832,0.02128 0.243452,0.03073 0.03096,0.0035 0.06051,0.0083 0.09147,0.01183 0.10976,0.013 0.220937,0.02601 0.332109,0.03902 0.0028,0 0.0071,0.0012 0.0098,0.0012 0.01688,0.0023 0.03376,0.0035 0.05207,0.0058 0.09006,0.0094 0.178719,0.02009 0.27019,0.02955 0.03658,0.0035 0.07318,0.0071 0.10976,0.01183 0.07739,0.0083 0.153388,0.01537 0.230786,0.02365 0.02251,0.0023 0.04363,0.0047 0.06614,0.0071 0.01688,0.0012 0.03376,0.0035 0.04926,0.0047 0.0788,0.007 0.159017,0.01537 0.237823,0.02246 0.03236,0.0023 0.06473,0.0058 0.09709,0.0083 0.111167,0.0094 0.222344,0.01893 0.334922,0.02837 0.0028,0 0.0056,0 0.0071,0.0012 0.01688,0.0012 0.03376,0.0023 0.04926,0.0035 0.09288,0.0071 0.185757,0.01418 0.278635,0.02128 0.03799,0.0023 0.07599,0.0058 0.113981,0.0083 0.07599,0.0058 0.151983,0.01063 0.227973,0.01537 0.0197,0.0012 0.03941,0.0023 0.0591,0.0047 0.01121,0.0012 0.02111,0.0012 0.03236,0.0023 0.225159,0.01537 0.453131,0.02837 0.681104,0.04019 0.0071,0 0.01407,0.0012 0.02111,0.0012 0.0043,0 0.0085,0 0.01121,0 0.23501,0.01182 0.471425,0.02246 0.709249,0.03192 0.0071,0 0.01407,0.0012 0.0197,0.0012 0.0098,0 0.02111,0.0012 0.03096,0.0012 0.225158,0.0083 0.450316,0.01537 0.676883,0.02128 0.01121,0 0.02392,0.0012 0.03517,0.0012 0.0098,0 0.0197,0 0.02955,0 0.233602,0.0058 0.468611,0.0094 0.703619,0.01301 0.0028,0 0.0056,0 0.0098,0 0.0014,0 0.0028,0 0.0043,0 0.240639,0.0023 0.482685,0.0035 0.72473,0.0035 0.0085,0 0.01688,0 0.02533,0 0.01121,0 0.02251,0 0.03376,0 0.237823,-0.0012 0.477055,-0.0023 0.714877,-0.0058 0.0098,0 0.02111,0 0.03096,0 0.01121,0 0.02251,0 0.03236,-0.0012 0.125245,-0.0023 0.25049,-0.0047 0.37714,-0.0071 0.01548,0 0.02955,-0.0012 0.04504,-0.0012 0.111167,-0.0023 0.220937,-0.0058 0.332108,-0.0094 0.01547,0 0.03095,-0.0012 0.04644,-0.0012 0.01829,0 0.03658,-0.0012 0.05488,-0.0023 0.149168,-0.0047 0.299743,-0.0094 0.448911,-0.01655 0.0056,0 0.01121,0 0.01688,-0.0012 0.153389,-0.0058 0.305371,-0.013 0.457353,-0.02128 0.01829,-0.0012 0.03658,-0.0012 0.05488,-0.0023 0.0098,0 0.0197,-0.0012 0.03096,-0.0012 0.235009,-0.01183 0.470018,-0.02601 0.705027,-0.04019 0.0056,0 0.01266,-0.0012 0.01829,-0.0012 0.23923,-0.01537 0.475646,-0.03311 0.713469,-0.05201 0.0197,-0.0012 0.03799,-0.0035 0.0563,-0.0047 0.223751,-0.01774 0.446094,-0.03783 0.667031,-0.05911 0.0197,-0.0023 0.04081,-0.0035 0.06051,-0.0058 0.235009,-0.02246 0.468611,-0.04729 0.699398,-0.0733 0.08162,-0.0094 0.16324,-0.01893 0.244859,-0.02837 0.01407,-0.0012 0.02815,-0.0035 0.0408,-0.0047 0.0197,-0.0023 0.04081,-0.0047 0.06051,-0.007 0.04785,-0.0058 0.09429,-0.01183 0.142132,-0.01774 0.02674,-0.0035 0.05348,-0.0071 0.0788,-0.0094 0.01688,-0.0023 0.03378,-0.0047 0.05067,-0.0058 0.03799,-0.0047 0.07599,-0.0094 0.113981,-0.01537 0.02674,-0.0035 0.05348,-0.0071 0.08021,-0.01063 0.02111,-0.0023 0.04222,-0.0058 0.06333,-0.0083 0.0197,-0.0023 0.03799,-0.0058 0.0577,-0.0083 0.0197,-0.0023 0.0394,-0.0058 0.0591,-0.0083 0.01688,-0.0023 0.03517,-0.0047 0.05208,-0.0071 0.03096,-0.0047 0.06192,-0.0083 0.09288,-0.01301 0.02392,-0.0035 0.04644,-0.0071 0.07037,-0.01063 0.02111,-0.0035 0.04362,-0.0058 0.06473,-0.0094 0.0197,-0.0023 0.03799,-0.0058 0.05629,-0.0083 0.04222,-0.0058 0.08584,-0.01301 0.128058,-0.01893 0.0014,0 0.0014,0 0.0028,0 0.01266,-0.0023 0.02533,-0.0035 0.03799,-0.0058 0.02674,-0.0035 0.05208,-0.0083 0.0774,-0.01183 0.04221,-0.007 0.08584,-0.013 0.128058,-0.02009 0.01547,-0.0023 0.02955,-0.0047 0.04504,-0.0071 0.01688,-0.0023 0.03517,-0.0058 0.05207,-0.0083 0.05067,-0.0083 0.101319,-0.01655 0.151983,-0.02482 0.01548,-0.0023 0.03096,-0.0047 0.04503,-0.007 0.0014,0 0.0028,0 0.0028,0 v 0 c 0.0014,0 0.0028,0 0.0028,0 0.0043,-0.0012 0.0071,-0.0012 0.01121,-0.0023 0.0788,-0.013 0.156204,-0.0272 0.232195,-0.04019 0.01829,-0.0035 0.03517,-0.0058 0.05348,-0.0094 0.0028,-0.0012 0.0071,-0.0012 0.0098,-0.0023 0.01688,-0.0035 0.03237,-0.0058 0.04926,-0.0094 0.04081,-0.007 0.08162,-0.01537 0.122431,-0.02246 0.0211,-0.0035 0.04221,-0.0083 0.06333,-0.01183 0.03377,-0.0058 0.06614,-0.01301 0.09851,-0.01893 0.01688,-0.0035 0.03236,-0.0058 0.04926,-0.0094 0.02533,-0.0047 0.05067,-0.0094 0.07599,-0.01537 0.0014,0 0.0028,0 0.0028,-0.0012 0.06755,-0.01301 0.133687,-0.02719 0.198421,-0.04019 0.0085,-0.0023 0.01688,-0.0035 0.02674,-0.0058 0.01688,-0.0035 0.03376,-0.0071 0.05067,-0.01063 0.0577,-0.01182 0.113981,-0.02482 0.171683,-0.03664 0.01548,-0.0035 0.03096,-0.007 0.04644,-0.01063 0.0085,-0.0023 0.01688,-0.0035 0.02392,-0.0058 0.0014,0 0.0014,0 0.0028,-0.0012 0.0056,-0.0012 0.0098,-0.0023 0.01547,-0.0035 0.05488,-0.01183 0.10976,-0.02482 0.16324,-0.03664 0.0098,-0.0023 0.0211,-0.0047 0.03096,-0.007 0.01688,-0.0035 0.03376,-0.0083 0.05067,-0.01183 0.04222,-0.0094 0.08443,-0.02009 0.125243,-0.02955 0.01547,-0.0035 0.03237,-0.007 0.04785,-0.01182 0.0098,-0.0023 0.01829,-0.0047 0.02814,-0.0071 0.0591,-0.01418 0.118208,-0.02956 0.175905,-0.04374 0.0014,0 0.0028,0 0.0028,-0.0012 0.0043,-0.0012 0.0085,-0.0023 0.01266,-0.0035 0.01407,-0.0035 0.02814,-0.007 0.04222,-0.01063 0.04504,-0.01182 0.08866,-0.02365 0.132279,-0.03429 0.01121,-0.0035 0.02392,-0.0058 0.03517,-0.0094 0.0043,-0.0012 0.0071,-0.0023 0.01121,-0.0035 0.0098,-0.0023 0.01829,-0.0047 0.02814,-0.0083 0.03377,-0.0094 0.06614,-0.01774 0.09991,-0.02719 0.01688,-0.0047 0.03376,-0.0094 0.04926,-0.01418 0.0056,-0.0012 0.01121,-0.0035 0.01829,-0.0047 0.03377,-0.0094 0.06614,-0.01893 0.09851,-0.02837 0.01688,-0.0047 0.03376,-0.0094 0.05067,-0.01418 0.0098,-0.0023 0.0197,-0.0058 0.02955,-0.0083 0.01266,-0.0035 0.02674,-0.0083 0.0394,-0.01183 0.04644,-0.01418 0.09288,-0.02837 0.139318,-0.04256 0.01547,-0.0047 0.03095,-0.0094 0.04644,-0.01418 0.01407,-0.0047 0.02955,-0.0094 0.04362,-0.01418 0.0028,-0.0012 0.0056,-0.0023 0.0085,-0.0023 0.01688,-0.0058 0.03377,-0.01063 0.05208,-0.01655 0.02111,-0.0071 0.04221,-0.013 0.06333,-0.02009 0.0014,0 0.0014,-0.0012 0.0028,-0.0012 0.0028,-0.0012 0.0056,-0.0012 0.0071,-0.0023 0.0197,-0.007 0.0408,-0.013 0.06051,-0.02009 0.02392,-0.0083 0.04785,-0.01537 0.07177,-0.02365 0.0098,-0.0035 0.01829,-0.0058 0.02814,-0.0094 0.01266,-0.0047 0.02392,-0.0083 0.03658,-0.01301 0.02111,-0.007 0.04222,-0.01537 0.06333,-0.02246 0.0197,-0.007 0.03799,-0.01418 0.0577,-0.02009 0.0014,0 0.0028,-0.0012 0.0043,-0.0012 0.01121,-0.0035 0.02251,-0.0083 0.03377,-0.01183 0.0098,-0.0035 0.0197,-0.0071 0.02955,-0.01063 0.0043,-0.0023 0.0098,-0.0035 0.01548,-0.0058 0.0056,-0.0023 0.0098,-0.0035 0.01548,-0.0058 0.02955,-0.01063 0.0591,-0.02246 0.08865,-0.03311 0.01121,-0.0047 0.02251,-0.0083 0.03379,-0.01299 0.02674,-0.01063 0.05348,-0.02009 0.0788,-0.03073 0.0056,-0.0023 0.01121,-0.0047 0.01688,-0.007 0.0056,-0.0023 0.01121,-0.0047 0.01829,-0.0071 0.01266,-0.0047 0.02674,-0.01063 0.0394,-0.01537 0.04644,-0.01893 0.09288,-0.03783 0.13791,-0.05792 0.0014,0 0.0014,-0.0012 0.0028,-0.0012 h 0.0014 c 0.0014,-0.0012 0.0028,-0.0012 0.0043,-0.0023 0.04222,-0.01774 0.08302,-0.03664 0.123838,-0.05438 0.01266,-0.0058 0.02392,-0.01063 0.03658,-0.01655 0.0043,-0.0023 0.0085,-0.0035 0.01266,-0.0058 0.0056,-0.0023 0.01121,-0.0047 0.01688,-0.007 0.02392,-0.01183 0.04785,-0.02246 0.07177,-0.03429 0.0085,-0.0047 0.01829,-0.0083 0.02674,-0.01301 0.0197,-0.0094 0.0394,-0.02009 0.0591,-0.02955 0.0043,-0.0023 0.0098,-0.0047 0.01407,-0.0071 0.0028,-0.0012 0.0071,-0.0035 0.0098,-0.0047 0.01121,-0.0058 0.02251,-0.01182 0.03517,-0.01774 0.0085,-0.0047 0.01829,-0.0094 0.02674,-0.01418 0.02674,-0.01418 0.05348,-0.02837 0.0788,-0.04138 0.0071,-0.0035 0.01266,-0.0071 0.0197,-0.01063 0.0071,-0.0047 0.01548,-0.0083 0.02251,-0.01301 0.03659,-0.02009 0.07177,-0.04019 0.106945,-0.06029 0.0014,-0.0012 0.0014,-0.0012 0.0028,-0.0023 0.0014,-0.0012 0.0028,-0.0023 0.0043,-0.0035 0.0014,-0.0012 0.0028,-0.0023 0.0043,-0.0023 0.0028,-0.0023 0.007,-0.0047 0.0098,-0.0058 0.02674,-0.01537 0.05207,-0.03192 0.07739,-0.04729 0.0098,-0.0058 0.01829,-0.01182 0.02674,-0.01774 0.0043,-0.0023 0.0085,-0.0058 0.01266,-0.0083 0.0043,-0.0023 0.0071,-0.0047 0.01121,-0.0071 0.01829,-0.01183 0.03517,-0.02365 0.05207,-0.03429 0.0071,-0.0047 0.01266,-0.0083 0.0197,-0.01299 0.01407,-0.0094 0.02674,-0.01893 0.0394,-0.02837 0.0043,-0.0023 0.0085,-0.0047 0.01121,-0.0083 0.0028,-0.0023 0.0056,-0.0047 0.0085,-0.0058 0.0098,-0.0071 0.01829,-0.01301 0.02814,-0.02009 0.0071,-0.0047 0.01266,-0.0094 0.0197,-0.01418 0.01829,-0.01301 0.03517,-0.02601 0.05208,-0.04019 0.0056,-0.0035 0.0098,-0.0083 0.01547,-0.01183 0.0071,-0.0047 0.01266,-0.01063 0.0197,-0.01537 0.02533,-0.02128 0.05067,-0.04256 0.07458,-0.06384 v 0 0 l 0.0014,-0.0012 v 0 c 0.02251,-0.02009 0.04504,-0.04138 0.06614,-0.06147 0.0056,-0.0058 0.01121,-0.01183 0.01829,-0.01774 0.0043,-0.0035 0.0085,-0.0083 0.01121,-0.01182 0.01407,-0.013 0.02674,-0.02719 0.03941,-0.04138 0.0043,-0.0047 0.0085,-0.0094 0.01266,-0.01301 0.0071,-0.007 0.01407,-0.01537 0.0197,-0.02246 0.0014,-0.0023 0.0043,-0.0047 0.0071,-0.007 0.0028,-0.0023 0.0043,-0.0047 0.0056,-0.0071 0.0071,-0.0094 0.01548,-0.01774 0.02251,-0.02719 0.0043,-0.0047 0.0085,-0.0094 0.01121,-0.01537 0.0098,-0.013 0.0197,-0.02482 0.02955,-0.03783 0.0028,-0.0035 0.0056,-0.0083 0.0085,-0.01183 0,-0.0012 0.0014,-0.0012 0.0014,-0.0023 0.0043,-0.0058 0.0085,-0.01183 0.01266,-0.01774 0.01407,-0.02128 0.02814,-0.04256 0.04081,-0.06384 v 0 0 -0.0012 c 0,-0.0012 0.0014,-0.0023 0.0014,-0.0023 0.01266,-0.02128 0.02392,-0.04138 0.03377,-0.06265 0.0028,-0.0058 0.0056,-0.01182 0.0085,-0.01891 0,-0.0012 0.0014,-0.0023 0.0014,-0.0035 0.0014,-0.0035 0.0028,-0.0071 0.0043,-0.01063 0.0056,-0.013 0.01121,-0.02719 0.01688,-0.04019 0.0014,-0.0047 0.0043,-0.0094 0.0056,-0.01418 0.0043,-0.01063 0.0071,-0.02009 0.01121,-0.03073 0.0014,-0.0023 0.0028,-0.0047 0.0028,-0.0083 0.0014,-0.0035 0.0014,-0.007 0.0028,-0.01063 0.0014,-0.0058 0.0028,-0.01063 0.0056,-0.01655 0.0014,-0.0035 0.0014,-0.007 0.0028,-0.01182 0.0028,-0.0083 0.0043,-0.01537 0.0056,-0.02364 0.0014,-0.0083 0.0043,-0.01655 0.0056,-0.02365 0.0014,-0.0058 0.0028,-0.01183 0.0043,-0.01774 0,-0.0023 0.0014,-0.0058 0.0014,-0.0083 v -0.0012 c 0.0014,-0.0083 0.0028,-0.01655 0.0043,-0.02482 0.0014,-0.0094 0.0028,-0.01893 0.0028,-0.02837 0,-0.0047 0.0014,-0.0094 0.0014,-0.01301 0,-0.0012 0,-0.0023 0,-0.0035 0,-0.0023 0,-0.0047 0,-0.0071 0,-0.0047 0.0014,-0.0083 0.0014,-0.01301 0,-0.0094 0,-0.02009 0,-0.02956 v 0 z"
   inkscape:connector-curvature="0"
   style="fill:url(#XMLID_12_);stroke-width:1.28982031" />
<linearGradient
   id="XMLID_13_"
   gradientUnits="userSpaceOnUse"
   x1="24.000601"
   y1="25.909401"
   x2="24.000601"
   y2="20.710899"
   gradientTransform="matrix(1.40724,0,0,-1.182198,-8.6561334,50.978001)">
	<stop
   offset="0"
   style="stop-color:#00FFFF"
   id="stop85" />
	<stop
   offset="1"
   style="stop-color:#107587"
   id="stop87" />
</linearGradient>
<path
   id="XMLID_1117_"
   class="st12"
   d="m 30.916863,26.187311 c -0.980847,0.111127 -1.989837,0.191516 -3.008679,0.239987 -0.353218,0.01655 -0.709249,0.03192 -1.062466,0.04256 -5.453054,0.159597 -10.994767,-0.492977 -13.551721,-1.714187 -3.201472,-1.528582 -0.502385,-3.365719 6.027208,-4.102227 1.117349,-0.125313 2.275507,-0.213979 3.443516,-0.260084 h 0.0098 c 0.0028,0 0.0028,0 0.0071,0 h 0.01407 c 0.0028,-0.0023 0.0028,-0.0023 0.0071,-0.0023 h 0.03095 c 0.0028,0 0.0028,0 0.0071,0 h 0.01407 c 0.326478,-0.01655 0.655773,-0.02601 0.980845,-0.03192 h 0.0098 c 0.0028,0 0.0028,0 0.0071,0 h 0.01407 c 0.0028,0 0.0028,0 0.0071,0 h 0.01407 c 0.0028,0 0.0028,0 0.0071,0 h 0.0098 c 0.0028,-0.0023 0.0028,-0.0023 0.0071,0 0.0028,-0.0023 0.0098,-0.0023 0.01407,0 5.27715,-0.105211 10.547263,0.544993 13.018377,1.722463 3.198657,1.529764 0.502385,3.3669 -6.027209,4.105773 z"
   inkscape:connector-curvature="0"
   style="fill:url(#XMLID_13_);stroke-width:1.28982031" />
<g
   id="XMLID_902_"
   transform="matrix(1.40724,0,0,1.182198,-8.6561329,-6.9496991)">
	<g
   id="XMLID_1112_">
		
			<radialGradient
   id="XMLID_14_"
   cx="19.294001"
   cy="23.173"
   r="3.0648"
   gradientTransform="matrix(1,0,0,-1,0,49)"
   gradientUnits="userSpaceOnUse">
			<stop
   offset="0"
   style="stop-color:#FFFEFD"
   id="stop91" />
			<stop
   offset="1"
   style="stop-color:#00E5C4"
   id="stop93" />
		</radialGradient>
		<polygon
   id="XMLID_1116_"
   class="st13"
   points="18.018,25.933 23.602,25.699 23.483,25.488 17.899,25.722 17.689,25.35 14.986,25.952 18.228,26.304 "
   style="fill:url(#XMLID_14_)" />
		
			<radialGradient
   id="XMLID_15_"
   cx="28.706499"
   cy="23.678499"
   r="3.0652001"
   gradientTransform="matrix(1,0,0,-1,0,49)"
   gradientUnits="userSpaceOnUse">
			<stop
   offset="0"
   style="stop-color:#FFFEFD"
   id="stop97" />
			<stop
   offset="1"
   style="stop-color:#00E5C4"
   id="stop99" />
		</radialGradient>
		<polygon
   id="XMLID_1115_"
   class="st14"
   points="30.101,25.427 30.311,25.799 33.015,25.197 29.773,24.844 29.982,25.216 24.398,25.45 24.517,25.661 "
   style="fill:url(#XMLID_15_)" />
		
			<radialGradient
   id="XMLID_16_"
   cx="23.555"
   cy="24.7878"
   r="1.4457999"
   gradientTransform="matrix(1,0,0,-1,0,49)"
   gradientUnits="userSpaceOnUse">
			<stop
   offset="0"
   style="stop-color:#FFFEFD"
   id="stop103" />
			<stop
   offset="1"
   style="stop-color:#00E5C4"
   id="stop105" />
		</radialGradient>
		<path
   id="XMLID_1114_"
   class="st15"
   d="m 25.269,24.429 -0.017,0.012 -0.014,0.012 -0.014,0.01 -0.014,0.01 -0.029,0.019 -0.017,0.014 -0.014,0.01 -0.014,0.01 -1.115,0.801 -1.947,-0.673 -0.024,-0.01 -0.024,-0.007 -0.031,-0.012 -0.024,-0.007 -0.024,-0.01 -0.027,-0.007 -0.024,-0.01 -0.024,-0.01 -0.031,-0.01 1.276,-0.051 h 0.027 l 0.007,-0.002 h 0.027 l -0.784,-1.392 c 0.232,-0.014 0.466,-0.022 0.697,-0.027 h 0.007 c 0.002,0 0.002,0 0.005,0 h 0.01 c 0.002,0 0.002,0 0.005,0 h 0.01 c 0.002,0 0.002,0 0.005,0 h 0.007 c 0.002,-0.002 0.002,-0.002 0.005,0 0.002,-0.002 0.007,-0.002 0.01,0 l 0.782,1.385 z"
   inkscape:connector-curvature="0"
   style="fill:url(#XMLID_16_)" />
		
			<radialGradient
   id="XMLID_17_"
   cx="24.790501"
   cy="21.977501"
   r="1.4622"
   gradientTransform="matrix(1,0,0,-1,0,49)"
   gradientUnits="userSpaceOnUse">
			<stop
   offset="0"
   style="stop-color:#FFFEFD"
   id="stop109" />
			<stop
   offset="1"
   style="stop-color:#00E5C4"
   id="stop111" />
		</radialGradient>
		<path
   id="XMLID_1113_"
   class="st16"
   d="m 25.17,26.679 0.825,1.462 c -0.251,0.014 -0.504,0.027 -0.755,0.036 l -0.828,-1.467 -1.337,0.056 1.25,-0.898 2.181,0.753 z"
   inkscape:connector-curvature="0"
   style="fill:url(#XMLID_17_)" />
	</g>
	<g
   id="XMLID_1106_">
		
			<radialGradient
   id="XMLID_18_"
   cx="19.2925"
   cy="23.1625"
   r="3.0652001"
   gradientTransform="matrix(1,0,0,-1,0,49)"
   gradientUnits="userSpaceOnUse">
			<stop
   offset="0"
   style="stop-color:#FFFEFD"
   id="stop116" />
			<stop
   offset="1"
   style="stop-color:#00E5C4"
   id="stop118" />
		</radialGradient>
		<polygon
   id="XMLID_1111_"
   class="st17"
   points="18.017,25.943 23.601,25.709 23.482,25.498 17.898,25.732 17.688,25.36 14.984,25.962 18.226,26.315 "
   style="fill:url(#XMLID_18_)" />
		
			<radialGradient
   id="XMLID_19_"
   cx="28.7045"
   cy="23.668501"
   r="3.0652001"
   gradientTransform="matrix(1,0,0,-1,0,49)"
   gradientUnits="userSpaceOnUse">
			<stop
   offset="0"
   style="stop-color:#FFFEFD"
   id="stop122" />
			<stop
   offset="1"
   style="stop-color:#00E5C4"
   id="stop124" />
		</radialGradient>
		<polygon
   id="XMLID_1110_"
   class="st18"
   points="30.1,25.437 30.31,25.809 33.013,25.207 29.771,24.854 29.981,25.226 24.396,25.46 24.515,25.671 "
   style="fill:url(#XMLID_19_)" />
		
			<radialGradient
   id="XMLID_20_"
   cx="22.3664"
   cy="25.9098"
   r="0.0062000002"
   gradientTransform="matrix(1,0,0,-1,0,49)"
   gradientUnits="userSpaceOnUse">
			<stop
   offset="0"
   style="stop-color:#FFFEFD"
   id="stop128" />
			<stop
   offset="1"
   style="stop-color:#00E5C4"
   id="stop130" />
		</radialGradient>
		<polygon
   id="XMLID_1109_"
   class="st19"
   points="22.359,23.088 22.366,23.085 22.374,23.095 22.364,23.095 "
   style="fill:url(#XMLID_20_)" />
		
			<radialGradient
   id="XMLID_21_"
   cx="23.551001"
   cy="24.781799"
   r="1.4493001"
   gradientTransform="matrix(1,0,0,-1,0,49)"
   gradientUnits="userSpaceOnUse">
			<stop
   offset="0"
   style="stop-color:#FFFEFD"
   id="stop134" />
			<stop
   offset="1"
   style="stop-color:#00E5C4"
   id="stop136" />
		</radialGradient>
		<path
   id="XMLID_1108_"
   class="st20"
   d="m 25.267,24.441 -0.029,0.019 -0.014,0.012 -0.014,0.01 -0.012,0.01 -0.019,0.012 -0.014,0.012 -0.014,0.01 -1.132,0.813 -1.976,-0.685 -0.027,-0.007 -0.024,-0.01 -0.029,-0.01 -0.027,-0.01 -0.026,-0.007 -0.024,-0.01 -0.027,-0.007 -0.024,-0.01 0.034,-0.002 1.25,-0.051 h 0.019 l 0.007,-0.002 h 0.027 l -0.005,-0.01 -0.787,-1.392 h 0.01 c 0.232,-0.014 0.466,-0.022 0.697,-0.027 h 0.007 c 0.002,0 0.002,0 0.005,0 h 0.01 c 0.002,0 0.002,0 0.005,0 h 0.01 c 0.002,0 0.002,0 0.005,0 h 0.007 c 0.002,-0.002 0.002,-0.002 0.005,0 l 0.789,1.397 1.322,-0.055 c 0,0 0.015,0 0.015,0 z"
   inkscape:connector-curvature="0"
   style="fill:url(#XMLID_21_)" />
		
			<radialGradient
   id="XMLID_22_"
   cx="24.789499"
   cy="21.966499"
   r="1.4622"
   gradientTransform="matrix(1,0,0,-1,0,49)"
   gradientUnits="userSpaceOnUse">
			<stop
   offset="0"
   style="stop-color:#FFFEFD"
   id="stop140" />
			<stop
   offset="1"
   style="stop-color:#00E5C4"
   id="stop142" />
		</radialGradient>
		<path
   id="XMLID_1107_"
   class="st21"
   d="m 25.169,26.69 0.825,1.462 c -0.251,0.014 -0.504,0.027 -0.755,0.036 l -0.828,-1.467 -1.337,0.056 1.25,-0.898 2.181,0.753 z"
   inkscape:connector-curvature="0"
   style="fill:url(#XMLID_22_)" />
	</g>
	<g
   id="XMLID_1100_">
		
			<radialGradient
   id="XMLID_23_"
   cx="19.2915"
   cy="23.1525"
   r="3.0652001"
   gradientTransform="matrix(1,0,0,-1,0,49)"
   gradientUnits="userSpaceOnUse">
			<stop
   offset="0"
   style="stop-color:#FFFEFD"
   id="stop147" />
			<stop
   offset="1"
   style="stop-color:#00E5C4"
   id="stop149" />
		</radialGradient>
		<polygon
   id="XMLID_1105_"
   class="st22"
   points="18.015,25.953 23.6,25.719 23.481,25.508 17.896,25.742 17.687,25.37 14.983,25.972 18.225,26.325 "
   style="fill:url(#XMLID_23_)" />
		
			<radialGradient
   id="XMLID_24_"
   cx="28.703501"
   cy="23.658001"
   r="3.0652001"
   gradientTransform="matrix(1,0,0,-1,0,49)"
   gradientUnits="userSpaceOnUse">
			<stop
   offset="0"
   style="stop-color:#FFFEFD"
   id="stop153" />
			<stop
   offset="1"
   style="stop-color:#00E5C4"
   id="stop155" />
		</radialGradient>
		<polygon
   id="XMLID_1104_"
   class="st23"
   points="30.099,25.447 30.308,25.819 33.012,25.217 29.77,24.865 29.98,25.236 24.395,25.47 24.514,25.681 "
   style="fill:url(#XMLID_24_)" />
		
			<radialGradient
   id="XMLID_25_"
   cx="22.3664"
   cy="25.9098"
   r="0.0062000002"
   gradientTransform="matrix(1,0,0,-1,0,49)"
   gradientUnits="userSpaceOnUse">
			<stop
   offset="0"
   style="stop-color:#FFFEFD"
   id="stop159" />
			<stop
   offset="1"
   style="stop-color:#00E5C4"
   id="stop161" />
		</radialGradient>
		<polygon
   id="XMLID_1103_"
   class="st24"
   points="22.359,23.088 22.366,23.085 22.374,23.095 22.364,23.095 "
   style="fill:url(#XMLID_25_)" />
		
			<radialGradient
   id="XMLID_26_"
   cx="23.551001"
   cy="24.775499"
   r="1.4511"
   gradientTransform="matrix(1,0,0,-1,0,49)"
   gradientUnits="userSpaceOnUse">
			<stop
   offset="0"
   style="stop-color:#FFFEFD"
   id="stop165" />
			<stop
   offset="1"
   style="stop-color:#00E5C4"
   id="stop167" />
		</radialGradient>
		<path
   id="XMLID_1102_"
   class="st25"
   d="m 25.267,24.451 -0.014,0.01 -0.014,0.01 -0.014,0.012 -0.014,0.01 -0.017,0.012 -0.014,0.01 -0.014,0.012 -1.146,0.823 -2.003,-0.693 -0.024,-0.01 -0.024,-0.007 -0.031,-0.012 -0.028,-0.008 -0.024,-0.01 -0.027,-0.007 -0.024,-0.01 h 0.024 l 0.034,-0.002 1.231,-0.051 h 0.012 l 0.01,-0.002 h 0.027 l -0.005,-0.01 -0.005,-0.01 -0.787,-1.392 c 0.002,0 0.002,0 0.005,0 h 0.01 c 0.232,-0.014 0.466,-0.022 0.697,-0.027 h 0.007 c 0.002,0 0.002,0 0.005,0 h 0.01 c 0.002,0 0.002,0 0.005,0 h 0.01 c 0.002,0 0.002,0 0.005,0 h 0.007 l 0.794,1.407 1.308,-0.053 0.014,-0.002 c 0,0 0.014,0 0.014,0 z"
   inkscape:connector-curvature="0"
   style="fill:url(#XMLID_26_)" />
		
			<radialGradient
   id="XMLID_27_"
   cx="24.7875"
   cy="21.956499"
   r="1.4622"
   gradientTransform="matrix(1,0,0,-1,0,49)"
   gradientUnits="userSpaceOnUse">
			<stop
   offset="0"
   style="stop-color:#FFFEFD"
   id="stop171" />
			<stop
   offset="1"
   style="stop-color:#00E5C4"
   id="stop173" />
		</radialGradient>
		<path
   id="XMLID_1101_"
   class="st26"
   d="m 25.167,26.7 0.825,1.462 c -0.251,0.014 -0.504,0.027 -0.755,0.036 l -0.828,-1.467 -1.337,0.056 1.25,-0.898 2.181,0.753 z"
   inkscape:connector-curvature="0"
   style="fill:url(#XMLID_27_)" />
	</g>
	<g
   id="XMLID_1094_">
		
			<radialGradient
   id="XMLID_28_"
   cx="19.290001"
   cy="23.1425"
   r="3.0648999"
   gradientTransform="matrix(1,0,0,-1,0,49)"
   gradientUnits="userSpaceOnUse">
			<stop
   offset="0"
   style="stop-color:#FFFEFD"
   id="stop178" />
			<stop
   offset="1"
   style="stop-color:#00E5C4"
   id="stop180" />
		</radialGradient>
		<polygon
   id="XMLID_1099_"
   class="st27"
   points="18.014,25.963 23.598,25.729 23.479,25.518 17.895,25.752 17.685,25.38 14.982,25.982 18.224,26.335 "
   style="fill:url(#XMLID_28_)" />
		
			<radialGradient
   id="XMLID_29_"
   cx="28.702499"
   cy="23.648001"
   r="3.0652001"
   gradientTransform="matrix(1,0,0,-1,0,49)"
   gradientUnits="userSpaceOnUse">
			<stop
   offset="0"
   style="stop-color:#FFFEFD"
   id="stop184" />
			<stop
   offset="1"
   style="stop-color:#00E5C4"
   id="stop186" />
		</radialGradient>
		<polygon
   id="XMLID_1098_"
   class="st28"
   points="30.097,25.457 30.307,25.829 33.011,25.227 29.769,24.875 29.978,25.246 24.394,25.48 24.513,25.691 "
   style="fill:url(#XMLID_29_)" />
		
			<radialGradient
   id="XMLID_30_"
   cx="22.3664"
   cy="25.9098"
   r="0.0062000002"
   gradientTransform="matrix(1,0,0,-1,0,49)"
   gradientUnits="userSpaceOnUse">
			<stop
   offset="0"
   style="stop-color:#FFFEFD"
   id="stop190" />
			<stop
   offset="1"
   style="stop-color:#00E5C4"
   id="stop192" />
		</radialGradient>
		<polygon
   id="XMLID_1097_"
   class="st29"
   points="22.359,23.088 22.366,23.085 22.374,23.095 22.364,23.095 "
   style="fill:url(#XMLID_30_)" />
		
			<radialGradient
   id="XMLID_31_"
   cx="23.549"
   cy="24.771"
   r="1.4523"
   gradientTransform="matrix(1,0,0,-1,0,49)"
   gradientUnits="userSpaceOnUse">
			<stop
   offset="0"
   style="stop-color:#FFFEFD"
   id="stop196" />
			<stop
   offset="1"
   style="stop-color:#00E5C4"
   id="stop198" />
		</radialGradient>
		<path
   id="XMLID_1096_"
   class="st30"
   d="m 25.264,24.461 -0.014,0.01 -0.014,0.01 -0.014,0.012 -0.017,0.012 -0.029,0.019 -1.161,0.835 -2.027,-0.702 -0.024,-0.007 -0.024,-0.01 -0.031,-0.01 -0.024,-0.01 -0.027,-0.007 -0.024,-0.01 h 0.027 l 0.027,-0.002 h 0.031 L 23.13,24.55 h 0.007 l 0.007,-0.002 h 0.027 l -0.005,-0.01 -0.005,-0.01 -0.007,-0.01 -0.784,-1.392 h 0.007 c 0.002,0 0.002,0 0.005,0 h 0.01 c 0.232,-0.014 0.466,-0.022 0.697,-0.027 h 0.007 c 0.002,0 0.002,0 0.005,0 h 0.01 c 0.002,0 0.002,0 0.005,0 h 0.01 c 0.002,0 0.002,0 0.005,0 l 0.799,1.416 1.296,-0.053 0.014,-0.002 h 0.024 z"
   inkscape:connector-curvature="0"
   style="fill:url(#XMLID_31_)" />
		
			<radialGradient
   id="XMLID_32_"
   cx="24.786501"
   cy="21.946501"
   r="1.4622"
   gradientTransform="matrix(1,0,0,-1,0,49)"
   gradientUnits="userSpaceOnUse">
			<stop
   offset="0"
   style="stop-color:#FFFEFD"
   id="stop202" />
			<stop
   offset="1"
   style="stop-color:#00E5C4"
   id="stop204" />
		</radialGradient>
		<path
   id="XMLID_1095_"
   class="st31"
   d="m 25.166,26.71 0.825,1.462 c -0.251,0.014 -0.504,0.027 -0.755,0.036 l -0.828,-1.467 -1.337,0.056 1.25,-0.898 2.181,0.753 z"
   inkscape:connector-curvature="0"
   style="fill:url(#XMLID_32_)" />
	</g>
	<g
   id="XMLID_1088_">
		
			<radialGradient
   id="XMLID_33_"
   cx="19.2885"
   cy="23.1325"
   r="3.0652001"
   gradientTransform="matrix(1,0,0,-1,0,49)"
   gradientUnits="userSpaceOnUse">
			<stop
   offset="0"
   style="stop-color:#FFFEFD"
   id="stop209" />
			<stop
   offset="1"
   style="stop-color:#00E5C4"
   id="stop211" />
		</radialGradient>
		<polygon
   id="XMLID_1093_"
   class="st32"
   points="18.013,25.973 23.597,25.739 23.478,25.528 17.894,25.762 17.684,25.39 14.98,25.992 18.222,26.345 "
   style="fill:url(#XMLID_33_)" />
		
			<radialGradient
   id="XMLID_34_"
   cx="28.7005"
   cy="23.638"
   r="3.0652001"
   gradientTransform="matrix(1,0,0,-1,0,49)"
   gradientUnits="userSpaceOnUse">
			<stop
   offset="0"
   style="stop-color:#FFFEFD"
   id="stop215" />
			<stop
   offset="1"
   style="stop-color:#00E5C4"
   id="stop217" />
		</radialGradient>
		<polygon
   id="XMLID_1092_"
   class="st33"
   points="30.096,25.467 30.306,25.839 33.009,25.237 29.767,24.885 29.977,25.256 24.392,25.49 24.511,25.701 "
   style="fill:url(#XMLID_34_)" />
		
			<radialGradient
   id="XMLID_35_"
   cx="22.3664"
   cy="25.9098"
   r="0.0062000002"
   gradientTransform="matrix(1,0,0,-1,0,49)"
   gradientUnits="userSpaceOnUse">
			<stop
   offset="0"
   style="stop-color:#FFFEFD"
   id="stop221" />
			<stop
   offset="1"
   style="stop-color:#00E5C4"
   id="stop223" />
		</radialGradient>
		<polygon
   id="XMLID_1091_"
   class="st34"
   points="22.359,23.088 22.366,23.085 22.374,23.095 22.364,23.095 "
   style="fill:url(#XMLID_35_)" />
		
			<radialGradient
   id="XMLID_36_"
   cx="23.5485"
   cy="24.766001"
   r="1.4541"
   gradientTransform="matrix(1,0,0,-1,0,49)"
   gradientUnits="userSpaceOnUse">
			<stop
   offset="0"
   style="stop-color:#FFFEFD"
   id="stop227" />
			<stop
   offset="1"
   style="stop-color:#00E5C4"
   id="stop229" />
		</radialGradient>
		<path
   id="XMLID_1090_"
   class="st35"
   d="m 25.264,24.47 -0.014,0.01 -0.014,0.01 -0.017,0.014 -0.029,0.019 -1.175,0.845 -2.051,-0.709 -0.024,-0.01 -0.027,-0.007 -0.029,-0.012 -0.027,-0.007 -0.024,-0.01 h 0.024 l 0.029,-0.002 h 0.024 l 0.034,-0.002 1.19,-0.048 0.01,-0.002 h 0.027 l -0.005,-0.01 -0.005,-0.01 -0.007,-0.01 -0.005,-0.01 -0.787,-1.392 h 0.014 c 0.002,0 0.002,0 0.005,0 h 0.01 c 0.232,-0.014 0.466,-0.022 0.697,-0.027 h 0.007 c 0.002,0 0.002,0 0.005,0 h 0.01 c 0.002,0 0.002,0 0.005,0 h 0.01 l 0.804,1.426 1.281,-0.053 h 0.014 l 0.014,-0.002 z"
   inkscape:connector-curvature="0"
   style="fill:url(#XMLID_36_)" />
		
			<radialGradient
   id="XMLID_37_"
   cx="24.7855"
   cy="21.936501"
   r="1.4622"
   gradientTransform="matrix(1,0,0,-1,0,49)"
   gradientUnits="userSpaceOnUse">
			<stop
   offset="0"
   style="stop-color:#FFFEFD"
   id="stop233" />
			<stop
   offset="1"
   style="stop-color:#00E5C4"
   id="stop235" />
		</radialGradient>
		<path
   id="XMLID_1089_"
   class="st36"
   d="m 25.165,26.72 0.825,1.462 c -0.251,0.014 -0.504,0.027 -0.755,0.036 l -0.828,-1.467 -1.337,0.056 1.25,-0.898 2.181,0.753 z"
   inkscape:connector-curvature="0"
   style="fill:url(#XMLID_37_)" />
	</g>
	<g
   id="XMLID_923_">
		
			<radialGradient
   id="XMLID_38_"
   cx="19.2875"
   cy="23.122499"
   r="3.0652001"
   gradientTransform="matrix(1,0,0,-1,0,49)"
   gradientUnits="userSpaceOnUse">
			<stop
   offset="0"
   style="stop-color:#FFFEFD"
   id="stop240" />
			<stop
   offset="1"
   style="stop-color:#00E5C4"
   id="stop242" />
		</radialGradient>
		<polygon
   id="XMLID_1087_"
   class="st37"
   points="18.011,25.983 23.596,25.749 23.477,25.538 17.892,25.772 17.683,25.4 14.979,26.002 18.221,26.355 "
   style="fill:url(#XMLID_38_)" />
		
			<radialGradient
   id="XMLID_39_"
   cx="28.699499"
   cy="23.628"
   r="3.0652001"
   gradientTransform="matrix(1,0,0,-1,0,49)"
   gradientUnits="userSpaceOnUse">
			<stop
   offset="0"
   style="stop-color:#FFFEFD"
   id="stop246" />
			<stop
   offset="1"
   style="stop-color:#00E5C4"
   id="stop248" />
		</radialGradient>
		<polygon
   id="XMLID_1086_"
   class="st38"
   points="30.095,25.477 30.305,25.849 33.008,25.247 29.766,24.895 29.976,25.266 24.391,25.5 24.51,25.711 "
   style="fill:url(#XMLID_39_)" />
		
			<radialGradient
   id="XMLID_40_"
   cx="22.3664"
   cy="25.9098"
   r="0.0062000002"
   gradientTransform="matrix(1,0,0,-1,0,49)"
   gradientUnits="userSpaceOnUse">
			<stop
   offset="0"
   style="stop-color:#FFFEFD"
   id="stop252" />
			<stop
   offset="1"
   style="stop-color:#00E5C4"
   id="stop254" />
		</radialGradient>
		<polygon
   id="XMLID_926_"
   class="st39"
   points="22.359,23.088 22.366,23.085 22.374,23.095 22.364,23.095 "
   style="fill:url(#XMLID_40_)" />
		
			<radialGradient
   id="XMLID_41_"
   cx="23.546499"
   cy="24.763"
   r="1.4565001"
   gradientTransform="matrix(1,0,0,-1,0,49)"
   gradientUnits="userSpaceOnUse">
			<stop
   offset="0"
   style="stop-color:#FFFEFD"
   id="stop258" />
			<stop
   offset="1"
   style="stop-color:#00E5C4"
   id="stop260" />
		</radialGradient>
		<path
   id="XMLID_925_"
   class="st40"
   d="m 25.262,24.48 -0.014,0.01 -0.017,0.014 -0.029,0.019 -1.19,0.854 -2.075,-0.719 -0.027,-0.007 -0.024,-0.01 -0.031,-0.01 -0.024,-0.01 h 0.027 l 0.027,-0.002 h 0.027 l 0.024,-0.002 h 0.034 l 1.173,-0.051 h 0.027 l -0.005,-0.01 -0.005,-0.01 -0.007,-0.01 -0.005,-0.01 -0.005,-0.007 -0.787,-1.395 h 0.022 c 0.002,0 0.002,0 0.005,0 h 0.01 c 0.232,-0.014 0.466,-0.022 0.697,-0.027 h 0.007 c 0.002,0 0.002,0 0.005,0 h 0.01 c 0.002,0 0.002,0 0.005,0 l 0.811,1.436 1.269,-0.053 h 0.029 l 0.012,-0.002 h 0.024 z"
   inkscape:connector-curvature="0"
   style="fill:url(#XMLID_41_)" />
		
			<radialGradient
   id="XMLID_42_"
   cx="24.783501"
   cy="21.9265"
   r="1.4622"
   gradientTransform="matrix(1,0,0,-1,0,49)"
   gradientUnits="userSpaceOnUse">
			<stop
   offset="0"
   style="stop-color:#FFFEFD"
   id="stop264" />
			<stop
   offset="1"
   style="stop-color:#00E5C4"
   id="stop266" />
		</radialGradient>
		<path
   id="XMLID_924_"
   class="st41"
   d="m 25.163,26.73 0.825,1.462 c -0.251,0.014 -0.504,0.027 -0.755,0.036 l -0.828,-1.467 -1.337,0.056 1.25,-0.898 2.181,0.753 z"
   inkscape:connector-curvature="0"
   style="fill:url(#XMLID_42_)" />
	</g>
	<g
   id="XMLID_918_">
		
			<radialGradient
   id="XMLID_43_"
   cx="19.285999"
   cy="23.112499"
   r="3.0648999"
   gradientTransform="matrix(1,0,0,-1,0,49)"
   gradientUnits="userSpaceOnUse">
			<stop
   offset="0"
   style="stop-color:#FFFEFD"
   id="stop271" />
			<stop
   offset="1"
   style="stop-color:#00E5C4"
   id="stop273" />
		</radialGradient>
		<polygon
   id="XMLID_922_"
   class="st42"
   points="18.01,25.993 23.594,25.759 23.475,25.549 17.891,25.782 17.681,25.41 14.978,26.012 18.22,26.365 "
   style="fill:url(#XMLID_43_)" />
		
			<radialGradient
   id="XMLID_44_"
   cx="28.6985"
   cy="23.618"
   r="3.0652001"
   gradientTransform="matrix(1,0,0,-1,0,49)"
   gradientUnits="userSpaceOnUse">
			<stop
   offset="0"
   style="stop-color:#FFFEFD"
   id="stop277" />
			<stop
   offset="1"
   style="stop-color:#00E5C4"
   id="stop279" />
		</radialGradient>
		<polygon
   id="XMLID_921_"
   class="st43"
   points="30.093,25.487 30.303,25.859 33.007,25.257 29.765,24.905 29.975,25.277 24.39,25.51 24.509,25.721 "
   style="fill:url(#XMLID_44_)" />
		
			<radialGradient
   id="XMLID_45_"
   cx="23.547001"
   cy="24.756001"
   r="1.4577"
   gradientTransform="matrix(1,0,0,-1,0,49)"
   gradientUnits="userSpaceOnUse">
			<stop
   offset="0"
   style="stop-color:#FFFEFD"
   id="stop283" />
			<stop
   offset="1"
   style="stop-color:#00E5C4"
   id="stop285" />
		</radialGradient>
		<path
   id="XMLID_920_"
   class="st44"
   d="m 25.262,24.49 -0.017,0.012 -0.014,0.012 -0.014,0.01 -1.204,0.864 -2.102,-0.726 -0.024,-0.01 -0.024,-0.01 -0.031,-0.01 h 0.024 l 0.029,-0.002 h 0.024 l 0.027,-0.002 h 0.027 l 0.031,-0.002 1.153,-0.046 h 0.022 l -0.007,-0.012 -0.005,-0.01 -0.005,-0.01 -0.005,-0.01 -0.007,-0.007 -0.005,-0.01 -0.784,-1.392 c 0.002,-0.002 0.002,-0.002 0.005,-0.002 h 0.022 c 0.002,0 0.002,0 0.005,0 h 0.01 c 0.232,-0.014 0.466,-0.022 0.697,-0.027 h 0.007 c 0.002,0 0.002,0 0.005,0 h 0.01 l 0.816,1.445 1.255,-0.053 h 0.041 l 0.014,-0.002 c 0,0 0.024,0 0.024,0 z"
   inkscape:connector-curvature="0"
   style="fill:url(#XMLID_45_)" />
		
			<radialGradient
   id="XMLID_46_"
   cx="24.782499"
   cy="21.9165"
   r="1.4622"
   gradientTransform="matrix(1,0,0,-1,0,49)"
   gradientUnits="userSpaceOnUse">
			<stop
   offset="0"
   style="stop-color:#FFFEFD"
   id="stop289" />
			<stop
   offset="1"
   style="stop-color:#00E5C4"
   id="stop291" />
		</radialGradient>
		<path
   id="XMLID_919_"
   class="st45"
   d="m 25.162,26.74 0.825,1.462 c -0.251,0.014 -0.504,0.027 -0.755,0.036 l -0.828,-1.467 -1.337,0.056 1.25,-0.898 2.181,0.753 z"
   inkscape:connector-curvature="0"
   style="fill:url(#XMLID_46_)" />
	</g>
	<g
   id="XMLID_913_">
		
			<radialGradient
   id="XMLID_47_"
   cx="19.2845"
   cy="23.101999"
   r="3.0652001"
   gradientTransform="matrix(1,0,0,-1,0,49)"
   gradientUnits="userSpaceOnUse">
			<stop
   offset="0"
   style="stop-color:#FFFEFD"
   id="stop296" />
			<stop
   offset="1"
   style="stop-color:#00E5C4"
   id="stop298" />
		</radialGradient>
		<polygon
   id="XMLID_917_"
   class="st46"
   points="18.009,26.003 23.593,25.769 23.474,25.559 17.89,25.792 17.68,25.421 14.976,26.022 18.218,26.375 "
   style="fill:url(#XMLID_47_)" />
		
			<radialGradient
   id="XMLID_48_"
   cx="28.696501"
   cy="23.608"
   r="3.0652001"
   gradientTransform="matrix(1,0,0,-1,0,49)"
   gradientUnits="userSpaceOnUse">
			<stop
   offset="0"
   style="stop-color:#FFFEFD"
   id="stop302" />
			<stop
   offset="1"
   style="stop-color:#00E5C4"
   id="stop304" />
		</radialGradient>
		<polygon
   id="XMLID_916_"
   class="st47"
   points="30.092,25.497 30.302,25.869 33.005,25.267 29.763,24.915 29.973,25.287 24.388,25.52 24.507,25.731 "
   style="fill:url(#XMLID_48_)" />
		
			<radialGradient
   id="XMLID_49_"
   cx="23.542999"
   cy="24.7505"
   r="1.4605"
   gradientTransform="matrix(1,0,0,-1,0,49)"
   gradientUnits="userSpaceOnUse">
			<stop
   offset="0"
   style="stop-color:#FFFEFD"
   id="stop308" />
			<stop
   offset="1"
   style="stop-color:#00E5C4"
   id="stop310" />
		</radialGradient>
		<path
   id="XMLID_915_"
   class="st48"
   d="m 25.259,24.502 -0.029,0.019 -1.221,0.878 -2.131,-0.738 -0.027,-0.007 -0.024,-0.01 0.034,-0.002 h 0.051 l 0.027,-0.002 h 0.027 l 0.024,-0.002 h 0.034 l 1.129,-0.048 h 0.012 l -0.005,-0.01 -0.007,-0.012 -0.005,-0.01 -0.005,-0.01 -0.007,-0.007 -0.005,-0.01 -0.005,-0.01 -0.787,-1.392 h 0.01 c 0.002,-0.002 0.002,-0.002 0.005,-0.002 h 0.022 c 0.002,0 0.002,0 0.005,0 h 0.01 c 0.232,-0.014 0.466,-0.022 0.697,-0.027 h 0.007 c 0.002,0 0.002,0 0.005,0 l 0.823,1.457 1.24,-0.051 0.014,-0.002 h 0.053 l 0.014,-0.002 c 0,0 0.015,0 0.015,0 z"
   inkscape:connector-curvature="0"
   style="fill:url(#XMLID_49_)" />
		
			<radialGradient
   id="XMLID_50_"
   cx="24.7815"
   cy="21.9065"
   r="1.4622"
   gradientTransform="matrix(1,0,0,-1,0,49)"
   gradientUnits="userSpaceOnUse">
			<stop
   offset="0"
   style="stop-color:#FFFEFD"
   id="stop314" />
			<stop
   offset="1"
   style="stop-color:#00E5C4"
   id="stop316" />
		</radialGradient>
		<path
   id="XMLID_914_"
   class="st49"
   d="m 25.161,26.75 0.825,1.462 c -0.251,0.014 -0.504,0.027 -0.755,0.036 l -0.828,-1.467 -1.337,0.056 1.25,-0.898 2.181,0.753 z"
   inkscape:connector-curvature="0"
   style="fill:url(#XMLID_50_)" />
	</g>
	<g
   id="XMLID_908_">
		
			<radialGradient
   id="XMLID_51_"
   cx="19.283501"
   cy="23.091999"
   r="3.0652001"
   gradientTransform="matrix(1,0,0,-1,0,49)"
   gradientUnits="userSpaceOnUse">
			<stop
   offset="0"
   style="stop-color:#FFFEFD"
   id="stop321" />
			<stop
   offset="1"
   style="stop-color:#00E5C4"
   id="stop323" />
		</radialGradient>
		<polygon
   id="XMLID_912_"
   class="st50"
   points="18.007,26.013 23.592,25.779 23.473,25.569 17.888,25.802 17.679,25.431 14.975,26.032 18.217,26.385 "
   style="fill:url(#XMLID_51_)" />
		
			<radialGradient
   id="XMLID_52_"
   cx="28.695499"
   cy="23.598"
   r="3.0652001"
   gradientTransform="matrix(1,0,0,-1,0,49)"
   gradientUnits="userSpaceOnUse">
			<stop
   offset="0"
   style="stop-color:#FFFEFD"
   id="stop327" />
			<stop
   offset="1"
   style="stop-color:#00E5C4"
   id="stop329" />
		</radialGradient>
		<polygon
   id="XMLID_911_"
   class="st51"
   points="30.091,25.507 30.301,25.879 33.004,25.277 29.762,24.925 29.972,25.297 24.387,25.53 24.506,25.741 "
   style="fill:url(#XMLID_52_)" />
		
			<radialGradient
   id="XMLID_53_"
   cx="23.544001"
   cy="24.745501"
   r="1.4619"
   gradientTransform="matrix(1,0,0,-1,0,49)"
   gradientUnits="userSpaceOnUse">
			<stop
   offset="0"
   style="stop-color:#FFFEFD"
   id="stop333" />
			<stop
   offset="1"
   style="stop-color:#00E5C4"
   id="stop335" />
		</radialGradient>
		<path
   id="XMLID_910_"
   class="st52"
   d="m 25.259,24.511 -0.014,0.01 -1.235,0.888 -2.157,-0.746 -0.024,-0.01 h 0.024 l 0.034,-0.002 h 0.024 l 0.029,-0.002 h 0.024 l 0.027,-0.002 h 0.024 l 0.034,-0.002 1.11,-0.046 h 0.007 l -0.01,-0.019 -0.007,-0.012 -0.005,-0.01 -0.007,-0.007 -0.005,-0.01 -0.005,-0.01 -0.005,-0.01 -0.787,-1.392 c 0.002,0 0.002,0 0.005,0 h 0.01 c 0.002,-0.002 0.002,-0.002 0.005,-0.002 h 0.022 c 0.002,0 0.002,0 0.005,0 h 0.01 c 0.232,-0.014 0.466,-0.022 0.697,-0.027 h 0.007 l 0.828,1.467 1.226,-0.051 h 0.014 l 0.014,-0.002 h 0.053 l 0.014,-0.002 z"
   inkscape:connector-curvature="0"
   style="fill:url(#XMLID_53_)" />
		
			<radialGradient
   id="XMLID_54_"
   cx="24.779499"
   cy="21.8965"
   r="1.4622"
   gradientTransform="matrix(1,0,0,-1,0,49)"
   gradientUnits="userSpaceOnUse">
			<stop
   offset="0"
   style="stop-color:#FFFEFD"
   id="stop339" />
			<stop
   offset="1"
   style="stop-color:#00E5C4"
   id="stop341" />
		</radialGradient>
		<path
   id="XMLID_909_"
   class="st53"
   d="m 25.159,26.76 0.825,1.462 c -0.251,0.014 -0.504,0.027 -0.755,0.036 l -0.828,-1.467 -1.337,0.056 1.25,-0.898 2.181,0.753 z"
   inkscape:connector-curvature="0"
   style="fill:url(#XMLID_54_)" />
	</g>
	<g
   id="XMLID_903_">
		
			<radialGradient
   id="XMLID_55_"
   cx="19.282"
   cy="23.082001"
   r="3.0648"
   gradientTransform="matrix(1,0,0,-1,0,49)"
   gradientUnits="userSpaceOnUse">
			<stop
   offset="0"
   style="stop-color:#FFFEFD"
   id="stop346" />
			<stop
   offset="1"
   style="stop-color:#00E5C4"
   id="stop348" />
		</radialGradient>
		<polygon
   id="XMLID_907_"
   class="st54"
   points="18.006,26.023 23.59,25.789 23.471,25.579 17.887,25.812 17.677,25.441 14.974,26.042 18.216,26.395 "
   style="fill:url(#XMLID_55_)" />
		
			<radialGradient
   id="XMLID_56_"
   cx="28.6945"
   cy="23.587999"
   r="3.0652001"
   gradientTransform="matrix(1,0,0,-1,0,49)"
   gradientUnits="userSpaceOnUse">
			<stop
   offset="0"
   style="stop-color:#FFFEFD"
   id="stop352" />
			<stop
   offset="1"
   style="stop-color:#00E5C4"
   id="stop354" />
		</radialGradient>
		<polygon
   id="XMLID_906_"
   class="st55"
   points="30.089,25.517 30.299,25.889 33.003,25.288 29.761,24.935 29.971,25.307 24.386,25.54 24.505,25.751 "
   style="fill:url(#XMLID_56_)" />
		
			<radialGradient
   id="XMLID_57_"
   cx="23.5415"
   cy="24.740499"
   r="1.4641"
   gradientTransform="matrix(1,0,0,-1,0,49)"
   gradientUnits="userSpaceOnUse">
			<stop
   offset="0"
   style="stop-color:#FFFEFD"
   id="stop358" />
			<stop
   offset="1"
   style="stop-color:#00E5C4"
   id="stop360" />
		</radialGradient>
		<path
   id="XMLID_905_"
   class="st56"
   d="m 25.257,24.521 -1.25,0.898 -2.181,-0.755 h 0.027 l 0.027,-0.002 h 0.031 l 0.027,-0.002 h 0.027 l 0.024,-0.002 h 0.027 l 0.027,-0.002 h 0.031 l 1.091,-0.046 -0.005,-0.01 -0.005,-0.01 -0.007,-0.01 -0.005,-0.012 -0.007,-0.007 -0.005,-0.01 -0.005,-0.01 -0.005,-0.01 -0.005,-0.01 -0.787,-1.392 h 0.007 c 0.002,0 0.002,0 0.005,0 h 0.01 c 0.002,-0.002 0.002,-0.002 0.005,-0.002 h 0.022 c 0.002,0 0.002,0 0.005,0 h 0.01 c 0.232,-0.014 0.466,-0.022 0.697,-0.027 l 0.832,1.477 1.214,-0.051 h 0.029 l 0.012,-0.002 h 0.041 l 0.014,-0.002 z"
   inkscape:connector-curvature="0"
   style="fill:url(#XMLID_57_)" />
		
			<radialGradient
   id="XMLID_58_"
   cx="24.7785"
   cy="21.886499"
   r="1.4622"
   gradientTransform="matrix(1,0,0,-1,0,49)"
   gradientUnits="userSpaceOnUse">
			<stop
   offset="0"
   style="stop-color:#FFFEFD"
   id="stop364" />
			<stop
   offset="1"
   style="stop-color:#00E5C4"
   id="stop366" />
		</radialGradient>
		<path
   id="XMLID_904_"
   class="st57"
   d="m 25.158,26.77 0.825,1.462 c -0.251,0.014 -0.504,0.027 -0.755,0.036 l -0.828,-1.467 -1.337,0.056 1.25,-0.898 2.181,0.753 z"
   inkscape:connector-curvature="0"
   style="fill:url(#XMLID_58_)" />
	</g>
</g>
<g
   id="XMLID_192_"
   class="st58"
   style="opacity:0.2"
   transform="matrix(1.4057466,0,0,1.182198,-8.6459748,-6.9496991)">
	<g
   id="XMLID_543_">
		
			<linearGradient
   id="XMLID_59_"
   gradientUnits="userSpaceOnUse"
   x1="23.585501"
   y1="3.7722001"
   x2="23.585501"
   y2="3.7709999"
   gradientTransform="matrix(1,0,0,-1,0,49)">
			<stop
   offset="0"
   style="stop-color:#498DEA"
   id="stop372" />
			<stop
   offset="1"
   style="stop-color:#020D83"
   id="stop374" />
		</linearGradient>
		<polygon
   id="XMLID_553_"
   class="st59"
   points="23.582,45.228 23.586,45.228 23.589,45.229 "
   style="fill:url(#XMLID_59_)" />
		
			<linearGradient
   id="XMLID_60_"
   gradientUnits="userSpaceOnUse"
   x1="15.413"
   y1="48.997002"
   x2="15.413"
   y2="3.74"
   gradientTransform="matrix(1,0,0,-1,0,49)">
			<stop
   offset="0.202"
   style="stop-color:#00CBD4;stop-opacity:0"
   id="stop378" />
			<stop
   offset="1"
   style="stop-color:#00F4FF"
   id="stop380" />
		</linearGradient>
		<path
   id="XMLID_551_"
   class="st60"
   d="m 24.022,45.259 v 0 c -0.019,10e-4 -0.036,0 -0.053,-10e-4 -0.019,0 -0.037,-0.002 -0.055,-0.002 H 23.907 C 23.871,45.255 23.836,45.254 23.8,45.251 23.765,45.249 23.732,45.245 23.698,45.242 23.662,45.238 23.625,45.235 23.589,45.23 c -0.002,0 -0.005,0 -0.007,-10e-4 -0.03,-0.004 -0.061,-0.007 -0.091,-0.012 -0.001,0 -0.002,0 -0.004,-10e-4 -0.005,0 -0.01,-10e-4 -0.015,-0.002 -0.03,-0.005 -0.058,-0.01 -0.087,-0.015 -0.004,-10e-4 -0.007,-10e-4 -0.011,-0.002 -0.002,0 -0.005,-0.001 -0.007,-0.001 -0.027,-0.005 -0.056,-0.01 -0.083,-0.016 -0.016,-0.004 -0.031,-0.007 -0.046,-0.011 -0.029,-0.007 -0.057,-0.014 -0.084,-0.021 -0.001,0 -0.004,-0.001 -0.005,-0.001 -0.026,-0.007 -0.051,-0.014 -0.076,-0.021 -0.03,-0.009 -0.06,-0.017 -0.088,-0.027 -0.019,-0.006 -0.037,-0.012 -0.056,-0.019 -0.03,-0.011 -0.061,-0.022 -0.091,-0.033 -0.004,-10e-4 -0.007,-0.002 -0.011,-0.004 -0.035,-0.014 -0.067,-0.027 -0.1,-0.042 -0.076,-0.032 -0.148,-0.069 -0.217,-0.109 L 7.458,36.202 C 7.162,36.031 6.967,35.824 6.874,35.604 6.859,35.567 6.847,35.53 6.838,35.492 6.834,35.478 6.831,35.466 6.828,35.454 6.821,35.419 6.817,35.385 6.814,35.35 c 0,-0.004 -0.001,-0.007 -0.001,-0.01 0,-0.004 -10e-4,-0.006 -10e-4,-0.01 L 6.808,36.528 6.804,36.526 6.839,0.003 23.998,9.647 24.009,25.344 Z"
   inkscape:connector-curvature="0"
   style="fill:url(#XMLID_60_)" />
	</g>
	<g
   id="XMLID_533_">
		
			<linearGradient
   id="XMLID_61_"
   gradientUnits="userSpaceOnUse"
   x1="23.9995"
   y1="13.675"
   x2="23.9995"
   y2="1"
   gradientTransform="matrix(1,0,0,-1,0,49)">
			<stop
   offset="0"
   style="stop-color:#498DEA"
   id="stop385" />
			<stop
   offset="1"
   style="stop-color:#020D83"
   id="stop387" />
		</linearGradient>
		<path
   id="XMLID_542_"
   class="st61"
   d="m 41.197,35.332 v 0.255 l -0.002,0.936 -0.005,1.528 v 0.02 c 0,0.015 -0.004,0.03 -0.005,0.045 -0.002,0.022 -0.004,0.046 -0.007,0.069 -10e-4,0.004 -10e-4,0.007 -10e-4,0.011 -0.004,0.015 -0.009,0.03 -0.014,0.045 -0.005,0.021 -0.011,0.043 -0.019,0.064 -10e-4,0.005 -0.002,0.01 -0.004,0.014 -0.005,0.014 -0.012,0.027 -0.019,0.04 -0.01,0.024 -0.02,0.046 -0.032,0.068 -0.002,0.006 -0.004,0.011 -0.007,0.017 -0.006,0.011 -0.015,0.021 -0.021,0.032 -0.016,0.025 -0.033,0.051 -0.052,0.076 -0.005,0.007 -0.009,0.015 -0.015,0.022 -0.014,0.017 -0.029,0.033 -0.042,0.05 -0.005,0.006 -0.01,0.012 -0.015,0.017 -0.025,0.027 -0.051,0.053 -0.078,0.079 -0.005,0.004 -0.01,0.007 -0.014,0.011 -0.021,0.019 -0.045,0.037 -0.068,0.056 -0.02,0.016 -0.038,0.032 -0.061,0.048 -0.025,0.017 -0.052,0.035 -0.078,0.052 -0.02,0.012 -0.037,0.026 -0.057,0.038 -0.009,0.005 -0.017,0.01 -0.027,0.015 L 25.6,47.63 c -0.066,0.038 -0.135,0.073 -0.207,0.105 -0.02,0.009 -0.041,0.017 -0.062,0.026 -0.056,0.024 -0.113,0.046 -0.172,0.066 -0.012,0.004 -0.025,0.01 -0.038,0.015 -0.007,0.002 -0.016,0.004 -0.025,0.006 -0.036,0.012 -0.074,0.022 -0.112,0.032 -0.03,0.007 -0.057,0.016 -0.087,0.024 -0.04,0.01 -0.081,0.017 -0.12,0.026 -0.024,0.005 -0.047,0.01 -0.071,0.015 -0.005,0 -0.009,10e-4 -0.012,10e-4 -0.082,0.015 -0.165,0.026 -0.249,0.035 -0.006,10e-4 -0.012,0.002 -0.019,0.002 -0.02,0.002 -0.04,0.002 -0.06,0.004 -0.048,0.005 -0.098,0.009 -0.148,0.01 -0.011,10e-4 -0.024,0.002 -0.035,0.002 -0.02,10e-4 -0.04,0 -0.061,10e-4 H 23.958 C 23.939,48 23.921,47.998 23.902,47.998 23.865,47.997 23.828,47.994 23.792,47.992 23.775,47.991 23.759,47.991 23.742,47.99 23.725,47.989 23.707,47.985 23.69,47.984 23.653,47.98 23.617,47.977 23.581,47.972 23.564,47.971 23.546,47.97 23.529,47.967 23.514,47.965 23.498,47.961 23.483,47.958 23.443,47.952 23.405,47.946 23.366,47.938 23.349,47.934 23.33,47.932 23.311,47.928 23.299,47.926 23.287,47.922 23.275,47.919 23.229,47.909 23.184,47.898 23.14,47.886 23.121,47.881 23.102,47.877 23.083,47.872 23.077,47.871 23.071,47.867 23.064,47.866 22.983,47.842 22.905,47.816 22.828,47.787 22.824,47.786 22.821,47.785 22.817,47.783 22.782,47.769 22.75,47.754 22.718,47.74 22.699,47.731 22.68,47.724 22.661,47.715 22.606,47.689 22.552,47.662 22.501,47.631 L 7.448,38.941 C 7.016,38.692 6.802,38.366 6.802,38.038 l 0.005,-1.515 0.004,-1.198 c 0,0.004 0.001,0.006 0.001,0.01 0.002,0.069 0.016,0.139 0.04,0.208 0.006,0.019 0.014,0.037 0.021,0.056 0.093,0.219 0.288,0.427 0.584,0.598 l 15.052,8.69 c 0.069,0.04 0.141,0.077 0.217,0.109 0.033,0.015 0.066,0.029 0.1,0.042 0.033,0.014 0.067,0.026 0.102,0.037 0.019,0.006 0.037,0.012 0.056,0.019 0.082,0.029 0.166,0.052 0.253,0.071 0.015,0.004 0.03,0.007 0.046,0.011 0.033,0.007 0.067,0.015 0.102,0.02 0.033,0.007 0.067,0.014 0.102,0.017 0.001,10e-4 0.002,10e-4 0.004,10e-4 0.03,0.005 0.061,0.009 0.091,0.012 0.002,10e-4 0.005,10e-4 0.007,10e-4 0.036,0.005 0.073,0.009 0.109,0.012 0.033,0.005 0.068,0.007 0.102,0.009 0.019,0.001 0.038,0.002 0.057,0.004 0.055,0.004 0.109,0.005 0.165,0.006 h 0.016 c 0.139,10e-4 0.277,-0.006 0.413,-0.021 0.079,-0.007 0.159,-0.02 0.237,-0.033 0.004,0 0.009,0 0.012,-10e-4 0.005,-0.001 0.01,-0.002 0.015,-0.002 0.063,-0.012 0.126,-0.025 0.188,-0.041 0.068,-0.015 0.135,-0.033 0.2,-0.055 0.048,-0.015 0.097,-0.031 0.143,-0.05 0.029,-0.011 0.055,-0.022 0.082,-0.033 0.004,-10e-4 0.006,-0.002 0.01,-0.004 0.021,-0.009 0.042,-0.017 0.063,-0.027 0.029,-0.012 0.056,-0.026 0.084,-0.04 0.041,-0.02 0.082,-0.041 0.122,-0.064 l 14.955,-8.69 c 0.03,-0.017 0.056,-0.036 0.083,-0.053 0.002,-10e-4 0.005,-0.004 0.009,-0.006 0.024,-0.016 0.047,-0.032 0.069,-0.047 0.02,-0.012 0.036,-0.027 0.055,-0.042 0.002,-0.002 0.005,-0.004 0.007,-0.006 0.019,-0.014 0.037,-0.029 0.055,-0.043 0.006,-0.005 0.011,-0.01 0.017,-0.016 0.015,-0.014 0.029,-0.027 0.043,-0.041 0.015,-0.015 0.03,-0.03 0.043,-0.045 0.001,-0.001 0.001,-0.001 0.001,-0.002 0.005,-0.005 0.01,-0.011 0.014,-0.015 0.01,-0.011 0.019,-0.022 0.027,-0.035 0.005,-0.006 0.01,-0.012 0.015,-0.019 0.006,-0.006 0.011,-0.012 0.015,-0.019 0.012,-0.015 0.021,-0.031 0.031,-0.046 0.007,-0.011 0.015,-0.021 0.021,-0.031 0.01,-0.016 0.021,-0.032 0.03,-0.048 0.022,-0.04 0.041,-0.081 0.055,-0.122 0.004,-0.011 0.006,-0.021 0.01,-0.032 0.004,-0.011 0.006,-0.022 0.009,-0.033 10e-4,-0.004 0.002,-0.009 0.004,-0.012 0.004,-0.015 0.007,-0.029 0.01,-0.043 10e-4,-0.005 10e-4,-0.011 10e-4,-0.016 0.006,-0.031 0.01,-0.062 0.011,-0.093 z"
   inkscape:connector-curvature="0"
   style="fill:url(#XMLID_61_)" />
		
			<linearGradient
   id="XMLID_62_"
   gradientUnits="userSpaceOnUse"
   x1="32.597"
   y1="48.997002"
   x2="32.597"
   y2="3.7439001"
   gradientTransform="matrix(1,0,0,-1,0,49)">
			<stop
   offset="0.202"
   style="stop-color:#00CBD4;stop-opacity:0"
   id="stop391" />
			<stop
   offset="1"
   style="stop-color:#00F4FF"
   id="stop393" />
		</linearGradient>
		<path
   id="XMLID_541_"
   class="st62"
   d="m 41.197,35.332 c -0.001,0.031 -0.005,0.062 -0.011,0.092 0,0.005 0,0.011 -10e-4,0.016 -0.002,0.015 -0.006,0.029 -0.01,0.043 -10e-4,0.004 -0.002,0.009 -0.004,0.012 -0.002,0.011 -0.006,0.022 -0.009,0.033 -0.004,0.011 -0.006,0.021 -0.01,0.032 -0.014,0.041 -0.032,0.082 -0.055,0.122 -0.009,0.016 -0.02,0.032 -0.03,0.048 -0.006,0.01 -0.014,0.02 -0.021,0.031 -0.01,0.015 -0.019,0.031 -0.031,0.046 -0.004,0.006 -0.009,0.012 -0.015,0.019 -0.005,0.006 -0.01,0.012 -0.015,0.019 -0.009,0.012 -0.017,0.024 -0.027,0.035 -0.004,0.004 -0.009,0.01 -0.014,0.015 0,10e-4 0,10e-4 -0.001,0.002 -0.014,0.015 -0.029,0.03 -0.043,0.045 -0.015,0.014 -0.029,0.027 -0.043,0.041 -0.006,0.006 -0.011,0.011 -0.017,0.016 -0.017,0.015 -0.036,0.03 -0.055,0.043 -0.002,0.002 -0.005,0.004 -0.007,0.006 -0.017,0.014 -0.036,0.027 -0.055,0.042 -0.022,0.015 -0.046,0.031 -0.069,0.047 -0.004,0.002 -0.006,0.005 -0.009,0.006 -0.027,0.017 -0.053,0.036 -0.083,0.053 l -14.955,8.69 c -0.04,0.024 -0.081,0.045 -0.122,0.064 -0.029,0.014 -0.056,0.027 -0.084,0.04 -0.021,0.01 -0.042,0.019 -0.063,0.027 -0.004,10e-4 -0.006,0.002 -0.01,0.004 -0.027,0.011 -0.053,0.022 -0.082,0.033 -0.046,0.019 -0.094,0.035 -0.143,0.05 -0.037,0.011 -0.076,0.021 -0.113,0.032 -0.029,0.007 -0.057,0.016 -0.087,0.022 -0.062,0.016 -0.125,0.029 -0.188,0.041 -0.005,0 -0.01,0.001 -0.015,0.002 -0.004,10e-4 -0.009,10e-4 -0.012,10e-4 -0.078,0.014 -0.157,0.026 -0.237,0.033 -0.136,0.015 -0.274,0.022 -0.413,0.021 V 45.255 L 24.016,25.34 23.997,9.647 41.163,0.003 41.196,35.276 Z"
   inkscape:connector-curvature="0"
   style="fill:url(#XMLID_62_)" />
		
			<linearGradient
   id="XMLID_63_"
   gradientUnits="userSpaceOnUse"
   x1="41.195999"
   y1="13.412"
   x2="41.195999"
   y2="12.476"
   gradientTransform="matrix(1,0,0,-1,0,49)">
			<stop
   offset="0.202"
   style="stop-color:#00CBD4;stop-opacity:0"
   id="stop397" />
			<stop
   offset="1"
   style="stop-color:#00F4FF"
   id="stop399" />
		</linearGradient>
		<polygon
   id="XMLID_534_"
   class="st63"
   points="41.194,36.524 41.197,35.588 41.198,36.521 "
   style="fill:url(#XMLID_63_)" />
	</g>
</g>
</svg>