<?xml version="1.0" encoding="UTF-8" standalone="no"?>
<!-- Generator: Adobe Illustrator 19.0.0, SVG Export Plug-In . SVG Version: 6.00 Build 0)  -->

<svg
   xmlns:dc="http://purl.org/dc/elements/1.1/"
   xmlns:cc="http://creativecommons.org/ns#"
   xmlns:rdf="http://www.w3.org/1999/02/22-rdf-syntax-ns#"
   xmlns:svg="http://www.w3.org/2000/svg"
   xmlns="http://www.w3.org/2000/svg"
   xmlns:sodipodi="http://sodipodi.sourceforge.net/DTD/sodipodi-0.dtd"
   xmlns:inkscape="http://www.inkscape.org/namespaces/inkscape"
   version="1.1"
   id="图层_1"
   x="0px"
   y="0px"
   viewBox="0 0 50 50"
   xml:space="preserve"
   sodipodi:docname="switch-32-e1.svg"
   width="50"
   height="50"
   inkscape:version="0.92.4 (5da689c313, 2019-01-14)"><metadata
   id="metadata184"><rdf:RDF><cc:Work
       rdf:about=""><dc:format>image/svg+xml</dc:format><dc:type
         rdf:resource="http://purl.org/dc/dcmitype/StillImage" /><dc:title></dc:title></cc:Work></rdf:RDF></metadata><defs
   id="defs182" /><sodipodi:namedview
   pagecolor="#ffffff"
   bordercolor="#666666"
   borderopacity="1"
   objecttolerance="10"
   gridtolerance="10"
   guidetolerance="10"
   inkscape:pageopacity="0"
   inkscape:pageshadow="2"
   inkscape:window-width="1366"
   inkscape:window-height="706"
   id="namedview180"
   showgrid="false"
   inkscape:zoom="4.9166667"
   inkscape:cx="24"
   inkscape:cy="24"
   inkscape:window-x="-8"
   inkscape:window-y="-8"
   inkscape:window-maximized="1"
   inkscape:current-layer="图层_1" />
<g
   id="图层_4"
   transform="matrix(1.4013147,0,0,1.3050567,-4.3303156,-13.050847)">
	<g
   id="XMLID_625_">
		<g
   id="XMLID_626_"
   style="enable-background:new">
			<linearGradient
   id="XMLID_2_"
   gradientUnits="userSpaceOnUse"
   x1="20.8943"
   y1="35.291401"
   x2="20.8943"
   y2="47.999901">
				<stop
   offset="0"
   style="stop-color:#FFBC89"
   id="stop2" />
				<stop
   offset="1"
   style="stop-color:#E60012"
   id="stop4" />
			</linearGradient>
			<path
   id="XMLID_629_"
   style="fill:url(#XMLID_2_)"
   d="m 38.086,35.368 c -0.002,0.023 -0.004,0.046 -0.008,0.069 -0.003,0.019 -0.009,0.037 -0.014,0.056 -0.006,0.022 -0.011,0.044 -0.019,0.066 -0.006,0.018 -0.015,0.036 -0.022,0.053 -0.01,0.023 -0.02,0.046 -0.032,0.068 -0.009,0.016 -0.019,0.032 -0.029,0.049 -0.016,0.026 -0.033,0.051 -0.051,0.076 -0.018,0.024 -0.037,0.048 -0.058,0.072 -0.005,0.006 -0.009,0.011 -0.014,0.017 -0.028,0.031 -0.059,0.061 -0.092,0.09 -0.021,0.019 -0.044,0.037 -0.067,0.056 -0.02,0.016 -0.04,0.033 -0.061,0.048 -0.025,0.018 -0.052,0.035 -0.079,0.052 -0.028,0.018 -0.054,0.036 -0.083,0.054 L 22.5,44.885 c -0.066,0.038 -0.135,0.072 -0.207,0.104 -0.021,0.009 -0.042,0.018 -0.063,0.027 -0.056,0.023 -0.113,0.045 -0.172,0.065 -0.021,0.007 -0.041,0.015 -0.063,0.022 -0.037,0.012 -0.075,0.022 -0.113,0.032 -0.029,0.008 -0.057,0.016 -0.086,0.023 -0.04,0.01 -0.081,0.018 -0.121,0.026 -0.027,0.006 -0.055,0.012 -0.082,0.017 -0.082,0.014 -0.165,0.026 -0.249,0.035 -0.026,0.003 -0.052,0.004 -0.078,0.007 -0.049,0.004 -0.098,0.008 -0.148,0.01 -0.032,10e-4 -0.063,0.002 -0.095,0.003 -0.04,10e-4 -0.08,10e-4 -0.12,10e-4 -0.034,0 -0.067,-10e-4 -0.1,-0.003 -0.037,-10e-4 -0.074,-0.003 -0.111,-0.006 -0.034,-0.002 -0.068,-0.005 -0.101,-0.008 -0.036,-0.004 -0.073,-0.008 -0.109,-0.012 -0.033,-0.004 -0.065,-0.009 -0.098,-0.014 -0.039,-0.006 -0.078,-0.013 -0.116,-0.02 -0.03,-0.006 -0.061,-0.012 -0.091,-0.018 -0.046,-0.01 -0.091,-0.021 -0.136,-0.033 -0.025,-0.007 -0.05,-0.013 -0.075,-0.02 -0.08,-0.023 -0.159,-0.05 -0.235,-0.079 -0.038,-0.015 -0.074,-0.031 -0.111,-0.047 -0.019,-0.008 -0.038,-0.016 -0.057,-0.025 -0.055,-0.026 -0.109,-0.054 -0.161,-0.084 L 4.35,36.198 C 3.918,35.949 3.703,35.622 3.704,35.295 L 3.696,38.04 c -0.001,0.327 0.215,0.654 0.646,0.903 l 15.052,8.69 c 0.052,0.03 0.105,0.058 0.161,0.084 0.018,0.009 0.038,0.016 0.057,0.025 0.033,0.015 0.065,0.03 0.099,0.043 0.004,0.002 0.008,0.003 0.012,0.004 0.076,0.03 0.155,0.056 0.235,0.079 0.006,0.002 0.012,0.005 0.019,0.006 0.018,0.005 0.038,0.009 0.056,0.014 0.045,0.012 0.09,0.023 0.136,0.033 0.012,0.003 0.024,0.006 0.036,0.009 0.018,0.004 0.037,0.006 0.055,0.01 0.038,0.007 0.077,0.014 0.116,0.02 0.016,0.002 0.031,0.006 0.047,0.008 0.017,0.002 0.034,0.004 0.052,0.006 0.036,0.005 0.072,0.009 0.109,0.012 0.018,0.002 0.035,0.004 0.052,0.006 0.016,0.001 0.033,0.001 0.049,0.003 0.037,0.003 0.074,0.004 0.111,0.006 0.019,0.001 0.037,0.003 0.056,0.003 0.015,0 0.03,0 0.045,0 0.04,0.001 0.08,0 0.12,-10e-4 0.02,0 0.04,0 0.06,0 0.012,0 0.024,-0.002 0.035,-0.002 0.049,-0.002 0.099,-0.006 0.148,-0.01 0.02,-0.002 0.04,-0.002 0.06,-0.004 0.006,-0.001 0.012,-0.002 0.018,-0.003 0.084,-0.009 0.167,-0.02 0.249,-0.035 0.004,-10e-4 0.008,-10e-4 0.012,-0.002 0.024,-0.004 0.047,-0.01 0.071,-0.015 0.04,-0.008 0.081,-0.016 0.121,-0.026 0.029,-0.007 0.058,-0.015 0.086,-0.023 0.038,-0.01 0.076,-0.02 0.113,-0.032 0.008,-0.002 0.016,-0.004 0.024,-0.007 0.013,-0.004 0.026,-0.01 0.039,-0.015 0.059,-0.02 0.116,-0.042 0.172,-0.065 0.021,-0.009 0.042,-0.017 0.063,-0.027 0.071,-0.032 0.141,-0.066 0.207,-0.104 l 14.954,-8.691 c 0.009,-0.005 0.018,-0.01 0.027,-0.016 0.02,-0.012 0.037,-0.025 0.056,-0.038 0.027,-0.017 0.054,-0.035 0.079,-0.053 0.022,-0.016 0.041,-0.032 0.061,-0.048 0.023,-0.018 0.046,-0.037 0.067,-0.055 0.004,-0.004 0.009,-0.007 0.014,-0.011 0.028,-0.026 0.054,-0.053 0.079,-0.079 0.005,-0.006 0.009,-0.011 0.014,-0.017 0.015,-0.017 0.029,-0.033 0.043,-0.05 0.006,-0.007 0.01,-0.015 0.015,-0.022 0.019,-0.025 0.036,-0.051 0.051,-0.076 0.007,-0.011 0.015,-0.021 0.022,-0.032 0.003,-0.005 0.005,-0.011 0.008,-0.017 0.012,-0.023 0.022,-0.045 0.032,-0.068 0.006,-0.013 0.014,-0.026 0.019,-0.04 0.002,-0.005 0.002,-0.009 0.004,-0.014 0.008,-0.022 0.013,-0.044 0.019,-0.065 0.004,-0.015 0.01,-0.029 0.013,-0.044 10e-4,-0.004 10e-4,-0.008 10e-4,-0.012 0.004,-0.023 0.006,-0.046 0.008,-0.069 10e-4,-0.015 0.005,-0.03 0.005,-0.045 0,-0.006 0,-0.013 0,-0.019 l 0.008,-2.745 c -0.003,0.018 -0.007,0.04 -0.008,0.061 z"
   inkscape:connector-curvature="0" />
			<g
   id="XMLID_627_">
				<linearGradient
   id="XMLID_3_"
   gradientUnits="userSpaceOnUse"
   x1="3.7054"
   y1="35.2976"
   x2="38.091"
   y2="35.2976">
					<stop
   offset="0"
   style="stop-color:#FFBC89"
   id="stop8" />
					<stop
   offset="1"
   style="stop-color:#E60012"
   id="stop10" />
				</linearGradient>
				<path
   id="XMLID_628_"
   style="fill:url(#XMLID_3_)"
   d="m 37.444,34.401 c 0.858,0.495 0.863,1.298 0.01,1.794 L 22.5,44.885 c -0.852,0.495 -2.239,0.495 -3.097,0 L 4.351,36.195 C 3.493,35.7 3.489,34.897 4.341,34.401 L 19.295,25.71 c 0.852,-0.495 2.238,-0.495 3.096,0 z"
   inkscape:connector-curvature="0" />
			</g>
		</g>
	</g>
	<g
   id="XMLID_620_">
		<g
   id="XMLID_621_"
   style="enable-background:new">
			<linearGradient
   id="XMLID_4_"
   gradientUnits="userSpaceOnUse"
   x1="20.9562"
   y1="35.291401"
   x2="20.9562"
   y2="47.999901">
				<stop
   offset="0"
   style="stop-color:#FFBC89"
   id="stop17" />
				<stop
   offset="1"
   style="stop-color:#E60012"
   id="stop19" />
			</linearGradient>
			<path
   id="XMLID_624_"
   style="fill:url(#XMLID_4_)"
   d="m 38.147,35.368 c -0.002,0.023 -0.004,0.046 -0.008,0.069 -0.003,0.019 -0.009,0.037 -0.014,0.056 -0.006,0.022 -0.011,0.044 -0.019,0.066 -0.006,0.018 -0.015,0.036 -0.022,0.053 -0.01,0.023 -0.02,0.046 -0.032,0.068 -0.009,0.016 -0.019,0.032 -0.029,0.049 -0.016,0.026 -0.033,0.051 -0.051,0.076 -0.018,0.024 -0.037,0.048 -0.058,0.072 -0.005,0.006 -0.009,0.011 -0.015,0.017 -0.028,0.031 -0.059,0.061 -0.092,0.09 -0.021,0.019 -0.044,0.037 -0.067,0.056 -0.02,0.016 -0.04,0.033 -0.061,0.048 -0.025,0.018 -0.052,0.035 -0.079,0.052 -0.028,0.018 -0.054,0.036 -0.083,0.054 l -14.954,8.691 c -0.066,0.038 -0.135,0.072 -0.207,0.104 -0.021,0.009 -0.042,0.018 -0.063,0.027 -0.056,0.023 -0.113,0.045 -0.172,0.065 -0.021,0.007 -0.042,0.015 -0.063,0.022 -0.037,0.012 -0.075,0.022 -0.113,0.032 -0.029,0.008 -0.057,0.016 -0.086,0.023 -0.04,0.01 -0.081,0.018 -0.121,0.026 -0.027,0.006 -0.055,0.012 -0.082,0.017 -0.082,0.014 -0.165,0.026 -0.249,0.035 -0.026,0.003 -0.052,0.004 -0.078,0.007 -0.049,0.004 -0.098,0.008 -0.148,0.01 -0.032,10e-4 -0.063,0.002 -0.095,0.003 -0.04,10e-4 -0.08,10e-4 -0.12,10e-4 -0.034,0 -0.067,-10e-4 -0.1,-0.003 C 20.829,45.253 20.792,45.251 20.755,45.248 20.721,45.246 20.687,45.243 20.654,45.24 20.618,45.236 20.581,45.232 20.545,45.228 20.512,45.224 20.48,45.219 20.447,45.214 20.408,45.208 20.369,45.201 20.331,45.194 20.301,45.188 20.27,45.182 20.24,45.176 20.194,45.166 20.149,45.155 20.104,45.143 20.079,45.136 20.054,45.13 20.029,45.123 19.949,45.1 19.87,45.073 19.794,45.044 19.756,45.029 19.72,45.013 19.683,44.997 19.664,44.989 19.645,44.981 19.626,44.972 19.571,44.946 19.517,44.918 19.465,44.888 L 4.413,36.198 C 3.981,35.949 3.766,35.622 3.767,35.295 L 3.76,38.036 c -10e-4,0.327 0.215,0.654 0.646,0.903 l 15.052,8.69 c 0.052,0.03 0.105,0.058 0.161,0.084 0.018,0.009 0.038,0.016 0.057,0.025 0.033,0.015 0.065,0.03 0.099,0.043 0.004,0.002 0.008,0.003 0.012,0.004 0.076,0.03 0.155,0.056 0.235,0.079 0.006,0.002 0.012,0.005 0.019,0.006 0.018,0.005 0.038,0.009 0.056,0.014 0.045,0.012 0.09,0.023 0.136,0.033 0.012,0.003 0.024,0.006 0.036,0.009 0.018,0.004 0.037,0.006 0.055,0.01 0.038,0.007 0.077,0.014 0.116,0.02 0.016,0.002 0.031,0.006 0.047,0.008 0.017,0.002 0.034,0.004 0.052,0.006 0.036,0.005 0.072,0.009 0.109,0.012 0.018,0.002 0.035,0.004 0.052,0.006 0.016,10e-4 0.033,10e-4 0.049,0.003 0.037,0.003 0.074,0.004 0.111,0.006 0.019,10e-4 0.037,0.003 0.056,0.003 0.015,0 0.03,0 0.045,0 0.04,10e-4 0.08,0 0.12,-10e-4 0.02,0 0.04,0 0.06,0 0.012,0 0.024,-0.002 0.035,-0.002 0.049,-0.002 0.099,-0.006 0.148,-0.01 0.02,-0.002 0.04,-0.002 0.06,-0.004 0.006,-10e-4 0.012,-0.002 0.018,-0.003 0.084,-0.009 0.167,-0.02 0.249,-0.035 0.004,-10e-4 0.008,-10e-4 0.012,-0.002 0.024,-0.004 0.047,-0.01 0.071,-0.015 0.04,-0.008 0.081,-0.016 0.121,-0.026 0.029,-0.007 0.058,-0.015 0.086,-0.023 0.038,-0.01 0.076,-0.02 0.113,-0.032 0.008,-0.002 0.016,-0.004 0.024,-0.007 0.013,-0.004 0.026,-0.01 0.039,-0.015 0.059,-0.02 0.116,-0.042 0.172,-0.065 0.021,-0.009 0.042,-0.017 0.063,-0.027 0.071,-0.032 0.141,-0.066 0.207,-0.104 l 14.954,-8.691 c 0.009,-0.005 0.018,-0.01 0.027,-0.016 0.02,-0.012 0.037,-0.025 0.056,-0.038 0.027,-0.017 0.054,-0.035 0.079,-0.053 0.022,-0.016 0.041,-0.032 0.061,-0.048 0.023,-0.018 0.046,-0.037 0.067,-0.055 0.004,-0.004 0.009,-0.007 0.014,-0.011 0.028,-0.026 0.054,-0.053 0.079,-0.079 0.005,-0.006 0.009,-0.011 0.014,-0.017 0.015,-0.017 0.029,-0.033 0.043,-0.05 0.006,-0.007 0.01,-0.015 0.015,-0.022 0.019,-0.025 0.036,-0.051 0.051,-0.076 0.007,-0.011 0.015,-0.021 0.022,-0.032 0.003,-0.005 0.005,-0.011 0.008,-0.017 0.012,-0.023 0.022,-0.045 0.032,-0.068 0.006,-0.013 0.014,-0.026 0.019,-0.04 0.002,-0.005 0.002,-0.009 0.004,-0.014 0.008,-0.022 0.013,-0.044 0.019,-0.065 0.004,-0.015 0.01,-0.029 0.013,-0.044 10e-4,-0.004 10e-4,-0.008 10e-4,-0.012 0.004,-0.023 0.006,-0.046 0.008,-0.069 10e-4,-0.015 0.005,-0.03 0.005,-0.045 0,-0.006 0,-0.013 0,-0.019 l 0.008,-2.745 c -0.005,0.022 -0.009,0.044 -0.011,0.065 z"
   inkscape:connector-curvature="0" />
			<g
   id="XMLID_622_">
				<linearGradient
   id="XMLID_5_"
   gradientUnits="userSpaceOnUse"
   x1="3.7672999"
   y1="35.2976"
   x2="38.152901"
   y2="35.2976">
					<stop
   offset="0"
   style="stop-color:#FFBC89"
   id="stop23" />
					<stop
   offset="1"
   style="stop-color:#E60012"
   id="stop25" />
				</linearGradient>
				<path
   id="XMLID_623_"
   style="fill:url(#XMLID_5_)"
   d="m 37.506,34.401 c 0.858,0.495 0.863,1.298 0.01,1.794 l -14.954,8.691 c -0.852,0.495 -2.239,0.495 -3.097,0 L 4.413,36.196 C 3.555,35.701 3.551,34.898 4.403,34.402 l 14.954,-8.691 c 0.852,-0.495 2.238,-0.495 3.096,0 z"
   inkscape:connector-curvature="0" />
			</g>
		</g>
	</g>
	<g
   id="XMLID_615_">
		<g
   id="XMLID_616_"
   style="enable-background:new">
			<linearGradient
   id="XMLID_6_"
   gradientUnits="userSpaceOnUse"
   x1="20.9562"
   y1="35.291401"
   x2="20.9562"
   y2="47.999901">
				<stop
   offset="0"
   style="stop-color:#FFBC89"
   id="stop32" />
				<stop
   offset="1"
   style="stop-color:#E60012"
   id="stop34" />
			</linearGradient>
			<path
   id="XMLID_619_"
   style="fill:url(#XMLID_6_)"
   d="m 38.147,35.368 c -0.002,0.023 -0.004,0.046 -0.008,0.069 -0.003,0.019 -0.009,0.037 -0.014,0.056 -0.006,0.022 -0.011,0.044 -0.019,0.066 -0.006,0.018 -0.015,0.036 -0.022,0.053 -0.01,0.023 -0.02,0.046 -0.032,0.068 -0.009,0.016 -0.019,0.032 -0.029,0.049 -0.016,0.026 -0.033,0.051 -0.051,0.076 -0.018,0.024 -0.037,0.048 -0.058,0.072 -0.005,0.006 -0.009,0.011 -0.015,0.017 -0.028,0.031 -0.059,0.061 -0.092,0.09 -0.021,0.019 -0.044,0.037 -0.067,0.056 -0.02,0.016 -0.04,0.033 -0.061,0.048 -0.025,0.018 -0.052,0.035 -0.079,0.052 -0.028,0.018 -0.054,0.036 -0.083,0.054 l -14.954,8.691 c -0.066,0.038 -0.135,0.072 -0.207,0.104 -0.021,0.009 -0.042,0.018 -0.063,0.027 -0.056,0.023 -0.113,0.045 -0.172,0.065 -0.021,0.007 -0.042,0.015 -0.063,0.022 -0.037,0.012 -0.075,0.022 -0.113,0.032 -0.029,0.008 -0.057,0.016 -0.086,0.023 -0.04,0.01 -0.081,0.018 -0.121,0.026 -0.027,0.006 -0.055,0.012 -0.082,0.017 -0.082,0.014 -0.165,0.026 -0.249,0.035 -0.026,0.003 -0.052,0.004 -0.078,0.007 -0.049,0.004 -0.098,0.008 -0.148,0.01 -0.032,10e-4 -0.063,0.002 -0.095,0.003 -0.04,10e-4 -0.08,10e-4 -0.12,10e-4 -0.034,0 -0.067,-10e-4 -0.1,-0.003 C 20.829,45.253 20.792,45.251 20.755,45.248 20.721,45.246 20.687,45.243 20.654,45.24 20.618,45.236 20.581,45.232 20.545,45.228 20.512,45.224 20.48,45.219 20.447,45.214 20.408,45.208 20.369,45.201 20.331,45.194 20.301,45.188 20.27,45.182 20.24,45.176 20.194,45.166 20.149,45.155 20.104,45.143 20.079,45.136 20.054,45.13 20.029,45.123 19.949,45.1 19.87,45.073 19.794,45.044 19.756,45.029 19.72,45.013 19.683,44.997 19.664,44.989 19.645,44.981 19.626,44.972 19.571,44.946 19.517,44.918 19.465,44.888 L 4.413,36.198 C 3.981,35.949 3.766,35.622 3.767,35.295 L 3.76,38.036 c -10e-4,0.327 0.215,0.654 0.646,0.903 l 15.052,8.69 c 0.052,0.03 0.105,0.058 0.161,0.084 0.018,0.009 0.038,0.016 0.057,0.025 0.033,0.015 0.065,0.03 0.099,0.043 0.004,0.002 0.008,0.003 0.012,0.004 0.076,0.03 0.155,0.056 0.235,0.079 0.006,0.002 0.012,0.005 0.019,0.006 0.018,0.005 0.038,0.009 0.056,0.014 0.045,0.012 0.09,0.023 0.136,0.033 0.012,0.003 0.024,0.006 0.036,0.009 0.018,0.004 0.037,0.006 0.055,0.01 0.038,0.007 0.077,0.014 0.116,0.02 0.016,0.002 0.031,0.006 0.047,0.008 0.017,0.002 0.034,0.004 0.052,0.006 0.036,0.005 0.072,0.009 0.109,0.012 0.018,0.002 0.035,0.004 0.052,0.006 0.016,10e-4 0.033,10e-4 0.049,0.003 0.037,0.003 0.074,0.004 0.111,0.006 0.019,10e-4 0.037,0.003 0.056,0.003 0.015,0 0.03,0 0.045,0 0.04,10e-4 0.08,0 0.12,-10e-4 0.02,0 0.04,0 0.06,0 0.012,0 0.024,-0.002 0.035,-0.002 0.049,-0.002 0.099,-0.006 0.148,-0.01 0.02,-0.002 0.04,-0.002 0.06,-0.004 0.006,-10e-4 0.012,-0.002 0.018,-0.003 0.084,-0.009 0.167,-0.02 0.249,-0.035 0.004,-10e-4 0.008,-10e-4 0.012,-0.002 0.024,-0.004 0.047,-0.01 0.071,-0.015 0.04,-0.008 0.081,-0.016 0.121,-0.026 0.029,-0.007 0.058,-0.015 0.086,-0.023 0.038,-0.01 0.076,-0.02 0.113,-0.032 0.008,-0.002 0.016,-0.004 0.024,-0.007 0.013,-0.004 0.026,-0.01 0.039,-0.015 0.059,-0.02 0.116,-0.042 0.172,-0.065 0.021,-0.009 0.042,-0.017 0.063,-0.027 0.071,-0.032 0.141,-0.066 0.207,-0.104 l 14.954,-8.691 c 0.009,-0.005 0.018,-0.01 0.027,-0.016 0.02,-0.012 0.037,-0.025 0.056,-0.038 0.027,-0.017 0.054,-0.035 0.079,-0.053 0.022,-0.016 0.041,-0.032 0.061,-0.048 0.023,-0.018 0.046,-0.037 0.067,-0.055 0.004,-0.004 0.009,-0.007 0.014,-0.011 0.028,-0.026 0.054,-0.053 0.079,-0.079 0.005,-0.006 0.009,-0.011 0.014,-0.017 0.015,-0.017 0.029,-0.033 0.043,-0.05 0.006,-0.007 0.01,-0.015 0.015,-0.022 0.019,-0.025 0.036,-0.051 0.051,-0.076 0.007,-0.011 0.015,-0.021 0.022,-0.032 0.003,-0.005 0.005,-0.011 0.008,-0.017 0.012,-0.023 0.022,-0.045 0.032,-0.068 0.006,-0.013 0.014,-0.026 0.019,-0.04 0.002,-0.005 0.002,-0.009 0.004,-0.014 0.008,-0.022 0.013,-0.044 0.019,-0.065 0.004,-0.015 0.01,-0.029 0.013,-0.044 10e-4,-0.004 10e-4,-0.008 10e-4,-0.012 0.004,-0.023 0.006,-0.046 0.008,-0.069 10e-4,-0.015 0.005,-0.03 0.005,-0.045 0,-0.006 0,-0.013 0,-0.019 l 0.008,-2.745 c -0.005,0.022 -0.009,0.044 -0.011,0.065 z"
   inkscape:connector-curvature="0" />
			<g
   id="XMLID_617_">
				<linearGradient
   id="XMLID_7_"
   gradientUnits="userSpaceOnUse"
   x1="3.7672999"
   y1="35.2976"
   x2="38.152901"
   y2="35.2976">
					<stop
   offset="0"
   style="stop-color:#FFBC89"
   id="stop38" />
					<stop
   offset="1"
   style="stop-color:#E60012"
   id="stop40" />
				</linearGradient>
				<path
   id="XMLID_618_"
   style="fill:url(#XMLID_7_)"
   d="m 37.506,34.401 c 0.858,0.495 0.863,1.298 0.01,1.794 l -14.954,8.691 c -0.852,0.495 -2.239,0.495 -3.097,0 L 4.413,36.196 C 3.555,35.701 3.551,34.898 4.403,34.402 l 14.954,-8.691 c 0.852,-0.495 2.238,-0.495 3.096,0 z"
   inkscape:connector-curvature="0" />
			</g>
		</g>
	</g>
	<g
   id="XMLID_610_">
		<g
   id="XMLID_611_"
   style="enable-background:new">
			<linearGradient
   id="XMLID_8_"
   gradientUnits="userSpaceOnUse"
   x1="20.9562"
   y1="35.213299"
   x2="20.9562"
   y2="47.921799">
				<stop
   offset="0"
   style="stop-color:#FFBC89"
   id="stop47" />
				<stop
   offset="1"
   style="stop-color:#E60012"
   id="stop49" />
			</linearGradient>
			<path
   id="XMLID_614_"
   style="fill:url(#XMLID_8_)"
   d="m 38.147,35.29 c -0.002,0.023 -0.004,0.046 -0.008,0.069 -0.003,0.019 -0.009,0.037 -0.014,0.056 -0.006,0.022 -0.011,0.044 -0.019,0.066 -0.006,0.018 -0.015,0.036 -0.022,0.053 -0.01,0.023 -0.02,0.046 -0.032,0.068 -0.009,0.016 -0.019,0.032 -0.029,0.049 -0.016,0.026 -0.033,0.051 -0.051,0.076 -0.018,0.024 -0.037,0.048 -0.058,0.072 -0.005,0.006 -0.009,0.011 -0.015,0.017 -0.028,0.031 -0.059,0.061 -0.092,0.09 -0.021,0.019 -0.044,0.037 -0.067,0.056 -0.02,0.016 -0.04,0.033 -0.061,0.048 -0.025,0.018 -0.052,0.035 -0.079,0.052 -0.028,0.018 -0.054,0.036 -0.083,0.054 l -14.954,8.691 c -0.066,0.038 -0.135,0.072 -0.207,0.104 -0.021,0.009 -0.042,0.018 -0.063,0.027 -0.056,0.023 -0.113,0.045 -0.172,0.065 -0.021,0.007 -0.042,0.015 -0.063,0.022 -0.037,0.012 -0.075,0.022 -0.113,0.032 -0.029,0.008 -0.057,0.016 -0.086,0.023 -0.04,0.01 -0.081,0.018 -0.121,0.026 -0.027,0.006 -0.055,0.012 -0.082,0.017 -0.082,0.014 -0.165,0.026 -0.249,0.035 -0.026,0.003 -0.052,0.004 -0.078,0.007 -0.049,0.004 -0.098,0.008 -0.148,0.01 -0.032,0.001 -0.063,0.002 -0.095,0.003 -0.04,0.001 -0.08,0.001 -0.12,0.001 -0.034,0 -0.067,-0.001 -0.1,-0.003 C 20.829,45.175 20.792,45.173 20.755,45.17 20.721,45.168 20.687,45.165 20.654,45.162 20.618,45.158 20.581,45.154 20.545,45.15 20.512,45.146 20.48,45.141 20.447,45.136 20.408,45.13 20.369,45.123 20.331,45.116 20.301,45.11 20.27,45.104 20.24,45.098 20.194,45.088 20.149,45.077 20.104,45.065 20.079,45.058 20.054,45.052 20.029,45.045 19.949,45.022 19.87,44.995 19.794,44.966 19.756,44.951 19.72,44.935 19.683,44.919 19.664,44.911 19.645,44.903 19.626,44.894 19.571,44.868 19.517,44.84 19.465,44.81 L 4.413,36.12 C 3.981,35.871 3.766,35.544 3.767,35.217 L 3.76,37.958 c -10e-4,0.327 0.215,0.654 0.646,0.903 l 15.052,8.69 c 0.052,0.03 0.105,0.058 0.161,0.084 0.018,0.009 0.038,0.016 0.057,0.025 0.033,0.015 0.065,0.03 0.099,0.043 0.004,0.002 0.008,0.003 0.012,0.004 0.076,0.03 0.155,0.056 0.235,0.079 0.006,0.002 0.012,0.005 0.019,0.006 0.018,0.005 0.038,0.009 0.056,0.014 0.045,0.012 0.09,0.023 0.136,0.033 0.012,0.003 0.024,0.006 0.036,0.009 0.018,0.004 0.037,0.006 0.055,0.01 0.038,0.007 0.077,0.014 0.116,0.02 0.016,0.002 0.031,0.006 0.047,0.008 0.017,0.002 0.034,0.004 0.052,0.006 0.036,0.005 0.072,0.009 0.109,0.012 0.018,0.002 0.035,0.004 0.052,0.006 0.016,0.001 0.033,0.001 0.049,0.003 0.037,0.003 0.074,0.004 0.111,0.006 0.019,0.001 0.037,0.003 0.056,0.003 0.015,0 0.03,0 0.045,0 0.04,0.001 0.08,0 0.12,-10e-4 0.02,0 0.04,0 0.06,0 0.012,0 0.024,-0.002 0.035,-0.002 0.049,-0.002 0.099,-0.006 0.148,-0.01 0.02,-0.002 0.04,-0.002 0.06,-0.004 0.006,-10e-4 0.012,-0.002 0.018,-0.003 0.084,-0.009 0.167,-0.02 0.249,-0.035 0.004,-10e-4 0.008,-10e-4 0.012,-0.002 0.024,-0.004 0.047,-0.01 0.071,-0.015 0.04,-0.008 0.081,-0.016 0.121,-0.026 0.029,-0.007 0.058,-0.015 0.086,-0.023 0.038,-0.01 0.076,-0.02 0.113,-0.032 0.008,-0.002 0.016,-0.004 0.024,-0.007 0.013,-0.004 0.026,-0.01 0.039,-0.015 0.059,-0.02 0.116,-0.042 0.172,-0.065 0.021,-0.009 0.042,-0.017 0.063,-0.027 0.071,-0.032 0.141,-0.066 0.207,-0.104 L 37.513,38.86 c 0.009,-0.005 0.018,-0.01 0.027,-0.016 0.02,-0.012 0.037,-0.025 0.056,-0.038 0.027,-0.017 0.054,-0.035 0.079,-0.053 0.022,-0.016 0.041,-0.032 0.061,-0.048 0.023,-0.018 0.046,-0.037 0.067,-0.055 0.004,-0.004 0.009,-0.007 0.014,-0.011 0.028,-0.026 0.054,-0.053 0.079,-0.079 0.005,-0.006 0.009,-0.011 0.014,-0.017 0.015,-0.017 0.029,-0.033 0.043,-0.05 0.006,-0.007 0.01,-0.015 0.015,-0.022 0.019,-0.025 0.036,-0.051 0.051,-0.076 0.007,-0.011 0.015,-0.021 0.022,-0.032 0.003,-0.005 0.005,-0.011 0.008,-0.017 0.012,-0.023 0.022,-0.045 0.032,-0.068 0.006,-0.013 0.014,-0.026 0.019,-0.04 0.002,-0.005 0.002,-0.009 0.004,-0.014 0.008,-0.022 0.013,-0.044 0.019,-0.065 0.004,-0.015 0.01,-0.029 0.013,-0.044 10e-4,-0.004 10e-4,-0.008 10e-4,-0.012 0.004,-0.023 0.006,-0.046 0.008,-0.069 10e-4,-0.015 0.005,-0.03 0.005,-0.045 0,-0.006 0,-0.013 0,-0.019 l 0.008,-2.745 c -0.005,0.022 -0.009,0.043 -0.011,0.065 z"
   inkscape:connector-curvature="0" />
			<g
   id="XMLID_612_">
				<linearGradient
   id="XMLID_9_"
   gradientUnits="userSpaceOnUse"
   x1="3.7672999"
   y1="35.219398"
   x2="38.152901"
   y2="35.219398">
					<stop
   offset="0"
   style="stop-color:#FFBC89"
   id="stop53" />
					<stop
   offset="1"
   style="stop-color:#E60012"
   id="stop55" />
				</linearGradient>
				<path
   id="XMLID_613_"
   style="fill:url(#XMLID_9_)"
   d="m 37.506,34.323 c 0.858,0.495 0.863,1.298 0.01,1.794 l -14.954,8.691 c -0.852,0.495 -2.239,0.495 -3.097,0 L 4.413,36.118 C 3.555,35.623 3.551,34.82 4.403,34.324 l 14.954,-8.691 c 0.852,-0.495 2.238,-0.495 3.096,0 z"
   inkscape:connector-curvature="0" />
			</g>
		</g>
	</g>
	<g
   id="XMLID_186_">
		<g
   id="XMLID_187_"
   style="enable-background:new">
			<linearGradient
   id="XMLID_10_"
   gradientUnits="userSpaceOnUse"
   x1="20.9174"
   y1="35.291401"
   x2="20.9174"
   y2="47.999901">
				<stop
   offset="0"
   style="stop-color:#FFBC89"
   id="stop62" />
				<stop
   offset="1"
   style="stop-color:#E60012"
   id="stop64" />
			</linearGradient>
			<path
   id="XMLID_190_"
   style="fill:url(#XMLID_10_)"
   d="m 38.109,35.368 c -0.002,0.023 -0.004,0.046 -0.008,0.069 -0.003,0.019 -0.009,0.037 -0.014,0.056 -0.006,0.022 -0.011,0.044 -0.019,0.066 -0.006,0.018 -0.015,0.036 -0.022,0.053 -0.01,0.023 -0.02,0.046 -0.032,0.068 -0.009,0.016 -0.019,0.032 -0.029,0.049 -0.016,0.026 -0.033,0.051 -0.051,0.076 -0.018,0.024 -0.037,0.048 -0.058,0.072 -0.005,0.006 -0.009,0.011 -0.014,0.017 -0.028,0.031 -0.059,0.061 -0.092,0.09 -0.021,0.019 -0.044,0.037 -0.067,0.056 -0.02,0.016 -0.04,0.033 -0.061,0.048 -0.025,0.018 -0.052,0.035 -0.079,0.052 -0.028,0.018 -0.054,0.036 -0.083,0.054 l -14.954,8.691 c -0.066,0.038 -0.135,0.072 -0.207,0.104 -0.021,0.009 -0.042,0.018 -0.063,0.027 -0.056,0.023 -0.113,0.045 -0.172,0.065 -0.021,0.007 -0.041,0.015 -0.063,0.022 -0.037,0.012 -0.075,0.022 -0.113,0.032 -0.029,0.008 -0.057,0.016 -0.086,0.023 -0.04,0.01 -0.081,0.018 -0.121,0.026 -0.027,0.006 -0.055,0.012 -0.082,0.017 -0.082,0.014 -0.165,0.026 -0.249,0.035 -0.026,0.003 -0.052,0.004 -0.078,0.007 -0.049,0.004 -0.098,0.008 -0.148,0.01 -0.032,10e-4 -0.063,0.002 -0.095,0.003 -0.04,10e-4 -0.08,10e-4 -0.12,10e-4 -0.034,0 -0.067,-10e-4 -0.1,-0.003 -0.037,-10e-4 -0.074,-0.003 -0.111,-0.006 -0.034,-0.002 -0.068,-0.005 -0.101,-0.008 -0.036,-0.004 -0.073,-0.008 -0.109,-0.012 -0.033,-0.004 -0.065,-0.009 -0.098,-0.014 -0.039,-0.006 -0.078,-0.013 -0.116,-0.02 -0.03,-0.006 -0.061,-0.012 -0.091,-0.018 -0.046,-0.01 -0.091,-0.021 -0.136,-0.033 -0.025,-0.007 -0.05,-0.013 -0.075,-0.02 -0.08,-0.023 -0.159,-0.05 -0.235,-0.079 -0.038,-0.015 -0.074,-0.031 -0.111,-0.047 -0.019,-0.008 -0.038,-0.016 -0.057,-0.025 -0.055,-0.026 -0.109,-0.054 -0.161,-0.084 L 4.376,36.198 C 3.944,35.949 3.729,35.622 3.73,35.295 L 3.722,38.04 c -10e-4,0.327 0.215,0.654 0.646,0.903 l 15.052,8.69 c 0.052,0.03 0.105,0.058 0.161,0.084 0.018,0.009 0.038,0.016 0.057,0.025 0.033,0.015 0.065,0.03 0.099,0.043 0.004,0.002 0.008,0.003 0.012,0.004 0.076,0.03 0.155,0.056 0.235,0.079 0.006,0.002 0.012,0.005 0.019,0.006 0.018,0.005 0.038,0.009 0.056,0.014 0.045,0.012 0.09,0.023 0.136,0.033 0.012,0.003 0.024,0.006 0.036,0.009 0.018,0.004 0.037,0.006 0.055,0.01 0.038,0.007 0.077,0.014 0.116,0.02 0.016,0.002 0.031,0.006 0.047,0.008 0.017,0.002 0.034,0.004 0.052,0.006 0.036,0.005 0.072,0.009 0.109,0.012 0.018,0.002 0.035,0.004 0.052,0.006 0.016,0.001 0.033,0.001 0.049,0.003 0.037,0.003 0.074,0.004 0.111,0.006 0.019,0.001 0.037,0.003 0.056,0.003 0.015,0 0.03,0 0.045,0 C 20.96,48 21,48 21.04,47.999 c 0.02,0 0.04,0 0.06,0 0.012,0 0.024,-0.002 0.035,-0.002 0.049,-0.002 0.099,-0.006 0.148,-0.01 0.02,-0.002 0.04,-0.002 0.06,-0.004 0.006,-10e-4 0.012,-0.002 0.018,-0.003 0.084,-0.009 0.167,-0.02 0.249,-0.035 0.004,-10e-4 0.008,-10e-4 0.012,-0.002 0.024,-0.004 0.047,-0.01 0.071,-0.015 0.04,-0.008 0.081,-0.016 0.121,-0.026 0.029,-0.007 0.058,-0.015 0.086,-0.023 0.038,-0.01 0.076,-0.02 0.113,-0.032 0.008,-0.002 0.016,-0.004 0.024,-0.007 0.013,-0.004 0.026,-0.01 0.039,-0.015 0.059,-0.02 0.116,-0.042 0.172,-0.065 0.021,-0.009 0.042,-0.017 0.063,-0.027 0.071,-0.032 0.141,-0.066 0.207,-0.104 l 14.954,-8.691 c 0.009,-0.005 0.018,-0.01 0.027,-0.016 0.02,-0.012 0.037,-0.025 0.056,-0.038 0.027,-0.017 0.054,-0.035 0.079,-0.053 0.022,-0.016 0.041,-0.032 0.061,-0.048 0.023,-0.018 0.046,-0.037 0.067,-0.055 0.004,-0.004 0.009,-0.007 0.014,-0.011 0.028,-0.026 0.054,-0.053 0.079,-0.079 0.005,-0.006 0.009,-0.011 0.014,-0.017 0.015,-0.017 0.029,-0.033 0.043,-0.05 0.006,-0.007 0.01,-0.015 0.015,-0.022 0.019,-0.025 0.036,-0.051 0.051,-0.076 0.007,-0.011 0.015,-0.021 0.022,-0.032 0.003,-0.005 0.005,-0.011 0.008,-0.017 0.012,-0.023 0.022,-0.045 0.032,-0.068 0.006,-0.013 0.014,-0.026 0.019,-0.04 0.002,-0.005 0.002,-0.009 0.004,-0.014 0.008,-0.022 0.013,-0.044 0.019,-0.065 0.004,-0.015 0.01,-0.029 0.013,-0.044 10e-4,-0.004 10e-4,-0.008 10e-4,-0.012 0.004,-0.023 0.006,-0.046 0.008,-0.069 10e-4,-0.015 0.005,-0.03 0.005,-0.045 0,-0.006 0,-0.013 0,-0.019 l 0.008,-2.745 c -0.003,0.022 -0.006,0.044 -0.008,0.065 z"
   inkscape:connector-curvature="0" />
			<g
   id="XMLID_188_">
				<linearGradient
   id="XMLID_11_"
   gradientUnits="userSpaceOnUse"
   x1="3.7284999"
   y1="35.2976"
   x2="38.114101"
   y2="35.2976">
					<stop
   offset="0"
   style="stop-color:#FFBC89"
   id="stop68" />
					<stop
   offset="1"
   style="stop-color:#E60012"
   id="stop70" />
				</linearGradient>
				<path
   id="XMLID_189_"
   style="fill:url(#XMLID_11_)"
   d="m 37.468,34.401 c 0.858,0.495 0.863,1.298 0.01,1.794 l -14.954,8.691 c -0.852,0.495 -2.239,0.495 -3.097,0 L 4.375,36.196 C 3.517,35.701 3.513,34.898 4.365,34.402 l 14.954,-8.691 c 0.852,-0.495 2.238,-0.495 3.096,0 z"
   inkscape:connector-curvature="0" />
			</g>
		</g>
	</g>
	<linearGradient
   id="XMLID_12_"
   gradientUnits="userSpaceOnUse"
   x1="20.9174"
   y1="23.0886"
   x2="20.9174"
   y2="39.674999">
		<stop
   offset="0"
   style="stop-color:#FFBC89"
   id="stop77" />
		<stop
   offset="1"
   style="stop-color:#E60012"
   id="stop79" />
	</linearGradient>
	<path
   id="XMLID_180_"
   style="fill:url(#XMLID_12_)"
   d="m 30.269,37.073 c 0,-0.083 0,-0.166 0,-0.25 l 0.002,-0.944 c 0,-0.073 0,-0.147 0,-0.221 l 10e-4,-0.318 c 0,-0.189 0.001,-0.379 0.001,-0.572 v -0.251 c 0,-0.105 0,-0.209 0.001,-0.315 l 10e-4,-0.807 c 0,-0.265 0.001,-2.93 0.001,-3.197 l 0.001,-0.8 c 0,-0.271 10e-4,-0.54 10e-4,-0.807 l 0.001,-0.315 c 0,-0.084 0,-0.167 0,-0.251 l 0.001,-0.573 c 0,-0.106 0,-0.212 10e-4,-0.316 v -0.222 c 0.001,-0.322 0.001,-0.637 0.002,-0.942 l 10e-4,-0.269 c 0.001,-0.385 -0.307,-0.776 -0.958,-1.145 v 0 C 29.282,24.533 29.237,24.509 29.19,24.484 29.177,24.477 29.163,24.47 29.15,24.463 29.114,24.444 29.076,24.426 29.038,24.407 29.026,24.401 29.014,24.395 29.001,24.389 28.952,24.366 28.902,24.342 28.85,24.319 28.84,24.315 28.83,24.31 28.82,24.306 28.777,24.287 28.734,24.269 28.689,24.25 28.673,24.243 28.657,24.237 28.641,24.23 28.595,24.211 28.549,24.193 28.501,24.175 28.491,24.171 28.482,24.168 28.473,24.164 28.416,24.142 28.359,24.121 28.3,24.1 28.285,24.095 28.269,24.089 28.254,24.084 28.208,24.068 28.161,24.052 28.114,24.036 28.097,24.03 28.08,24.025 28.063,24.019 c -0.061,-0.02 -0.124,-0.04 -0.187,-0.06 H 27.875 C 27.866,23.956 27.857,23.954 27.848,23.951 27.804,23.937 27.76,23.924 27.715,23.911 27.695,23.905 27.676,23.9 27.656,23.894 27.62,23.884 27.585,23.873 27.549,23.863 27.526,23.857 27.503,23.85 27.481,23.844 27.447,23.835 27.413,23.825 27.379,23.816 27.355,23.81 27.33,23.803 27.306,23.797 27.273,23.788 27.239,23.78 27.205,23.771 27.197,23.769 27.188,23.767 27.18,23.765 27.155,23.759 27.129,23.752 27.104,23.746 27.086,23.742 27.068,23.737 27.05,23.733 27.002,23.722 26.955,23.71 26.906,23.699 26.9,23.698 26.894,23.696 26.887,23.695 26.832,23.682 26.777,23.67 26.722,23.658 26.705,23.654 26.688,23.651 26.671,23.647 26.641,23.64 26.611,23.634 26.581,23.627 26.575,23.626 26.569,23.624 26.562,23.623 26.483,23.606 26.403,23.59 26.323,23.574 26.306,23.571 26.29,23.568 26.273,23.564 26.204,23.551 26.134,23.537 26.064,23.524 26.052,23.522 26.04,23.519 26.028,23.517 26.021,23.516 26.013,23.514 26.006,23.513 25.929,23.499 25.851,23.485 25.772,23.472 25.76,23.47 25.747,23.468 25.735,23.466 25.667,23.455 25.599,23.443 25.53,23.433 25.519,23.431 25.508,23.429 25.496,23.428 25.483,23.426 25.469,23.424 25.456,23.422 25.399,23.413 25.341,23.404 25.283,23.396 25.261,23.393 25.24,23.39 25.218,23.386 25.14,23.375 25.061,23.364 24.981,23.353 c -0.002,0 -0.005,-0.001 -0.007,-0.001 -0.012,-0.002 -0.024,-0.003 -0.036,-0.005 -0.064,-0.009 -0.128,-0.017 -0.193,-0.025 -0.026,-0.003 -0.052,-0.006 -0.078,-0.01 -0.055,-0.007 -0.109,-0.013 -0.164,-0.02 -0.016,-0.002 -0.031,-0.004 -0.047,-0.006 -0.012,-0.001 -0.024,-0.003 -0.035,-0.004 -0.057,-0.006 -0.113,-0.013 -0.17,-0.019 -0.022,-0.002 -0.045,-0.005 -0.067,-0.007 -0.079,-0.008 -0.159,-0.016 -0.239,-0.024 -0.002,0 -0.004,0 -0.005,-10e-4 C 23.928,23.23 23.916,23.229 23.904,23.228 23.839,23.222 23.773,23.216 23.707,23.21 23.68,23.208 23.652,23.205 23.625,23.203 23.572,23.198 23.518,23.194 23.464,23.19 23.45,23.189 23.436,23.188 23.422,23.186 23.414,23.185 23.407,23.185 23.399,23.184 23.239,23.171 23.077,23.16 22.914,23.15 c -0.005,0 -0.01,-10e-4 -0.015,-10e-4 -0.003,0 -0.005,0 -0.008,0 -0.167,-0.01 -0.335,-0.019 -0.504,-0.027 -0.005,0 -0.01,-0.001 -0.014,-0.001 -0.007,0 -0.015,-10e-4 -0.022,-10e-4 -0.16,-0.007 -0.32,-0.013 -0.481,-0.018 -0.008,0 -0.017,-0.001 -0.025,-0.001 -0.007,0 -0.014,0 -0.021,0 -0.166,-0.005 -0.333,-0.008 -0.5,-0.011 -0.002,0 -0.005,0 -0.007,0 -0.001,0 -0.002,0 -0.003,0 -0.171,-0.002 -0.343,-0.003 -0.515,-0.003 -0.006,0 -0.012,0 -0.018,0 -0.008,0 -0.016,0 -0.024,0 -0.169,0.001 -0.338,0.002 -0.508,0.005 -0.007,0 -0.015,0 -0.022,0 -0.008,0 -0.016,0 -0.023,0.001 -0.089,0.002 -0.178,0.004 -0.267,0.006 -0.011,0 -0.023,0.001 -0.034,0.001 -0.078,0.002 -0.156,0.005 -0.234,0.008 -0.011,0 -0.022,0.001 -0.033,0.001 -0.013,0 -0.026,10e-4 -0.039,0.002 -0.106,0.004 -0.213,0.008 -0.319,0.014 -0.004,0 -0.008,0 -0.012,0.001 -0.109,0.005 -0.217,0.011 -0.325,0.018 -0.013,0.001 -0.026,0.001 -0.039,0.002 -0.007,0 -0.014,10e-4 -0.022,10e-4 -0.167,0.01 -0.334,0.022 -0.501,0.034 -0.004,0 -0.009,10e-4 -0.013,10e-4 -0.17,0.013 -0.338,0.028 -0.507,0.044 -0.014,0.001 -0.027,0.003 -0.04,0.004 -0.159,0.015 -0.317,0.032 -0.474,0.05 -0.014,0.002 -0.029,0.003 -0.043,0.005 -0.167,0.019 -0.333,0.04 -0.497,0.062 -0.058,0.008 -0.116,0.016 -0.174,0.024 -0.018,0.003 -0.036,0.005 -0.054,0.008 -0.04,0.006 -0.079,0.011 -0.118,0.017 -0.02,0.003 -0.041,0.006 -0.061,0.009 -0.038,0.006 -0.075,0.011 -0.112,0.017 -0.02,0.003 -0.039,0.006 -0.058,0.009 -0.043,0.007 -0.085,0.014 -0.128,0.021 -0.013,0.002 -0.025,0.004 -0.038,0.006 -0.054,0.009 -0.108,0.018 -0.162,0.028 -0.014,0.002 -0.028,0.005 -0.042,0.007 -0.039,0.007 -0.079,0.014 -0.118,0.021 -0.019,0.003 -0.038,0.007 -0.056,0.01 -0.035,0.006 -0.069,0.013 -0.104,0.019 -0.019,0.004 -0.037,0.007 -0.056,0.011 -0.036,0.007 -0.072,0.014 -0.108,0.021 -0.012,0.002 -0.023,0.005 -0.035,0.007 -0.003,10e-4 -0.006,10e-4 -0.009,0.002 -0.071,0.014 -0.142,0.029 -0.212,0.044 -0.012,0.003 -0.023,0.005 -0.035,0.008 -0.068,0.015 -0.136,0.03 -0.202,0.045 -0.012,0.003 -0.023,0.005 -0.035,0.008 -0.067,0.016 -0.133,0.031 -0.198,0.047 -0.009,0.002 -0.018,0.004 -0.027,0.007 -0.067,0.017 -0.134,0.034 -0.199,0.051 h -0.001 c -0.004,0.001 -0.008,0.002 -0.012,0.003 -0.045,0.012 -0.088,0.024 -0.132,0.036 -0.014,0.004 -0.028,0.008 -0.041,0.011 -0.037,0.01 -0.075,0.021 -0.111,0.032 -0.011,0.003 -0.021,0.006 -0.032,0.009 -0.045,0.015 -0.09,0.029 -0.135,0.043 -0.01,0.003 -0.02,0.006 -0.03,0.009 -0.036,0.011 -0.071,0.022 -0.105,0.033 -0.007,0.002 -0.014,0.004 -0.021,0.007 -0.007,0.002 -0.014,0.005 -0.021,0.007 -0.023,0.008 -0.046,0.015 -0.069,0.023 -0.015,0.005 -0.029,0.01 -0.044,0.014 -0.025,0.008 -0.05,0.017 -0.074,0.025 -0.012,0.004 -0.024,0.008 -0.036,0.012 -0.073,0.025 -0.143,0.051 -0.212,0.077 -0.002,10e-4 -0.004,0.002 -0.006,0.002 -0.012,0.005 -0.024,0.009 -0.037,0.014 -0.018,0.007 -0.035,0.013 -0.052,0.02 -0.015,0.006 -0.029,0.011 -0.043,0.017 -0.017,0.007 -0.033,0.013 -0.05,0.02 -0.015,0.006 -0.029,0.012 -0.043,0.018 -0.016,0.007 -0.032,0.013 -0.048,0.02 -0.014,0.006 -0.028,0.012 -0.042,0.018 -0.016,0.007 -0.031,0.013 -0.047,0.02 -0.004,0.002 -0.007,0.003 -0.011,0.005 -0.004,0.002 -0.008,0.003 -0.011,0.005 -0.049,0.022 -0.096,0.043 -0.143,0.065 -0.004,0.002 -0.008,0.004 -0.013,0.006 -0.048,0.023 -0.095,0.046 -0.14,0.069 0,0 -10e-4,0 -10e-4,0 -0.001,10e-4 -0.002,10e-4 -0.004,0.002 -0.042,0.021 -0.083,0.043 -0.122,0.065 -0.004,0.002 -0.008,0.004 -0.012,0.007 -0.038,0.021 -0.076,0.043 -0.112,0.064 -0.003,0.002 -0.007,0.004 -0.011,0.006 -0.002,0.001 -0.005,0.003 -0.007,0.004 -0.034,0.02 -0.067,0.041 -0.099,0.062 -0.006,0.004 -0.012,0.008 -0.017,0.011 -0.032,0.021 -0.064,0.042 -0.094,0.064 -0.001,10e-4 -0.002,0.002 -0.003,0.002 -0.003,0.002 -0.005,0.004 -0.007,0.005 -0.029,0.021 -0.057,0.041 -0.084,0.062 -0.003,0.002 -0.005,0.004 -0.008,0.006 -0.028,0.021 -0.054,0.043 -0.079,0.064 -0.003,0.002 -0.006,0.004 -0.008,0.007 -0.002,0.002 -0.004,0.004 -0.006,0.005 -0.024,0.021 -0.048,0.042 -0.07,0.063 -0.004,0.004 -0.008,0.008 -0.012,0.011 -0.023,0.022 -0.045,0.044 -0.066,0.066 v 0 c 0,0 -0.001,10e-4 -0.001,10e-4 -0.021,0.022 -0.041,0.044 -0.059,0.066 -0.003,0.003 -0.006,0.007 -0.009,0.01 -0.018,0.022 -0.035,0.043 -0.051,0.065 -10e-4,0.002 -0.003,0.004 -0.005,0.006 -0.002,0.002 -0.003,0.004 -0.004,0.006 -0.016,0.022 -0.031,0.045 -0.045,0.067 -0.002,0.003 -0.004,0.006 -0.006,0.01 -0.014,0.023 -0.028,0.047 -0.039,0.071 v 0 0 c -0.013,0.025 -0.023,0.05 -0.033,0.075 -10e-4,0.003 -0.002,0.006 -0.004,0.009 -0.009,0.024 -0.017,0.048 -0.024,0.071 -10e-4,0.002 -0.002,0.004 -0.002,0.007 -0.001,0.003 -0.001,0.006 -0.002,0.009 -0.002,0.007 -0.003,0.013 -0.005,0.02 -0.002,0.008 -0.004,0.016 -0.005,0.024 -10e-4,0.007 -0.003,0.014 -0.004,0.02 -0.001,0.008 -0.003,0.016 -0.004,0.023 -10e-4,0.007 -0.002,0.014 -0.003,0.021 -10e-4,0.008 -0.002,0.016 -0.002,0.024 -0.001,0.007 -0.001,0.014 -0.001,0.02 0,0.003 -10e-4,0.007 -10e-4,0.01 0,0.008 0,0.017 0,0.025 0,0.089 0,0.178 -10e-4,0.269 l -0.002,0.942 c 0,0.073 0,0.147 0,0.221 l -10e-4,0.318 c 0,0.189 -10e-4,0.38 -10e-4,0.573 v 0.251 c 0,0.105 0,0.209 -0.001,0.315 l -0.002,0.807 c 0,0.265 -0.001,0.532 -0.001,0.798 l -10e-4,3.2 c -10e-4,0.27 -10e-4,0.539 -10e-4,0.806 l -0.001,0.315 c 0,0.084 0,0.167 0,0.25 l -10e-4,0.574 c 0,0.106 0,0.211 -10e-4,0.315 v 0.224 c -0.001,0.322 -0.001,0.637 -0.002,0.941 v 0.269 c 0,0.003 0,0.006 0,0.009 0,0.015 10e-4,0.03 0.002,0.045 10e-4,0.008 10e-4,0.015 0.002,0.023 0.002,0.021 0.005,0.041 0.009,0.062 0,0.002 0.001,0.004 0.001,0.006 0.005,0.023 0.01,0.045 0.017,0.068 0.002,0.007 0.005,0.014 0.007,0.021 0.005,0.016 0.01,0.031 0.017,0.047 0.003,0.009 0.007,0.017 0.011,0.026 0.006,0.014 0.012,0.028 0.019,0.043 0.004,0.009 0.009,0.018 0.014,0.027 0.007,0.014 0.015,0.028 0.023,0.041 0.005,0.009 0.011,0.018 0.017,0.028 0.009,0.014 0.018,0.028 0.028,0.042 0.006,0.009 0.012,0.018 0.018,0.026 0.011,0.015 0.023,0.03 0.035,0.045 0.006,0.008 0.012,0.015 0.018,0.023 0.018,0.021 0.037,0.043 0.057,0.064 0.001,10e-4 0.002,0.002 0.003,0.003 0.021,0.023 0.043,0.045 0.067,0.068 0.007,0.007 0.016,0.014 0.023,0.022 0.016,0.015 0.033,0.031 0.05,0.046 0.01,0.009 0.02,0.017 0.03,0.026 0.016,0.014 0.033,0.028 0.051,0.042 0.011,0.009 0.023,0.018 0.034,0.027 0.018,0.014 0.036,0.027 0.054,0.041 0.012,0.009 0.025,0.018 0.037,0.027 0.019,0.014 0.039,0.027 0.06,0.041 0.013,0.009 0.025,0.017 0.038,0.026 0.023,0.015 0.046,0.03 0.07,0.045 0.012,0.007 0.023,0.014 0.034,0.022 0.036,0.022 0.073,0.044 0.111,0.066 0.044,0.025 0.089,0.049 0.136,0.074 0.013,0.007 0.027,0.014 0.04,0.021 0.036,0.019 0.074,0.037 0.111,0.056 0.012,0.006 0.024,0.012 0.037,0.018 0.049,0.023 0.099,0.047 0.15,0.069 0.01,0.004 0.02,0.009 0.03,0.013 0.043,0.019 0.086,0.037 0.13,0.056 0.016,0.007 0.032,0.013 0.048,0.02 0.046,0.019 0.092,0.037 0.139,0.055 0.01,0.004 0.019,0.008 0.029,0.011 0.056,0.022 0.114,0.043 0.173,0.064 0.015,0.005 0.031,0.011 0.046,0.016 0.046,0.016 0.092,0.032 0.139,0.048 0.017,0.006 0.034,0.012 0.052,0.017 0.061,0.02 0.123,0.04 0.187,0.06 h 0.001 c 0.01,0.003 0.019,0.006 0.029,0.009 0.044,0.013 0.088,0.027 0.133,0.04 0.02,0.006 0.04,0.012 0.06,0.017 0.035,0.01 0.07,0.02 0.106,0.03 0.023,0.006 0.046,0.013 0.07,0.019 0.033,0.009 0.067,0.018 0.101,0.027 0.025,0.007 0.049,0.013 0.074,0.019 0.033,0.009 0.066,0.017 0.1,0.026 0.008,0.002 0.017,0.004 0.025,0.006 0.025,0.006 0.051,0.013 0.077,0.019 0.018,0.004 0.036,0.009 0.054,0.013 0.048,0.012 0.096,0.023 0.144,0.034 0.006,10e-4 0.012,0.003 0.019,0.004 0.055,0.013 0.11,0.025 0.165,0.037 0.017,0.004 0.034,0.007 0.051,0.011 0.03,0.006 0.06,0.013 0.09,0.019 0.006,10e-4 0.012,0.002 0.019,0.004 0.079,0.017 0.159,0.033 0.239,0.049 0.017,0.003 0.034,0.006 0.05,0.01 0.069,0.013 0.139,0.027 0.209,0.04 0.012,0.002 0.024,0.005 0.036,0.007 0.007,10e-4 0.014,0.002 0.021,0.004 0.078,0.014 0.156,0.028 0.235,0.041 0.012,0.002 0.024,0.004 0.036,0.006 0.068,0.011 0.137,0.023 0.206,0.034 0.011,0.002 0.022,0.004 0.034,0.006 0.013,0.002 0.027,0.004 0.04,0.006 0.057,0.009 0.115,0.018 0.173,0.026 0.022,0.003 0.043,0.007 0.065,0.01 0.078,0.011 0.157,0.022 0.236,0.033 0.002,0 0.005,0.001 0.007,0.001 0.012,0.002 0.024,0.003 0.037,0.005 0.064,0.008 0.127,0.017 0.192,0.025 0.026,0.003 0.052,0.006 0.078,0.01 0.055,0.007 0.109,0.013 0.164,0.02 0.016,0.002 0.031,0.004 0.047,0.006 0.012,0.001 0.024,0.003 0.035,0.004 0.056,0.006 0.113,0.013 0.169,0.019 0.023,0.002 0.046,0.005 0.069,0.007 0.079,0.008 0.158,0.016 0.238,0.024 0.002,0 0.004,0 0.005,10e-4 0.012,0.001 0.024,0.002 0.035,0.003 0.066,0.006 0.132,0.012 0.198,0.018 0.027,0.002 0.054,0.005 0.081,0.007 0.054,0.005 0.108,0.009 0.162,0.013 0.014,10e-4 0.028,0.002 0.042,0.004 0.008,0.001 0.015,0.001 0.023,0.002 0.16,0.013 0.322,0.024 0.484,0.034 0.005,0 0.01,10e-4 0.015,10e-4 0.003,0 0.006,0 0.008,0 0.167,0.01 0.335,0.019 0.504,0.027 0.005,0 0.01,0.001 0.014,0.001 0.007,0 0.015,10e-4 0.022,10e-4 0.16,0.007 0.32,0.013 0.481,0.018 0.008,0 0.017,10e-4 0.025,10e-4 0.007,0 0.014,0 0.021,0 0.166,0.005 0.333,0.008 0.5,0.011 0.002,0 0.004,0 0.007,0 0,0 0.002,0 0.003,0 0.171,0.002 0.343,0.003 0.515,0.003 0.006,0 0.012,0 0.018,0 0.008,0 0.016,0 0.024,0 0.169,-0.001 0.339,-0.002 0.508,-0.005 0.007,0 0.015,0 0.022,0 0.008,0 0.016,0 0.023,-10e-4 0.089,-0.002 0.178,-0.004 0.268,-0.006 0.011,0 0.021,-0.001 0.032,-0.001 0.079,-0.002 0.157,-0.005 0.236,-0.008 0.011,0 0.022,-10e-4 0.033,-10e-4 0.013,0 0.026,-0.001 0.039,-0.002 0.106,-0.004 0.213,-0.008 0.319,-0.014 0.004,0 0.008,0 0.012,-10e-4 0.109,-0.005 0.217,-0.011 0.325,-0.018 0.013,-10e-4 0.026,-10e-4 0.039,-0.002 0.007,0 0.014,-10e-4 0.022,-10e-4 0.167,-0.01 0.334,-0.022 0.501,-0.034 0.004,0 0.009,-10e-4 0.013,-10e-4 0.17,-0.013 0.338,-0.028 0.507,-0.044 0.014,-10e-4 0.027,-0.003 0.04,-0.004 0.159,-0.015 0.317,-0.032 0.474,-0.05 0.014,-0.002 0.029,-0.003 0.043,-0.005 0.167,-0.019 0.333,-0.04 0.497,-0.062 0.058,-0.008 0.116,-0.016 0.174,-0.024 0.01,-0.001 0.02,-0.003 0.029,-0.004 0.014,-0.002 0.029,-0.004 0.043,-0.006 0.034,-0.005 0.067,-0.01 0.101,-0.015 0.019,-0.003 0.038,-0.006 0.056,-0.008 0.012,-0.002 0.024,-0.004 0.036,-0.005 0.027,-0.004 0.054,-0.008 0.081,-0.013 0.019,-0.003 0.038,-0.006 0.057,-0.009 0.015,-0.002 0.03,-0.005 0.045,-0.007 0.014,-0.002 0.027,-0.005 0.041,-0.007 0.014,-0.002 0.028,-0.005 0.042,-0.007 0.012,-0.002 0.025,-0.004 0.037,-0.006 0.022,-0.004 0.044,-0.007 0.066,-0.011 0.017,-0.003 0.033,-0.006 0.05,-0.009 0.015,-0.003 0.031,-0.005 0.046,-0.008 0.014,-0.002 0.027,-0.005 0.04,-0.007 0.03,-0.005 0.061,-0.011 0.091,-0.016 10e-4,0 10e-4,0 10e-4,0 0.01,-0.002 0.018,-0.003 0.027,-0.005 0.019,-0.003 0.037,-0.007 0.055,-0.01 0.03,-0.006 0.061,-0.011 0.091,-0.017 0.011,-0.002 0.021,-0.004 0.032,-0.006 0.012,-0.002 0.025,-0.005 0.037,-0.007 0.036,-0.007 0.072,-0.014 0.108,-0.021 0.011,-0.002 0.022,-0.004 0.032,-0.006 0,0 0.002,0 0.002,0 v 0 c 0,0 0.002,0 0.002,0 0.003,-0.001 0.005,-0.001 0.008,-0.002 0.056,-0.011 0.111,-0.023 0.165,-0.034 0.013,-0.003 0.025,-0.005 0.038,-0.008 0.002,-10e-4 0.005,-10e-4 0.007,-0.002 0.012,-0.003 0.023,-0.005 0.035,-0.008 0.029,-0.006 0.058,-0.013 0.087,-0.019 0.015,-0.003 0.03,-0.007 0.045,-0.01 0.024,-0.005 0.047,-0.011 0.07,-0.016 0.012,-0.003 0.023,-0.005 0.035,-0.008 0.018,-0.004 0.036,-0.008 0.054,-0.013 0.001,0 0.002,0 0.002,0 0.048,-0.011 0.095,-0.023 0.142,-0.034 0.006,-0.002 0.012,-0.003 0.019,-0.005 0.012,-0.003 0.024,-0.006 0.036,-0.009 0.041,-0.01 0.081,-0.021 0.122,-0.031 0.011,-0.003 0.022,-0.006 0.033,-0.009 0.006,-0.002 0.012,-0.003 0.017,-0.005 0,0 10e-4,0 0.002,-10e-4 0.004,-0.001 0.007,-0.002 0.011,-0.003 0.039,-0.01 0.078,-0.021 0.116,-0.031 0.007,-0.002 0.015,-0.004 0.022,-0.006 0.012,-0.003 0.024,-0.007 0.036,-0.01 0.03,-0.008 0.06,-0.017 0.089,-0.025 0.011,-0.003 0.023,-0.006 0.034,-0.01 0.007,-0.002 0.013,-0.004 0.02,-0.006 0.042,-0.012 0.084,-0.025 0.125,-0.037 0.001,0 0.002,-0.001 0.002,-0.001 0.003,-10e-4 0.006,-0.002 0.009,-0.003 0.01,-0.003 0.02,-0.006 0.03,-0.009 0.032,-0.01 0.063,-0.02 0.094,-0.029 0.008,-0.003 0.017,-0.005 0.025,-0.008 0.003,-10e-4 0.005,-0.002 0.008,-0.003 0.007,-0.002 0.013,-0.004 0.02,-0.007 0.024,-0.008 0.047,-0.015 0.071,-0.023 0.012,-0.004 0.024,-0.008 0.035,-0.012 0.004,-10e-4 0.008,-0.003 0.013,-0.004 0.024,-0.008 0.047,-0.016 0.07,-0.024 0.012,-0.004 0.024,-0.008 0.036,-0.012 0.007,-0.002 0.014,-0.005 0.021,-0.007 0.009,-0.003 0.019,-0.007 0.028,-0.01 0.033,-0.012 0.066,-0.024 0.099,-0.036 0.011,-0.004 0.022,-0.008 0.033,-0.012 0.01,-0.004 0.021,-0.008 0.031,-0.012 0.002,-10e-4 0.004,-0.002 0.006,-0.002 0.012,-0.005 0.024,-0.009 0.037,-0.014 0.015,-0.006 0.03,-0.011 0.045,-0.017 0.001,0 0.001,-10e-4 0.001,-10e-4 0.003,-10e-4 0.004,-0.002 0.006,-0.002 0.014,-0.006 0.029,-0.011 0.043,-0.017 0.017,-0.007 0.034,-0.013 0.051,-0.02 0.007,-0.003 0.013,-0.005 0.02,-0.008 0.009,-0.004 0.017,-0.007 0.026,-0.011 0.015,-0.006 0.03,-0.013 0.045,-0.019 0.014,-0.006 0.027,-0.012 0.041,-0.017 10e-4,0 0.002,-10e-4 0.003,-10e-4 0.008,-0.003 0.016,-0.007 0.024,-0.01 0.007,-0.003 0.014,-0.006 0.021,-0.009 0.003,-0.002 0.007,-0.003 0.011,-0.005 0.004,-0.002 0.007,-0.003 0.011,-0.005 0.021,-0.009 0.042,-0.019 0.063,-0.028 0.008,-0.004 0.016,-0.007 0.024,-0.011 0.019,-0.009 0.038,-0.017 0.056,-0.026 0.004,-0.002 0.008,-0.004 0.012,-0.006 0.004,-0.002 0.008,-0.004 0.013,-0.006 0.009,-0.004 0.019,-0.009 0.028,-0.013 0.033,-0.016 0.066,-0.032 0.098,-0.049 0,0 10e-4,-0.001 0.002,-0.001 h 0.001 c 10e-4,-10e-4 0.002,-10e-4 0.003,-0.002 0.03,-0.015 0.059,-0.031 0.088,-0.046 0.009,-0.005 0.017,-0.009 0.026,-0.014 0.003,-0.002 0.006,-0.003 0.009,-0.005 0.004,-0.002 0.008,-0.004 0.012,-0.006 0.017,-0.01 0.034,-0.019 0.051,-0.029 0.006,-0.004 0.013,-0.007 0.019,-0.011 0.014,-0.008 0.028,-0.017 0.042,-0.025 0.003,-0.002 0.007,-0.004 0.01,-0.006 0.002,-10e-4 0.005,-0.003 0.007,-0.004 0.008,-0.005 0.016,-0.01 0.025,-0.015 0.006,-0.004 0.013,-0.008 0.019,-0.012 0.019,-0.012 0.038,-0.024 0.056,-0.035 0.004,-0.003 0.009,-0.006 0.014,-0.009 0.005,-0.004 0.011,-0.007 0.016,-0.011 0.026,-0.017 0.051,-0.034 0.076,-0.051 10e-4,-10e-4 10e-4,-10e-4 0.002,-0.002 0.001,-10e-4 0.002,-0.002 0.003,-0.003 0.001,-10e-4 0.002,-0.002 0.003,-0.002 0.003,-0.002 0.005,-0.004 0.007,-0.005 0.019,-0.013 0.037,-0.027 0.055,-0.04 0.007,-0.005 0.013,-0.01 0.019,-0.015 0.003,-0.002 0.006,-0.005 0.009,-0.007 0.003,-0.002 0.005,-0.004 0.008,-0.006 0.013,-0.01 0.025,-0.02 0.037,-0.029 0.005,-0.004 0.009,-0.007 0.014,-0.011 0.01,-0.008 0.019,-0.016 0.028,-0.024 0.003,-0.002 0.006,-0.004 0.008,-0.007 0.002,-0.002 0.004,-0.004 0.006,-0.005 0.007,-0.006 0.013,-0.011 0.02,-0.017 0.005,-0.004 0.009,-0.008 0.014,-0.012 0.013,-0.011 0.025,-0.022 0.037,-0.034 0.004,-0.003 0.007,-0.007 0.011,-0.01 0.005,-0.004 0.009,-0.009 0.014,-0.013 0.018,-0.018 0.036,-0.036 0.053,-0.054 v 0 0 c 0,0 0.001,-10e-4 0.001,-10e-4 v 0 c 0.016,-0.017 0.032,-0.035 0.047,-0.052 0.004,-0.005 0.008,-0.01 0.013,-0.015 0.003,-0.003 0.006,-0.007 0.008,-0.01 0.01,-0.011 0.019,-0.023 0.028,-0.035 0.003,-0.004 0.006,-0.008 0.009,-0.011 0.005,-0.006 0.01,-0.013 0.014,-0.019 10e-4,-0.002 0.003,-0.004 0.005,-0.006 0.002,-0.002 0.003,-0.004 0.004,-0.006 0.005,-0.008 0.011,-0.015 0.016,-0.023 0.003,-0.004 0.006,-0.008 0.008,-0.013 0.007,-0.011 0.014,-0.021 0.021,-0.032 0.002,-0.003 0.004,-0.007 0.006,-0.01 0,-0.001 0.001,-0.001 0.001,-0.001 0.003,-0.006 0.006,-0.011 0.009,-0.016 0.01,-0.018 0.02,-0.036 0.029,-0.054 v 0 0 c 0,0 0,-10e-4 0,-10e-4 10e-4,-10e-4 10e-4,-0.002 10e-4,-0.003 0.009,-0.018 0.017,-0.035 0.024,-0.053 0.002,-0.005 0.004,-0.01 0.006,-0.016 0,-10e-4 0.001,-0.002 0.001,-0.003 10e-4,-0.003 0.002,-0.006 0.003,-0.009 0.004,-0.011 0.008,-0.023 0.012,-0.034 10e-4,-0.004 0.003,-0.008 0.004,-0.012 0.003,-0.009 0.005,-0.017 0.008,-0.026 0.001,-0.002 0.002,-0.004 0.002,-0.007 10e-4,-0.003 10e-4,-0.006 0.002,-0.009 0.001,-0.005 0.002,-0.009 0.004,-0.014 10e-4,-0.003 10e-4,-0.006 0.002,-0.01 0.002,-0.007 0.003,-0.013 0.004,-0.02 10e-4,-0.007 0.003,-0.014 0.004,-0.02 0.001,-0.005 0.002,-0.01 0.003,-0.015 0,-0.002 0.001,-0.005 0.001,-0.007 v -10e-4 c 0.001,-0.007 0.002,-0.014 0.003,-0.021 0.001,-0.008 0.002,-0.016 0.002,-0.024 0,-0.004 0.001,-0.008 0.001,-0.011 0,-0.001 0,-0.002 0,-0.003 0,-0.002 0,-0.004 0,-0.006 0,-0.004 10e-4,-0.007 10e-4,-0.011 0,-0.008 0,-0.017 0,-0.025 v 0 z"
   inkscape:connector-curvature="0" />
	<linearGradient
   id="XMLID_13_"
   gradientUnits="userSpaceOnUse"
   x1="20.9254"
   y1="23.0903"
   x2="20.9254"
   y2="28.288401">
		<stop
   offset="0"
   style="stop-color:#FFBC89"
   id="stop83" />
		<stop
   offset="1"
   style="stop-color:#E60012"
   id="stop85" />
	</linearGradient>
	<path
   id="XMLID_1358_"
   style="fill:url(#XMLID_13_)"
   d="m 25.047,28.029 c -0.697,0.094 -1.414,0.162 -2.138,0.203 -0.251,0.014 -0.504,0.027 -0.755,0.036 -3.875,0.135 -7.813,-0.417 -9.63,-1.45 -2.275,-1.293 -0.357,-2.847 4.283,-3.47 0.794,-0.106 1.617,-0.181 2.447,-0.22 h 0.007 c 0.002,0 0.002,0 0.005,0 h 0.01 c 0.002,-0.002 0.002,-0.002 0.005,-0.002 h 0.022 c 0.002,0 0.002,0 0.005,0 h 0.01 c 0.232,-0.014 0.466,-0.022 0.697,-0.027 h 0.007 c 0.002,0 0.002,0 0.005,0 h 0.01 c 0.002,0 0.002,0 0.005,0 h 0.01 c 0.002,0 0.002,0 0.005,0 h 0.007 c 0.002,-0.002 0.002,-0.002 0.005,0 0.002,-0.002 0.007,-0.002 0.01,0 3.75,-0.089 7.495,0.461 9.251,1.457 2.272,1.295 0.357,2.848 -4.283,3.473 z"
   inkscape:connector-curvature="0" />
	<g
   id="XMLID_191_">
		<g
   id="XMLID_704_">
			<polygon
   id="XMLID_708_"
   style="fill:#e9d9c1"
   points="14.614,25.35 11.911,25.952 15.153,26.304 14.943,25.933 20.527,25.699 20.409,25.488 14.824,25.722 " />
			<polygon
   id="XMLID_707_"
   style="fill:#e9d9c1"
   points="26.908,25.216 21.323,25.45 21.442,25.661 27.027,25.427 27.236,25.799 29.94,25.197 26.698,24.844 " />
			<path
   id="XMLID_657_"
   style="fill:#e9d9c1"
   d="m 22.194,24.429 -0.017,0.012 -0.014,0.012 -0.014,0.01 -0.014,0.01 -0.029,0.019 -0.017,0.014 -0.014,0.01 -0.014,0.01 -1.115,0.801 -1.947,-0.673 -0.024,-0.01 -0.024,-0.007 -0.031,-0.012 -0.024,-0.007 -0.024,-0.01 -0.027,-0.007 -0.024,-0.01 -0.024,-0.01 -0.031,-0.01 1.276,-0.051 h 0.027 l 0.007,-0.002 H 20.1 l -0.784,-1.392 c 0.232,-0.014 0.466,-0.022 0.697,-0.027 h 0.007 c 0.002,0 0.002,0 0.005,0 h 0.01 c 0.002,0 0.002,0 0.005,0 h 0.01 c 0.002,0 0.002,0 0.005,0 h 0.007 c 0.002,-0.002 0.002,-0.002 0.005,0 0.002,-0.002 0.007,-0.002 0.01,0 l 0.782,1.385 z"
   inkscape:connector-curvature="0" />
			<path
   id="XMLID_705_"
   style="fill:#e9d9c1"
   d="m 22.095,26.679 0.825,1.462 c -0.251,0.014 -0.504,0.027 -0.755,0.036 L 21.337,26.71 20,26.766 l 1.25,-0.898 2.181,0.753 z"
   inkscape:connector-curvature="0" />
		</g>
		<g
   id="XMLID_699_">
			<polygon
   id="XMLID_703_"
   style="fill:#e9d9c1"
   points="14.613,25.36 11.91,25.962 15.152,26.314 14.942,25.943 20.526,25.709 20.407,25.498 14.823,25.732 " />
			<polygon
   id="XMLID_702_"
   style="fill:#e9d9c1"
   points="26.906,25.226 21.322,25.46 21.441,25.671 27.025,25.437 27.235,25.809 29.939,25.207 26.697,24.854 " />
			<polygon
   id="XMLID_717_"
   style="fill:#e9d9c1"
   points="19.284,23.088 19.292,23.085 19.299,23.095 19.289,23.095 " />
			<path
   id="XMLID_718_"
   style="fill:#e9d9c1"
   d="m 22.192,24.441 -0.029,0.019 -0.014,0.012 -0.014,0.01 -0.012,0.01 -0.019,0.012 -0.014,0.012 -0.014,0.01 -1.132,0.813 -1.976,-0.685 -0.027,-0.007 -0.024,-0.01 -0.029,-0.01 -0.027,-0.01 -0.024,-0.007 -0.024,-0.01 -0.027,-0.007 -0.024,-0.01 0.034,-0.002 1.25,-0.051 h 0.019 l 0.007,-0.002 h 0.027 l -0.005,-0.01 -0.787,-1.392 h 0.01 c 0.232,-0.014 0.466,-0.022 0.697,-0.027 h 0.007 c 0.002,0 0.002,0 0.005,0 h 0.01 c 0.002,0 0.002,0 0.005,0 h 0.01 c 0.002,0 0.002,0 0.005,0 h 0.007 c 0.002,-0.002 0.002,-0.002 0.005,0 l 0.789,1.397 1.322,-0.055 z"
   inkscape:connector-curvature="0" />
			<path
   id="XMLID_700_"
   style="fill:#e9d9c1"
   d="m 22.094,26.689 0.825,1.462 c -0.251,0.014 -0.504,0.027 -0.755,0.036 L 21.336,26.72 20,26.776 l 1.25,-0.898 2.181,0.753 z"
   inkscape:connector-curvature="0" />
		</g>
		<g
   id="XMLID_694_">
			<polygon
   id="XMLID_698_"
   style="fill:#e9d9c1"
   points="14.612,25.37 11.908,25.972 15.15,26.324 14.941,25.953 20.525,25.719 20.406,25.508 14.822,25.742 " />
			<polygon
   id="XMLID_697_"
   style="fill:#e9d9c1"
   points="26.905,25.236 21.32,25.47 21.439,25.681 27.024,25.447 27.234,25.819 29.937,25.217 26.695,24.864 " />
			<polygon
   id="XMLID_724_"
   style="fill:#e9d9c1"
   points="19.284,23.088 19.292,23.085 19.299,23.095 19.289,23.095 " />
			<path
   id="XMLID_725_"
   style="fill:#e9d9c1"
   d="m 22.192,24.451 -0.014,0.01 -0.014,0.01 -0.014,0.012 -0.014,0.01 -0.017,0.012 -0.014,0.01 -0.014,0.012 -1.146,0.823 -2.003,-0.693 -0.024,-0.01 -0.024,-0.007 -0.031,-0.012 -0.024,-0.007 -0.024,-0.01 -0.027,-0.007 -0.024,-0.01 h 0.024 l 0.034,-0.002 1.231,-0.051 h 0.012 l 0.01,-0.002 h 0.027 l -0.005,-0.01 -0.005,-0.01 -0.787,-1.392 c 0.002,0 0.002,0 0.005,0 h 0.01 c 0.232,-0.014 0.466,-0.022 0.697,-0.027 h 0.007 c 0.002,0 0.002,0 0.005,0 h 0.01 c 0.002,0 0.002,0 0.005,0 h 0.01 c 0.002,0 0.002,0 0.005,0 h 0.007 l 0.794,1.407 1.308,-0.053 0.014,-0.002 h 0.01 z"
   inkscape:connector-curvature="0" />
			<path
   id="XMLID_695_"
   style="fill:#e9d9c1"
   d="m 22.093,26.699 0.825,1.462 c -0.251,0.014 -0.504,0.027 -0.755,0.036 l -0.828,-1.467 -1.337,0.056 1.25,-0.898 2.181,0.753 z"
   inkscape:connector-curvature="0" />
		</g>
		<g
   id="XMLID_689_">
			<polygon
   id="XMLID_693_"
   style="fill:#e9d9c1"
   points="14.611,25.38 11.907,25.982 15.149,26.335 14.939,25.963 20.523,25.729 20.405,25.518 14.82,25.752 " />
			<polygon
   id="XMLID_692_"
   style="fill:#e9d9c1"
   points="26.904,25.246 21.319,25.48 21.438,25.691 27.023,25.457 27.232,25.829 29.936,25.227 26.694,24.874 " />
			<polygon
   id="XMLID_729_"
   style="fill:#e9d9c1"
   points="19.284,23.088 19.292,23.085 19.299,23.095 19.289,23.095 " />
			<path
   id="XMLID_730_"
   style="fill:#e9d9c1"
   d="m 22.19,24.461 -0.014,0.01 -0.014,0.01 -0.014,0.012 -0.017,0.012 -0.031,0.018 -1.161,0.835 -2.027,-0.702 -0.024,-0.007 -0.024,-0.01 -0.031,-0.01 -0.024,-0.01 -0.027,-0.007 -0.024,-0.01 h 0.027 L 18.812,24.6 h 0.031 l 1.211,-0.051 h 0.007 l 0.007,-0.002 h 0.027 l -0.005,-0.01 -0.005,-0.01 -0.007,-0.01 -0.784,-1.392 h 0.007 c 0.002,0 0.002,0 0.005,0 h 0.01 c 0.232,-0.014 0.466,-0.022 0.697,-0.027 h 0.007 c 0.002,0 0.002,0 0.005,0 h 0.01 c 0.002,0 0.002,0 0.005,0 h 0.01 c 0.002,0 0.002,0 0.005,0 l 0.799,1.416 1.296,-0.053 0.014,-0.002 h 0.026 z"
   inkscape:connector-curvature="0" />
			<path
   id="XMLID_690_"
   style="fill:#e9d9c1"
   d="m 22.091,26.71 0.825,1.462 c -0.251,0.014 -0.504,0.027 -0.755,0.036 l -0.828,-1.467 -1.337,0.056 1.25,-0.898 2.181,0.753 z"
   inkscape:connector-curvature="0" />
		</g>
		<g
   id="XMLID_684_">
			<polygon
   id="XMLID_688_"
   style="fill:#e9d9c1"
   points="14.609,25.39 11.906,25.992 15.148,26.345 14.938,25.973 20.522,25.739 20.403,25.528 14.819,25.762 " />
			<polygon
   id="XMLID_687_"
   style="fill:#e9d9c1"
   points="26.902,25.256 21.318,25.49 21.437,25.701 27.021,25.467 27.231,25.839 29.935,25.237 26.693,24.885 " />
			<polygon
   id="XMLID_733_"
   style="fill:#e9d9c1"
   points="19.284,23.088 19.292,23.085 19.299,23.095 19.289,23.095 " />
			<path
   id="XMLID_734_"
   style="fill:#e9d9c1"
   d="m 22.19,24.47 -0.014,0.01 -0.014,0.01 -0.017,0.014 -0.029,0.019 -1.175,0.845 -2.051,-0.709 -0.024,-0.01 -0.027,-0.007 -0.029,-0.012 -0.027,-0.007 -0.024,-0.01 h 0.024 l 0.029,-0.002 h 0.024 l 0.034,-0.002 1.19,-0.048 0.01,-0.002 h 0.027 l -0.005,-0.01 -0.005,-0.01 -0.007,-0.01 -0.005,-0.01 -0.787,-1.392 h 0.014 c 0.002,0 0.002,0 0.005,0 h 0.01 c 0.232,-0.014 0.466,-0.022 0.697,-0.027 h 0.007 c 0.002,0 0.002,0 0.005,0 h 0.01 c 0.002,0 0.002,0 0.005,0 h 0.01 l 0.804,1.426 1.281,-0.053 h 0.014 l 0.014,-0.002 h 0.026 z"
   inkscape:connector-curvature="0" />
			<path
   id="XMLID_685_"
   style="fill:#e9d9c1"
   d="m 22.09,26.72 0.825,1.462 c -0.251,0.014 -0.504,0.027 -0.755,0.036 l -0.828,-1.467 -1.337,0.056 1.25,-0.898 2.181,0.753 z"
   inkscape:connector-curvature="0" />
		</g>
		<g
   id="XMLID_679_">
			<polygon
   id="XMLID_683_"
   style="fill:#e9d9c1"
   points="14.608,25.4 11.904,26.002 15.146,26.355 14.937,25.983 20.521,25.749 20.402,25.538 14.818,25.772 " />
			<polygon
   id="XMLID_682_"
   style="fill:#e9d9c1"
   points="26.901,25.266 21.316,25.5 21.435,25.711 27.02,25.477 27.23,25.849 29.933,25.247 26.691,24.895 " />
			<polygon
   id="XMLID_731_"
   style="fill:#e9d9c1"
   points="19.284,23.088 19.292,23.085 19.299,23.095 19.289,23.095 " />
			<path
   id="XMLID_732_"
   style="fill:#e9d9c1"
   d="m 22.187,24.48 -0.014,0.01 -0.017,0.014 -0.029,0.019 -1.19,0.854 -2.075,-0.719 -0.027,-0.007 -0.024,-0.01 -0.031,-0.01 -0.024,-0.01 h 0.027 l 0.027,-0.002 h 0.027 l 0.024,-0.002 h 0.034 l 1.173,-0.051 h 0.027 l -0.005,-0.01 -0.005,-0.01 -0.007,-0.01 -0.005,-0.01 -0.005,-0.007 -0.787,-1.395 h 0.022 c 0.002,0 0.002,0 0.005,0 h 0.01 c 0.232,-0.014 0.466,-0.022 0.697,-0.027 h 0.007 c 0.002,0 0.002,0 0.005,0 h 0.01 c 0.002,0 0.002,0 0.005,0 l 0.811,1.436 1.269,-0.053 h 0.029 l 0.012,-0.002 h 0.024 z"
   inkscape:connector-curvature="0" />
			<path
   id="XMLID_680_"
   style="fill:#e9d9c1"
   d="m 22.089,26.73 0.825,1.462 c -0.251,0.014 -0.504,0.027 -0.755,0.036 l -0.828,-1.467 -1.337,0.056 1.25,-0.898 2.181,0.753 z"
   inkscape:connector-curvature="0" />
		</g>
		<g
   id="XMLID_674_">
			<polygon
   id="XMLID_678_"
   style="fill:#e9d9c1"
   points="14.607,25.41 11.903,26.012 15.145,26.365 14.935,25.993 20.52,25.759 20.401,25.548 14.816,25.782 " />
			<polygon
   id="XMLID_677_"
   style="fill:#e9d9c1"
   points="26.9,25.276 21.315,25.51 21.434,25.721 27.019,25.487 27.228,25.859 29.932,25.257 26.69,24.905 " />
			<path
   id="XMLID_727_"
   style="fill:#e9d9c1"
   d="m 22.187,24.49 -0.017,0.012 -0.014,0.012 -0.014,0.01 -1.204,0.864 -2.102,-0.726 -0.024,-0.01 -0.024,-0.01 -0.031,-0.01 h 0.024 L 18.81,24.63 h 0.024 l 0.027,-0.002 h 0.027 l 0.031,-0.002 1.153,-0.046 h 0.022 l -0.007,-0.012 -0.005,-0.01 -0.005,-0.01 -0.005,-0.01 -0.007,-0.007 -0.005,-0.01 -0.784,-1.392 c 0.002,-0.002 0.002,-0.002 0.005,-0.002 h 0.022 c 0.002,0 0.002,0 0.005,0 h 0.01 c 0.232,-0.014 0.466,-0.022 0.697,-0.027 h 0.007 c 0.002,0 0.002,0 0.005,0 h 0.01 l 0.816,1.445 1.255,-0.053 h 0.041 l 0.014,-0.002 z"
   inkscape:connector-curvature="0" />
			<path
   id="XMLID_675_"
   style="fill:#e9d9c1"
   d="m 22.087,26.74 0.825,1.462 c -0.251,0.014 -0.504,0.027 -0.755,0.036 l -0.828,-1.467 -1.337,0.056 1.25,-0.898 2.181,0.753 z"
   inkscape:connector-curvature="0" />
		</g>
		<g
   id="XMLID_669_">
			<polygon
   id="XMLID_673_"
   style="fill:#e9d9c1"
   points="14.605,25.42 11.902,26.022 15.144,26.375 14.934,26.003 20.518,25.769 20.399,25.558 14.815,25.792 " />
			<polygon
   id="XMLID_672_"
   style="fill:#e9d9c1"
   points="26.898,25.286 21.314,25.52 21.433,25.731 27.017,25.497 27.227,25.869 29.931,25.267 26.689,24.915 " />
			<path
   id="XMLID_722_"
   style="fill:#e9d9c1"
   d="m 22.185,24.502 -0.029,0.019 -1.221,0.878 -2.131,-0.738 -0.027,-0.007 -0.024,-0.01 0.034,-0.002 h 0.051 l 0.027,-0.002 h 0.027 l 0.024,-0.002 h 0.034 l 1.129,-0.048 h 0.012 l -0.005,-0.01 -0.007,-0.012 -0.005,-0.01 -0.005,-0.01 -0.007,-0.007 -0.005,-0.01 -0.005,-0.01 -0.787,-1.392 h 0.01 c 0.002,-0.002 0.002,-0.002 0.005,-0.002 h 0.022 c 0.002,0 0.002,0 0.005,0 h 0.01 c 0.232,-0.014 0.466,-0.022 0.697,-0.027 h 0.007 c 0.002,0 0.002,0 0.005,0 l 0.823,1.457 1.24,-0.051 0.014,-0.002 h 0.053 l 0.014,-0.002 z"
   inkscape:connector-curvature="0" />
			<path
   id="XMLID_670_"
   style="fill:#e9d9c1"
   d="m 22.086,26.75 0.825,1.462 c -0.251,0.014 -0.504,0.027 -0.755,0.036 l -0.828,-1.467 -1.337,0.056 1.25,-0.898 2.181,0.753 z"
   inkscape:connector-curvature="0" />
		</g>
		<g
   id="XMLID_664_">
			<polygon
   id="XMLID_668_"
   style="fill:#e9d9c1"
   points="14.604,25.43 11.9,26.032 15.142,26.385 14.933,26.013 20.517,25.779 20.398,25.569 14.814,25.802 " />
			<polygon
   id="XMLID_667_"
   style="fill:#e9d9c1"
   points="26.897,25.297 21.312,25.53 21.431,25.741 27.016,25.507 27.226,25.879 29.929,25.277 26.687,24.925 " />
			<path
   id="XMLID_715_"
   style="fill:#e9d9c1"
   d="m 22.185,24.511 -0.014,0.01 -1.235,0.888 -2.157,-0.746 -0.024,-0.01 h 0.024 l 0.034,-0.002 h 0.024 l 0.029,-0.002 h 0.024 l 0.027,-0.002 h 0.024 l 0.034,-0.002 1.11,-0.046 h 0.007 l -0.01,-0.019 -0.007,-0.012 -0.005,-0.01 -0.007,-0.007 -0.005,-0.01 -0.005,-0.01 -0.005,-0.01 -0.787,-1.392 c 0.002,0 0.002,0 0.005,0 h 0.01 c 0.002,-0.002 0.002,-0.002 0.005,-0.002 h 0.022 c 0.002,0 0.002,0 0.005,0 h 0.01 c 0.232,-0.014 0.466,-0.022 0.697,-0.027 h 0.007 l 0.828,1.467 1.226,-0.051 h 0.014 l 0.014,-0.002 h 0.053 l 0.014,-0.002 h 0.014 z"
   inkscape:connector-curvature="0" />
			<path
   id="XMLID_665_"
   style="fill:#e9d9c1"
   d="m 22.085,26.76 0.825,1.462 c -0.251,0.014 -0.504,0.027 -0.755,0.036 l -0.828,-1.467 -1.337,0.056 1.25,-0.898 2.181,0.753 z"
   inkscape:connector-curvature="0" />
		</g>
		<g
   id="XMLID_659_">
			<polygon
   id="XMLID_663_"
   style="fill:#e9d9c1"
   points="14.603,25.441 11.899,26.042 15.141,26.395 14.931,26.023 20.516,25.789 20.397,25.579 14.812,25.812 " />
			<polygon
   id="XMLID_662_"
   style="fill:#e9d9c1"
   points="26.896,25.307 21.311,25.54 21.43,25.751 27.015,25.517 27.225,25.889 29.928,25.287 26.686,24.935 " />
			<path
   id="XMLID_656_"
   style="fill:#e9d9c1"
   d="m 22.182,24.521 -1.25,0.898 -2.181,-0.755 h 0.027 l 0.027,-0.002 h 0.031 l 0.027,-0.002 h 0.027 l 0.024,-0.002 h 0.027 l 0.027,-0.002 h 0.031 L 20.09,24.61 20.085,24.6 20.08,24.59 l -0.007,-0.01 -0.005,-0.012 -0.007,-0.007 -0.005,-0.01 -0.005,-0.01 -0.005,-0.01 -0.005,-0.01 -0.787,-1.392 h 0.007 c 0.002,0 0.002,0 0.005,0 h 0.01 c 0.002,-0.002 0.002,-0.002 0.005,-0.002 h 0.022 c 0.002,0 0.002,0 0.005,0 h 0.01 c 0.232,-0.014 0.466,-0.022 0.697,-0.027 l 0.832,1.477 1.214,-0.051 h 0.029 l 0.012,-0.002 h 0.041 l 0.014,-0.002 h 0.025 z"
   inkscape:connector-curvature="0" />
			<path
   id="XMLID_660_"
   style="fill:#e9d9c1"
   d="m 22.083,26.77 0.825,1.462 c -0.251,0.014 -0.504,0.027 -0.755,0.036 l -0.828,-1.467 -1.337,0.056 1.25,-0.898 2.181,0.753 z"
   inkscape:connector-curvature="0" />
		</g>
	</g>
	<g
   id="XMLID_602_"
   style="opacity:0.2">
		<g
   id="XMLID_607_">
			<linearGradient
   id="XMLID_14_"
   gradientUnits="userSpaceOnUse"
   x1="20.478901"
   y1="45.224701"
   x2="20.478901"
   y2="45.226002">
				<stop
   offset="0"
   style="stop-color:#FFBC89"
   id="stop145" />
				<stop
   offset="1"
   style="stop-color:#E60012"
   id="stop147" />
			</linearGradient>
			<polygon
   id="XMLID_609_"
   style="fill:url(#XMLID_14_)"
   points="20.475,45.225 20.479,45.225 20.483,45.226 " />
			<linearGradient
   id="XMLID_15_"
   gradientUnits="userSpaceOnUse"
   x1="12.3069"
   y1="5.5883422e-05"
   x2="12.3069"
   y2="45.257">
				<stop
   offset="0.202"
   style="stop-color:#E60012;stop-opacity:0"
   id="stop151" />
				<stop
   offset="1"
   style="stop-color:#E60012"
   id="stop153" />
			</linearGradient>
			<path
   id="XMLID_608_"
   style="fill:url(#XMLID_15_)"
   d="m 20.915,45.256 v 10e-4 c -0.019,0 -0.036,-10e-4 -0.053,-0.002 -0.019,0 -0.037,-0.002 -0.055,-0.002 H 20.8 c -0.036,-10e-4 -0.071,-0.002 -0.107,-0.005 -0.035,-0.002 -0.068,-0.006 -0.102,-0.009 -0.036,-0.004 -0.073,-0.007 -0.109,-0.012 -0.002,0 -0.005,0 -0.007,-10e-4 -0.03,-0.004 -0.061,-0.007 -0.091,-0.012 -0.001,0 -0.002,0 -0.004,-10e-4 -0.005,0 -0.01,-10e-4 -0.015,-0.002 -0.03,-0.005 -0.058,-0.01 -0.087,-0.015 -0.004,-10e-4 -0.007,-10e-4 -0.011,-0.002 -0.002,0 -0.005,-0.001 -0.007,-0.001 -0.027,-0.005 -0.056,-0.01 -0.083,-0.016 -0.016,-0.004 -0.031,-0.007 -0.046,-0.011 -0.029,-0.007 -0.057,-0.014 -0.084,-0.021 -0.001,0 -0.004,-0.001 -0.005,-0.001 -0.026,-0.007 -0.051,-0.014 -0.076,-0.021 -0.03,-0.009 -0.06,-0.017 -0.088,-0.027 -0.019,-0.006 -0.037,-0.012 -0.056,-0.019 -0.03,-0.011 -0.061,-0.022 -0.091,-0.033 -0.004,-10e-4 -0.007,-0.002 -0.011,-0.004 -0.035,-0.014 -0.067,-0.027 -0.1,-0.042 -0.076,-0.032 -0.148,-0.069 -0.217,-0.109 L 4.351,36.199 C 4.055,36.028 3.86,35.821 3.767,35.601 3.752,35.564 3.74,35.527 3.731,35.489 3.727,35.475 3.724,35.463 3.721,35.451 3.714,35.416 3.71,35.382 3.707,35.347 c 0,-0.004 -10e-4,-0.007 -10e-4,-0.01 0,-0.004 -10e-4,-0.006 -10e-4,-0.01 L 3.701,36.525 3.697,36.523 3.732,0 20.891,9.644 20.902,25.341 Z"
   inkscape:connector-curvature="0" />
		</g>
		<g
   id="XMLID_603_">
			<linearGradient
   id="XMLID_16_"
   gradientUnits="userSpaceOnUse"
   x1="20.8937"
   y1="35.322899"
   x2="20.8937"
   y2="47.999901">
				<stop
   offset="0"
   style="stop-color:#FFBC89"
   id="stop158" />
				<stop
   offset="1"
   style="stop-color:#E60012"
   id="stop160" />
			</linearGradient>
			<path
   id="XMLID_606_"
   style="fill:url(#XMLID_16_)"
   d="m 38.09,35.329 v 0.255 l -0.002,0.936 -0.005,1.528 v 0.02 c 0,0.015 -0.004,0.03 -0.005,0.045 -0.002,0.022 -0.004,0.046 -0.007,0.069 -10e-4,0.004 -10e-4,0.007 -10e-4,0.011 -0.004,0.015 -0.009,0.03 -0.014,0.045 -0.005,0.021 -0.011,0.043 -0.019,0.064 -10e-4,0.005 -0.002,0.01 -0.004,0.014 -0.005,0.014 -0.012,0.027 -0.019,0.04 -0.01,0.024 -0.02,0.046 -0.032,0.068 -0.002,0.006 -0.004,0.011 -0.007,0.017 -0.006,0.011 -0.015,0.021 -0.021,0.032 -0.016,0.025 -0.033,0.051 -0.052,0.076 -0.005,0.007 -0.009,0.015 -0.015,0.022 -0.014,0.017 -0.029,0.033 -0.042,0.05 -0.005,0.006 -0.01,0.012 -0.015,0.017 -0.025,0.027 -0.051,0.053 -0.078,0.079 -0.005,0.004 -0.01,0.007 -0.014,0.011 -0.021,0.019 -0.045,0.037 -0.068,0.056 -0.02,0.016 -0.038,0.032 -0.061,0.048 -0.025,0.017 -0.052,0.035 -0.078,0.052 -0.02,0.012 -0.037,0.026 -0.057,0.038 -0.009,0.005 -0.017,0.01 -0.027,0.015 l -14.954,8.69 c -0.066,0.038 -0.135,0.073 -0.207,0.105 -0.02,0.009 -0.041,0.017 -0.062,0.026 -0.056,0.024 -0.113,0.046 -0.172,0.066 -0.012,0.004 -0.025,0.01 -0.038,0.015 -0.007,0.002 -0.016,0.004 -0.025,0.006 -0.036,0.012 -0.074,0.022 -0.112,0.032 -0.03,0.007 -0.057,0.016 -0.087,0.024 -0.04,0.01 -0.081,0.017 -0.12,0.026 -0.024,0.005 -0.047,0.01 -0.071,0.015 -0.005,0 -0.009,10e-4 -0.012,10e-4 -0.082,0.015 -0.165,0.026 -0.249,0.035 -0.006,10e-4 -0.012,0.002 -0.019,0.002 -0.02,0.002 -0.04,0.002 -0.06,0.004 -0.048,0.005 -0.098,0.009 -0.148,0.01 -0.011,10e-4 -0.024,0.002 -0.035,0.002 -0.02,10e-4 -0.04,0 -0.061,10e-4 h -0.164 c -0.019,0 -0.037,-0.002 -0.056,-0.002 -0.037,-10e-4 -0.074,-0.004 -0.11,-0.006 -0.017,-10e-4 -0.033,-10e-4 -0.05,-0.002 -0.017,-0.001 -0.035,-0.005 -0.052,-0.006 -0.037,-0.004 -0.073,-0.007 -0.109,-0.012 -0.017,-10e-4 -0.035,-0.002 -0.052,-0.005 -0.015,-0.002 -0.031,-0.006 -0.046,-0.009 -0.04,-0.006 -0.078,-0.012 -0.117,-0.02 -0.017,-0.004 -0.036,-0.006 -0.055,-0.01 -0.012,-0.002 -0.024,-0.006 -0.036,-0.009 -0.046,-0.01 -0.091,-0.021 -0.135,-0.033 -0.019,-0.005 -0.038,-0.009 -0.057,-0.014 -0.006,-10e-4 -0.012,-0.005 -0.019,-0.006 -0.081,-0.024 -0.159,-0.05 -0.236,-0.079 -0.004,-10e-4 -0.007,-0.002 -0.011,-0.004 -0.035,-0.014 -0.067,-0.029 -0.099,-0.043 -0.019,-0.009 -0.038,-0.016 -0.057,-0.025 -0.055,-0.026 -0.109,-0.053 -0.16,-0.084 L 4.341,38.938 C 3.909,38.689 3.695,38.363 3.695,38.035 L 3.7,36.52 3.704,35.322 c 0,0.004 10e-4,0.006 10e-4,0.01 0.002,0.069 0.016,0.139 0.04,0.208 0.006,0.019 0.014,0.037 0.021,0.056 0.093,0.219 0.288,0.427 0.584,0.598 l 15.052,8.69 c 0.069,0.04 0.141,0.077 0.217,0.109 0.033,0.015 0.066,0.029 0.1,0.042 0.033,0.014 0.067,0.026 0.102,0.037 0.019,0.006 0.037,0.012 0.056,0.019 0.082,0.029 0.166,0.052 0.253,0.071 0.015,0.004 0.03,0.007 0.046,0.011 0.033,0.007 0.067,0.015 0.102,0.02 0.033,0.007 0.067,0.014 0.102,0.017 0.001,10e-4 0.002,10e-4 0.004,10e-4 0.03,0.005 0.061,0.009 0.091,0.012 0.002,10e-4 0.005,10e-4 0.007,10e-4 0.036,0.005 0.073,0.009 0.109,0.012 0.033,0.005 0.068,0.007 0.102,0.009 0.019,0.001 0.038,0.002 0.057,0.004 0.055,0.004 0.109,0.005 0.165,0.006 h 0.016 c 0.139,10e-4 0.277,-0.006 0.413,-0.021 0.079,-0.007 0.159,-0.02 0.237,-0.033 0.004,0 0.009,0 0.012,-10e-4 0.005,-0.001 0.01,-0.002 0.015,-0.002 0.063,-0.012 0.126,-0.025 0.188,-0.041 0.068,-0.015 0.135,-0.033 0.2,-0.055 0.048,-0.015 0.097,-0.031 0.143,-0.05 0.029,-0.011 0.055,-0.022 0.082,-0.033 0.004,-10e-4 0.006,-0.002 0.01,-0.004 0.021,-0.009 0.042,-0.017 0.063,-0.027 0.029,-0.012 0.056,-0.026 0.084,-0.04 0.041,-0.02 0.082,-0.041 0.122,-0.064 l 14.955,-8.69 c 0.03,-0.017 0.056,-0.036 0.083,-0.053 0.002,-10e-4 0.005,-0.004 0.009,-0.006 0.024,-0.016 0.047,-0.032 0.069,-0.047 0.02,-0.012 0.036,-0.027 0.055,-0.042 0.002,-0.002 0.005,-0.004 0.007,-0.006 0.019,-0.014 0.037,-0.029 0.055,-0.043 0.006,-0.005 0.011,-0.01 0.017,-0.016 0.015,-0.014 0.029,-0.027 0.043,-0.041 0.015,-0.015 0.03,-0.03 0.043,-0.045 0.001,-0.001 0.001,-0.001 0.001,-0.002 0.005,-0.005 0.01,-0.011 0.014,-0.015 0.01,-0.011 0.019,-0.022 0.027,-0.035 0.005,-0.006 0.01,-0.012 0.015,-0.019 0.006,-0.006 0.011,-0.012 0.015,-0.019 0.012,-0.015 0.021,-0.031 0.031,-0.046 0.007,-0.011 0.015,-0.021 0.021,-0.031 0.01,-0.016 0.021,-0.032 0.03,-0.048 0.022,-0.04 0.041,-0.081 0.055,-0.122 0.004,-0.011 0.006,-0.021 0.01,-0.032 0.004,-0.011 0.006,-0.022 0.009,-0.033 10e-4,-0.004 0.002,-0.009 0.004,-0.012 0.004,-0.015 0.007,-0.029 0.01,-0.043 10e-4,-0.005 10e-4,-0.011 10e-4,-0.016 0.006,-0.031 0.01,-0.062 0.011,-0.093 z"
   inkscape:connector-curvature="0" />
			<linearGradient
   id="XMLID_17_"
   gradientUnits="userSpaceOnUse"
   x1="29.490299"
   y1="5.5884189e-05"
   x2="29.490299"
   y2="45.257099">
				<stop
   offset="0.202"
   style="stop-color:#E60012;stop-opacity:0"
   id="stop164" />
				<stop
   offset="1"
   style="stop-color:#E60012"
   id="stop166" />
			</linearGradient>
			<path
   id="XMLID_605_"
   style="fill:url(#XMLID_17_)"
   d="m 38.09,35.329 c -0.001,0.031 -0.005,0.062 -0.011,0.092 0,0.005 0,0.011 -10e-4,0.016 -0.002,0.015 -0.006,0.029 -0.01,0.043 -10e-4,0.004 -0.002,0.009 -0.004,0.012 -0.002,0.011 -0.006,0.022 -0.009,0.033 -0.004,0.011 -0.006,0.021 -0.01,0.032 -0.014,0.041 -0.032,0.082 -0.055,0.122 -0.009,0.016 -0.02,0.032 -0.03,0.048 -0.006,0.01 -0.014,0.02 -0.021,0.031 -0.01,0.015 -0.019,0.031 -0.031,0.046 -0.004,0.006 -0.009,0.012 -0.015,0.019 -0.005,0.006 -0.01,0.012 -0.015,0.019 -0.009,0.012 -0.017,0.024 -0.027,0.035 -0.004,0.004 -0.009,0.01 -0.014,0.015 0,10e-4 0,10e-4 -0.001,0.002 -0.014,0.015 -0.029,0.03 -0.043,0.045 -0.015,0.014 -0.029,0.027 -0.043,0.041 -0.006,0.006 -0.011,0.011 -0.017,0.016 -0.017,0.015 -0.036,0.03 -0.055,0.043 -0.002,0.002 -0.005,0.004 -0.007,0.006 -0.017,0.014 -0.036,0.027 -0.055,0.042 -0.022,0.015 -0.046,0.031 -0.069,0.047 -0.004,0.002 -0.006,0.005 -0.009,0.006 -0.027,0.017 -0.053,0.036 -0.083,0.053 L 22.5,44.885 c -0.04,0.024 -0.081,0.045 -0.122,0.064 -0.029,0.014 -0.056,0.027 -0.084,0.04 -0.021,0.01 -0.042,0.019 -0.063,0.027 -0.004,0.001 -0.006,0.002 -0.01,0.004 -0.027,0.011 -0.053,0.022 -0.082,0.033 -0.046,0.019 -0.094,0.035 -0.143,0.05 -0.037,0.011 -0.076,0.021 -0.113,0.032 -0.029,0.007 -0.057,0.016 -0.087,0.022 -0.062,0.016 -0.125,0.029 -0.188,0.041 -0.005,0 -0.01,10e-4 -0.015,0.002 -0.004,10e-4 -0.009,10e-4 -0.012,10e-4 -0.078,0.014 -0.157,0.026 -0.237,0.033 -0.136,0.015 -0.274,0.022 -0.413,0.021 V 45.254 L 20.909,25.34 20.891,9.644 38.057,0 38.09,35.273 Z"
   inkscape:connector-curvature="0" />
			<linearGradient
   id="XMLID_18_"
   gradientUnits="userSpaceOnUse"
   x1="38.089401"
   y1="35.584599"
   x2="38.089401"
   y2="36.520802">
				<stop
   offset="0.202"
   style="stop-color:#E60012;stop-opacity:0"
   id="stop170" />
				<stop
   offset="1"
   style="stop-color:#E60012"
   id="stop172" />
			</linearGradient>
			<polygon
   id="XMLID_604_"
   style="fill:url(#XMLID_18_)"
   points="38.088,36.521 38.09,35.585 38.091,36.518 " />
		</g>
	</g>
</g>
</svg>