<?xml version="1.0" encoding="UTF-8" standalone="no"?>
<!-- Generator: Adobe Illustrator 22.0.0, SVG Export Plug-In . SVG Version: 6.00 Build 0)  -->

<svg
   xmlns:dc="http://purl.org/dc/elements/1.1/"
   xmlns:cc="http://creativecommons.org/ns#"
   xmlns:rdf="http://www.w3.org/1999/02/22-rdf-syntax-ns#"
   xmlns:svg="http://www.w3.org/2000/svg"
   xmlns="http://www.w3.org/2000/svg"
   xmlns:xlink="http://www.w3.org/1999/xlink"
   xmlns:sodipodi="http://sodipodi.sourceforge.net/DTD/sodipodi-0.dtd"
   xmlns:inkscape="http://www.inkscape.org/namespaces/inkscape"
   version="1.1"
   id="图层_1"
   x="0px"
   y="0px"
   viewBox="0 0 50 50"
   xml:space="preserve"
   sodipodi:docname="dx-32n.svg"
   width="50"
   height="50"
   inkscape:version="0.92.4 (5da689c313, 2019-01-14)"><metadata
   id="metadata267"><rdf:RDF><cc:Work
       rdf:about=""><dc:format>image/svg+xml</dc:format><dc:type
         rdf:resource="http://purl.org/dc/dcmitype/StillImage" /><dc:title /></cc:Work></rdf:RDF></metadata><defs
   id="defs265" /><sodipodi:namedview
   pagecolor="#ffffff"
   bordercolor="#666666"
   borderopacity="1"
   objecttolerance="10"
   gridtolerance="10"
   guidetolerance="10"
   inkscape:pageopacity="0"
   inkscape:pageshadow="2"
   inkscape:window-width="1366"
   inkscape:window-height="706"
   id="namedview263"
   showgrid="false"
   inkscape:zoom="4.9166667"
   inkscape:cx="24"
   inkscape:cy="24"
   inkscape:window-x="-8"
   inkscape:window-y="-8"
   inkscape:window-maximized="1"
   inkscape:current-layer="图层_1" />
<style
   type="text/css"
   id="style2">
	.st0{enable-background:new    ;}
	.st1{fill:url(#XMLID_2_);}
	.st2{fill:url(#XMLID_3_);}
	.st3{fill:url(#XMLID_4_);}
	.st4{fill:url(#XMLID_5_);}
	.st5{fill:url(#XMLID_6_);}
	.st6{fill:url(#XMLID_7_);}
	.st7{fill:#2A497D;}
	.st8{fill:url(#XMLID_8_);}
	.st9{fill:url(#SVGID_1_);}
	.st10{fill:url(#XMLID_9_);}
	.st11{clip-path:url(#SVGID_3_);}
	.st12{fill:#3E9E8E;}
	.st13{fill:#0F1045;}
	.st14{fill:#1B1E80;}
	.st15{fill:#121456;}
	.st16{fill:#009983;}
	.st17{fill:#00B99E;}
	.st18{fill:#00E5C4;}
	.st19{fill:url(#XMLID_10_);}
	.st20{fill:url(#XMLID_11_);}
	.st21{fill:url(#XMLID_12_);}
	.st22{fill:url(#XMLID_13_);}
	.st23{opacity:0.2;}
	.st24{fill:url(#XMLID_14_);}
	.st25{fill:url(#XMLID_15_);}
	.st26{fill:url(#XMLID_16_);}
	.st27{fill:url(#XMLID_17_);}
	.st28{fill:url(#XMLID_18_);}
</style>
<g
   id="XMLID_1081_"
   transform="matrix(1.4079622,0,0,1.2753804,-8.6732638,-11.219196)">
	<g
   id="XMLID_1082_"
   class="st0"
   style="enable-background:new">
		
			<linearGradient
   id="XMLID_2_"
   gradientUnits="userSpaceOnUse"
   x1="24.003"
   y1="13.706"
   x2="24.003"
   y2="0.99659997"
   gradientTransform="matrix(1,0,0,-1,0,49)">
			<stop
   offset="0"
   style="stop-color:#498DEA"
   id="stop4" />
			<stop
   offset="1"
   style="stop-color:#020D83"
   id="stop6" />
		</linearGradient>
		<path
   id="XMLID_1085_"
   class="st1"
   d="m 41.192,35.368 c -0.002,0.023 -0.004,0.046 -0.008,0.069 -0.003,0.019 -0.009,0.037 -0.014,0.056 -0.006,0.022 -0.011,0.044 -0.019,0.066 -0.006,0.018 -0.015,0.036 -0.022,0.053 -0.01,0.023 -0.02,0.046 -0.032,0.068 -0.009,0.016 -0.019,0.032 -0.029,0.049 -0.016,0.026 -0.033,0.051 -0.051,0.076 -0.018,0.024 -0.037,0.048 -0.058,0.072 -0.005,0.006 -0.009,0.011 -0.015,0.017 -0.028,0.031 -0.059,0.061 -0.092,0.09 -0.021,0.019 -0.044,0.037 -0.067,0.056 -0.02,0.016 -0.04,0.033 -0.061,0.048 -0.025,0.018 -0.052,0.035 -0.079,0.052 -0.028,0.018 -0.054,0.036 -0.083,0.054 l -14.954,8.69 c -0.066,0.038 -0.135,0.072 -0.207,0.104 -0.021,0.009 -0.042,0.018 -0.063,0.027 -0.056,0.023 -0.113,0.045 -0.172,0.065 -0.021,0.007 -0.041,0.015 -0.063,0.022 -0.037,0.012 -0.075,0.022 -0.113,0.032 -0.029,0.008 -0.057,0.016 -0.086,0.023 -0.04,0.01 -0.081,0.018 -0.121,0.026 -0.027,0.006 -0.055,0.012 -0.082,0.017 -0.082,0.014 -0.165,0.026 -0.249,0.035 -0.026,0.003 -0.052,0.004 -0.078,0.007 -0.049,0.004 -0.098,0.008 -0.148,0.01 -0.032,10e-4 -0.063,0.002 -0.095,0.003 -0.04,10e-4 -0.08,10e-4 -0.12,10e-4 -0.034,0 -0.067,-10e-4 -0.1,-0.003 C 23.874,45.252 23.837,45.25 23.8,45.247 23.766,45.245 23.732,45.242 23.699,45.239 23.663,45.235 23.626,45.231 23.59,45.227 23.557,45.223 23.525,45.218 23.492,45.213 23.453,45.207 23.414,45.2 23.376,45.193 c -0.03,-0.006 -0.061,-0.012 -0.091,-0.018 -0.046,-0.01 -0.091,-0.021 -0.136,-0.033 -0.025,-0.007 -0.05,-0.013 -0.075,-0.02 -0.08,-0.024 -0.159,-0.05 -0.235,-0.079 C 22.801,45.028 22.765,45.012 22.728,44.996 22.709,44.988 22.69,44.98 22.671,44.971 22.616,44.945 22.562,44.917 22.51,44.887 L 7.458,36.197 C 7.026,35.948 6.811,35.621 6.812,35.294 l -0.008,2.745 c -0.001,0.327 0.215,0.654 0.646,0.903 l 15.052,8.69 c 0.052,0.03 0.105,0.058 0.161,0.084 0.018,0.009 0.038,0.016 0.057,0.025 0.033,0.015 0.065,0.03 0.099,0.043 0.004,0.002 0.008,0.003 0.012,0.004 0.076,0.03 0.155,0.056 0.235,0.079 0.006,0.002 0.012,0.005 0.019,0.006 0.018,0.005 0.038,0.009 0.056,0.014 0.045,0.012 0.09,0.023 0.136,0.033 0.012,0.003 0.024,0.006 0.036,0.009 0.018,0.004 0.037,0.006 0.055,0.01 0.038,0.007 0.077,0.014 0.116,0.02 0.016,0.002 0.031,0.006 0.047,0.008 0.017,0.002 0.034,0.004 0.052,0.006 0.036,0.005 0.072,0.009 0.109,0.012 0.018,0.002 0.035,0.004 0.052,0.006 0.016,10e-4 0.033,10e-4 0.049,0.003 0.037,0.003 0.074,0.004 0.111,0.006 0.019,10e-4 0.037,0.003 0.056,0.003 0.015,0 0.03,0 0.045,0 0.04,10e-4 0.08,0 0.12,-10e-4 0.02,0 0.04,0 0.06,0 0.012,0 0.024,-0.002 0.035,-0.002 0.049,-0.002 0.099,-0.006 0.148,-0.01 0.02,-0.002 0.04,-0.002 0.06,-0.004 0.006,-10e-4 0.012,-0.002 0.018,-0.003 0.084,-0.009 0.167,-0.02 0.249,-0.035 0.004,-10e-4 0.008,-10e-4 0.012,-0.002 0.024,-0.004 0.047,-0.01 0.071,-0.015 0.04,-0.008 0.081,-0.016 0.121,-0.026 0.029,-0.007 0.058,-0.015 0.086,-0.023 0.038,-0.01 0.076,-0.02 0.113,-0.032 0.008,-0.002 0.016,-0.004 0.024,-0.007 0.013,-0.004 0.026,-0.01 0.039,-0.015 0.059,-0.02 0.116,-0.042 0.172,-0.065 0.021,-0.009 0.042,-0.017 0.063,-0.027 0.071,-0.032 0.141,-0.066 0.207,-0.104 l 14.954,-8.69 c 0.009,-0.005 0.018,-0.01 0.027,-0.016 0.02,-0.012 0.037,-0.025 0.056,-0.038 0.027,-0.017 0.054,-0.035 0.079,-0.053 0.022,-0.016 0.041,-0.032 0.061,-0.048 0.023,-0.018 0.046,-0.037 0.067,-0.055 0.004,-0.004 0.009,-0.007 0.014,-0.011 0.028,-0.026 0.054,-0.053 0.079,-0.079 0.005,-0.006 0.009,-0.011 0.014,-0.017 0.015,-0.017 0.029,-0.033 0.043,-0.05 0.006,-0.007 0.01,-0.015 0.015,-0.022 0.019,-0.025 0.036,-0.051 0.051,-0.076 0.007,-0.011 0.015,-0.021 0.022,-0.032 0.003,-0.005 0.005,-0.011 0.008,-0.017 0.012,-0.023 0.022,-0.045 0.032,-0.068 0.006,-0.013 0.014,-0.026 0.019,-0.04 0.002,-0.005 0.002,-0.009 0.004,-0.014 0.008,-0.022 0.013,-0.044 0.019,-0.065 0.004,-0.015 0.01,-0.029 0.013,-0.044 10e-4,-0.004 10e-4,-0.008 10e-4,-0.012 0.004,-0.023 0.006,-0.046 0.008,-0.069 10e-4,-0.015 0.005,-0.03 0.005,-0.045 0,-0.006 0,-0.013 0,-0.019 l 0.008,-2.745 c -0.005,0.018 -0.009,0.04 -0.01,0.061 z"
   inkscape:connector-curvature="0"
   style="fill:url(#XMLID_2_)" />
		<g
   id="XMLID_1083_">
			
				<linearGradient
   id="XMLID_3_"
   gradientUnits="userSpaceOnUse"
   x1="6.8106999"
   y1="13.7015"
   x2="41.196602"
   y2="13.7015"
   gradientTransform="matrix(1,0,0,-1,0,49)">
				<stop
   offset="0"
   style="stop-color:#498DEA"
   id="stop10" />
				<stop
   offset="1"
   style="stop-color:#020D83"
   id="stop12" />
			</linearGradient>
			<path
   id="XMLID_1084_"
   class="st2"
   d="m 40.55,34.401 c 0.858,0.495 0.863,1.298 0.01,1.794 l -14.954,8.691 c -0.852,0.495 -2.239,0.495 -3.097,0 L 7.457,36.196 C 6.599,35.701 6.595,34.898 7.447,34.402 l 14.954,-8.691 c 0.852,-0.495 2.238,-0.495 3.096,0 z"
   inkscape:connector-curvature="0"
   style="fill:url(#XMLID_3_)" />
		</g>
	</g>
</g>
<g
   id="XMLID_1076_"
   transform="matrix(1.4079622,0,0,1.2753804,-8.6732638,-11.219196)">
	<g
   id="XMLID_1077_"
   class="st0"
   style="enable-background:new">
		
			<linearGradient
   id="XMLID_4_"
   gradientUnits="userSpaceOnUse"
   x1="24.003"
   y1="13.706"
   x2="24.003"
   y2="0.99659997"
   gradientTransform="matrix(1,0,0,-1,0,49)">
			<stop
   offset="0"
   style="stop-color:#498DEA"
   id="stop19" />
			<stop
   offset="1"
   style="stop-color:#020D83"
   id="stop21" />
		</linearGradient>
		<path
   id="XMLID_1080_"
   class="st3"
   d="m 41.192,35.368 c -0.002,0.023 -0.004,0.046 -0.008,0.069 -0.003,0.019 -0.009,0.037 -0.014,0.056 -0.006,0.022 -0.011,0.044 -0.019,0.066 -0.006,0.018 -0.015,0.036 -0.022,0.053 -0.01,0.023 -0.02,0.046 -0.032,0.068 -0.009,0.016 -0.019,0.032 -0.029,0.049 -0.016,0.026 -0.033,0.051 -0.051,0.076 -0.018,0.024 -0.037,0.048 -0.058,0.072 -0.005,0.006 -0.009,0.011 -0.015,0.017 -0.028,0.031 -0.059,0.061 -0.092,0.09 -0.021,0.019 -0.044,0.037 -0.067,0.056 -0.02,0.016 -0.04,0.033 -0.061,0.048 -0.025,0.018 -0.052,0.035 -0.079,0.052 -0.028,0.018 -0.054,0.036 -0.083,0.054 l -14.954,8.69 c -0.066,0.038 -0.135,0.072 -0.207,0.104 -0.021,0.009 -0.042,0.018 -0.063,0.027 -0.056,0.023 -0.113,0.045 -0.172,0.065 -0.021,0.007 -0.041,0.015 -0.063,0.022 -0.037,0.012 -0.075,0.022 -0.113,0.032 -0.029,0.008 -0.057,0.016 -0.086,0.023 -0.04,0.01 -0.081,0.018 -0.121,0.026 -0.027,0.006 -0.055,0.012 -0.082,0.017 -0.082,0.014 -0.165,0.026 -0.249,0.035 -0.026,0.003 -0.052,0.004 -0.078,0.007 -0.049,0.004 -0.098,0.008 -0.148,0.01 -0.032,10e-4 -0.063,0.002 -0.095,0.003 -0.04,10e-4 -0.08,10e-4 -0.12,10e-4 -0.034,0 -0.067,-10e-4 -0.1,-0.003 C 23.874,45.252 23.837,45.25 23.8,45.247 23.766,45.245 23.732,45.242 23.699,45.239 23.663,45.235 23.626,45.231 23.59,45.227 23.557,45.223 23.525,45.218 23.492,45.213 23.453,45.207 23.414,45.2 23.376,45.193 c -0.03,-0.006 -0.061,-0.012 -0.091,-0.018 -0.046,-0.01 -0.091,-0.021 -0.136,-0.033 -0.025,-0.007 -0.05,-0.013 -0.075,-0.02 -0.08,-0.024 -0.159,-0.05 -0.235,-0.079 C 22.801,45.028 22.765,45.012 22.728,44.996 22.709,44.988 22.69,44.98 22.671,44.971 22.616,44.945 22.562,44.917 22.51,44.887 L 7.458,36.197 C 7.026,35.948 6.811,35.621 6.812,35.294 l -0.008,2.745 c -0.001,0.327 0.215,0.654 0.646,0.903 l 15.052,8.69 c 0.052,0.03 0.105,0.058 0.161,0.084 0.018,0.009 0.038,0.016 0.057,0.025 0.033,0.015 0.065,0.03 0.099,0.043 0.004,0.002 0.008,0.003 0.012,0.004 0.076,0.03 0.155,0.056 0.235,0.079 0.006,0.002 0.012,0.005 0.019,0.006 0.018,0.005 0.038,0.009 0.056,0.014 0.045,0.012 0.09,0.023 0.136,0.033 0.012,0.003 0.024,0.006 0.036,0.009 0.018,0.004 0.037,0.006 0.055,0.01 0.038,0.007 0.077,0.014 0.116,0.02 0.016,0.002 0.031,0.006 0.047,0.008 0.017,0.002 0.034,0.004 0.052,0.006 0.036,0.005 0.072,0.009 0.109,0.012 0.018,0.002 0.035,0.004 0.052,0.006 0.016,10e-4 0.033,10e-4 0.049,0.003 0.037,0.003 0.074,0.004 0.111,0.006 0.019,10e-4 0.037,0.003 0.056,0.003 0.015,0 0.03,0 0.045,0 0.04,10e-4 0.08,0 0.12,-10e-4 0.02,0 0.04,0 0.06,0 0.012,0 0.024,-0.002 0.035,-0.002 0.049,-0.002 0.099,-0.006 0.148,-0.01 0.02,-0.002 0.04,-0.002 0.06,-0.004 0.006,-10e-4 0.012,-0.002 0.018,-0.003 0.084,-0.009 0.167,-0.02 0.249,-0.035 0.004,-10e-4 0.008,-10e-4 0.012,-0.002 0.024,-0.004 0.047,-0.01 0.071,-0.015 0.04,-0.008 0.081,-0.016 0.121,-0.026 0.029,-0.007 0.058,-0.015 0.086,-0.023 0.038,-0.01 0.076,-0.02 0.113,-0.032 0.008,-0.002 0.016,-0.004 0.024,-0.007 0.013,-0.004 0.026,-0.01 0.039,-0.015 0.059,-0.02 0.116,-0.042 0.172,-0.065 0.021,-0.009 0.042,-0.017 0.063,-0.027 0.071,-0.032 0.141,-0.066 0.207,-0.104 l 14.954,-8.69 c 0.009,-0.005 0.018,-0.01 0.027,-0.016 0.02,-0.012 0.037,-0.025 0.056,-0.038 0.027,-0.017 0.054,-0.035 0.079,-0.053 0.022,-0.016 0.041,-0.032 0.061,-0.048 0.023,-0.018 0.046,-0.037 0.067,-0.055 0.004,-0.004 0.009,-0.007 0.014,-0.011 0.028,-0.026 0.054,-0.053 0.079,-0.079 0.005,-0.006 0.009,-0.011 0.014,-0.017 0.015,-0.017 0.029,-0.033 0.043,-0.05 0.006,-0.007 0.01,-0.015 0.015,-0.022 0.019,-0.025 0.036,-0.051 0.051,-0.076 0.007,-0.011 0.015,-0.021 0.022,-0.032 0.003,-0.005 0.005,-0.011 0.008,-0.017 0.012,-0.023 0.022,-0.045 0.032,-0.068 0.006,-0.013 0.014,-0.026 0.019,-0.04 0.002,-0.005 0.002,-0.009 0.004,-0.014 0.008,-0.022 0.013,-0.044 0.019,-0.065 0.004,-0.015 0.01,-0.029 0.013,-0.044 10e-4,-0.004 10e-4,-0.008 10e-4,-0.012 0.004,-0.023 0.006,-0.046 0.008,-0.069 10e-4,-0.015 0.005,-0.03 0.005,-0.045 0,-0.006 0,-0.013 0,-0.019 l 0.008,-2.745 c -0.005,0.018 -0.009,0.04 -0.01,0.061 z"
   inkscape:connector-curvature="0"
   style="fill:url(#XMLID_4_)" />
		<g
   id="XMLID_1078_">
			
				<linearGradient
   id="XMLID_5_"
   gradientUnits="userSpaceOnUse"
   x1="6.8106999"
   y1="13.7015"
   x2="41.196602"
   y2="13.7015"
   gradientTransform="matrix(1,0,0,-1,0,49)">
				<stop
   offset="0"
   style="stop-color:#498DEA"
   id="stop25" />
				<stop
   offset="1"
   style="stop-color:#020D83"
   id="stop27" />
			</linearGradient>
			<path
   id="XMLID_1079_"
   class="st4"
   d="m 40.55,34.401 c 0.858,0.495 0.863,1.298 0.01,1.794 l -14.954,8.691 c -0.852,0.495 -2.239,0.495 -3.097,0 L 7.457,36.196 C 6.599,35.701 6.595,34.898 7.447,34.402 l 14.954,-8.691 c 0.852,-0.495 2.238,-0.495 3.096,0 z"
   inkscape:connector-curvature="0"
   style="fill:url(#XMLID_5_)" />
		</g>
	</g>
</g>
<g
   id="XMLID_1071_"
   transform="matrix(1.4079622,0,0,1.2753804,-8.6732638,-11.219196)">
	<g
   id="XMLID_1072_"
   class="st0"
   style="enable-background:new">
		
			<linearGradient
   id="XMLID_6_"
   gradientUnits="userSpaceOnUse"
   x1="24.003"
   y1="13.706"
   x2="24.003"
   y2="0.99659997"
   gradientTransform="matrix(1,0,0,-1,0,49)">
			<stop
   offset="0"
   style="stop-color:#977FFF"
   id="stop34" />
			<stop
   offset="1"
   style="stop-color:#33006C"
   id="stop36" />
		</linearGradient>
		<path
   id="XMLID_1075_"
   class="st5"
   d="m 41.192,35.368 c -0.002,0.023 -0.004,0.046 -0.008,0.069 -0.003,0.019 -0.009,0.037 -0.014,0.056 -0.006,0.022 -0.011,0.044 -0.019,0.066 -0.006,0.018 -0.015,0.036 -0.022,0.053 -0.01,0.023 -0.02,0.046 -0.032,0.068 -0.009,0.016 -0.019,0.032 -0.029,0.049 -0.016,0.026 -0.033,0.051 -0.051,0.076 -0.018,0.024 -0.037,0.048 -0.058,0.072 -0.005,0.006 -0.009,0.011 -0.015,0.017 -0.028,0.031 -0.059,0.061 -0.092,0.09 -0.021,0.019 -0.044,0.037 -0.067,0.056 -0.02,0.016 -0.04,0.033 -0.061,0.048 -0.025,0.018 -0.052,0.035 -0.079,0.052 -0.028,0.018 -0.054,0.036 -0.083,0.054 l -14.954,8.69 c -0.066,0.038 -0.135,0.072 -0.207,0.104 -0.021,0.009 -0.042,0.018 -0.063,0.027 -0.056,0.023 -0.113,0.045 -0.172,0.065 -0.021,0.007 -0.041,0.015 -0.063,0.022 -0.037,0.012 -0.075,0.022 -0.113,0.032 -0.029,0.008 -0.057,0.016 -0.086,0.023 -0.04,0.01 -0.081,0.018 -0.121,0.026 -0.027,0.006 -0.055,0.012 -0.082,0.017 -0.082,0.014 -0.165,0.026 -0.249,0.035 -0.026,0.003 -0.052,0.004 -0.078,0.007 -0.049,0.004 -0.098,0.008 -0.148,0.01 -0.032,10e-4 -0.063,0.002 -0.095,0.003 -0.04,10e-4 -0.08,10e-4 -0.12,10e-4 -0.034,0 -0.067,-10e-4 -0.1,-0.003 C 23.874,45.252 23.837,45.25 23.8,45.247 23.766,45.245 23.732,45.242 23.699,45.239 23.663,45.235 23.626,45.231 23.59,45.227 23.557,45.223 23.525,45.218 23.492,45.213 23.453,45.207 23.414,45.2 23.376,45.193 c -0.03,-0.006 -0.061,-0.012 -0.091,-0.018 -0.046,-0.01 -0.091,-0.021 -0.136,-0.033 -0.025,-0.007 -0.05,-0.013 -0.075,-0.02 -0.08,-0.024 -0.159,-0.05 -0.235,-0.079 C 22.801,45.028 22.765,45.012 22.728,44.996 22.709,44.988 22.69,44.98 22.671,44.971 22.616,44.945 22.562,44.917 22.51,44.887 L 7.458,36.197 C 7.026,35.948 6.811,35.621 6.812,35.294 l -0.008,2.745 c -0.001,0.327 0.215,0.654 0.646,0.903 l 15.052,8.69 c 0.052,0.03 0.105,0.058 0.161,0.084 0.018,0.009 0.038,0.016 0.057,0.025 0.033,0.015 0.065,0.03 0.099,0.043 0.004,0.002 0.008,0.003 0.012,0.004 0.076,0.03 0.155,0.056 0.235,0.079 0.006,0.002 0.012,0.005 0.019,0.006 0.018,0.005 0.038,0.009 0.056,0.014 0.045,0.012 0.09,0.023 0.136,0.033 0.012,0.003 0.024,0.006 0.036,0.009 0.018,0.004 0.037,0.006 0.055,0.01 0.038,0.007 0.077,0.014 0.116,0.02 0.016,0.002 0.031,0.006 0.047,0.008 0.017,0.002 0.034,0.004 0.052,0.006 0.036,0.005 0.072,0.009 0.109,0.012 0.018,0.002 0.035,0.004 0.052,0.006 0.016,10e-4 0.033,10e-4 0.049,0.003 0.037,0.003 0.074,0.004 0.111,0.006 0.019,10e-4 0.037,0.003 0.056,0.003 0.015,0 0.03,0 0.045,0 0.04,10e-4 0.08,0 0.12,-10e-4 0.02,0 0.04,0 0.06,0 0.012,0 0.024,-0.002 0.035,-0.002 0.049,-0.002 0.099,-0.006 0.148,-0.01 0.02,-0.002 0.04,-0.002 0.06,-0.004 0.006,-10e-4 0.012,-0.002 0.018,-0.003 0.084,-0.009 0.167,-0.02 0.249,-0.035 0.004,-10e-4 0.008,-10e-4 0.012,-0.002 0.024,-0.004 0.047,-0.01 0.071,-0.015 0.04,-0.008 0.081,-0.016 0.121,-0.026 0.029,-0.007 0.058,-0.015 0.086,-0.023 0.038,-0.01 0.076,-0.02 0.113,-0.032 0.008,-0.002 0.016,-0.004 0.024,-0.007 0.013,-0.004 0.026,-0.01 0.039,-0.015 0.059,-0.02 0.116,-0.042 0.172,-0.065 0.021,-0.009 0.042,-0.017 0.063,-0.027 0.071,-0.032 0.141,-0.066 0.207,-0.104 l 14.954,-8.69 c 0.009,-0.005 0.018,-0.01 0.027,-0.016 0.02,-0.012 0.037,-0.025 0.056,-0.038 0.027,-0.017 0.054,-0.035 0.079,-0.053 0.022,-0.016 0.041,-0.032 0.061,-0.048 0.023,-0.018 0.046,-0.037 0.067,-0.055 0.004,-0.004 0.009,-0.007 0.014,-0.011 0.028,-0.026 0.054,-0.053 0.079,-0.079 0.005,-0.006 0.009,-0.011 0.014,-0.017 0.015,-0.017 0.029,-0.033 0.043,-0.05 0.006,-0.007 0.01,-0.015 0.015,-0.022 0.019,-0.025 0.036,-0.051 0.051,-0.076 0.007,-0.011 0.015,-0.021 0.022,-0.032 0.003,-0.005 0.005,-0.011 0.008,-0.017 0.012,-0.023 0.022,-0.045 0.032,-0.068 0.006,-0.013 0.014,-0.026 0.019,-0.04 0.002,-0.005 0.002,-0.009 0.004,-0.014 0.008,-0.022 0.013,-0.044 0.019,-0.065 0.004,-0.015 0.01,-0.029 0.013,-0.044 10e-4,-0.004 10e-4,-0.008 10e-4,-0.012 0.004,-0.023 0.006,-0.046 0.008,-0.069 10e-4,-0.015 0.005,-0.03 0.005,-0.045 0,-0.006 0,-0.013 0,-0.019 l 0.008,-2.745 c -0.005,0.018 -0.009,0.04 -0.01,0.061 z"
   inkscape:connector-curvature="0"
   style="fill:url(#XMLID_6_)" />
		<g
   id="XMLID_1073_">
			
				<linearGradient
   id="XMLID_7_"
   gradientUnits="userSpaceOnUse"
   x1="6.8106999"
   y1="13.7015"
   x2="41.196602"
   y2="13.7015"
   gradientTransform="matrix(1,0,0,-1,0,49)">
				<stop
   offset="0"
   style="stop-color:#977FFF"
   id="stop40" />
				<stop
   offset="1"
   style="stop-color:#33006C"
   id="stop42" />
			</linearGradient>
			<path
   id="XMLID_1074_"
   class="st6"
   d="m 40.55,34.401 c 0.858,0.495 0.863,1.298 0.01,1.794 l -14.954,8.691 c -0.852,0.495 -2.239,0.495 -3.097,0 L 7.457,36.196 C 6.599,35.701 6.595,34.898 7.447,34.402 l 14.954,-8.691 c 0.852,-0.495 2.238,-0.495 3.096,0 z"
   inkscape:connector-curvature="0"
   style="fill:url(#XMLID_7_)" />
		</g>
	</g>
</g>
<g
   id="XMLID_927_"
   transform="matrix(1.4079622,0,0,1.2753804,-8.6732638,-11.219196)">
	<g
   id="XMLID_1043_">
		<g
   id="XMLID_1044_"
   class="st0"
   style="enable-background:new">
			<g
   id="XMLID_1069_">
				<polygon
   id="XMLID_1070_"
   class="st7"
   points="31.788,21.277 25.392,17.513 26.784,18.306 31.356,20.963 "
   style="fill:#2a497d" />
			</g>
			<g
   id="XMLID_1049_">
				
					<linearGradient
   id="XMLID_8_"
   gradientUnits="userSpaceOnUse"
   x1="16.681"
   y1="25.007999"
   x2="16.681"
   y2="7.7719998"
   gradientTransform="matrix(1,0,0,-1,0,49)">
					<stop
   offset="0"
   style="stop-color:#977FFF"
   id="stop51" />
					<stop
   offset="1"
   style="stop-color:#33006C"
   id="stop53" />
				</linearGradient>
				<polygon
   id="XMLID_1050_"
   class="st8"
   points="19.893,41.228 13.497,37.542 13.469,23.992 19.865,27.756 "
   style="fill:url(#XMLID_8_)" />
			</g>
			<linearGradient
   id="SVGID_1_"
   gradientUnits="userSpaceOnUse"
   x1="22.6285"
   y1="27.756001"
   x2="22.6285"
   y2="17.441">
				<stop
   offset="0"
   style="stop-color:#977FFF"
   id="stop58" />
				<stop
   offset="1"
   style="stop-color:#33006C"
   id="stop60" />
			</linearGradient>
			<path
   class="st9"
   d="M 25.392,17.513 C 25.36,17.495 25.326,17.48 25.291,17.469 l 0.062,0.037 c 0,0 -0.001,0 -0.002,0 L 25.289,17.47 C 25.265,17.462 25.24,17.457 25.215,17.452 L 25.212,17.45 c -0.021,-0.003 -0.042,-0.006 -0.064,-0.007 -0.019,-0.001 -0.038,-0.001 -0.057,-0.001 -0.017,0 -0.035,0.001 -0.053,0.003 -0.016,0.001 -0.033,0.003 -0.05,0.006 L 25,17.457 c 0,0 -0.001,0 -0.001,0 l -0.01,-0.006 c -0.016,0.002 -0.032,0.005 -0.048,0.009 -0.016,0.003 -0.031,0.007 -0.047,0.011 -0.015,0.004 -0.03,0.009 -0.045,0.014 l -0.001,-10e-4 c -0.015,0.005 -0.03,0.01 -0.045,0.016 -0.015,0.006 -0.03,0.012 -0.045,0.018 v 0 c -0.015,0.006 -0.03,0.013 -0.044,0.02 -0.015,0.007 -0.03,0.014 -0.045,0.022 l 0.013,0.008 c 0,0 -10e-4,0 -10e-4,0 l -0.012,-0.007 c -0.015,0.007 -0.03,0.015 -0.045,0.024 -0.004,0.002 -0.007,0.005 -0.011,0.006 h -0.001 l -11.143,6.401 6.396,3.764 11.143,-6.4 c 0.292,-0.169 0.572,-0.197 0.78,-0.079 z"
   id="path63"
   inkscape:connector-curvature="0"
   style="fill:url(#SVGID_1_)" />
			<g
   id="XMLID_1045_">
				
					<linearGradient
   id="XMLID_9_"
   gradientUnits="userSpaceOnUse"
   x1="26.695499"
   y1="27.794901"
   x2="26.695499"
   y2="7.7719998"
   gradientTransform="matrix(1,0,0,-1,0,49)">
					<stop
   offset="0"
   style="stop-color:#977FFF"
   id="stop65" />
					<stop
   offset="1"
   style="stop-color:#33006C"
   id="stop67" />
				</linearGradient>
				<path
   id="XMLID_1046_"
   class="st10"
   d="m 31.008,21.356 c 0.292,-0.169 0.573,-0.197 0.78,-0.079 l 1.392,0.793 c 0.208,0.118 0.325,0.373 0.326,0.709 l 0.02,10.611 -13.633,7.838 -0.028,-13.472 z"
   inkscape:connector-curvature="0"
   style="fill:url(#XMLID_9_)" />
			</g>
		</g>
	</g>
	<g
   id="XMLID_1036_">
		<g
   id="XMLID_1037_"
   class="st0"
   style="enable-background:new">
			<g
   id="g82">
				<defs
   id="defs75">
					<polygon
   id="SVGID_2_"
   points="21.867,39.175 21.845,27.871 30.685,20.639 32.531,33.051 " />
				</defs>
				<clipPath
   id="SVGID_3_">
					<use
   xlink:href="#SVGID_2_"
   style="overflow:visible"
   id="use77"
   x="0"
   y="0"
   width="100%"
   height="100%" />
				</clipPath>
				<g
   id="XMLID_1039_"
   class="st11"
   clip-path="url(#SVGID_3_)">
					<path
   id="XMLID_1040_"
   class="st12"
   d="m 21.889,39.135 -0.022,-11.251 8.624,-4.946 c 0.234,-0.135 0.455,-0.161 0.621,-0.073 L 30.41,22.35 c 0.166,0.088 2.082,1.386 2.082,1.646 l 0.015,9.042 -10.618,6.097 m 8.603,-16.224 -8.647,4.959 0.022,11.304 10.664,-6.124 -0.015,-9.069 c -10e-4,-0.266 -1.919,-1.57 -2.09,-1.66 l 0.703,0.514 c -0.171,-0.089 -0.397,-0.062 -0.637,0.076"
   inkscape:connector-curvature="0"
   style="fill:#3e9e8e" />
				</g>
			</g>
		</g>
	</g>
	<g
   id="XMLID_955_">
		<g
   id="XMLID_1028_">
			<g
   id="XMLID_1029_"
   class="st0"
   style="enable-background:new">
				<g
   id="XMLID_1034_">
					<polygon
   id="XMLID_1035_"
   class="st13"
   points="18.997,35.685 19.107,35.621 19.107,35.716 18.996,35.78 "
   style="fill:#0f1045" />
				</g>
				<g
   id="XMLID_1032_">
					<polygon
   id="XMLID_1033_"
   class="st14"
   points="15.351,33.525 15.461,33.461 19.107,35.621 18.997,35.685 "
   style="fill:#1b1e80" />
				</g>
				<g
   id="XMLID_1030_">
					<polygon
   id="XMLID_1031_"
   class="st15"
   points="15.35,33.621 15.35,33.573 15.351,33.525 18.997,35.685 18.996,35.78 "
   style="fill:#121456" />
				</g>
			</g>
		</g>
		<g
   id="XMLID_1020_">
			<g
   id="XMLID_1021_"
   class="st0"
   style="enable-background:new">
				<g
   id="XMLID_1026_">
					<polygon
   id="XMLID_1027_"
   class="st13"
   points="18.997,34.941 19.107,34.877 19.107,34.973 18.996,35.037 "
   style="fill:#0f1045" />
				</g>
				<g
   id="XMLID_1024_">
					<polygon
   id="XMLID_1025_"
   class="st14"
   points="15.351,32.782 15.461,32.718 19.107,34.877 18.997,34.941 "
   style="fill:#1b1e80" />
				</g>
				<g
   id="XMLID_1022_">
					<polygon
   id="XMLID_1023_"
   class="st15"
   points="15.35,32.877 15.35,32.83 15.351,32.782 18.997,34.941 18.996,35.037 "
   style="fill:#121456" />
				</g>
			</g>
		</g>
		<g
   id="XMLID_1012_">
			<g
   id="XMLID_1013_"
   class="st0"
   style="enable-background:new">
				<g
   id="XMLID_1018_">
					<polygon
   id="XMLID_1019_"
   class="st13"
   points="18.997,34.198 19.107,34.134 19.107,34.23 18.996,34.294 "
   style="fill:#0f1045" />
				</g>
				<g
   id="XMLID_1016_">
					<polygon
   id="XMLID_1017_"
   class="st14"
   points="15.351,32.039 15.461,31.974 19.107,34.134 18.997,34.198 "
   style="fill:#1b1e80" />
				</g>
				<g
   id="XMLID_1014_">
					<polygon
   id="XMLID_1015_"
   class="st15"
   points="15.35,32.134 15.35,32.086 15.351,32.039 18.997,34.198 18.996,34.294 "
   style="fill:#121456" />
				</g>
			</g>
		</g>
		<g
   id="XMLID_1004_">
			<g
   id="XMLID_1005_"
   class="st0"
   style="enable-background:new">
				<g
   id="XMLID_1010_">
					<polygon
   id="XMLID_1011_"
   class="st13"
   points="18.997,33.455 19.107,33.391 19.107,33.486 18.996,33.55 "
   style="fill:#0f1045" />
				</g>
				<g
   id="XMLID_1008_">
					<polygon
   id="XMLID_1009_"
   class="st14"
   points="15.351,31.295 15.461,31.231 19.107,33.391 18.997,33.455 "
   style="fill:#1b1e80" />
				</g>
				<g
   id="XMLID_1006_">
					<polygon
   id="XMLID_1007_"
   class="st15"
   points="15.35,31.391 15.35,31.343 15.351,31.295 18.997,33.455 18.996,33.55 "
   style="fill:#121456" />
				</g>
			</g>
		</g>
		<g
   id="XMLID_996_">
			<g
   id="XMLID_997_"
   class="st0"
   style="enable-background:new">
				<g
   id="XMLID_1002_">
					<polygon
   id="XMLID_1003_"
   class="st13"
   points="18.997,32.712 19.107,32.647 19.107,32.743 18.996,32.807 "
   style="fill:#0f1045" />
				</g>
				<g
   id="XMLID_1000_">
					<polygon
   id="XMLID_1001_"
   class="st14"
   points="15.351,30.552 15.461,30.488 19.107,32.647 18.997,32.712 "
   style="fill:#1b1e80" />
				</g>
				<g
   id="XMLID_998_">
					<polygon
   id="XMLID_999_"
   class="st15"
   points="15.35,30.648 15.35,30.6 15.351,30.552 18.997,32.712 18.996,32.807 "
   style="fill:#121456" />
				</g>
			</g>
		</g>
		<g
   id="XMLID_988_">
			<g
   id="XMLID_989_"
   class="st0"
   style="enable-background:new">
				<g
   id="XMLID_994_">
					<polygon
   id="XMLID_995_"
   class="st13"
   points="18.997,31.968 19.107,31.904 19.107,32 18.996,32.064 "
   style="fill:#0f1045" />
				</g>
				<g
   id="XMLID_992_">
					<polygon
   id="XMLID_993_"
   class="st14"
   points="15.351,29.809 15.461,29.745 19.107,31.904 18.997,31.968 "
   style="fill:#1b1e80" />
				</g>
				<g
   id="XMLID_990_">
					<polygon
   id="XMLID_991_"
   class="st15"
   points="15.35,29.904 15.35,29.857 15.351,29.809 18.997,31.968 18.996,32.064 "
   style="fill:#121456" />
				</g>
			</g>
		</g>
		<g
   id="XMLID_980_">
			<g
   id="XMLID_981_"
   class="st0"
   style="enable-background:new">
				<g
   id="XMLID_986_">
					<polygon
   id="XMLID_987_"
   class="st13"
   points="18.997,31.225 19.107,31.161 19.107,31.256 18.996,31.32 "
   style="fill:#0f1045" />
				</g>
				<g
   id="XMLID_984_">
					<polygon
   id="XMLID_985_"
   class="st14"
   points="15.351,29.065 15.461,29.001 19.107,31.161 18.997,31.225 "
   style="fill:#1b1e80" />
				</g>
				<g
   id="XMLID_982_">
					<polygon
   id="XMLID_983_"
   class="st15"
   points="15.35,29.161 15.35,29.113 15.351,29.065 18.997,31.225 18.996,31.32 "
   style="fill:#121456" />
				</g>
			</g>
		</g>
		<g
   id="XMLID_972_">
			<g
   id="XMLID_973_"
   class="st0"
   style="enable-background:new">
				<g
   id="XMLID_978_">
					<polygon
   id="XMLID_979_"
   class="st13"
   points="18.997,30.482 19.107,30.418 19.107,30.513 18.996,30.577 "
   style="fill:#0f1045" />
				</g>
				<g
   id="XMLID_976_">
					<polygon
   id="XMLID_977_"
   class="st14"
   points="15.351,28.322 15.461,28.258 19.107,30.418 18.997,30.482 "
   style="fill:#1b1e80" />
				</g>
				<g
   id="XMLID_974_">
					<polygon
   id="XMLID_975_"
   class="st15"
   points="15.35,28.418 15.35,28.37 15.351,28.322 18.997,30.482 18.996,30.577 "
   style="fill:#121456" />
				</g>
			</g>
		</g>
		<g
   id="XMLID_964_">
			<g
   id="XMLID_965_"
   class="st0"
   style="enable-background:new">
				<g
   id="XMLID_970_">
					<polygon
   id="XMLID_971_"
   class="st13"
   points="18.997,29.738 19.107,29.674 19.107,29.77 18.996,29.834 "
   style="fill:#0f1045" />
				</g>
				<g
   id="XMLID_968_">
					<polygon
   id="XMLID_969_"
   class="st14"
   points="15.351,27.579 15.461,27.515 19.107,29.674 18.997,29.738 "
   style="fill:#1b1e80" />
				</g>
				<g
   id="XMLID_966_">
					<polygon
   id="XMLID_967_"
   class="st15"
   points="15.35,27.674 15.35,27.627 15.351,27.579 18.997,29.738 18.996,29.834 "
   style="fill:#121456" />
				</g>
			</g>
		</g>
		<g
   id="XMLID_956_">
			<g
   id="XMLID_957_"
   class="st0"
   style="enable-background:new">
				<g
   id="XMLID_962_">
					<polygon
   id="XMLID_963_"
   class="st13"
   points="18.997,28.995 19.107,28.931 19.107,29.026 18.996,29.091 "
   style="fill:#0f1045" />
				</g>
				<g
   id="XMLID_960_">
					<polygon
   id="XMLID_961_"
   class="st14"
   points="15.351,26.835 15.461,26.771 19.107,28.931 18.997,28.995 "
   style="fill:#1b1e80" />
				</g>
				<g
   id="XMLID_958_">
					<polygon
   id="XMLID_959_"
   class="st15"
   points="15.35,26.931 15.35,26.883 15.351,26.835 18.997,28.995 18.996,29.091 "
   style="fill:#121456" />
				</g>
			</g>
		</g>
	</g>
	<g
   id="XMLID_928_">
		<g
   id="XMLID_929_">
			<g
   id="XMLID_946_">
				<g
   id="XMLID_947_"
   class="st0"
   style="enable-background:new">
					<g
   id="XMLID_952_">
						<polygon
   id="XMLID_953_"
   class="st16"
   points="14.566,31.724 14.677,31.66 14.673,33.169 14.562,33.233 "
   style="fill:#009983" />
					</g>
					<g
   id="XMLID_950_">
						<polygon
   id="XMLID_951_"
   class="st17"
   points="14.217,31.522 14.327,31.458 14.677,31.66 14.566,31.724 "
   style="fill:#00b99e" />
					</g>
					<g
   id="XMLID_948_">
						<polygon
   id="XMLID_949_"
   class="st18"
   points="14.566,31.724 14.562,33.233 14.212,33.031 14.217,31.522 "
   style="fill:#00e5c4" />
					</g>
				</g>
			</g>
			<g
   id="XMLID_938_">
				<g
   id="XMLID_939_"
   class="st0"
   style="enable-background:new">
					<g
   id="XMLID_944_">
						<polygon
   id="XMLID_945_"
   class="st16"
   points="14.566,29.142 14.677,29.078 14.673,30.587 14.562,30.651 "
   style="fill:#009983" />
					</g>
					<g
   id="XMLID_942_">
						<polygon
   id="XMLID_943_"
   class="st17"
   points="14.217,28.94 14.327,28.876 14.677,29.078 14.566,29.142 "
   style="fill:#00b99e" />
					</g>
					<g
   id="XMLID_940_">
						<polygon
   id="XMLID_941_"
   class="st18"
   points="14.566,29.142 14.562,30.651 14.212,30.449 14.217,28.94 "
   style="fill:#00e5c4" />
					</g>
				</g>
			</g>
			<g
   id="XMLID_930_">
				<g
   id="XMLID_931_"
   class="st0"
   style="enable-background:new">
					<g
   id="XMLID_936_">
						<polygon
   id="XMLID_937_"
   class="st16"
   points="14.566,26.56 14.677,26.496 14.673,28.005 14.562,28.069 "
   style="fill:#009983" />
					</g>
					<g
   id="XMLID_934_">
						<polygon
   id="XMLID_935_"
   class="st17"
   points="14.217,26.358 14.327,26.294 14.677,26.496 14.566,26.56 "
   style="fill:#00b99e" />
					</g>
					<g
   id="XMLID_932_">
						<polygon
   id="XMLID_933_"
   class="st18"
   points="14.566,26.56 14.562,28.069 14.212,27.867 14.217,26.358 "
   style="fill:#00e5c4" />
					</g>
				</g>
			</g>
		</g>
	</g>
</g>
<g
   id="XMLID_646_"
   transform="matrix(1.4079622,0,0,1.2753804,-8.6732638,-11.219196)">
	
		<radialGradient
   id="XMLID_10_"
   cx="-704.8009"
   cy="6.1258998"
   r="3.4421999"
   gradientTransform="matrix(0.5178,-0.8555,-0.8555,-0.5178,395.4174,-561.1978)"
   gradientUnits="userSpaceOnUse">
		<stop
   offset="0"
   style="stop-color:#FFFEFD"
   id="stop194" />
		<stop
   offset="1"
   style="stop-color:#00E5C4"
   id="stop196" />
	</radialGradient>
	<path
   id="XMLID_650_"
   class="st19"
   d="m 29.137,38.933 -0.88,-1.152 c -3.887,1.634 -6.807,2.403 -6.807,2.403 -1.066,-0.311 -0.369,-1.54 -0.369,-1.54 0,0 4.089,-1.586 5.178,-3.364"
   inkscape:connector-curvature="0"
   style="fill:url(#XMLID_10_)" />
	
		<radialGradient
   id="XMLID_11_"
   cx="-699.47498"
   cy="5.2526999"
   r="3.2612"
   gradientTransform="matrix(0.5178,-0.8555,-0.8555,-0.5178,395.4174,-561.1978)"
   gradientUnits="userSpaceOnUse">
		<stop
   offset="0"
   style="stop-color:#FFFEFD"
   id="stop200" />
		<stop
   offset="1"
   style="stop-color:#00E5C4"
   id="stop202" />
	</radialGradient>
	<path
   id="XMLID_649_"
   class="st20"
   d="m 32.667,35.507 c 0,0 -0.261,-1.564 -1.145,-2.227 l -6.035,-0.47 c 0,0 -0.649,0.099 -0.587,0.825 l 0.105,1.48"
   inkscape:connector-curvature="0"
   style="fill:url(#XMLID_11_)" />
	
		<radialGradient
   id="XMLID_12_"
   cx="26.7679"
   cy="11.1695"
   r="4.7922001"
   gradientTransform="matrix(1,0,0,-1,0,49)"
   gradientUnits="userSpaceOnUse">
		<stop
   offset="0"
   style="stop-color:#FFFEFD"
   id="stop206" />
		<stop
   offset="1"
   style="stop-color:#00E5C4"
   id="stop208" />
	</radialGradient>
	<path
   id="XMLID_648_"
   class="st21"
   d="m 26.357,37.071 c 0,0 -2.248,1.58 -5.353,2.267 0,0 -0.633,0.415 0.446,0.845 0,0 2.891,1.039 6.778,-0.595 l 0.872,1.088 c 0,0 0.602,0.945 1.151,-0.063 0,0 1.247,-1.702 2.242,-4.077 0,0 0.938,-1.604 -1.031,-1.691 l -5.888,-0.262 c 0,0 -1.124,0.101 -0.25,1.028 z"
   inkscape:connector-curvature="0"
   style="fill:url(#XMLID_12_)" />
	
		<linearGradient
   id="XMLID_13_"
   gradientUnits="userSpaceOnUse"
   x1="-3487.0806"
   y1="1827.8481"
   x2="-3485.0586"
   y2="1822.5289"
   gradientTransform="matrix(-0.355,-0.9348,0.9348,-0.355,-2914.0796,-2576.0588)">
		<stop
   offset="0"
   style="stop-color:#336BD4"
   id="stop212" />
		<stop
   offset="0.4286"
   style="stop-color:#00B0ED"
   id="stop214" />
		<stop
   offset="0.5761"
   style="stop-color:#40C6F3"
   id="stop216" />
		<stop
   offset="0.7202"
   style="stop-color:#78D9F8"
   id="stop218" />
		<stop
   offset="0.8434"
   style="stop-color:#A0E7FC"
   id="stop220" />
		<stop
   offset="0.9407"
   style="stop-color:#B9EFFE"
   id="stop222" />
		<stop
   offset="1"
   style="stop-color:#C2F2FF"
   id="stop224" />
	</linearGradient>
	<path
   id="XMLID_647_"
   class="st22"
   d="m 32.359,35.066 c 0,0 -0.15,-0.067 -1.254,-0.147 0,0 -3.947,-0.273 -4.848,-0.28 0,0 -0.901,-0.007 -1.124,0.128 0,0 -0.761,-0.559 4.582,-0.093 -0.001,0 2.268,0.061 2.644,0.392 z"
   inkscape:connector-curvature="0"
   style="fill:url(#XMLID_13_)" />
</g>
<g
   id="XMLID_640_"
   class="st23"
   style="opacity:0.2"
   transform="matrix(1.4079622,0,0,1.2753804,-8.6718558,-11.258733)">
	<g
   id="XMLID_728_">
		
			<linearGradient
   id="XMLID_14_"
   gradientUnits="userSpaceOnUse"
   x1="23.585501"
   y1="3.7722001"
   x2="23.585501"
   y2="3.7709999"
   gradientTransform="matrix(1,0,0,-1,0,49)">
			<stop
   offset="0"
   style="stop-color:#498DEA"
   id="stop229" />
			<stop
   offset="1"
   style="stop-color:#020D83"
   id="stop231" />
		</linearGradient>
		<polygon
   id="XMLID_736_"
   class="st24"
   points="23.582,45.228 23.586,45.228 23.589,45.229 "
   style="fill:url(#XMLID_14_)" />
		
			<linearGradient
   id="XMLID_15_"
   gradientUnits="userSpaceOnUse"
   x1="15.413"
   y1="48.997002"
   x2="15.413"
   y2="3.74"
   gradientTransform="matrix(1,0,0,-1,0,49)">
			<stop
   offset="0.202"
   style="stop-color:#00CBD4;stop-opacity:0"
   id="stop235" />
			<stop
   offset="1"
   style="stop-color:#00F4FF"
   id="stop237" />
		</linearGradient>
		<path
   id="XMLID_735_"
   class="st25"
   d="m 24.022,45.259 v 0 c -0.019,10e-4 -0.036,0 -0.053,-10e-4 -0.019,0 -0.037,-0.002 -0.055,-0.002 H 23.907 C 23.871,45.255 23.836,45.254 23.8,45.251 23.765,45.249 23.732,45.245 23.698,45.242 23.662,45.238 23.625,45.235 23.589,45.23 c -0.002,0 -0.005,0 -0.007,-10e-4 -0.03,-0.004 -0.061,-0.007 -0.091,-0.012 -0.001,0 -0.002,0 -0.004,-10e-4 -0.005,0 -0.01,-10e-4 -0.015,-0.002 -0.03,-0.005 -0.058,-0.01 -0.087,-0.015 -0.004,-10e-4 -0.007,-10e-4 -0.011,-0.002 -0.002,0 -0.005,-0.001 -0.007,-0.001 -0.027,-0.005 -0.056,-0.01 -0.083,-0.016 -0.016,-0.004 -0.031,-0.007 -0.046,-0.011 -0.029,-0.007 -0.057,-0.014 -0.084,-0.021 -0.001,0 -0.004,-0.001 -0.005,-0.001 -0.026,-0.007 -0.051,-0.014 -0.076,-0.021 -0.03,-0.009 -0.06,-0.017 -0.088,-0.027 -0.019,-0.006 -0.037,-0.012 -0.056,-0.019 -0.03,-0.011 -0.061,-0.022 -0.091,-0.033 -0.004,-10e-4 -0.007,-0.002 -0.011,-0.004 -0.035,-0.014 -0.067,-0.027 -0.1,-0.042 -0.076,-0.032 -0.148,-0.069 -0.217,-0.109 L 7.458,36.202 C 7.162,36.031 6.967,35.824 6.874,35.604 6.859,35.567 6.847,35.53 6.838,35.492 6.834,35.478 6.831,35.466 6.828,35.454 6.821,35.419 6.817,35.385 6.814,35.35 c 0,-0.004 -0.001,-0.007 -0.001,-0.01 0,-0.004 -10e-4,-0.006 -10e-4,-0.01 L 6.808,36.528 6.804,36.526 6.839,0.003 23.998,9.647 24.009,25.344 Z"
   inkscape:connector-curvature="0"
   style="fill:url(#XMLID_15_)" />
	</g>
	<g
   id="XMLID_645_">
		
			<linearGradient
   id="XMLID_16_"
   gradientUnits="userSpaceOnUse"
   x1="23.9995"
   y1="13.675"
   x2="23.9995"
   y2="1"
   gradientTransform="matrix(1,0,0,-1,0,49)">
			<stop
   offset="0"
   style="stop-color:#498DEA"
   id="stop242" />
			<stop
   offset="1"
   style="stop-color:#020D83"
   id="stop244" />
		</linearGradient>
		<path
   id="XMLID_726_"
   class="st26"
   d="m 41.197,35.332 v 0.255 l -0.002,0.936 -0.005,1.528 v 0.02 c 0,0.015 -0.004,0.03 -0.005,0.045 -0.002,0.022 -0.004,0.046 -0.007,0.069 -10e-4,0.004 -10e-4,0.007 -10e-4,0.011 -0.004,0.015 -0.009,0.03 -0.014,0.045 -0.005,0.021 -0.011,0.043 -0.019,0.064 -10e-4,0.005 -0.002,0.01 -0.004,0.014 -0.005,0.014 -0.012,0.027 -0.019,0.04 -0.01,0.024 -0.02,0.046 -0.032,0.068 -0.002,0.006 -0.004,0.011 -0.007,0.017 -0.006,0.011 -0.015,0.021 -0.021,0.032 -0.016,0.025 -0.033,0.051 -0.052,0.076 -0.005,0.007 -0.009,0.015 -0.015,0.022 -0.014,0.017 -0.029,0.033 -0.042,0.05 -0.005,0.006 -0.01,0.012 -0.015,0.017 -0.025,0.027 -0.051,0.053 -0.078,0.079 -0.005,0.004 -0.01,0.007 -0.014,0.011 -0.021,0.019 -0.045,0.037 -0.068,0.056 -0.02,0.016 -0.038,0.032 -0.061,0.048 -0.025,0.017 -0.052,0.035 -0.078,0.052 -0.02,0.012 -0.037,0.026 -0.057,0.038 -0.009,0.005 -0.017,0.01 -0.027,0.015 L 25.6,47.63 c -0.066,0.038 -0.135,0.073 -0.207,0.105 -0.02,0.009 -0.041,0.017 -0.062,0.026 -0.056,0.024 -0.113,0.046 -0.172,0.066 -0.012,0.004 -0.025,0.01 -0.038,0.015 -0.007,0.002 -0.016,0.004 -0.025,0.006 -0.036,0.012 -0.074,0.022 -0.112,0.032 -0.03,0.007 -0.057,0.016 -0.087,0.024 -0.04,0.01 -0.081,0.017 -0.12,0.026 -0.024,0.005 -0.047,0.01 -0.071,0.015 -0.005,0 -0.009,10e-4 -0.012,10e-4 -0.082,0.015 -0.165,0.026 -0.249,0.035 -0.006,10e-4 -0.012,0.002 -0.019,0.002 -0.02,0.002 -0.04,0.002 -0.06,0.004 -0.048,0.005 -0.098,0.009 -0.148,0.01 -0.011,10e-4 -0.024,0.002 -0.035,0.002 -0.02,10e-4 -0.04,0 -0.061,10e-4 H 23.958 C 23.939,48 23.921,47.998 23.902,47.998 23.865,47.997 23.828,47.994 23.792,47.992 23.775,47.991 23.759,47.991 23.742,47.99 23.725,47.989 23.707,47.985 23.69,47.984 23.653,47.98 23.617,47.977 23.581,47.972 23.564,47.971 23.546,47.97 23.529,47.967 23.514,47.965 23.498,47.961 23.483,47.958 23.443,47.952 23.405,47.946 23.366,47.938 23.349,47.934 23.33,47.932 23.311,47.928 23.299,47.926 23.287,47.922 23.275,47.919 23.229,47.909 23.184,47.898 23.14,47.886 23.121,47.881 23.102,47.877 23.083,47.872 23.077,47.871 23.071,47.867 23.064,47.866 22.983,47.842 22.905,47.816 22.828,47.787 22.824,47.786 22.821,47.785 22.817,47.783 22.782,47.769 22.75,47.754 22.718,47.74 22.699,47.731 22.68,47.724 22.661,47.715 22.606,47.689 22.552,47.662 22.501,47.631 L 7.448,38.941 C 7.016,38.692 6.802,38.366 6.802,38.038 l 0.005,-1.515 0.004,-1.198 c 0,0.004 0.001,0.006 0.001,0.01 0.002,0.069 0.016,0.139 0.04,0.208 0.006,0.019 0.014,0.037 0.021,0.056 0.093,0.219 0.288,0.427 0.584,0.598 l 15.052,8.69 c 0.069,0.04 0.141,0.077 0.217,0.109 0.033,0.015 0.066,0.029 0.1,0.042 0.033,0.014 0.067,0.026 0.102,0.037 0.019,0.006 0.037,0.012 0.056,0.019 0.082,0.029 0.166,0.052 0.253,0.071 0.015,0.004 0.03,0.007 0.046,0.011 0.033,0.007 0.067,0.015 0.102,0.02 0.033,0.007 0.067,0.014 0.102,0.017 0.001,10e-4 0.002,10e-4 0.004,10e-4 0.03,0.005 0.061,0.009 0.091,0.012 0.002,10e-4 0.005,10e-4 0.007,10e-4 0.036,0.005 0.073,0.009 0.109,0.012 0.033,0.005 0.068,0.007 0.102,0.009 0.019,0.001 0.038,0.002 0.057,0.004 0.055,0.004 0.109,0.005 0.165,0.006 h 0.016 c 0.139,10e-4 0.277,-0.006 0.413,-0.021 0.079,-0.007 0.159,-0.02 0.237,-0.033 0.004,0 0.009,0 0.012,-10e-4 0.005,-0.001 0.01,-0.002 0.015,-0.002 0.063,-0.012 0.126,-0.025 0.188,-0.041 0.068,-0.015 0.135,-0.033 0.2,-0.055 0.048,-0.015 0.097,-0.031 0.143,-0.05 0.029,-0.011 0.055,-0.022 0.082,-0.033 0.004,-10e-4 0.006,-0.002 0.01,-0.004 0.021,-0.009 0.042,-0.017 0.063,-0.027 0.029,-0.012 0.056,-0.026 0.084,-0.04 0.041,-0.02 0.082,-0.041 0.122,-0.064 l 14.955,-8.69 c 0.03,-0.017 0.056,-0.036 0.083,-0.053 0.002,-10e-4 0.005,-0.004 0.009,-0.006 0.024,-0.016 0.047,-0.032 0.069,-0.047 0.02,-0.012 0.036,-0.027 0.055,-0.042 0.002,-0.002 0.005,-0.004 0.007,-0.006 0.019,-0.014 0.037,-0.029 0.055,-0.043 0.006,-0.005 0.011,-0.01 0.017,-0.016 0.015,-0.014 0.029,-0.027 0.043,-0.041 0.015,-0.015 0.03,-0.03 0.043,-0.045 0.001,-0.001 0.001,-0.001 0.001,-0.002 0.005,-0.005 0.01,-0.011 0.014,-0.015 0.01,-0.011 0.019,-0.022 0.027,-0.035 0.005,-0.006 0.01,-0.012 0.015,-0.019 0.006,-0.006 0.011,-0.012 0.015,-0.019 0.012,-0.015 0.021,-0.031 0.031,-0.046 0.007,-0.011 0.015,-0.021 0.021,-0.031 0.01,-0.016 0.021,-0.032 0.03,-0.048 0.022,-0.04 0.041,-0.081 0.055,-0.122 0.004,-0.011 0.006,-0.021 0.01,-0.032 0.004,-0.011 0.006,-0.022 0.009,-0.033 10e-4,-0.004 0.002,-0.009 0.004,-0.012 0.004,-0.015 0.007,-0.029 0.01,-0.043 10e-4,-0.005 10e-4,-0.011 10e-4,-0.016 0.006,-0.031 0.01,-0.062 0.011,-0.093 z"
   inkscape:connector-curvature="0"
   style="fill:url(#XMLID_16_)" />
		
			<linearGradient
   id="XMLID_17_"
   gradientUnits="userSpaceOnUse"
   x1="32.597"
   y1="48.997002"
   x2="32.597"
   y2="3.7439001"
   gradientTransform="matrix(1,0,0,-1,0,49)">
			<stop
   offset="0.202"
   style="stop-color:#00CBD4;stop-opacity:0"
   id="stop248" />
			<stop
   offset="1"
   style="stop-color:#00F4FF"
   id="stop250" />
		</linearGradient>
		<path
   id="XMLID_723_"
   class="st27"
   d="m 41.197,35.332 c -0.001,0.031 -0.005,0.062 -0.011,0.092 0,0.005 0,0.011 -10e-4,0.016 -0.002,0.015 -0.006,0.029 -0.01,0.043 -10e-4,0.004 -0.002,0.009 -0.004,0.012 -0.002,0.011 -0.006,0.022 -0.009,0.033 -0.004,0.011 -0.006,0.021 -0.01,0.032 -0.014,0.041 -0.032,0.082 -0.055,0.122 -0.009,0.016 -0.02,0.032 -0.03,0.048 -0.006,0.01 -0.014,0.02 -0.021,0.031 -0.01,0.015 -0.019,0.031 -0.031,0.046 -0.004,0.006 -0.009,0.012 -0.015,0.019 -0.005,0.006 -0.01,0.012 -0.015,0.019 -0.009,0.012 -0.017,0.024 -0.027,0.035 -0.004,0.004 -0.009,0.01 -0.014,0.015 0,10e-4 0,10e-4 -0.001,0.002 -0.014,0.015 -0.029,0.03 -0.043,0.045 -0.015,0.014 -0.029,0.027 -0.043,0.041 -0.006,0.006 -0.011,0.011 -0.017,0.016 -0.017,0.015 -0.036,0.03 -0.055,0.043 -0.002,0.002 -0.005,0.004 -0.007,0.006 -0.017,0.014 -0.036,0.027 -0.055,0.042 -0.022,0.015 -0.046,0.031 -0.069,0.047 -0.004,0.002 -0.006,0.005 -0.009,0.006 -0.027,0.017 -0.053,0.036 -0.083,0.053 l -14.955,8.69 c -0.04,0.024 -0.081,0.045 -0.122,0.064 -0.029,0.014 -0.056,0.027 -0.084,0.04 -0.021,0.01 -0.042,0.019 -0.063,0.027 -0.004,10e-4 -0.006,0.002 -0.01,0.004 -0.027,0.011 -0.053,0.022 -0.082,0.033 -0.046,0.019 -0.094,0.035 -0.143,0.05 -0.037,0.011 -0.076,0.021 -0.113,0.032 -0.029,0.007 -0.057,0.016 -0.087,0.022 -0.062,0.016 -0.125,0.029 -0.188,0.041 -0.005,0 -0.01,0.001 -0.015,0.002 -0.004,10e-4 -0.009,10e-4 -0.012,10e-4 -0.078,0.014 -0.157,0.026 -0.237,0.033 -0.136,0.015 -0.274,0.022 -0.413,0.021 V 45.255 L 24.016,25.34 23.997,9.647 41.163,0.003 41.196,35.276 Z"
   inkscape:connector-curvature="0"
   style="fill:url(#XMLID_17_)" />
		
			<linearGradient
   id="XMLID_18_"
   gradientUnits="userSpaceOnUse"
   x1="41.195999"
   y1="13.412"
   x2="41.195999"
   y2="12.476"
   gradientTransform="matrix(1,0,0,-1,0,49)">
			<stop
   offset="0.202"
   style="stop-color:#00CBD4;stop-opacity:0"
   id="stop254" />
			<stop
   offset="1"
   style="stop-color:#00F4FF"
   id="stop256" />
		</linearGradient>
		<polygon
   id="XMLID_651_"
   class="st28"
   points="41.194,36.524 41.197,35.588 41.198,36.521 "
   style="fill:url(#XMLID_18_)" />
	</g>
</g>
</svg>